<svg width="22" height="22" viewBox="0 0 22 22" fill="none" xmlns="http://www.w3.org/2000/svg">
<g clip-path="url(#clip0_611_9123)">
<path d="M21.5062 9.35501C21.5062 8.83457 21.0843 8.41279 20.5639 8.41279V8.4127H19.6167V8.41279C19.0116 8.41356 18.3888 8.39246 18.1241 8.15244C17.75 7.80658 17.6936 7.18551 17.5806 6.34569C17.3689 4.71537 17.2348 4.63064 16.9806 4.08021C16.0562 2.11813 13.5508 0.643094 11.8287 0.438477H7.16362C3.49357 0.438477 0.494141 3.445 0.494141 7.115V14.8996C0.494141 18.5624 3.49353 21.562 7.16362 21.562H14.8281C18.498 21.562 21.4764 18.5624 21.4976 14.8995C21.4976 14.8994 21.5062 9.3688 21.5062 9.35501ZM7.24836 5.89396H10.9465C11.6522 5.89396 12.224 6.4657 12.224 7.16429C12.224 7.86309 11.6523 8.44179 10.9465 8.44179H7.24836C6.54246 8.44179 5.97072 7.86313 5.97072 7.16429C5.97072 6.4657 6.54238 5.89396 7.24836 5.89396ZM14.7646 16.0711H7.24836C6.54246 16.0711 5.97072 15.4924 5.97072 14.8008C5.97072 14.102 6.54242 13.5304 7.24836 13.5304H14.7646C15.4634 13.5304 16.035 14.1021 16.035 14.8008C16.0351 15.4923 15.4634 16.0711 14.7646 16.0711Z" fill="black"/>
<path d="M14.8269 22H7.16241C5.27075 22 3.48768 21.2592 2.14164 19.9141C0.795856 18.5693 0.0546875 16.7883 0.0546875 14.8993V7.11472C0.0546875 5.22238 0.795727 3.4381 2.14125 2.09056C3.48746 0.742414 5.27066 0 7.16241 0H11.8274C11.8448 0 11.862 0.000988281 11.8791 0.00305078C13.7456 0.224855 16.3778 1.77512 17.3758 3.8931C17.4106 3.96834 17.4418 4.03214 17.4713 4.09256C17.7017 4.56431 17.8304 4.87627 18.0139 6.28899L18.0377 6.468C18.1226 7.11004 18.1896 7.61711 18.4203 7.83032C18.5255 7.92571 18.9283 7.97569 19.6149 7.97423L20.5626 7.97414C21.324 7.97427 21.9433 8.59362 21.9433 9.35473C21.9433 9.36869 21.935 14.674 21.9346 14.8998C21.912 18.8158 18.7235 22 14.8269 22ZM7.16241 0.876477C3.7265 0.876477 0.931207 3.67495 0.931207 7.11477V14.8993C0.931207 18.3313 3.72654 21.1235 7.16241 21.1235H14.8269C18.243 21.1235 21.0383 18.3302 21.0581 14.8967C21.0581 14.8966 21.0668 9.39791 21.0668 9.35468C21.0667 9.07689 20.8406 8.85083 20.5627 8.85083L19.6154 8.85075C18.8939 8.85173 18.2112 8.82398 17.8284 8.47683C17.3622 8.0459 17.2769 7.40034 17.1688 6.58294L17.145 6.40393C16.9713 5.06597 16.8631 4.84438 16.6838 4.47726C16.6517 4.41156 16.6178 4.34216 16.5815 4.26362C15.7446 2.48755 13.4405 1.08277 11.8008 0.876477H7.16241ZM14.7634 16.5092H7.24714C6.30101 16.5092 5.53127 15.7427 5.53127 14.8006C5.53127 13.8584 6.30101 13.0919 7.24714 13.0919H14.7634C15.7056 13.0919 16.4721 13.8584 16.4721 14.8006C16.4721 15.7427 15.7056 16.5092 14.7634 16.5092ZM7.24714 13.9684C6.78432 13.9684 6.40775 14.3418 6.40775 14.8006C6.40775 15.2516 6.79215 15.6326 7.24714 15.6326H14.7634C15.2145 15.6326 15.5956 15.2516 15.5956 14.8006C15.5956 14.3417 15.2222 13.9684 14.7634 13.9684H7.24714ZM10.9452 8.87984H7.2471C6.30097 8.87984 5.53123 8.11014 5.53123 7.16414C5.53123 6.222 6.30097 5.45548 7.2471 5.45548H10.9452C11.8912 5.45548 12.6609 6.22196 12.6609 7.16414C12.6609 8.11014 11.8913 8.87984 10.9452 8.87984ZM7.24714 6.33196C6.78432 6.33196 6.40775 6.70527 6.40775 7.16409C6.40775 7.62682 6.78428 8.00327 7.24714 8.00327H10.9452C11.408 8.00327 11.7845 7.62682 11.7845 7.16409C11.7845 6.70523 11.408 6.33196 10.9452 6.33196H7.24714Z" fill="black"/>
</g>
<defs>
<clipPath id="clip0_611_9123">
<rect width="22" height="22" fill="white"/>
</clipPath>
</defs>
</svg>
