<svg width="190" height="57" viewBox="0 0 190 57" fill="none" xmlns="http://www.w3.org/2000/svg">
<path d="M3.47577 44.3963V32.599H1.14288L0 27.9506H3.47577V18.2437H19.3163V23.0401H8.25729V27.9506H16.0025V32.599H8.25729V39.5824H19.3188L19.3163 44.3963H3.47577Z" fill="#58595D"/>
<path d="M33.1714 44.3963L35.5043 31.6428L39.9835 44.7664L42.3478 44.7603L46.7263 31.6994L49.0982 44.3963H53.9682L48.6366 18.2437H45.9901L41.169 34.2791L35.9027 18.2437H33.193L28.3055 44.3963H33.1714Z" fill="#58595D"/>
<path d="M71.2966 35.2457L74.0603 27.4018L76.6873 35.2498L71.2966 35.2457ZM75.0319 17.8757H73.5138L62.9191 44.3964H68.0728L69.8083 39.4735H78.0989L79.7451 44.3964H84.8643L75.0319 17.8757Z" fill="#58595D"/>
<path d="M111.218 41.8137V30.1646H103.426V34.9311H106.434V38.6901C104.917 39.9137 102.895 40.3127 101.027 39.7574L100.997 39.7492C98.7314 39.1837 96.9198 37.4831 96.2186 35.256V35.2601C95.5112 33.0044 95.4135 30.6036 95.9379 28.2974L95.9431 28.2789C96.3563 26.1732 97.624 24.3338 99.4429 23.1946L99.4007 23.2182C100.979 22.372 102.746 22.2456 104.485 22.6794C105.739 23.063 106.901 23.7035 107.897 24.559L110.037 20.2314C107.968 18.3981 105.299 17.4471 102.543 17.6548C98.3612 17.6219 94.484 19.8201 92.3639 23.4218C89.6347 28.0558 89.7323 33.8392 92.0261 38.7045C93.6708 42.186 96.7666 44.2156 100.985 44.6083C105.2 45.0011 108.258 43.9359 111.218 41.8137Z" fill="#58595D"/>
<path d="M166.185 27.9506V18.2437H182.025V23.0401H170.966V27.9506H178.711V32.599H170.966V39.5824H182.028H182.025V44.3963H166.185V32.599H163.853L162.707 27.9506H166.185Z" fill="#58595D"/>
<path d="M135.468 44.3963V18.2437H138.052L149.049 33.3125V18.2437H153.765V44.7644H151.551L140.185 28.7516V44.3963H135.468Z" fill="#58595D"/>
<path d="M121.472 47.9566L127.249 19.6037L123.424 18.666L118.875 47.1484L121.472 47.9566Z" fill="#58595D"/>
<path d="M124.799 10.064L123.539 17.9223L127.45 18.6039L129.151 10.25L124.799 10.064Z" fill="#58595D"/>
<path d="M124.799 10.064L123.539 17.9223L127.45 18.6039L129.151 10.25L124.799 10.064Z" fill="#58595D"/>
<path d="M127.104 11.1364L126.58 11.3986L126.494 11.9702L126.08 11.5549L125.502 11.669L125.779 11.1415L125.494 10.6224L126.084 10.718L126.488 10.2913L126.578 10.8794L127.104 11.1364Z" fill="#58595D"/>
<path d="M127.816 13.5752L127.291 13.8384L127.204 14.407L126.79 13.9926L126.211 14.1067L126.488 13.5803L126.203 13.06L126.794 13.1557L127.199 12.73L127.287 13.3171L127.816 13.5752Z" fill="#58595D"/>
<path d="M121.188 8.85537L119.6 8.40095L118.326 9.4476L118.273 7.7984L116.884 6.90695L118.434 6.34559L118.849 4.74683L119.861 6.04847L121.511 5.94981L120.589 7.31725L121.188 8.85537Z" fill="#58595D"/>
<path d="M118.39 13.3954L119.161 12.1842L118.597 10.8589L119.996 11.2166L121.07 10.2708L121.169 11.7184L122.4 12.4567L121.058 12.9841L120.737 14.3875L119.812 13.2751L118.39 13.3954Z" fill="#58595D"/>
<path d="M115.016 12.541L114.098 12.2685L113.347 12.87L113.323 11.9087L112.517 11.3854L113.43 11.0636L113.68 10.1423L114.26 10.9022L115.225 10.8528L114.677 11.6424L115.016 12.541Z" fill="#58595D"/>
<path d="M111.959 7.86014L112.667 6.688L112.096 5.44394L113.431 5.75444L114.441 4.8291L114.558 6.19347L115.742 6.86383L114.489 7.40056L114.215 8.73717L113.318 7.70588L111.959 7.86014Z" fill="#58595D"/>
<path d="M109.297 4.91945L108.261 4.60381L107.414 5.2731L107.394 4.19046L106.493 3.59308L107.521 3.23944L107.811 2.19995L108.462 3.06464L109.543 3.02244L108.919 3.90568L109.297 4.91945Z" fill="#58595D"/>
<path d="M107.796 10.3874L108.526 9.09913L107.887 7.77685L109.332 8.07397L110.401 7.05103L110.557 8.51922L111.858 9.22042L110.51 9.82812L110.251 11.2696L109.256 10.1807L107.796 10.3874Z" fill="#58595D"/>
<path d="M105.796 10.1998L104.955 9.7588L104.117 10.2029L104.273 9.26626L103.592 8.6072L104.53 8.46526L104.946 7.60889L105.37 8.4602L106.309 8.58971L105.633 9.25901L105.796 10.1998Z" fill="#58595D"/>
<path d="M101.896 5.03529L102.808 3.73776L102.261 2.2521L103.774 2.71881L105.014 1.73999L105.039 3.32337L106.356 4.19943L104.85 4.71145L104.426 6.23522L103.48 4.97054L101.896 5.03529Z" fill="#58595D"/>
<path d="M100.251 8.24608L99.0778 8.00961L98.2183 8.84041L98.0877 7.65385L97.0327 7.09658L98.1154 6.60005L98.3221 5.42065L99.1282 6.29872L100.313 6.13428L99.7265 7.17786L100.251 8.24608Z" fill="#58595D"/>
<path d="M93.8336 3.90621L94.3148 2.68165L93.5796 1.59069L94.9008 1.66785L95.7131 0.633545L96.0349 1.90948L97.2697 2.36189L96.1614 3.0672L96.1109 4.38736L95.1013 3.54835L93.8336 3.90621Z" fill="#58595D"/>
<path d="M92.5167 7.49737L91.6637 7.24036L90.9646 7.80068L90.9445 6.90304L90.197 6.40852L91.0422 6.11244L91.2849 5.24976L91.8241 5.96641L92.7171 5.92219L92.202 6.65941L92.5167 7.49737Z" fill="#58595D"/>
<path d="M90.01 4.60793L89.5879 3.66405L88.5664 3.47791L89.335 2.78399L89.1993 1.76294L90.0916 2.27703L91.0254 1.82767L90.8145 2.83946L91.524 3.58688L90.4973 3.69595L90.01 4.60793Z" fill="#58595D"/>
<path d="M86.6207 6.61153L86.9815 5.68724L86.4299 4.86771L87.4144 4.93149L88.0324 4.15112L88.2771 5.10732L89.204 5.45076L88.3737 5.98225L88.3357 6.96835L87.5717 6.33599L86.6207 6.61153Z" fill="#58595D"/>
<path d="M84.9698 3.10254L84.507 3.02852L84.1744 3.36986L84.1097 2.90922L83.6799 2.70361L84.0984 2.48871L84.1652 2.02295L84.4938 2.35502L84.9528 2.27174L84.7415 2.68813L84.9698 3.10254Z" fill="#58595D"/>
<path d="M81.8463 2.71896L81.0469 2.56272L80.465 3.12925L80.3667 2.32414L79.6511 1.9509L80.3864 1.60852L80.5149 0.807617L81.0834 1.40091L81.8736 1.28572L81.4834 1.99103L81.8463 2.71896Z" fill="#58595D"/>
<path d="M80.3351 6.57563L80.7706 5.54028L80.1548 4.59743L81.2739 4.68894L81.9962 3.82422L82.2537 4.91414L83.2875 5.32127L82.335 5.90529L82.2753 7.02288L81.4116 6.29295L80.3351 6.57563Z" fill="#58595D"/>
<path d="M75.5371 3.59817L74.6113 3.4511L73.963 4.1328L73.814 3.20536L72.9615 2.79717L73.8047 2.37161L73.9209 1.43384L74.5892 2.10323L75.5145 1.92742L75.0853 2.76843L75.5371 3.59817Z" fill="#58595D"/>
<path d="M68.2725 6.09458L68.599 4.99131L67.8602 4.09892L69.0118 4.0629L69.6358 3.09229L70.0343 4.17599L71.1488 4.46805L70.2281 5.17534L70.3017 6.32484L69.3464 5.67715L68.2725 6.09458Z" fill="#58595D"/>
<path d="M64.4313 4.94899L63.8036 4.95721L63.4478 5.47741L63.2437 4.88319L62.6473 4.71148L63.1532 4.33928L63.1275 3.70801L63.639 4.07092L64.2277 3.85602L64.0431 4.45342L64.4313 4.94899Z" fill="#58595D"/>
<path d="M57.2279 7.1037L57.3816 6.38599L56.8696 5.85346L57.5965 5.77322L57.9455 5.11719L58.2561 5.79071L58.9748 5.9202L58.4257 6.41789L58.5281 7.14993L57.8921 6.78492L57.2279 7.1037Z" fill="#58595D"/>
<path d="M52.1408 8.40975L51.4781 8.43648L51.1234 9.00408L50.8891 8.3769L50.2423 8.21643L50.7574 7.80107L50.7122 7.13379L51.2761 7.50398L51.8951 7.25309L51.7157 7.89457L52.1408 8.40975Z" fill="#58595D"/>
<path d="M123.784 14.6675L123.128 14.6974L122.769 15.2629L122.538 14.6388L121.887 14.4784L122.414 14.063L122.368 13.3967L122.917 13.7628L123.542 13.5119L123.361 14.1566L123.784 14.6675Z" fill="#58595D"/>
<path d="M95.1526 6.71717L94.3804 6.51976L93.7779 7.04924L93.7276 6.25443L93.0417 5.8473L93.782 5.55125L93.9558 4.77393L94.4657 5.38468L95.2575 5.31161L94.8359 5.98922L95.1526 6.71717Z" fill="#58595D"/>
<path d="M77.3567 5.72312L77.5968 5.08257L77.2144 4.51709L77.8965 4.55415L78.3227 4.01025L78.4914 4.6765L79.1416 4.90475L78.5602 5.27799L78.5443 5.96685L78.0101 5.53299L77.3567 5.72312Z" fill="#58595D"/>
<path d="M71.7791 3.26062L71.3098 3.18755L70.9879 3.52995L70.9155 3.06426L70.495 2.86474L70.9134 2.64881L70.9725 2.18408L71.3036 2.5131L71.7663 2.42781L71.5523 2.84621L71.7791 3.26062Z" fill="#58595D"/>
<path d="M65.231 5.49771L65.3368 5.06477L65.0381 4.73069L65.4849 4.69775L65.7162 4.31323L65.8858 4.73069L66.3166 4.82418L65.9743 5.1131L66.0201 5.55835L65.6365 5.32081L65.231 5.49771Z" fill="#58595D"/>
<path d="M60.9348 6.53457L60.5364 6.56026L60.3374 6.91193L60.176 6.53658L59.7848 6.45224L60.0907 6.1922L60.0526 5.78906L60.3976 6.00193L60.7662 5.83642L60.6665 6.23325L60.9348 6.53457Z" fill="#58595D"/>
<path d="M53.0591 7.03485L52.6607 6.90125L52.3295 7.15004V6.73773L51.9908 6.49717L52.3836 6.37177L52.5089 5.97485L52.7496 6.31104L53.1666 6.2987L52.9198 6.6411L53.0591 7.03485Z" fill="#58595D"/>
<path d="M48.8599 10.0413L48.3314 10.0372L48.0307 10.4732L47.8744 9.96837L47.3732 9.82024L47.7952 9.50974L47.784 8.98438L48.2075 9.29182L48.7058 9.11599L48.5407 9.62283L48.8599 10.0413Z" fill="#58595D"/>
<path d="M55.0937 13.1585L54.5663 13.1555L54.2685 13.5893L54.1103 13.0877L53.6069 12.9354L54.0285 12.627L54.0183 12.1016L54.4424 12.41L54.9405 12.2342L54.7765 12.739L55.0937 13.1585Z" fill="#58595D"/>
<path d="M77.2147 2.91214L77.3859 2.38266L77.0574 1.93845L77.6074 1.94573L77.9333 1.49121L78.0942 2.02069L78.633 2.18218L78.1791 2.50709L78.1853 3.06122L77.7359 2.73018L77.2147 2.91214Z" fill="#58595D"/>
<path d="M60.5884 4.71636L60.721 4.32048L60.468 3.98737H60.885L61.1214 3.65015L61.251 4.046L61.6499 4.17036L61.3076 4.41303L61.3122 4.82838L60.9791 4.5817L60.5884 4.71636Z" fill="#58595D"/>
<path d="M75.0753 5.81979L74.5608 5.77557L74.2384 6.17764L74.115 5.67175L73.6298 5.48162L74.0744 5.21735L74.1084 4.69702L74.5016 5.03637L74.9988 4.90065L74.7972 5.38179L75.0753 5.81979Z" fill="#58595D"/>
<path d="M84.3384 5.42973L84.7126 4.99795L84.5691 4.44268L85.093 4.66273L85.5742 4.35425L85.5269 4.92289L85.9716 5.28476L85.4076 5.41845L85.2031 5.95004L84.9156 5.45953L84.3384 5.42973Z" fill="#58595D"/>
<path d="M103.006 7.78758L102.367 7.51204L101.783 7.87495L101.851 7.18914L101.32 6.74703L101.996 6.5949L102.255 5.95435L102.604 6.54858L103.293 6.59901L102.834 7.11618L103.006 7.78758Z" fill="#58595D"/>
<path d="M97.918 3.45665L98.4176 2.87886L98.2254 2.14164L98.9266 2.43465L99.5662 2.02026L99.5065 2.78114L100.096 3.26335L99.3523 3.43918L99.0778 4.15068L98.686 3.49876L97.918 3.45665Z" fill="#58595D"/>
<path d="M107.167 7.15928L106.658 7.08221L106.309 7.46776L106.22 6.96293L105.75 6.75319L106.205 6.50336L106.262 5.99536L106.629 6.3491L107.132 6.24625L106.913 6.70897L107.167 7.15928Z" fill="#58595D"/>
<path d="M115.872 10.746L116.356 9.98815L116.01 9.1564L116.882 9.3816L117.556 8.79443L117.615 9.68999L118.385 10.1568L117.544 10.4837L117.345 11.3628L116.772 10.6688L115.872 10.746Z" fill="#58595D"/>
<path d="M87.8794 3.04768L87.2502 2.93566L86.7941 3.38807L86.7139 2.75467L86.1438 2.46578L86.7227 2.18509L86.8157 1.55273L87.2553 2.01547L87.8912 1.91366L87.5854 2.47703L87.8794 3.04768Z" fill="#58595D"/>
<path d="M67.4211 3.43121L66.9903 3.4107L66.7271 3.75612L66.6099 3.33763L66.1981 3.19781L66.56 2.95829L66.5724 2.52124L66.9111 2.79373L67.328 2.67032L67.1728 3.07653L67.4211 3.43121Z" fill="#58595D"/>
<path d="M76.459 8.77865L76.0281 8.75601L75.7629 9.10143L75.6467 8.6861L75.2329 8.54416L75.5983 8.30464L75.6112 7.86865L75.9484 8.13913L76.3654 8.01681L76.207 8.42288L76.459 8.77865Z" fill="#58595D"/>
<path d="M54.9692 7.83786L55.0452 7.52328L54.8293 7.2827L55.1516 7.26112L55.3177 6.9917L55.4349 7.28059L55.746 7.3526L55.5002 7.55623L55.532 7.8801L55.2595 7.70531L54.9692 7.83786Z" fill="#58595D"/>
<path d="M49.6096 8.40835L49.3007 8.48752L49.1835 8.80316L49.0123 8.52458L48.6791 8.51531L48.8909 8.26338L48.7881 7.94362L49.0997 8.06186L49.3752 7.87476L49.3608 8.20893L49.6096 8.40835Z" fill="#58595D"/>
<path d="M45.9841 10.2211L45.6751 10.2992L45.5569 10.617L45.3846 10.3374L45.0566 10.3281L45.2654 10.0741L45.1636 9.75534L45.4757 9.87568L45.7512 9.68848L45.7363 10.0207L45.9841 10.2211Z" fill="#58595D"/>
<path d="M51.422 11.7306L51.1141 11.8108L50.9958 12.1265L50.8237 11.8468L50.4941 11.8385L50.7028 11.5867L50.6031 11.2648L50.9131 11.3852L51.1886 11.197L51.1743 11.5311L51.422 11.7306Z" fill="#58595D"/>
<path d="M49.6096 17.1685L49.3007 17.2487L49.1835 17.5654L49.0123 17.2857L48.6791 17.2775L48.8909 17.0235L48.7881 16.7048L49.0997 16.8241L49.3752 16.637L49.3608 16.969L49.6096 17.1685Z" fill="#58595D"/>
<path d="M58.9746 10.2211L58.6677 10.2992L58.5484 10.617L58.3772 10.3374L58.0455 10.3281L58.2559 10.0741L58.1555 9.75534L58.4635 9.87568L58.7401 9.68848L58.7278 10.0207L58.9746 10.2211Z" fill="#58595D"/>
<path d="M65.6216 10.2211L65.3138 10.2992L65.1945 10.617L65.0233 10.3374L64.6937 10.3281L64.9004 10.0741L64.8017 9.75534L65.1127 9.87568L65.3883 9.68848L65.3739 10.0207L65.6216 10.2211Z" fill="#58595D"/>
<path d="M83.1459 11.1262L82.8369 11.2064L82.7176 11.523L82.5455 11.2423L82.2144 11.2351L82.4252 10.9832L82.3249 10.6614L82.6354 10.7817L82.9114 10.5935L82.897 10.9266L83.1459 11.1262Z" fill="#58595D"/>
<path d="M94.3238 9.91912L94.0164 9.99933L93.8992 10.315L93.7275 10.0374L93.3933 10.027L93.6061 9.77203L93.5023 9.45333L93.8148 9.57568L94.0893 9.38647L94.0781 9.71961L94.3238 9.91912Z" fill="#58595D"/>
<path d="M43.7592 12.0905L43.8656 11.7162L43.6039 11.4335L43.9854 11.4068L44.1884 11.0747L44.3288 11.4335L44.7041 11.5136L44.4059 11.7584L44.4506 12.1419L44.1185 11.9384L43.7592 12.0905Z" fill="#58595D"/>
<path d="M39.9616 13.756L40.0464 13.391L39.812 13.1021L40.2006 13.0744L40.3739 12.7463L40.5359 13.1021L40.8895 13.1875L40.6186 13.4322L40.653 13.8167L40.321 13.609L39.9616 13.756Z" fill="#58595D"/>
<path d="M37.1805 16.8622L37.2895 16.4931L37.0304 16.2063L37.419 16.1785L37.5928 15.8464L37.7583 16.2063L38.1084 16.2906L37.8349 16.5322L37.8755 16.9219L37.5399 16.7152L37.1805 16.8622Z" fill="#58595D"/>
<path d="M55.9737 5.97609L55.6128 5.98946L55.4143 6.28868L55.2915 5.94421L54.9435 5.84648L55.2303 5.6296L55.2123 5.26562L55.512 5.47019L55.8523 5.34071L55.7506 5.69436L55.9737 5.97609Z" fill="#58595D"/>
<path d="M62.9429 5.95832L62.4118 6.22459L62.3316 6.80756L61.9204 6.38809L61.3374 6.48884L61.6083 5.96758L61.3344 5.44831L61.9137 5.53982L62.3214 5.11719L62.4118 5.69816L62.9429 5.95832Z" fill="#58595D"/>
<path d="M123.985 9.69083L123.462 9.95299L123.377 10.5236L122.964 10.1072L122.38 10.2214L122.66 9.69704L122.376 9.17567L122.964 9.27233L123.371 8.8457L123.458 9.43174L123.985 9.69083Z" fill="#58595D"/>
<path d="M59.3718 4.95161L59.158 4.76557L58.885 4.83855L58.9929 4.57638L58.8356 4.33369L59.125 4.35834L59.304 4.13428L59.3707 4.41287L59.6371 4.51257L59.3934 4.66071L59.3718 4.95161Z" fill="#58595D"/>
<path d="M54.6014 7.51888L54.1233 7.60216L53.9094 8.04321L53.6899 7.60838L53.2041 7.54351L53.5429 7.19808L53.4575 6.71693L53.891 6.93897L54.3161 6.70557L54.2498 7.18986L54.6014 7.51888Z" fill="#58595D"/>
<path d="M17.9247 56.4614H16.4128V51.5178H14.5236V50.1504H19.8957V51.5178H17.9247V56.4614Z" fill="#58595D"/>
<path d="M26.4123 56.4614H24.8993V53.7346H23.0379V56.4614H21.5259V50.1504H23.0379V52.4021H24.8993V50.1504H26.4123V56.4614Z" fill="#58595D"/>
<path d="M32.7644 56.4614H28.587V50.1504H32.7644V51.5178H30.0984V52.4021H31.9887V53.7346H30.0984V55.0959H32.7644V56.4614Z" fill="#58595D"/>
<path d="M41.8738 56.5369H41.1572L40.183 53.837L39.6843 56.4609H38.1899L39.4365 50.1499H40.3577L41.498 53.4771L42.5494 50.1499H43.4737L44.8124 56.4609H43.3097L42.8058 53.8554L41.8738 56.5369Z" fill="#58595D"/>
<path d="M48.1399 54.0331H48.9105L48.5454 52.9453L48.1399 54.0331ZM51.4377 56.4617H49.7664L49.3644 55.273H47.6761L47.2408 56.4617H45.5627L48.2524 50.0767H48.9465L51.4377 56.4617Z" fill="#58595D"/>
<path d="M55.5642 56.554C54.644 56.554 53.9032 56.2477 53.3618 55.6431C52.8359 55.0571 52.567 54.2736 52.567 53.3215C52.567 52.3653 52.86 51.5756 53.4363 50.9711C54.0204 50.3583 54.8125 50.0479 55.7924 50.0479C56.492 50.0479 57.0782 50.2411 57.5306 50.6236L57.7346 50.7942L57.0894 52.0219L56.7507 51.7793C56.4103 51.5366 56.0788 51.4112 55.7719 51.4112C55.2635 51.4112 54.8737 51.5756 54.5843 51.9109C54.2774 52.2686 54.1293 52.7437 54.1293 53.3523C54.1293 53.9281 54.2743 54.3723 54.5714 54.7096C54.8553 55.0324 55.2357 55.1866 55.7364 55.1866C56.0166 55.1866 56.2427 55.1249 56.4268 55.0015V54.181H55.6043V52.8506H57.9393V55.7952L57.8143 55.896C57.5614 56.1017 57.2133 56.2642 56.7852 56.3793C56.3759 56.4966 55.9672 56.554 55.5642 56.554Z" fill="#58595D"/>
<path d="M61.7451 56.4609H60.2311V50.1499H61.7451V56.4609Z" fill="#58595D"/>
<path d="M66.6079 56.554C65.7252 56.554 65.0194 56.2415 64.5083 55.6308C64.0169 55.0406 63.7665 54.2634 63.7665 53.3174C63.7665 52.3982 64.0307 51.6209 64.5556 51.006C65.0964 50.3685 65.8049 50.0479 66.6629 50.0479C67.3744 50.0479 67.9281 50.1629 68.3501 50.4015L68.6102 50.5475L68.0638 51.88L67.6926 51.6188C67.56 51.5243 67.2715 51.4112 66.6886 51.4112C66.2912 51.4112 65.9786 51.5736 65.7304 51.9088C65.463 52.2748 65.3272 52.7642 65.3272 53.3646C65.3272 53.926 65.4651 54.3825 65.7365 54.7199C65.9879 55.0345 66.2989 55.1866 66.6953 55.1866C67.139 55.1866 67.4623 55.0489 67.6884 54.763L67.9784 54.397L68.8765 55.5937L68.6642 55.7932C68.128 56.297 67.4361 56.554 66.6079 56.554Z" fill="#58595D"/>
<path d="M77.2428 51.4112C76.8665 51.4112 76.5976 51.5489 76.4034 51.841C76.1828 52.1741 76.0707 52.6511 76.0707 53.2537C76.0707 53.8377 76.189 54.327 76.4192 54.7013C76.6254 55.0323 76.8835 55.1866 77.2428 55.1866C77.6783 55.1866 77.9841 55.0447 78.2068 54.7383C78.4514 54.397 78.5754 53.8994 78.5754 53.2537C78.5754 51.6024 77.8161 51.4112 77.2428 51.4112ZM77.2428 56.554C76.3807 56.554 75.6959 56.2271 75.2066 55.5855C74.7433 54.9728 74.5068 54.1913 74.5068 53.2537C74.5068 52.3653 74.7485 51.6086 75.2235 51.0041C75.7181 50.3686 76.3966 50.0479 77.2428 50.0479C78.1677 50.0479 78.8946 50.3419 79.4014 50.9258C79.8904 51.4913 80.1361 52.2768 80.1361 53.2537C80.1361 54.253 79.8904 55.053 79.405 55.639C78.8935 56.2477 78.1667 56.554 77.2428 56.554Z" fill="#58595D"/>
<path d="M83.5344 56.4609H82.0215V50.1499H86.3757V51.5173H83.5344V52.4016H85.6016V53.7341H83.5344V56.4609Z" fill="#58595D"/>
<path d="M95.2202 56.5369H94.5016L93.529 53.837L93.0323 56.4609H91.5369L92.7846 50.1499H93.7048L94.847 53.4771L95.8948 50.1499H96.8222L98.1567 56.4609H96.6566L96.1507 53.8554L95.2202 56.5369Z" fill="#58595D"/>
<path d="M102.119 51.4112C101.742 51.4112 101.477 51.5489 101.281 51.841C101.06 52.1741 100.947 52.6511 100.947 53.2537C100.947 53.8377 101.064 54.325 101.296 54.7013C101.499 55.0323 101.761 55.1866 102.119 55.1866C102.556 55.1866 102.862 55.0447 103.082 54.7404C103.328 54.397 103.454 53.9014 103.454 53.2537C103.454 51.6024 102.694 51.4112 102.119 51.4112ZM102.119 56.554C101.26 56.554 100.573 56.2271 100.082 55.5855C99.6184 54.9728 99.385 54.1892 99.385 53.2537C99.385 52.3694 99.6236 51.6106 100.095 51.006C100.595 50.3685 101.275 50.0479 102.119 50.0479C103.046 50.0479 103.774 50.3419 104.278 50.9258C104.766 51.4893 105.013 52.2707 105.013 53.2537C105.013 54.255 104.766 55.0612 104.278 55.639C103.774 56.2477 103.046 56.554 102.119 56.554Z" fill="#58595D"/>
<path d="M109.551 56.5369H108.653L106.18 50.1499H107.842L109.11 53.5963L110.325 50.1499H111.948L109.551 56.5369Z" fill="#58595D"/>
<path d="M115.05 56.4609H113.537V50.1499H115.05V56.4609Z" fill="#58595D"/>
<path d="M121.541 56.4609H117.365V50.1499H121.541V51.5173H118.876V52.4016H120.763V53.7341H118.876V55.0954H121.541V56.4609Z" fill="#58595D"/>
<path d="M124.865 56.554C124.276 56.554 123.756 56.4163 123.328 56.1449L123.089 55.9948L123.658 54.6273L124.025 54.8843C124.146 54.9687 124.303 55.0406 124.49 55.0982C124.984 55.2545 125.299 55.201 125.504 55.0283C125.617 54.9275 125.671 54.8082 125.671 54.6499C125.671 54.5245 125.635 54.4093 125.563 54.2983C125.541 54.2571 125.423 54.1214 124.917 53.8932L124.44 53.6834C123.968 53.4696 123.643 53.2187 123.445 52.9123C123.249 52.6121 123.153 52.2543 123.153 51.8451C123.153 51.331 123.349 50.8971 123.732 50.5537C124.114 50.2144 124.6 50.0479 125.177 50.0479C125.923 50.0479 126.441 50.1691 126.763 50.4261L126.954 50.5743L126.485 51.8882L126.1 51.6271C126.046 51.5942 125.934 51.5366 125.704 51.4688C125.297 51.3433 124.963 51.3515 124.793 51.5078C124.708 51.5922 124.666 51.697 124.666 51.8389C124.666 51.9314 124.682 52.0198 124.717 52.0878C124.751 52.1618 124.799 52.2193 124.857 52.2645C124.901 52.2995 125.033 52.3838 125.408 52.5566L125.888 52.7745C126.354 52.9822 126.686 53.2413 126.887 53.5518C127.085 53.8644 127.186 54.2489 127.186 54.6972C127.186 55.2154 126.963 55.6657 126.529 56.0276C126.107 56.3773 125.55 56.554 124.865 56.554Z" fill="#58595D"/>
<path d="M134.979 52.3859H135.993V51.7854L136.198 51.7113L136.055 51.5942C135.757 51.3556 135.568 51.3042 135.46 51.3042C134.864 51.3042 134.745 51.5284 134.745 51.882C134.745 52.0774 134.821 52.2399 134.979 52.3859ZM134.91 53.6895C134.768 53.9014 134.698 54.1173 134.698 54.3374C134.698 54.9522 134.95 55.201 135.569 55.201C135.761 55.201 135.904 55.1825 136.004 55.1579C135.995 55.0797 135.993 54.9995 135.993 54.9111V53.6895H134.91ZM137.444 56.5376C137.176 56.5376 136.919 56.4616 136.673 56.3115C136.28 56.4616 135.82 56.5376 135.302 56.5376C134.635 56.5376 134.109 56.3382 133.736 55.9495C133.367 55.5691 133.184 55.0406 133.184 54.3743C133.184 54.031 133.24 53.7266 133.349 53.4696C133.423 53.2886 133.544 53.1014 133.705 52.9123C133.412 52.5607 133.266 52.1885 133.266 51.7998C133.266 51.3145 133.46 50.895 133.84 50.5516C134.223 50.2144 134.723 50.0479 135.334 50.0479C135.973 50.0479 136.481 50.1918 136.845 50.4776L137.071 50.6544L136.542 51.586L137.473 51.2487V52.4023H138.476V53.6895H137.473V54.6273C137.473 55.0303 137.546 55.1352 137.552 55.1455C137.584 55.1825 137.67 55.201 137.785 55.201C137.847 55.201 137.96 55.1846 138.148 55.0982L138.573 54.9029L138.81 56.3156L138.515 56.3999C138.203 56.4923 137.84 56.5376 137.444 56.5376Z" fill="#58595D"/>
<path d="M147.914 56.5369H147.197L146.221 53.837L145.725 56.4609H144.23L145.476 50.1499H146.398L147.539 53.4771L148.59 50.1499H149.511L150.851 56.4609H149.353L148.846 53.8554L147.914 56.5369Z" fill="#58595D"/>
<path d="M154.813 51.4112C154.436 51.4112 154.171 51.5489 153.971 51.841C153.752 52.1782 153.638 52.6511 153.638 53.2537C153.638 53.8377 153.759 54.327 153.99 54.7013C154.193 55.0323 154.453 55.1866 154.813 55.1866C155.248 55.1866 155.552 55.0447 155.776 54.7383C156.022 54.395 156.149 53.8973 156.149 53.2537C156.149 51.6024 155.386 51.4112 154.813 51.4112ZM154.813 56.554C153.952 56.554 153.267 56.2271 152.777 55.5855C152.313 54.9728 152.078 54.1913 152.078 53.2537C152.078 52.3694 152.316 51.6147 152.793 51.006C153.286 50.3685 153.967 50.0479 154.813 50.0479C155.738 50.0479 156.465 50.3419 156.972 50.9258C157.457 51.4893 157.705 52.2748 157.705 53.2537C157.705 54.255 157.457 55.0571 156.972 55.639C156.464 56.2477 155.737 56.554 154.813 56.554Z" fill="#58595D"/>
<path d="M161.137 52.7044C161.207 52.7085 161.278 52.7085 161.346 52.7085C161.846 52.7085 162.079 52.6222 162.189 52.5482C162.31 52.468 162.371 52.2932 162.371 52.0259C162.371 51.7729 162.269 51.6803 162.181 51.6331C162.06 51.559 161.8 51.4727 161.255 51.4727C161.229 51.4727 161.186 51.4747 161.137 51.4788V52.7044ZM164.785 56.4614H163.024L161.439 54.039C161.347 54.0369 161.249 54.0328 161.137 54.0267V56.4614H159.621V50.1484H159.979C160.013 50.1484 160.215 50.136 160.584 50.1196C160.982 50.1011 161.269 50.0908 161.451 50.0908C163.501 50.0908 163.931 51.1539 163.931 52.0505C163.931 52.4762 163.792 52.8689 163.514 53.2103C163.347 53.4159 163.158 53.5804 162.95 53.6956L164.785 56.4614Z" fill="#58595D"/>
<path d="M170.235 56.4609H166.056V50.1499H170.235V51.5173H167.57V52.4016H169.458V53.7341H167.57V55.0954H170.235V56.4609Z" fill="#58595D"/>
<path d="M189.52 19.8404C189.52 20.7452 188.809 21.4562 187.884 21.4562C186.969 21.4562 186.239 20.7452 186.239 19.8404C186.239 18.9541 186.969 18.2437 187.884 18.2437C188.809 18.2437 189.52 18.9541 189.52 19.8404ZM186.648 19.8404C186.648 20.5509 187.174 21.1158 187.894 21.1158C188.595 21.1158 189.111 20.5509 189.111 19.8502C189.111 19.1392 188.595 18.5645 187.884 18.5645C187.174 18.5645 186.648 19.1392 186.648 19.8404ZM187.631 20.6773H187.261V19.0806C187.408 19.0513 187.612 19.0318 187.875 19.0318C188.177 19.0318 188.313 19.0806 188.43 19.149C188.517 19.2173 188.585 19.3434 188.585 19.4991C188.585 19.6744 188.449 19.8106 188.254 19.8698V19.8887C188.41 19.9474 188.498 20.064 188.546 20.278C188.595 20.5216 188.624 20.6188 188.663 20.6773H188.264C188.215 20.6188 188.186 20.4733 188.138 20.2882C188.108 20.1129 188.011 20.0348 187.806 20.0348H187.631V20.6773ZM187.641 19.7721H187.816C188.021 19.7721 188.186 19.7036 188.186 19.5387C188.186 19.3921 188.079 19.295 187.846 19.295C187.748 19.295 187.68 19.3047 187.641 19.3145V19.7721Z" fill="#58595D"/>
</svg>
