<svg width="113" height="38" viewBox="0 0 113 38" fill="none" xmlns="http://www.w3.org/2000/svg">
<path d="M5.20232 12.9349H0V36.5937H5.20232V12.9349Z" fill="#58585A"/>
<path d="M5.20232 2.05313H0V6.13133H5.20232V2.05313Z" fill="#58585A"/>
<path d="M59.1077 2.05313H53.9054V36.5937H59.1077V2.05313Z" fill="#58585A"/>
<path d="M32.4882 25.0456C32.436 21.5294 32.5928 17.5624 30.0897 14.7782C29.3304 13.93 28.3645 13.2928 27.2859 12.9286C21.5542 10.968 16.1362 13.3273 13.8161 16.5298V12.9221H8.92749V36.5874H13.8161V20.8498C14.9664 19.1167 16.5688 17.7313 18.4498 16.8434C20.9203 15.6082 24.175 15.569 26.1814 17.6996C27.0224 18.6162 27.4888 19.815 27.4885 21.0589C27.4885 22.1111 27.4493 36.7443 27.4885 36.7443H32.4686C32.5863 36.7378 32.5013 26.0455 32.4882 25.0456Z" fill="#58585A"/>
<path d="M80.3941 12.9221V28.8232C79.2431 30.5507 77.6404 31.9296 75.7604 32.8099C73.2964 34.0451 70.0352 34.117 68.0353 31.9602C67.1927 31.0447 66.726 29.8452 66.7282 28.6009C66.7282 27.5487 66.7674 12.9156 66.7282 12.9156H61.6174C61.5193 12.9156 61.6174 23.6078 61.6174 24.6143C61.6696 28.1304 61.6174 32.0975 64.1401 34.8816C64.905 35.7248 65.8722 36.3591 66.9504 36.7247C72.6821 38.6853 78.0935 36.326 80.4137 33.1301V36.7247H85.3088V12.9221H80.3941Z" fill="#58585A"/>
<path d="M47.3502 3.94204C48.1283 3.91637 48.9058 4.00666 49.6573 4.20998C49.7227 4.20998 50.5788 4.43221 50.5788 4.51718V0.504323C42.0826 -1.45635 38.939 2.79178 38.0697 4.83741C37.2005 6.88305 37.4815 11.373 37.4815 11.373V12.8435H33.5602V16.7256H37.4815V36.5742H42.71V16.7452H50.605V12.8631H42.6838V10.8305C42.7165 9.12474 42.4878 7.19023 43.5923 5.74587C44.0497 5.18987 44.6229 4.74041 45.272 4.42886C45.9211 4.11731 46.6303 3.95116 47.3502 3.94204Z" fill="#58585A"/>
<path d="M112.687 36.6656L104.347 26.2545L101.079 30.0386L106.523 36.6656H112.687Z" fill="#DA802E"/>
<path d="M87.6159 12.7653L97.0664 24.8888L87.0081 36.6659H92.4523L102.569 24.7907L93.0012 12.7653H87.6159Z" fill="#D25B2B"/>
<path d="M106.844 12.7653L101.184 19.706L104.314 23.6731L113 12.7653H106.844Z" fill="#DA802E"/>
</svg>
