<svg width="48" height="42" viewBox="0 0 48 42" fill="none" xmlns="http://www.w3.org/2000/svg">
<path d="M0.352314 3.40685H3.06266C3.302 3.40685 3.41843 3.29042 3.41843 3.06402V0.47658C3.41843 0.250179 3.302 0.133745 3.06266 0.133745H0.352314C0.305296 0.126181 0.257159 0.129758 0.211781 0.144208C0.166403 0.158657 0.125055 0.183574 0.0910672 0.216932C0.0570794 0.25029 0.0314021 0.291164 0.0161072 0.336264C0.000812242 0.381364 -0.00367479 0.429429 0.0030093 0.47658V3.06402C-0.00367479 3.11117 0.000812242 3.15922 0.0161072 3.20432C0.0314021 3.24942 0.0570794 3.29031 0.0910672 3.32367C0.125055 3.35703 0.166403 3.38192 0.211781 3.39637C0.257159 3.41082 0.305296 3.41442 0.352314 3.40685Z" fill="#F4592F"/>
<path d="M17.533 9.79145C17.5291 9.13775 17.3883 8.4921 17.1198 7.89607C16.8513 7.30004 16.461 6.76684 15.9741 6.33074C15.0091 5.39802 13.7196 4.87665 12.3775 4.87665C11.0355 4.87665 9.74592 5.39802 8.78098 6.33074C8.29721 6.76832 7.91033 7.30226 7.64519 7.89826C7.38006 8.49426 7.24253 9.13913 7.24145 9.79145V32.2439C7.24262 32.4551 7.1988 32.6642 7.11292 32.8571C7.02704 33.0501 6.90107 33.2225 6.74337 33.363C6.35234 33.6747 5.86555 33.8415 5.36556 33.8352C4.85143 33.8367 4.3512 33.6684 3.94247 33.3566C3.78477 33.2161 3.65879 33.0436 3.57291 32.8507C3.48703 32.6577 3.44322 32.4487 3.44438 32.2375V5.25048C3.44981 5.19959 3.44355 5.14815 3.42609 5.10005C3.40863 5.05195 3.38043 5.00846 3.34363 4.9729C3.30682 4.93735 3.26239 4.91066 3.21372 4.89487C3.16504 4.87908 3.1134 4.8746 3.06274 4.88178H0.352392C0.119522 4.88178 0.028962 5.00467 0.028962 5.25048V32.2181C0.0227141 32.8679 0.153081 33.5117 0.411609 34.1079C0.670137 34.7041 1.05106 35.2393 1.52968 35.6788C2.5917 36.6376 3.98037 37.1538 5.41084 37.1213C6.80605 37.14 8.15549 36.6239 9.18203 35.6788C9.66065 35.2393 10.0416 34.7041 10.3001 34.1079C10.5586 33.5117 10.689 32.8679 10.6827 32.2181V9.76557C10.6864 9.55172 10.7349 9.34103 10.8251 9.14713C10.9154 8.95324 11.0454 8.78047 11.2067 8.64004C11.5296 8.34089 11.9535 8.17467 12.3937 8.17467C12.8339 8.17467 13.2578 8.34089 13.5807 8.64004C13.7452 8.77942 13.879 8.95141 13.9736 9.14514C14.0683 9.33887 14.1217 9.55013 14.1305 9.76557V36.7526C14.1305 36.9984 14.2469 37.1213 14.4798 37.1213H17.1966C17.4295 37.1213 17.5459 36.9984 17.5459 36.7526L17.533 9.79145Z" fill="#E87E28"/>
<path d="M17.1837 38.5961H14.4669C14.4199 38.5886 14.3717 38.5921 14.3263 38.6066C14.281 38.621 14.2396 38.646 14.2056 38.6793C14.1716 38.7127 14.146 38.7536 14.1307 38.7987C14.1154 38.8438 14.1109 38.8918 14.1176 38.939V41.5264C14.1109 41.5736 14.1154 41.6216 14.1307 41.6667C14.146 41.7118 14.1716 41.7527 14.2056 41.7861C14.2396 41.8194 14.281 41.8443 14.3263 41.8588C14.3717 41.8732 14.4199 41.8768 14.4669 41.8692H17.1837C17.2307 41.8768 17.2788 41.8732 17.3242 41.8588C17.3696 41.8443 17.411 41.8194 17.4449 41.7861C17.4789 41.7527 17.5046 41.7118 17.5199 41.6667C17.5352 41.6216 17.5397 41.5736 17.533 41.5264V38.939C17.5397 38.8918 17.5352 38.8438 17.5199 38.7987C17.5046 38.7536 17.4789 38.7127 17.4449 38.6793C17.411 38.646 17.3696 38.621 17.3242 38.6066C17.2788 38.5921 17.2307 38.5886 17.1837 38.5961Z" fill="#F4592F"/>
<path d="M30.8129 3.40698H33.5232C33.7626 3.40698 33.879 3.29055 33.879 3.06415V0.476707C33.879 0.250306 33.7626 0.133872 33.5232 0.133872H30.8129C30.7656 0.126576 30.7173 0.130284 30.6717 0.144729C30.6261 0.159175 30.5845 0.183954 30.5501 0.217138C30.5156 0.250321 30.4893 0.291013 30.4732 0.336035C30.4571 0.381058 30.4516 0.429206 30.4571 0.476707V3.06415C30.4516 3.11165 30.4571 3.15978 30.4732 3.2048C30.4893 3.24982 30.5156 3.29051 30.5501 3.3237C30.5845 3.35688 30.6261 3.38166 30.6717 3.3961C30.7173 3.41055 30.7656 3.41428 30.8129 3.40698Z" fill="#F4592F"/>
<path d="M22.5978 3.40698H25.3081C25.5475 3.40698 25.6639 3.29055 25.6639 3.06415V0.476707C25.6639 0.250306 25.5475 0.133872 25.3081 0.133872H22.5978C22.5505 0.126576 22.5022 0.130284 22.4566 0.144729C22.411 0.159175 22.3694 0.183954 22.335 0.217138C22.3005 0.250321 22.2742 0.291013 22.2581 0.336035C22.242 0.381058 22.2365 0.429206 22.242 0.476707V3.06415C22.2365 3.11165 22.242 3.15978 22.2581 3.2048C22.2742 3.24982 22.3005 3.29051 22.335 3.3237C22.3694 3.35688 22.411 3.38166 22.4566 3.3961C22.5022 3.41055 22.5505 3.41428 22.5978 3.40698Z" fill="#F4592F"/>
<path d="M47.9935 9.79145C47.9896 9.13775 47.8488 8.4921 47.5803 7.89607C47.3119 7.30004 46.9216 6.76684 46.4346 6.33074C45.4696 5.39802 44.1801 4.87665 42.838 4.87665C41.496 4.87665 40.2064 5.39802 39.2415 6.33074C38.7588 6.76846 38.3735 7.30272 38.1105 7.89889C37.8475 8.49507 37.7127 9.13985 37.7149 9.79145V32.2439C37.7161 32.4551 37.6723 32.6642 37.5864 32.8571C37.5005 33.0501 37.3745 33.2225 37.2168 33.363C36.8258 33.6747 36.339 33.8415 35.839 33.8352C35.3227 33.8381 34.8199 33.6698 34.4094 33.3565C34.2518 33.2161 34.1258 33.0436 34.0399 32.8507C33.954 32.6577 33.9102 32.4487 33.9114 32.2375V5.25048C33.9168 5.19959 33.9105 5.14815 33.8931 5.10005C33.8756 5.05195 33.8474 5.00846 33.8106 4.9729C33.7738 4.93735 33.7294 4.91066 33.6807 4.89487C33.632 4.87908 33.5804 4.8746 33.5297 4.88178H30.8194C30.5865 4.88178 30.4959 5.00467 30.4959 5.25048V32.2181C30.4897 32.8679 30.6201 33.5117 30.8786 34.1079C31.1371 34.7041 31.518 35.2392 31.9967 35.6788C33.0505 36.6299 34.4261 37.1455 35.8455 37.1213C37.2474 37.145 38.6046 36.6285 39.6361 35.6788C40.1147 35.2392 40.4956 34.7041 40.7541 34.1079C41.0127 33.5117 41.143 32.8679 41.1368 32.2181V9.76557C41.1404 9.55172 41.1889 9.34103 41.2792 9.14713C41.3694 8.95324 41.4994 8.78047 41.6608 8.64004C41.9836 8.34089 42.4076 8.17467 42.8477 8.17467C43.2879 8.17467 43.7118 8.34089 44.0347 8.64004C44.1992 8.77942 44.333 8.95141 44.4277 9.14514C44.5223 9.33887 44.5757 9.55013 44.5846 9.76557V36.7526C44.5846 36.9984 44.701 37.1213 44.9339 37.1213H47.6507C47.8835 37.1213 48 36.9984 48 36.7526L47.9935 9.79145Z" fill="#E87E28"/>
<path d="M47.6442 38.5961H44.9274C44.8804 38.5886 44.8322 38.5921 44.7868 38.6066C44.7415 38.621 44.7001 38.646 44.6661 38.6793C44.6321 38.7127 44.6065 38.7536 44.5912 38.7987C44.5759 38.8438 44.5714 38.8918 44.5781 38.939V41.5264C44.5714 41.5736 44.5759 41.6216 44.5912 41.6667C44.6065 41.7118 44.6321 41.7527 44.6661 41.7861C44.7001 41.8194 44.7415 41.8443 44.7868 41.8588C44.8322 41.8732 44.8804 41.8768 44.9274 41.8692H47.6442C47.6912 41.8768 47.7394 41.8732 47.7847 41.8588C47.8301 41.8443 47.8715 41.8194 47.9054 41.7861C47.9394 41.7527 47.9651 41.7118 47.9804 41.6667C47.9957 41.6216 48.0002 41.5736 47.9935 41.5264V38.939C48.0002 38.8918 47.9957 38.8438 47.9804 38.7987C47.9651 38.7536 47.9394 38.7127 47.9054 38.6793C47.8715 38.646 47.8301 38.621 47.7847 38.6066C47.7394 38.5921 47.6912 38.5886 47.6442 38.5961Z" fill="#F4592F"/>
<path d="M25.2565 4.89471H22.5267C22.2874 4.89471 22.1968 5.01762 22.1968 5.26343V36.662C22.2053 36.9208 22.159 37.1786 22.0609 37.4182C21.9628 37.6579 21.8151 37.8742 21.6276 38.0528C21.4362 38.2372 21.2102 38.3819 20.9626 38.4785C20.7151 38.5751 20.4508 38.6217 20.1851 38.6155H19.2989C19.0596 38.6155 18.9431 38.732 18.9431 38.9584V41.5458C18.9431 41.7722 19.0596 41.8886 19.2989 41.8886H20.1786C20.8943 41.9072 21.6064 41.7822 22.2729 41.5211C22.9395 41.26 23.5471 40.8681 24.0598 40.3685C24.5692 39.8927 24.973 39.3152 25.2449 38.6733C25.5168 38.0314 25.6508 37.3396 25.6381 36.6426V5.25048C25.6403 5.20092 25.6317 5.15148 25.613 5.10556C25.5942 5.05965 25.5657 5.01836 25.5294 4.98453C25.4931 4.95071 25.4499 4.92516 25.4028 4.90966C25.3557 4.89415 25.3058 4.88905 25.2565 4.89471Z" fill="#E87E28"/>
</svg>
