<svg width="20" height="21" viewBox="0 0 20 21" fill="none" xmlns="http://www.w3.org/2000/svg">
<path d="M13.769 0.997971H6.25489C4.86393 0.997971 3.73633 2.12557 3.73633 3.51653V9.5991C3.73633 10.9901 4.86393 12.1177 6.25489 12.1177H13.769C15.16 12.1177 16.2876 10.9901 16.2876 9.5991V3.51653C16.2876 2.12557 15.16 0.997971 13.769 0.997971Z" fill="#FC4B23"/>
<path d="M17.7963 17.9388L11.8623 12.5749C11.5712 12.3136 11.197 12.171 10.8049 12.171H9.19519C8.80315 12.171 8.42893 12.3136 8.13787 12.5749L3.73633 16.5904" stroke="#2E2F35" stroke-width="1.55628" stroke-linecap="round" stroke-linejoin="round"/>
<path d="M1.9541 8.03683L3.17774 9.20702L7.40109 13.2403" stroke="#2E2F35" stroke-width="1.55628" stroke-linecap="round" stroke-linejoin="round"/>
<path d="M19.2217 6.91418L12.5986 13.2403" stroke="#2E2F35" stroke-width="1.55628" stroke-linecap="round" stroke-linejoin="round"/>
<path d="M3.30859 9.3674V2.35225C3.30859 1.48501 4.01545 0.778152 4.8827 0.778152H15.1173C15.9846 0.778152 16.6914 1.48501 16.6914 2.35225V9.3377" stroke="#2E2F35" stroke-width="1.55628" stroke-linecap="round" stroke-linejoin="round"/>
<path d="M3.30876 4.68665L1.31292 6.43895C0.974341 6.73595 0.77832 7.16957 0.77832 7.62101V16.6379C0.77832 18.0635 1.93662 19.2218 3.36222 19.2218H16.6322C18.0578 19.2218 19.2161 18.0635 19.2161 16.6379V6.91415" stroke="#2E2F35" stroke-width="1.55628" stroke-linecap="round" stroke-linejoin="round"/>
<path d="M19.2218 6.9142L16.6914 4.70451" stroke="#2E2F35" stroke-width="1.55628" stroke-linecap="round" stroke-linejoin="round"/>
<path d="M12.9251 5.98157H7.07422" stroke="white" stroke-width="1.55628" stroke-linecap="round" stroke-linejoin="round"/>
</svg>
