<svg width="69" height="67" viewBox="0 0 69 67" fill="none" xmlns="http://www.w3.org/2000/svg">
<path d="M21.8725 6.7019H20.6859V1.616H20.6688L19.533 6.7019H18.287L17.1765 1.616H17.1597V6.7019H15.9729V0.615723H17.8293L18.9312 5.41341H18.9481L20.0332 0.615723H21.8725L21.8725 6.7019Z" fill="#58595D"/>
<path d="M23.5777 6.7019H22.2384L24.4084 0.615723H25.8748L28.0194 6.7019H26.6378L26.2479 5.4474H24.0016L23.5777 6.7019ZM24.3406 4.39638H25.8918L25.1374 1.98884H25.1205L24.3406 4.39638Z" fill="#58595D"/>
<path d="M28.4542 0.615723H31.5312C33.1504 0.615723 33.4468 1.81092 33.4468 2.33644C33.4468 3.00614 33.1077 3.58249 32.5059 3.78598C33.0058 4.00633 33.2775 4.19287 33.2775 5.32862C33.2775 6.21876 33.2775 6.43912 33.5487 6.54079V6.7019H32.1414C32.0567 6.41369 32.0059 6.10006 32.0059 5.47271C32.0059 4.64204 31.955 4.31995 31.0142 4.31995H29.7003V6.7019H28.4542L28.4542 0.615723ZM31.192 3.29436C31.8532 3.29436 32.1754 3.06536 32.1754 2.46368C32.1754 2.14141 32.0312 1.66674 31.2854 1.66674H29.7003V3.29436H31.192Z" fill="#58595D"/>
<path d="M38.0778 2.6076C37.9759 2.24323 37.7809 1.55661 36.7297 1.55661C36.1194 1.55661 35.2211 1.96343 35.2211 3.68414C35.2211 4.77768 35.6533 5.76094 36.7297 5.76094C37.4336 5.76094 37.925 5.3625 38.0778 4.61655H39.3492C39.0949 5.93891 38.23 6.86286 36.7045 6.86286C35.0853 6.86286 33.924 5.7694 33.924 3.6672C33.924 1.53957 35.1532 0.45459 36.7215 0.45459C38.5439 0.45459 39.2812 1.70916 39.3492 2.6076H38.0778Z" fill="#58595D"/>
<path d="M44.8101 4.57429C44.8101 6.17633 43.8438 6.86296 42.3095 6.86296C41.7502 6.86296 40.9193 6.72743 40.3769 6.12541C40.0461 5.75247 39.919 5.26085 39.902 4.65053V0.615723H41.1992V4.56574C41.1992 5.41343 41.6905 5.78644 42.2843 5.78644C43.1575 5.78644 43.5129 5.3626 43.5129 4.6252V0.615723H44.8101V4.57429Z" fill="#58595D"/>
<path d="M46.5845 4.82844C46.5928 5.16757 46.7626 5.81168 47.8729 5.81168C48.4749 5.81168 49.1442 5.66765 49.1442 5.02344C49.1442 4.54877 48.6869 4.42162 48.0421 4.26904L47.3897 4.11647C46.4064 3.88764 45.4572 3.66719 45.4572 2.32795C45.4572 1.64988 45.8215 0.45459 47.7968 0.45459C49.6613 0.45459 50.1615 1.67521 50.1696 2.42116H48.9493C48.9153 2.14981 48.8139 1.50568 47.7031 1.50568C47.2199 1.50568 46.6436 1.68369 46.6436 2.23479C46.6436 2.70937 47.0337 2.81103 47.2878 2.87043L48.7712 3.23497C49.6022 3.43829 50.3646 3.7774 50.3646 4.87086C50.3646 6.70181 48.5001 6.86286 47.9659 6.86286C45.7453 6.86286 45.3635 5.58286 45.3635 4.82844H46.5845Z" fill="#58595D"/>
<path d="M15.1121 66.2567H13.8405V61.2473H12.0012V60.1709H16.9515V61.2473H15.1121L15.1121 66.2567Z" fill="#58595D"/>
<path d="M18.555 63.5276V66.2567H17.2834V60.1709H18.555V62.4764H20.9284V60.1709H22.1999V66.2567H20.9284V63.5276H18.555Z" fill="#58595D"/>
<path d="M27.5424 61.2473H24.3128V62.5274H27.2796V63.6039H24.3128V65.1803H27.6864V66.2567H23.0668V60.1709H27.5424V61.2473Z" fill="#58595D"/>
<path d="M29.2063 66.2567H27.8672L30.0371 60.1709H31.5035L33.6481 66.2567H32.2664L31.8765 65.0022H29.6302L29.2063 66.2567ZM29.9693 63.951H31.5204L30.766 61.5442H30.7491L29.9693 63.951Z" fill="#58595D"/>
<path d="M36.041 66.2567H34.7696V61.2473H32.9302V60.1709H37.8804V61.2473H36.041L36.041 66.2567Z" fill="#58595D"/>
<path d="M38.2545 60.1709H41.3319C42.9506 60.1709 43.2475 61.3661 43.2475 61.8915C43.2475 62.5608 42.9085 63.1376 42.3064 63.3409C42.8065 63.561 43.0777 63.7479 43.0777 64.8834C43.0777 65.7735 43.0777 65.9943 43.3488 66.0956V66.2567H41.9422C41.8573 65.9685 41.8063 65.6552 41.8063 65.028C41.8063 64.1971 41.7553 63.8749 40.8148 63.8749H39.5007V66.2567H38.2545L38.2545 60.1709ZM40.9929 62.8495C41.654 62.8495 41.9761 62.6206 41.9761 62.0186C41.9761 61.6965 41.8315 61.2216 41.086 61.2216H39.5007V62.8495H40.9929Z" fill="#58595D"/>
<path d="M48.4711 61.2473H45.2419V62.5274H48.2086V63.6039H45.2419V65.1803H48.6156V66.2567H43.9957V60.1709H48.4711V61.2473Z" fill="#58595D"/>
<path d="M50.1781 64.3838C50.1869 64.7223 50.3562 65.3665 51.4665 65.3665C52.0685 65.3665 52.7378 65.2225 52.7378 64.5783C52.7378 64.1039 52.2805 63.9768 51.6363 63.824L50.9833 63.6716C50 63.4427 49.0508 63.2225 49.0508 61.8832C49.0508 61.2052 49.4151 60.0098 51.3902 60.0098C53.2549 60.0098 53.7551 61.2302 53.7639 61.9764H52.5428C52.5094 61.7052 52.4076 61.061 51.2972 61.061C50.814 61.061 50.2372 61.2385 50.2372 61.7895C50.2372 62.2645 50.6273 62.3663 50.8814 62.4256L52.3648 62.7897C53.1958 62.9936 53.9587 63.3326 53.9587 64.426C53.9587 66.2568 52.0937 66.4177 51.5595 66.4177C49.3389 66.4177 48.9576 65.1381 48.9576 64.3838H50.1781Z" fill="#58595D"/>
<path d="M7.52092 11.1477H54.482C55.921 11.1477 56.2809 12.947 56.2809 14.2065V51.2713C56.2809 52.351 56.2809 52.8906 56.8211 53.4307C57.3605 53.9702 58.6199 54.3301 58.6199 55.7696H46.2051C44.0458 55.7696 44.0458 55.5895 44.0458 54.15V17.2653C44.0458 15.1064 42.4266 13.6667 39.9074 13.6667C39.008 13.6667 39.008 14.0267 39.008 14.9261V53.4307C39.008 53.4307 39.3678 55.9493 37.5684 55.9493H28.2122C26.9528 55.9493 26.4129 55.5895 26.4129 53.6104V17.4453C26.4129 15.646 25.8567 13.9987 23.5343 13.6667C22.6947 13.5467 22.2748 14.0266 22.2748 15.1064V53.6104C22.2748 56.1296 21.3751 55.7696 19.5757 55.7696H11.1193C9.85999 55.7696 9.31995 55.7697 9.31995 53.2504V17.0855C9.31995 15.646 8.60019 13.8467 7.52092 13.3071C6.44128 12.767 6.08158 11.1477 7.52092 11.1477Z" fill="#58595D"/>
<path d="M54.9198 65.2259H64.6082V1.61743H51.1505" stroke="#58595D" stroke-width="0.924776" stroke-miterlimit="10"/>
<path d="M14.9585 1.61743H1V65.2259H12.8676" stroke="#58595D" stroke-width="0.924776" stroke-miterlimit="10"/>
<path d="M67.5196 0.94165C68.3517 0.94165 68.998 1.58784 68.998 2.39344C68.998 3.21674 68.3517 3.85409 67.5107 3.85409C66.6786 3.85409 66.0145 3.21674 66.0145 2.39344C66.0145 1.58784 66.6786 0.94165 67.5107 0.94165H67.5196ZM67.5018 1.23376C66.8645 1.23376 66.3864 1.75607 66.3864 2.39344C66.3864 3.0397 66.8645 3.5531 67.5196 3.5531C68.1568 3.56201 68.6261 3.0397 68.6261 2.39344C68.6261 1.75607 68.1568 1.23376 67.5107 1.23376H67.5018ZM67.2805 3.14592H66.9442V1.7029C67.077 1.67636 67.2628 1.64982 67.5018 1.64982C67.7763 1.64982 67.9003 1.69407 68.0064 1.76487C68.0861 1.82685 68.148 1.94192 68.148 2.07477C68.148 2.24293 68.0241 2.36689 67.847 2.41998V2.43768C67.9888 2.48194 68.0683 2.59709 68.1126 2.79178C68.1568 3.01315 68.1835 3.10166 68.2189 3.14592H67.856C67.8118 3.09276 67.7851 2.96889 67.7409 2.80067C67.7142 2.64135 67.6257 2.57048 67.4399 2.57048H67.2804L67.2805 3.14592ZM67.2894 2.33145H67.4487C67.6347 2.33145 67.7851 2.26947 67.7851 2.11904C67.7851 1.98619 67.6878 1.89766 67.4753 1.89766C67.3868 1.89766 67.3247 1.90657 67.2894 1.91539V2.33145Z" fill="#58595D"/>
</svg>
