<svg width="70" height="64" viewBox="0 0 70 64" fill="none" xmlns="http://www.w3.org/2000/svg">
<path fill-rule="evenodd" clip-rule="evenodd" d="M5.0977 10.6532H10.187C11.3328 10.6532 12.2114 10.729 12.8183 10.8774C13.6652 11.0686 14.3921 11.44 14.9876 11.9677C15.7666 12.6549 16.3496 13.5289 16.7369 14.5921C17.1207 15.6576 17.3166 16.8678 17.3166 18.2379C17.3166 19.4006 17.192 20.4311 16.9248 21.3379C16.6609 22.2369 16.3293 22.983 15.9137 23.574C15.5028 24.1661 15.06 24.6247 14.5688 24.9644C14.0852 25.2995 13.4942 25.5554 12.807 25.7308C12.1163 25.911 11.3215 25.9947 10.4338 25.9947H5.0977V10.6532ZM0.189453 5.56836V47.5238H4.99012V31.2041H11.4166C12.1796 31.2041 12.7708 31.1633 13.51 30.9437C23.9072 27.796 23.923 11.0846 14.5606 6.43116C13.4261 5.86843 12.6315 5.72458 11.4132 5.70884L0.189453 5.56836ZM51.4744 10.6532H56.5672C57.7141 10.6532 58.5927 10.729 59.1996 10.8774C60.0464 11.0686 60.7689 11.44 61.3689 11.9677C62.1479 12.6549 62.7309 13.5289 63.1182 14.5921C63.5088 15.6576 63.6966 16.8678 63.6966 18.2379C63.6966 19.4006 63.5655 20.4311 63.3016 21.3379C63.0378 22.2369 62.7027 22.983 62.2917 23.574C61.8841 24.1661 61.4324 24.6247 60.9454 24.9644C60.4621 25.2995 59.8709 25.5554 59.1871 25.7308C58.493 25.911 57.7015 25.9947 56.8106 25.9947H51.4744V10.6532ZM63.9764 47.0529H68.9615L59.6988 30.9923L59.8903 30.9437C70.2953 27.796 70.2954 11.0846 60.941 6.43116C59.8065 5.86843 59.0082 5.72458 57.7854 5.70884L46.5663 5.56836V47.5238H51.3714V31.2041H54.6185L63.9764 47.0529Z" fill="#58595D"/>
<path fill-rule="evenodd" clip-rule="evenodd" d="M20.1335 0.758789H25.5488L32.6294 34.1287L39.9171 0.758789H45.328L32.9388 52.1457L20.1335 0.758789Z" fill="#58595D"/>
<path d="M5.81094 57.409C5.49478 57.1227 5.16141 56.9079 4.80993 56.7637C4.45681 56.6199 4.08773 56.5488 3.70049 56.5488C2.95005 56.5488 2.34043 56.8053 1.86873 57.3186C1.39868 57.8315 1.16417 58.4975 1.16417 59.3135C1.16417 60.1038 1.39112 60.7563 1.84935 61.2697C2.30765 61.7826 2.88614 62.0394 3.58318 62.0394C3.98806 62.0394 4.37691 61.9621 4.74433 61.8078C5.11092 61.6552 5.46362 61.4239 5.80036 61.1137V62.4589C5.50104 62.6889 5.17313 62.8592 4.82166 62.9724C4.46726 63.0863 4.0847 63.1426 3.67232 63.1426C3.14721 63.1426 2.662 63.051 2.21425 62.8685C1.77075 62.6843 1.37768 62.4145 1.03967 62.0571C0.705852 61.7069 0.449388 61.2949 0.268568 60.8203C0.0890853 60.3456 0 59.8398 0 59.303C0 58.7661 0.0890853 58.2615 0.268568 57.7916C0.449388 57.3186 0.70879 56.9062 1.05017 56.5488C1.3911 56.1885 1.78129 55.9153 2.22313 55.7315C2.66371 55.5445 3.13965 55.4529 3.65294 55.4529C4.05656 55.4529 4.44036 55.5163 4.807 55.6395C5.1715 55.7656 5.52756 55.9539 5.87192 56.2075L5.81094 57.409ZM13.3448 62.9483H12.228V55.6277H13.3448V62.9483ZM19.4768 62.9483V55.3384L23.8386 59.8129C23.9572 59.939 24.0773 60.074 24.2005 60.2182C24.3203 60.362 24.4494 60.5234 24.5831 60.7046V55.6294H25.6169V63.233L21.166 58.6787C21.0475 58.5554 20.9315 58.4247 20.8217 58.2898C20.7091 58.1519 20.604 58.0097 20.5043 57.8597V62.9483H19.4768ZM31.784 62.9483V55.6294H35.6165V56.6392H32.8994V58.4739H35.6165V59.5177H32.8994V61.8834H35.6165V62.9483H31.784ZM47.0797 59.3341C47.0662 59.276 47.0456 59.1205 47.0187 58.8624C46.9935 58.6488 46.9728 58.4739 46.9535 58.3344C46.9237 58.4991 46.8838 58.6664 46.8334 58.8342C46.7816 58.999 46.716 59.1693 46.639 59.3446L44.8431 63.2435L43.047 59.2643C42.9714 59.0999 42.9062 58.9409 42.8512 58.7867C42.7977 58.634 42.7502 58.4844 42.7086 58.3344C42.7056 58.4874 42.6939 58.6475 42.6733 58.8149C42.6523 58.9839 42.6228 59.1604 42.5825 59.3446L41.8455 62.9483H40.8176L42.4416 55.3179L44.4677 59.9378C44.4988 60.0118 44.5462 60.1332 44.6101 60.3027C44.6753 60.473 44.7527 60.6836 44.8431 60.9329C44.9082 60.7235 45.012 60.4566 45.1528 60.1332C45.1886 60.0475 45.2181 59.9806 45.2374 59.9331L47.2158 55.3179L48.8756 62.9483H47.8389L47.0797 59.3341ZM55.8367 60.0727H57.7499L57.0465 58.4041C57.0066 58.296 56.9638 58.1729 56.9205 58.035C56.8776 57.8971 56.8317 57.7441 56.7901 57.5734C56.7502 57.7323 56.7132 57.8836 56.6699 58.0216C56.6287 58.1595 56.5841 58.2856 56.5408 58.4041L55.8367 60.0727ZM58.9229 62.9483L58.1425 61.0633H55.4255L54.628 62.9483H53.4545L56.7796 55.3384L60.0992 62.9483H58.9229ZM65.0053 61.4815L65.8954 61.0439C65.9799 61.3705 66.1355 61.6194 66.3595 61.7901C66.5866 61.9621 66.8741 62.0482 67.2226 62.0482C67.5535 62.0482 67.8187 61.9486 68.0146 61.7531C68.2088 61.556 68.3069 61.2932 68.3069 60.964C68.3069 60.534 67.9718 60.1497 67.3042 59.8129C67.2096 59.7641 67.1381 59.7254 67.0876 59.7049C66.3313 59.3105 65.8272 58.9544 65.5762 58.6353C65.3244 58.3179 65.1983 57.9265 65.1983 57.4683C65.1983 56.8705 65.388 56.3887 65.768 56.0178C66.1477 55.6483 66.6441 55.4629 67.2613 55.4629C67.767 55.4629 68.1912 55.5668 68.5322 55.7745C68.8736 55.9838 69.1094 56.2831 69.2398 56.6733L68.3679 57.1525C68.2299 56.9225 68.0799 56.7548 67.9138 56.6497C67.7524 56.5412 67.5623 56.4879 67.3487 56.4879C67.0507 56.4879 66.8118 56.5724 66.6353 56.7384C66.4575 56.9062 66.37 57.1286 66.37 57.409C66.37 57.8496 66.7572 58.2586 67.5341 58.637C67.5934 58.6681 67.6397 58.6917 67.672 58.7081C68.3514 59.0419 68.8172 59.3681 69.072 59.6855C69.3242 60.0046 69.4504 60.4032 69.4504 60.8778C69.4504 61.5719 69.2457 62.1222 68.8366 62.53C68.4271 62.9378 67.8739 63.1426 67.1769 63.1426C66.5924 63.1426 66.1136 62.9988 65.7382 62.7125C65.3661 62.4262 65.1209 62.0171 65.0053 61.4815Z" fill="#58595D"/>
</svg>
