<svg width="141" height="50" viewBox="0 0 141 50" fill="none" xmlns="http://www.w3.org/2000/svg">
<path d="M75.145 20.4939H70.3531V27.651H75.3271C77.8443 27.651 79.5124 26.5294 79.5124 24.1028C79.5124 21.7071 77.8144 20.4939 75.145 20.4939ZM67.3508 17.825H75.2361C79.816 17.825 82.6063 20.039 82.6063 23.9819C82.6063 26.833 81.1198 28.7136 78.8152 29.6228V29.8049L83.3339 35.5976V36.0221H79.9981L75.5397 30.2598H70.3531V36.0221H67.3508V17.825Z" fill="#58595D"/>
<path d="M100.62 28.2886H91.4608V33.3532H102.258V36.0221H88.458V17.825H102.258V20.4933H91.4608V25.7406H100.62V28.2886Z" fill="#58595D"/>
<path d="M119.727 28.2886H110.567V33.3532H121.364V36.0221H107.564V17.825H121.364V20.4933H110.567V25.7406H119.727V28.2886Z" fill="#58595D"/>
<path d="M126.67 36.022V17.825H129.673V33.3532H139.773V36.022H126.67Z" fill="#58595D"/>
<path d="M74.7252 48.3991C74.7252 48.3991 73.7106 49.5496 71.5605 49.5496C68.7137 49.5496 66.8064 47.4458 66.8064 44.8109C66.8064 42.1463 68.7137 40.0569 71.5605 40.0569C73.7255 40.0569 74.7252 41.2073 74.7252 41.2073L74.0136 42.1767C74.0136 42.1767 73.0592 41.2372 71.5759 41.2372C69.5168 41.2372 68.0782 42.8275 68.0782 44.8109C68.0782 46.7795 69.5168 48.3693 71.5759 48.3693C73.1055 48.3693 74.0136 47.4303 74.0136 47.4303L74.7252 48.3991Z" fill="#58595D"/>
<path d="M79.9502 40.2524H78.7087V49.3372H79.9502V40.2524Z" fill="#58595D"/>
<path d="M92.8522 49.3381H92.5039L86.0535 42.812V49.3381H84.8125V40.2534H85.1609L91.5958 46.7033V40.2534H92.8522V49.3381Z" fill="#58595D"/>
<path d="M103.727 45.4006H98.9417V48.2016H104.453V49.3377H97.7002V40.2524H104.453V41.3885H98.9417V44.2955H103.727V45.4006Z" fill="#58595D"/>
<path d="M116.356 42.9638L113.283 46.249H112.949L109.875 42.9782V49.3376H108.635V40.2534H108.983L113.116 44.6139L117.264 40.2534H117.597V49.3376H116.356V42.9638Z" fill="#58595D"/>
<path d="M125.882 42.7066H125.731L123.959 46.5979L123.868 46.7491H127.759L127.668 46.5979L125.882 42.7066ZM125.685 40.2534H125.942L130.469 49.3381H129.047L128.304 47.8538H123.323L122.581 49.3381H121.173L125.685 40.2534Z" fill="#58595D"/>
<path d="M133.97 47.5059C133.97 47.5059 134.97 48.3842 136.695 48.3842C138.224 48.3842 138.875 47.7935 138.875 46.9456C138.875 46.1734 138.361 45.7798 136.483 45.2504C134.303 44.6288 133.319 43.9625 133.319 42.5548C133.319 40.9948 134.59 40.0569 136.726 40.0569C138.997 40.0569 139.996 40.9346 139.996 40.9346L139.314 41.9642C139.314 41.9642 138.391 41.2222 136.726 41.2222C135.499 41.2222 134.636 41.6914 134.636 42.5394C134.636 43.2211 135.196 43.5694 137.028 44.069C139.406 44.7199 140.208 45.5225 140.208 46.9004C140.208 48.3991 139.148 49.5501 136.71 49.5501C134.363 49.5501 133.289 48.4444 133.289 48.4444L133.97 47.5059Z" fill="#58595D"/>
<path d="M57.9692 45.0392L47.6397 31.8438C54.1024 29.756 58.7766 23.6901 58.7766 16.5313C58.7766 7.64636 51.5731 0.443359 42.6881 0.443359C42.4207 0.443359 42.1554 0.449222 41.8913 0.46255H3.30374C1.47902 0.46255 0 1.94212 0 3.76631V46.5316C0 48.3563 1.47902 49.8359 3.30374 49.8359H16.4502V49.8157H19.1419C20.573 49.8157 21.8998 49.0647 22.6364 47.8381L27.0757 40.4481L31.5145 47.8381C32.2511 49.0647 33.5778 49.8157 35.0089 49.8157H37.9925V49.8359H55.8744C57.4339 49.8359 58.76 48.6056 58.7766 47.0461C58.7851 46.2653 58.4762 45.5569 57.9708 45.0414L57.9692 45.0392Z" fill="#58595D"/>
</svg>
