<svg width="191" height="78" viewBox="0 0 191 78" fill="none" xmlns="http://www.w3.org/2000/svg">
<path d="M154.611 15.68C154.611 13.049 154.608 10.4179 154.612 7.78687C154.615 5.76227 154.628 3.73771 154.638 1.71313C154.638 1.60429 154.635 1.4925 154.657 1.38727C154.712 1.13178 154.873 0.982794 155.14 0.980496C155.406 0.978214 155.578 1.12137 155.64 1.37248C155.672 1.49912 155.662 1.63722 155.663 1.77013C155.667 6.18373 155.624 10.598 155.688 15.0108C155.755 19.6633 155.9 24.3153 156.061 28.9658C156.11 30.4039 156.315 31.8372 156.471 33.2704C156.493 33.4707 156.601 33.6924 156.736 33.843C157.009 34.1454 157.312 34.1541 157.585 33.8518C157.973 33.4216 158.372 32.9849 158.671 32.4934C160.381 29.6891 162.067 26.8699 163.753 24.0508C164.356 23.0415 164.927 22.0127 165.537 21.0072C165.627 20.8575 165.846 20.7104 166.012 20.7035C166.161 20.6972 166.4 20.855 166.451 20.9946C166.509 21.1535 166.452 21.4 166.361 21.5611C165.635 22.8493 164.882 24.1227 164.15 25.4074C162.613 28.1023 160.987 30.7492 159.722 33.5904C159.574 33.9217 159.429 34.259 159.333 34.6074C159.157 35.2465 159.481 35.6115 160.139 35.5141C160.422 35.472 160.699 35.3638 160.97 35.2602C163.979 34.1072 166.809 32.5835 169.601 30.9955C176.146 27.2732 182.668 23.5124 189.2 19.7675C189.305 19.7072 189.408 19.6422 189.519 19.5925C189.787 19.4713 190.021 19.5226 190.185 19.773C190.336 20.0035 190.26 20.3007 189.994 20.4609C189.464 20.7795 188.924 21.0807 188.387 21.3877C181.031 25.5957 173.656 29.7741 166.501 34.3219C165.161 35.1736 163.853 36.076 162.548 36.9814C162.205 37.2194 161.896 37.5279 161.634 37.8543C161.297 38.2734 161.385 38.6943 161.89 38.8775C162.475 39.09 163.101 39.2856 163.715 39.3036C166.502 39.3849 169.29 39.4007 172.078 39.4408C172.478 39.4465 172.878 39.4496 173.277 39.4655C173.535 39.4758 173.674 39.6361 173.7 39.8817C173.728 40.1377 173.631 40.3423 173.371 40.419C173.234 40.4593 173.084 40.465 172.939 40.4661C170.696 40.4836 168.452 40.4785 166.209 40.5199C164.9 40.5441 163.592 40.6277 162.286 40.7154C161.969 40.7367 161.641 40.8412 161.351 40.9764C160.988 41.145 160.926 41.4455 161.19 41.748C161.475 42.075 161.777 42.4077 162.132 42.6493C164.236 44.0808 166.299 45.5842 168.484 46.8828C175.05 50.7856 181.665 54.6052 188.261 58.457C188.795 58.7688 189.331 59.0776 189.864 59.3902C190.241 59.6114 190.353 59.9054 190.172 60.191C190.001 60.4628 189.721 60.4931 189.342 60.2749C185.139 57.8553 180.961 55.3916 176.728 53.0266C172.22 50.5081 167.663 48.0778 163.119 45.6225C162.428 45.2486 161.706 44.9265 160.98 44.6211C160.617 44.4681 160.22 44.377 159.829 44.311C159.338 44.2282 159.167 44.361 159.249 44.8548C159.341 45.4077 159.481 45.979 159.735 46.4738C160.513 47.9945 161.345 49.4878 162.174 50.9819C163.533 53.4306 164.906 55.8714 166.272 58.3158C166.482 58.6916 166.438 58.9741 166.147 59.1301C165.846 59.2915 165.61 59.1964 165.387 58.8084C163.818 56.0752 162.264 53.3326 160.675 50.6108C160.016 49.4809 159.295 48.3855 158.573 47.294C158.321 46.9138 158.009 46.5618 157.674 46.2507C157.124 45.7386 156.637 45.8523 156.472 46.5797C156.245 47.5801 156.042 48.6002 155.98 49.6211C155.86 51.6037 155.808 53.5925 155.793 55.5792C155.738 62.3924 155.712 69.2057 155.675 76.019C155.673 76.2857 155.67 76.5525 155.662 76.819C155.651 77.1788 155.453 77.3946 155.144 77.3913C154.836 77.388 154.642 77.174 154.638 76.8104C154.626 75.6103 154.613 74.4102 154.612 73.2101C154.609 69.6695 154.617 66.1288 154.609 62.5881C154.6 58.2122 154.526 53.8375 154.22 49.4706C154.16 48.6256 154.049 47.7832 153.93 46.9442C153.893 46.6882 153.778 46.4308 153.647 46.2039C153.469 45.8975 153.198 45.835 152.902 46.0299C152.682 46.1738 152.483 46.3607 152.308 46.5579C151.295 47.6983 150.542 49.0146 149.77 50.32C148.086 53.1685 146.386 56.0076 144.691 58.8497C144.512 59.1489 144.254 59.2324 143.991 59.0881C143.708 58.9326 143.64 58.6436 143.841 58.3047C144.737 56.7927 145.627 55.2764 146.547 53.7788C147.956 51.4846 149.351 49.1822 150.448 46.7187C150.751 46.0392 150.935 45.3056 151.159 44.5925C151.252 44.2957 151.119 44.1299 150.809 44.2031C150.412 44.297 150.005 44.3875 149.637 44.5553C144.293 46.9909 139.159 49.8348 134.008 52.6441C129.634 55.0301 125.292 57.4748 120.936 59.8935C120.851 59.9406 120.763 60.0303 120.682 60.025C120.533 60.0154 120.387 59.9496 120.24 59.9072C120.289 59.7613 120.293 59.5534 120.394 59.4808C120.718 59.2486 121.078 59.0671 121.423 58.8651C128.038 54.9973 134.665 51.1491 141.261 47.2496C143.283 46.0537 145.234 44.7342 147.193 43.4339C147.732 43.0764 148.23 42.6276 148.658 42.1422C149.218 41.5072 149.007 40.8773 148.171 40.7321C147.316 40.5837 146.437 40.5446 145.567 40.5212C144.198 40.4844 142.826 40.5008 141.456 40.4947C140.985 40.4926 140.793 40.3369 140.807 39.9683C140.821 39.6122 141.034 39.5038 141.514 39.4934C143.476 39.451 145.438 39.404 147.399 39.3167C147.81 39.2984 148.232 39.1462 148.613 38.9762C149.103 38.7579 149.233 38.3474 148.894 37.9407C148.488 37.4546 148.028 36.9773 147.502 36.634C143.958 34.3227 140.45 31.9562 136.762 29.8715C131.284 26.7749 125.823 23.6491 120.354 20.5351C120.26 20.4812 120.115 20.4368 120.089 20.3572C120.025 20.1567 119.945 19.9167 120.002 19.733C120.076 19.4964 120.325 19.4172 120.578 19.5068C120.703 19.5509 120.819 19.6202 120.935 19.6863C127.278 23.3205 133.616 26.9651 139.967 30.5861C142.779 32.1893 145.642 33.699 148.611 34.9957C149.118 35.217 149.659 35.3786 150.199 35.4998C150.85 35.6458 151.236 35.2816 151.046 34.6476C150.818 33.8881 150.536 33.1246 150.147 32.4371C148.707 29.8953 147.212 27.3851 145.741 24.8607C145.089 23.7401 144.446 22.6132 143.797 21.4908C143.658 21.2515 143.596 21.0173 143.808 20.7904C144.073 20.5068 144.435 20.5792 144.665 20.9701C145.891 23.0479 147.106 25.1317 148.337 27.2057C149.365 28.9358 150.398 30.6628 151.456 32.374C151.707 32.78 152.024 33.1719 152.391 33.4742C153.092 34.0529 153.672 33.8397 153.897 32.9618C153.984 32.6233 154.04 32.2703 154.056 31.9214C154.223 28.2655 154.404 24.6099 154.529 20.9525C154.589 19.197 154.54 17.4376 154.54 15.68C154.563 15.68 154.587 15.68 154.611 15.68Z" fill="#58595D"/>
<path d="M93.6027 41.9192C95.7756 43.7704 97.9485 45.6215 100.187 47.5288C99.9996 47.5449 99.8986 47.561 99.7976 47.5612C98.8395 47.563 97.8813 47.5531 96.9234 47.5678C96.6486 47.5719 96.4456 47.4955 96.2471 47.304C94.4678 45.5869 92.6754 43.8834 90.9007 42.1616C90.6453 41.9138 90.3936 41.8085 90.038 41.8149C88.8862 41.8357 87.7337 41.8305 86.5817 41.8169C86.2988 41.8135 86.2074 41.894 86.2097 42.1848C86.2227 43.8215 86.2161 45.4583 86.2162 47.095V47.5413H83.7786V32.7931C83.9189 32.7931 84.0602 32.7931 84.2016 32.7931C88.0705 32.7931 91.9394 32.791 95.8082 32.7969C96.1217 32.7974 96.44 32.8277 96.7476 32.8874C97.9212 33.1154 98.6084 33.7473 98.674 34.9302C98.7617 36.5113 98.7612 38.1047 98.6727 39.6857C98.6067 40.8653 97.9506 41.5128 96.7745 41.6977C96.0019 41.8191 95.2053 41.7893 94.4192 41.821C94.1575 41.8315 93.895 41.8227 93.6328 41.8227C93.6228 41.8549 93.6128 41.887 93.6027 41.9192ZM86.216 34.7615C86.216 34.8974 86.216 35.0049 86.216 35.1125C86.216 36.5665 86.2254 38.0206 86.2089 39.4745C86.2051 39.8054 86.2941 39.9027 86.6337 39.9009C89.2881 39.8864 91.9426 39.8937 94.5971 39.8908C94.7901 39.8906 94.9844 39.874 95.1758 39.848C95.8819 39.7523 96.1878 39.4821 96.2242 38.7768C96.2722 37.8467 96.2883 36.9111 96.2451 35.9812C96.2043 35.1022 95.8328 34.7554 94.951 34.7487C92.1029 34.7269 89.2545 34.7336 86.4063 34.7304C86.36 34.7304 86.3138 34.745 86.216 34.7615Z" fill="#58595D"/>
<path d="M13.239 41.0698C13.0711 41.0698 12.9286 41.0698 12.7861 41.0698C9.79032 41.07 6.79452 41.081 3.79893 41.0606C3.26005 41.0569 2.71245 40.9648 2.18595 40.8409C1.45434 40.6689 0.976079 40.1772 0.799376 39.4463C0.686264 38.9785 0.591299 38.4935 0.58574 38.0151C0.574073 37.011 0.568082 36.0004 0.667647 35.0032C0.796367 33.714 1.35408 33.1617 2.61706 32.9127C2.98341 32.8405 3.36211 32.7996 3.73534 32.7984C6.52485 32.789 9.31455 32.7788 12.1038 32.8052C12.6769 32.8106 13.26 32.9244 13.8179 33.068C14.5312 33.2515 14.9939 33.7575 15.152 34.4718C15.2688 34.9997 15.2953 35.5485 15.3435 36.0897C15.3502 36.1649 15.252 36.3183 15.1995 36.3196C14.5371 36.3354 13.8743 36.33 13.2017 36.33V34.8227H2.81132V38.9103C2.96294 38.9103 3.1029 38.9103 3.24285 38.9103C6.23858 38.9103 9.23438 38.9005 12.23 38.9193C12.7578 38.9226 13.2924 39.0099 13.8105 39.1211C14.5879 39.2879 15.0836 39.7871 15.2976 40.5575C15.3009 40.5692 15.3063 40.5804 15.3084 40.5923C15.6273 42.3623 15.6431 44.1365 15.301 45.9009C15.1463 46.6985 14.6037 47.199 13.8061 47.364C13.3103 47.4665 12.8003 47.5508 12.2962 47.5537C9.27629 47.5711 6.2562 47.5712 3.23631 47.554C2.73202 47.5511 2.22083 47.4702 1.72615 47.3635C0.937747 47.1936 0.383562 46.7095 0.223582 45.9077C0.0918155 45.2473 0.0557773 44.5669 0.000326165 43.8934C-0.00596518 43.817 0.134726 43.6584 0.210544 43.6563C0.887858 43.6376 1.56591 43.6454 2.2951 43.6454V45.4828H13.239L13.239 41.0698Z" fill="#58595D"/>
<path d="M118.025 36.315H115.857V34.8198H105.454V38.9105H105.895C108.879 38.9105 111.863 38.9022 114.847 38.9187C115.351 38.9214 115.861 38.9997 116.358 39.0985C117.248 39.2753 117.777 39.8486 117.967 40.725C118.047 41.0904 118.118 41.4669 118.118 41.8383C118.118 43.0005 118.151 44.1693 118.041 45.3234C117.911 46.7041 117.278 47.2823 115.909 47.4836C115.586 47.5311 115.257 47.5585 114.931 47.5592C111.91 47.5648 108.89 47.5732 105.87 47.5528C105.331 47.5491 104.783 47.4543 104.255 47.3339C103.521 47.1666 103.06 46.6728 102.849 45.9514C102.633 45.2114 102.589 44.4556 102.633 43.6799H104.924V45.4758H115.881V41.0702C115.71 41.0702 115.567 41.0702 115.423 41.0702C112.427 41.0701 109.431 41.0768 106.435 41.0631C105.966 41.0609 105.492 40.9967 105.03 40.9073C104.113 40.7297 103.533 40.1562 103.368 39.2444C103.09 37.7062 103.09 36.1555 103.365 34.6164C103.562 33.5128 104.345 33.0288 105.383 32.8782C105.718 32.8296 106.058 32.7978 106.397 32.797C109.174 32.7908 111.952 32.7866 114.729 32.8008C115.186 32.8031 115.65 32.8649 116.098 32.957C117.059 33.1546 117.676 33.7333 117.842 34.7194C117.928 35.2294 117.962 35.7483 118.025 36.315Z" fill="#58595D"/>
<path d="M64.6973 32.815H78.9051C78.9051 33.4343 78.9091 34.0357 78.8981 34.6369C78.8971 34.6909 78.8055 34.7731 78.7425 34.7892C78.6399 34.8154 78.526 34.7987 78.4169 34.7987C74.8156 34.7988 71.2143 34.7987 67.6131 34.7987H67.188V38.8726H74.2969V40.8472H67.186V45.517C67.3447 45.517 67.4867 45.517 67.6287 45.517C71.2906 45.5169 74.9526 45.521 78.6144 45.5097C78.9434 45.5087 79.066 45.5884 79.0423 45.9304C79.0131 46.3526 79.0171 46.7795 79.0412 47.2023C79.0581 47.4982 78.9499 47.5689 78.6687 47.5678C76.1345 47.5584 73.6002 47.5623 71.066 47.5623C69.0653 47.5623 67.0645 47.557 65.0639 47.5681C64.7714 47.5697 64.6694 47.4996 64.67 47.1876C64.6799 42.5208 64.6769 37.854 64.678 33.1872C64.678 33.0696 64.6899 32.9519 64.6973 32.815Z" fill="#58595D"/>
<path d="M124.488 32.7931H124.895C128.775 32.793 132.655 32.7911 136.535 32.7966C136.836 32.797 137.142 32.8255 137.438 32.881C138.697 33.1168 139.393 33.8646 139.435 35.1507C139.481 36.5912 139.482 38.0358 139.433 39.4763C139.39 40.754 138.718 41.4775 137.457 41.7164C137.067 41.7903 136.662 41.8171 136.264 41.8182C133.306 41.8264 130.347 41.8306 127.389 41.8129C127.005 41.8106 126.929 41.9268 126.933 42.2831C126.952 43.8829 126.942 45.483 126.942 47.083C126.942 47.2253 126.942 47.3676 126.942 47.5358H124.488V32.7931ZM126.96 39.8179C127.061 39.8254 127.121 39.8338 127.181 39.8338C129.931 39.8347 132.681 39.8365 135.431 39.8319C135.648 39.8315 135.867 39.8018 136.08 39.7587C136.589 39.6553 136.914 39.3714 136.935 38.8588C136.977 37.8205 136.98 36.7781 136.939 35.7398C136.918 35.1992 136.61 34.9176 136.075 34.81C135.792 34.7533 135.499 34.7311 135.21 34.7305C132.593 34.7248 129.976 34.7269 127.359 34.7281C127.231 34.7282 127.104 34.7405 126.96 34.7479V39.8179Z" fill="#58595D"/>
<path d="M42.031 32.7943C42.9224 32.7943 43.7336 32.7835 44.5439 32.8071C44.6545 32.8103 44.7988 32.9644 44.8624 33.0834C45.9763 35.1668 47.0793 37.2559 48.1861 39.3431C49.134 41.1304 50.0836 42.9168 51.0332 44.7033C51.0839 44.7987 51.1414 44.8904 51.2187 45.0232C51.2838 44.9237 51.3399 44.8536 51.3797 44.7752C53.3597 40.8751 55.3398 36.9752 57.3124 33.0715C57.4128 32.8728 57.5207 32.7836 57.7513 32.7885C58.4415 32.8034 59.1323 32.7939 59.8692 32.7939C59.8311 32.9036 59.8125 32.9916 59.7723 33.0684C57.2908 37.8137 54.8065 42.5576 52.3285 47.3047C52.2225 47.5077 52.0901 47.5731 51.8706 47.5668C51.3981 47.5531 50.9242 47.5468 50.4524 47.5689C50.1825 47.5816 50.0458 47.4786 49.9195 47.2467C47.9851 43.6921 46.041 40.1427 44.0992 36.592C43.4887 35.4757 42.8785 34.3592 42.2686 33.2425C42.2003 33.1173 42.1349 32.9905 42.031 32.7943Z" fill="#58595D"/>
<path d="M170.573 34.8181V32.8132H186.537V34.8076H179.784C179.784 34.9946 179.784 35.1483 179.784 35.3021C179.784 39.23 179.784 43.1579 179.784 47.0859C179.784 47.403 179.628 47.5618 179.316 47.5623C178.662 47.5627 178.009 47.5624 177.313 47.5624V34.8181H170.573Z" fill="#58595D"/>
<path d="M29.7022 47.5386V32.8137H32.1526C32.1526 32.9751 32.1526 33.1165 32.1526 33.2579C32.1526 37.1973 32.1573 41.1367 32.1446 45.0761C32.1434 45.4308 32.2459 45.5149 32.5906 45.5137C36.022 45.5009 39.4535 45.5059 42.8849 45.5059C43.0156 45.5059 43.1463 45.5059 43.302 45.5059V47.5386H29.7022Z" fill="#58595D"/>
<path d="M115.594 61.8518C116.089 61.8518 116.584 61.8379 117.077 61.8634C117.178 61.8686 117.288 62.0083 117.366 62.1077C118.547 63.6148 119.723 65.1256 120.902 66.635C120.974 66.7283 121.053 66.8173 121.155 66.9398C121.271 66.7932 121.368 66.6734 121.462 66.5509C122.595 65.0677 123.731 63.587 124.855 62.0973C124.995 61.9122 125.136 61.8299 125.368 61.8396C125.776 61.8568 126.186 61.8445 126.616 61.8445V70.3009H124.838V64.518C124.815 64.5093 124.791 64.5006 124.768 64.4919C124.638 64.6955 124.52 64.9082 124.376 65.1012C123.389 66.4213 122.398 67.7382 121.406 69.0541C121.104 69.4541 120.899 69.4475 120.589 69.0348C119.462 67.5332 118.336 66.0308 117.181 64.4909V70.3038H115.594V61.8518Z" fill="#58595D"/>
<path d="M85.7117 70.3249C85.2984 70.3249 84.9112 70.3376 84.5258 70.3173C84.4072 70.3111 84.2752 70.2363 84.1799 70.1564C82.1455 68.4521 80.1151 66.7431 78.0855 65.0331C77.9036 64.8799 77.7324 64.7139 77.5277 64.5279V70.3044H75.7914V61.8527C76.215 61.8527 76.6363 61.845 77.0569 61.8592C77.1407 61.862 77.2307 61.938 77.3028 61.9983C79.3014 63.6696 81.299 65.3423 83.294 67.018C83.523 67.2103 83.7363 67.4214 83.9896 67.6539V61.8724H85.7117V70.3249Z" fill="#58595D"/>
<path d="M98.6364 68.729C99.3551 68.729 100.045 68.729 100.735 68.729C102.153 68.7291 103.572 68.7396 104.99 68.7213C105.319 68.717 105.412 68.8205 105.391 69.1342C105.366 69.5166 105.385 69.902 105.385 70.3056H96.6293V61.8711H105.268V63.2978H98.6249V65.163H102.509C102.509 65.6262 102.524 66.0476 102.495 66.4661C102.49 66.5364 102.3 66.6479 102.195 66.6493C101.152 66.663 100.11 66.6574 99.0671 66.6573C98.9343 66.6573 98.8014 66.6573 98.6364 66.6573V68.729Z" fill="#58595D"/>
<path d="M52.3446 64.6519H50.3016V63.4015C50.1335 63.3932 50.0158 63.3824 49.8982 63.3823C48.395 63.3809 46.8917 63.3886 45.3887 63.3743C45.0873 63.3714 44.9957 63.4591 44.9984 63.7619C45.012 65.2887 45.0041 66.8157 45.0053 68.3426C45.0054 68.4607 45.0169 68.5787 45.0239 68.7121H50.2796V67.3622H52.355C52.2824 68.0568 52.2471 68.7548 52.1256 69.4374C52.0369 69.9358 51.6131 70.1516 51.1478 70.2414C50.876 70.2939 50.5952 70.3216 50.3183 70.3227C48.5363 70.3298 46.7543 70.3281 44.9723 70.3261C43.4868 70.3245 43.0126 69.8483 43.0118 68.3632C43.011 66.8363 43.0114 65.3094 43.0112 63.7825C43.0112 63.7219 43.0106 63.6612 43.012 63.6007C43.0395 62.3939 43.5056 61.8904 44.7198 61.8744C46.6708 61.8487 48.6223 61.863 50.5735 61.8726C50.8242 61.8739 51.0789 61.9303 51.3242 61.9915C51.7749 62.1039 52.0892 62.3942 52.1615 62.8523C52.2531 63.4325 52.2836 64.0224 52.3446 64.6519Z" fill="#58595D"/>
<path d="M147.273 70.3262C146.555 70.3262 145.88 70.3337 145.205 70.317C145.116 70.3148 145.001 70.2061 144.949 70.1169C144.687 69.6669 144.432 69.2118 144.195 68.7484C144.094 68.5517 143.977 68.4698 143.747 68.4714C142.171 68.4821 140.594 68.4817 139.018 68.4721C138.78 68.4706 138.646 68.5395 138.54 68.7598C138.32 69.2181 138.074 69.6651 137.821 70.106C137.765 70.2027 137.633 70.3134 137.533 70.3169C136.954 70.3368 136.373 70.3266 135.727 70.3266C135.932 69.9565 136.11 69.6325 136.292 69.311C137.646 66.917 139.005 64.525 140.352 62.127C140.468 61.9198 140.592 61.8303 140.833 61.8412C141.269 61.8609 141.707 61.8271 142.142 61.858C142.29 61.8686 142.493 61.9692 142.564 62.0911C144.103 64.7423 145.627 67.4022 147.153 70.0611C147.193 70.1308 147.22 70.2081 147.273 70.3262ZM143.206 66.921C142.595 65.7654 142.019 64.6764 141.411 63.5261C140.77 64.6962 140.171 65.7889 139.551 66.921H143.206Z" fill="#58595D"/>
<path d="M21.2837 32.8086H23.6997V47.5383H21.2837V32.8086Z" fill="#58595D"/>
<path d="M62.9318 61.866H64.8663V70.3097H62.9318V61.866Z" fill="#58595D"/>
</svg>
