<svg width="220" height="35" viewBox="0 0 220 35" fill="none" xmlns="http://www.w3.org/2000/svg">
<path d="M14.8256 17.4738C14.1905 17.0248 13.4644 16.6635 12.6664 16.4016C11.8797 16.142 11.0665 15.9135 10.2515 15.7218C9.4462 15.5329 8.6369 15.3531 7.84628 15.1885C7.07714 15.0302 6.37645 14.8254 5.76341 14.58C5.16789 14.3419 4.68547 14.0314 4.33031 13.6587C3.99155 13.3019 3.81908 12.8257 3.81908 12.2421C3.81908 11.6047 3.9418 11.0691 4.18386 10.6472C4.42647 10.2248 4.75392 9.88317 5.15885 9.63152C5.57056 9.37533 6.04899 9.18983 6.5823 9.07898C7.12239 8.96814 7.68171 8.91099 8.24159 8.91099C9.61586 8.91099 10.756 9.2328 11.632 9.86904C12.4956 10.4968 13.0074 11.5334 13.1556 12.9501L13.172 13.1079H16.0987L16.0924 12.9258C16.0534 11.7766 15.83 10.7711 15.4279 9.93748C15.0247 9.10275 14.4665 8.40033 13.7698 7.85005C13.0736 7.30092 12.2552 6.89427 11.3362 6.64036C10.4229 6.38812 9.42075 6.25977 8.35754 6.25977C7.40743 6.25977 6.46863 6.38303 5.56659 6.62566C4.65833 6.86883 3.83717 7.24495 3.12572 7.74318C2.40806 8.24481 1.82385 8.89233 1.39178 9.66995C0.956312 10.4504 0.736307 11.383 0.736307 12.4428C0.736307 13.4104 0.933697 14.2293 1.32166 14.8769C1.70905 15.5205 2.23103 16.0526 2.87349 16.4576C3.50633 16.8574 4.23192 17.1832 5.02934 17.4258C5.8177 17.6667 6.62925 17.881 7.44194 18.0615C8.25631 18.2441 9.05655 18.4206 9.84265 18.5936C10.6101 18.7622 11.3097 18.985 11.9216 19.2581C12.5177 19.5239 12.9995 19.8706 13.3541 20.2891C13.6979 20.6952 13.8733 21.2375 13.8733 21.9003C13.8733 22.6095 13.7273 23.1966 13.4406 23.645C13.1505 24.098 12.7653 24.46 12.2954 24.7218C11.8175 24.9893 11.2701 25.1799 10.6678 25.2913C9.30084 25.5453 7.92489 25.5158 6.64791 25.1793C5.94607 24.995 5.32229 24.7043 4.79633 24.3169C4.27321 23.9318 3.84565 23.4335 3.52498 22.8369C3.20489 22.2436 3.04258 21.5226 3.04258 20.6929V20.517H0.104614V20.6929C0.104614 21.9597 0.337616 23.0755 0.797967 24.0047C1.25775 24.9356 1.89397 25.7109 2.68969 26.3087C3.47748 26.9037 4.40668 27.3533 5.44953 27.6457C6.48447 27.9364 7.59858 28.0834 8.75963 28.0834C9.70635 28.0834 10.6729 27.9708 11.6303 27.748C12.5929 27.5252 13.4774 27.1598 14.2578 26.6616C15.0428 26.1611 15.6943 25.5045 16.1959 24.71C16.6998 23.9092 16.9554 22.9347 16.9554 21.8138C16.9554 20.7732 16.7592 19.8926 16.3729 19.1987C15.9884 18.5093 15.4681 17.9291 14.8256 17.4738Z" fill="#58595D"/>
<path d="M19.1655 9.39895H26.0069V27.6235H29.0891V9.39895H35.9304V6.74829H19.1655V9.39895Z" fill="#58595D"/>
<path d="M54.5989 17.1028C55.5439 16.0582 56.0241 14.6263 56.0241 12.8454C56.0241 10.8473 55.428 9.31304 54.2539 8.28601C53.0855 7.26522 51.4466 6.74829 49.3807 6.74829H40.4089V27.6235H43.4623V19.1721H47.7694L54.069 27.5528L54.1216 27.6235H57.9593L51.2509 18.9487C52.5935 18.6942 53.7189 18.0744 54.5989 17.1028ZM43.4623 9.39895H48.4605C49.9112 9.39895 51.0371 9.67835 51.808 10.2286C52.5601 10.7659 52.9419 11.6464 52.9419 12.8454C52.9419 14.0489 52.5618 14.9701 51.8131 15.5837C51.0547 16.2058 49.9264 16.5208 48.4605 16.5208H43.4623L43.4623 9.39895Z" fill="#58595D"/>
<path d="M66.7158 6.74707H63.6337V27.6229H66.7158V6.74707Z" fill="#58595D"/>
<path d="M93.0419 6.74707H88.9971L78.8395 16.7368V6.74707H75.7567V27.6229H78.8395V20.3365L82.0574 17.3346L89.3568 27.5488L89.4094 27.6229H93.2964L84.1855 15.2223L93.0419 6.74707Z" fill="#58595D"/>
<path d="M138.174 11.7956C137.963 11.441 137.681 11.1639 137.326 10.962C136.971 10.7612 136.569 10.6272 136.118 10.5593C135.669 10.4932 135.204 10.4592 134.725 10.4592H130.269V16.3521H134.523C135.041 16.3521 135.539 16.3086 136.018 16.2232C136.497 16.1367 136.919 15.9738 137.282 15.7335C137.647 15.4948 137.939 15.1735 138.16 14.7709C138.38 14.3688 138.49 13.8513 138.49 13.2191C138.49 12.6252 138.385 12.1508 138.174 11.7956Z" fill="#58595D"/>
<path d="M111.577 0.323242V9.39907H115.675V15.098H121.556V18.7056H115.675V24.9723H111.577V34.6578H219.664V0.323242H111.577ZM138.921 27.4477L133.46 19.7151H130.269V27.4477H125.784V6.92368H135.845C136.785 6.92368 137.681 7.04412 138.533 7.28333C139.386 7.52313 140.133 7.90091 140.775 8.41839C141.418 8.93585 141.929 9.58736 142.313 10.3735C142.696 11.159 142.887 12.0978 142.887 13.1904C142.887 14.8576 142.471 16.2138 141.637 17.2578C140.804 18.3023 139.707 18.9968 138.346 19.3418L144.556 27.4477H138.921ZM164.888 27.4477H149.308V6.92368H164.657V10.7184H153.821V15.1161H163.767V18.623H153.821V23.6535H164.888V27.4477ZM187.72 27.4477H172.139V6.92368H187.489V10.7184H176.653V15.1161H186.599V18.623H176.653V23.6535H187.72V27.4477ZM209.488 27.4477H194.971V6.92368H199.484V23.6535H209.488V27.4477Z" fill="#58595D"/>
<path d="M109.659 15.4172H103.033V18.3858H109.659V15.4172Z" fill="#58595D"/>
<path d="M100.758 24.9716V9.39834H110.3V6.74707H97.6761V27.6223H110.304V24.9716H100.758Z" fill="#58595D"/>
</svg>
