<svg width="24" height="20" viewBox="0 0 24 20" fill="none" xmlns="http://www.w3.org/2000/svg">
<path d="M23.6663 2.91187C22.8083 3.29209 21.8865 3.549 20.9174 3.66512C21.906 3.07321 22.6644 2.13396 23.022 1.0159C22.0972 1.56465 21.0726 1.96337 19.9823 2.17712C19.1088 1.24814 17.8654 0.666504 16.4884 0.666504C13.8453 0.666504 11.7017 2.81014 11.7017 5.45525C11.7017 5.82931 11.7448 6.19309 11.825 6.54454C7.84497 6.34415 4.31918 4.4379 1.95769 1.54204C1.54664 2.25111 1.31028 3.07321 1.31028 3.94875C1.31028 5.6094 2.15602 7.07582 3.43953 7.93389C2.65442 7.9082 1.91658 7.69343 1.27123 7.33479V7.39644C1.27123 9.7158 2.92058 11.6508 5.11148 12.0907C4.70865 12.1996 4.28629 12.2571 3.85058 12.2571C3.54229 12.2571 3.2412 12.2284 2.94935 12.1729C3.55873 14.074 5.32626 15.4592 7.42159 15.4962C5.78252 16.7808 3.71802 17.5463 1.47573 17.5463C1.08934 17.5463 0.708092 17.5237 0.333008 17.4795C2.45198 18.8391 4.96761 19.6304 7.67028 19.6304C16.4771 19.6304 21.2915 12.3363 21.2915 6.01017C21.2915 5.80465 21.2864 5.59707 21.2771 5.39154C22.2122 4.71536 23.0241 3.87373 23.6643 2.91496L23.6663 2.91187Z" fill="#2E2F35"/>
</svg>
