<svg width="24" height="24" viewBox="0 0 24 24" fill="none" xmlns="http://www.w3.org/2000/svg">
<path d="M23.6663 2.04918V21.9511C23.6663 22.4062 23.4856 22.8426 23.1638 23.1643C22.8421 23.4861 22.4057 23.6668 21.9507 23.6668H2.04869C1.59367 23.6668 1.15727 23.4861 0.835521 23.1643C0.513767 22.8426 0.333008 22.4062 0.333008 21.9511L0.333008 2.04918C0.333008 1.59415 0.513767 1.15776 0.835521 0.836009C1.15727 0.514255 1.59367 0.333496 2.04869 0.333496L21.9507 0.333496C22.4057 0.333496 22.8421 0.514255 23.1638 0.836009C23.4856 1.15776 23.6663 1.59415 23.6663 2.04918ZM7.19575 9.25506H3.76438V20.2355H7.19575V9.25506ZM7.50458 5.48055C7.50638 5.221 7.45705 4.96363 7.35939 4.72314C7.26173 4.48265 7.11766 4.26375 6.9354 4.07894C6.75314 3.89414 6.53627 3.74704 6.29716 3.64605C6.05805 3.54506 5.80139 3.49215 5.54183 3.49036H5.48007C4.95223 3.49036 4.44602 3.70004 4.07279 4.07327C3.69955 4.44651 3.48987 4.95272 3.48987 5.48055C3.48987 6.00839 3.69955 6.5146 4.07279 6.88784C4.44602 7.26107 4.95223 7.47075 5.48007 7.47075C5.73964 7.47714 5.99793 7.43231 6.24017 7.33884C6.48242 7.24537 6.70387 7.10509 6.89188 6.926C7.07989 6.74691 7.23077 6.53254 7.3359 6.29512C7.44103 6.0577 7.49834 5.8019 7.50458 5.54232V5.48055ZM20.235 13.5649C20.235 10.2639 18.135 8.98055 16.0487 8.98055C15.3656 8.94635 14.6855 9.09184 14.0762 9.40252C13.4669 9.71319 12.9497 10.1782 12.5761 10.7511H12.4801V9.25506H9.25458V20.2355H12.6859V14.3953C12.6363 13.7971 12.8248 13.2036 13.2103 12.7436C13.5957 12.2835 14.1472 11.9942 14.7448 11.9384H14.8752C15.9663 11.9384 16.7761 12.6247 16.7761 14.3541V20.2355H20.2075L20.235 13.5649Z" fill="#2E2F35"/>
</svg>
