<svg width="24" height="24" viewBox="0 0 24 24" fill="none" xmlns="http://www.w3.org/2000/svg">
<path fill-rule="evenodd" clip-rule="evenodd" d="M11.9997 0.333496C8.83101 0.333496 8.43434 0.346718 7.1899 0.403496C5.94779 0.460274 5.09923 0.657829 4.35723 0.946385C3.57945 1.23883 2.87401 1.69772 2.29067 2.29194C1.6974 2.8746 1.23823 3.57955 0.945119 4.35772C0.658119 5.09972 0.459786 5.94905 0.403008 7.19116C0.347008 8.43483 0.333008 8.83072 0.333008 12.0002C0.333008 15.1696 0.34623 15.5655 0.403008 16.8099C0.459786 18.0521 0.657341 18.9006 0.945897 19.6426C1.23834 20.4204 1.69723 21.1258 2.29145 21.7092C2.87413 22.3024 3.57907 22.7616 4.35723 23.0547C5.09923 23.3425 5.94779 23.5401 7.1899 23.5968C8.43434 23.6536 8.83101 23.6668 11.9997 23.6668C15.1683 23.6668 15.565 23.6536 16.8095 23.5968C18.0516 23.5401 18.9001 23.3425 19.6421 23.0539C20.4199 22.7615 21.1253 22.3026 21.7087 21.7084C22.3019 21.1257 22.7611 20.4208 23.0542 19.6426C23.342 18.9006 23.5396 18.0521 23.5963 16.8099C23.6531 15.5655 23.6663 15.1688 23.6663 12.0002C23.6663 8.8315 23.6531 8.43483 23.5963 7.19039C23.5396 5.94827 23.342 5.09972 23.0535 4.35772C22.7606 3.57921 22.3014 2.87397 21.7079 2.29116C21.1252 1.69789 20.4203 1.23872 19.6421 0.945607C18.9001 0.658607 18.0508 0.460274 16.8087 0.403496C15.565 0.347496 15.1691 0.333496 11.9997 0.333496ZM11.9997 2.43583C15.1147 2.43583 15.4841 2.4475 16.7146 2.5035C17.8517 2.55561 18.4692 2.74461 18.8807 2.90561C19.4251 3.11639 19.814 3.36994 20.2223 3.7775C20.6307 4.18583 20.8835 4.57472 21.0942 5.11916C21.2545 5.53061 21.4442 6.14816 21.4963 7.28527C21.5523 8.51572 21.564 8.88516 21.564 12.0002C21.564 15.1152 21.5523 15.4846 21.4963 16.7151C21.4442 17.8522 21.2552 18.4697 21.0942 18.8812C20.9075 19.3879 20.6096 19.8464 20.2223 20.2228C19.846 20.6102 19.3875 20.9081 18.8807 21.0947C18.4692 21.2549 17.8517 21.4447 16.7146 21.4968C15.4841 21.5528 15.1155 21.5645 11.9997 21.5645C8.8839 21.5645 8.51523 21.5528 7.28479 21.4968C6.14768 21.4447 5.53012 21.2557 5.11868 21.0947C4.61192 20.908 4.15346 20.6101 3.77701 20.2228C3.38981 19.8463 3.09189 19.3879 2.90512 18.8812C2.7449 18.4697 2.55512 17.8522 2.50301 16.7151C2.44701 15.4846 2.43534 15.1152 2.43534 12.0002C2.43534 8.88516 2.44701 8.51572 2.50301 7.28527C2.55512 6.14816 2.74412 5.53061 2.90512 5.11916C3.1159 4.57472 3.36945 4.18583 3.77701 3.7775C4.15341 3.3902 4.61188 3.09226 5.11868 2.90561C5.53012 2.74539 6.14768 2.55561 7.28479 2.5035C8.51523 2.4475 8.88468 2.43583 11.9997 2.43583Z" fill="#2E2F35"/>
<path fill-rule="evenodd" clip-rule="evenodd" d="M11.9997 15.8929C11.4885 15.8929 10.9823 15.7923 10.51 15.5966C10.0377 15.401 9.60856 15.1143 9.24708 14.7528C8.88561 14.3913 8.59887 13.9622 8.40324 13.4899C8.20761 13.0176 8.10692 12.5114 8.10692 12.0002C8.10692 11.489 8.20761 10.9828 8.40324 10.5105C8.59887 10.0382 8.88561 9.60903 9.24708 9.24755C9.60856 8.88608 10.0377 8.59934 10.51 8.40371C10.9823 8.20808 11.4885 8.10739 11.9997 8.10739C13.0321 8.10739 14.0223 8.51752 14.7523 9.24755C15.4823 9.97759 15.8925 10.9677 15.8925 12.0002C15.8925 13.0326 15.4823 14.0227 14.7523 14.7528C14.0223 15.4828 13.0321 15.8929 11.9997 15.8929ZM11.9997 6.0035C10.4093 6.0035 8.884 6.63529 7.75941 7.75988C6.63482 8.88447 6.00303 10.4097 6.00303 12.0002C6.00303 13.5906 6.63482 15.1159 7.75941 16.2404C8.884 17.365 10.4093 17.9968 11.9997 17.9968C13.5901 17.9968 15.1154 17.365 16.24 16.2404C17.3646 15.1159 17.9964 13.5906 17.9964 12.0002C17.9964 10.4097 17.3646 8.88447 16.24 7.75988C15.1154 6.63529 13.5901 6.0035 11.9997 6.0035ZM19.7409 5.89461C19.7409 6.27055 19.5916 6.6311 19.3257 6.89693C19.0599 7.16276 18.6994 7.31211 18.3234 7.31211C17.9475 7.31211 17.5869 7.16276 17.3211 6.89693C17.0553 6.6311 16.9059 6.27055 16.9059 5.89461C16.9059 5.51866 17.0553 5.15812 17.3211 4.89228C17.5869 4.62645 17.9475 4.47711 18.3234 4.47711C18.6994 4.47711 19.0599 4.62645 19.3257 4.89228C19.5916 5.15812 19.7409 5.51866 19.7409 5.89461Z" fill="#2E2F35"/>
</svg>
