<svg width="159" height="36" viewBox="0 0 159 36" fill="none" xmlns="http://www.w3.org/2000/svg">
<path d="M58.0495 3.94586C50.2705 3.94586 43.9414 10.2749 43.9414 18.0541C43.9414 25.8328 50.2705 32.162 58.0495 32.162C65.8289 32.162 72.1576 25.8328 72.1576 18.0541C72.1576 10.2749 65.8289 3.94586 58.0495 3.94586ZM58.0495 30.0074C51.4587 30.0074 46.0965 24.6445 46.0965 18.0541C46.0965 11.4632 51.4587 6.10088 58.0495 6.10088C64.6407 6.10088 70.0022 11.4632 70.0022 18.0541C70.0022 24.6445 64.6407 30.0074 58.0495 30.0074ZM58.0495 0.430176C48.3318 0.430176 40.4259 8.33632 40.4259 18.0541C40.4259 27.7718 48.3318 35.6776 58.0495 35.6776C67.7672 35.6776 75.6731 27.7718 75.6731 18.0541C75.6731 8.33633 67.7672 0.430176 58.0495 0.430176ZM58.0495 33.5229C49.5196 33.5229 42.5809 26.5836 42.5809 18.0541C42.5809 9.52455 49.5196 2.58472 58.0495 2.58472C66.579 2.58472 73.5185 9.52455 73.5185 18.0541C73.5185 26.5836 66.579 33.5229 58.0495 33.5229ZM142.324 17.0917L127.374 2.14151H130.421L142.324 14.0439L154.227 2.14151H157.274L142.324 17.0917ZM126.412 3.10338V6.15079L138.314 18.0536L126.412 29.9569V33.0038L141.362 18.0536L126.412 3.10338ZM127.374 33.9664L130.421 33.9668L158.237 6.15079V3.10338L127.374 33.9664ZM85.2363 2.14151H88.2836L100.187 14.0439L112.09 2.14151H115.137L100.187 17.0917L85.2363 2.14151ZM116.099 33.0038V29.9569L104.197 18.0536L116.099 6.15079V3.10338L101.149 18.0536L116.099 33.0038ZM88.2836 33.9668L100.187 22.0638L112.09 33.9668L115.137 33.9664L100.187 19.0159L85.2363 33.9664L88.2836 33.9668ZM84.2745 3.10338V6.15122L96.1767 18.0536L84.2745 29.9565V33.0038L99.2248 18.0536L84.2745 3.10338ZM14.9224 19.2216L30.9023 33.9664H27.7249L11.8109 19.2805L23.3172 7.81268H5.67085V33.9656H3.51625V5.65771H28.5318L14.9224 19.2216ZM31.8237 32.9677L31.8245 30.0361L19.9964 19.1255L31.8245 7.33718V4.29658L16.8843 19.1843L31.8237 32.9677ZM31.8245 4.29658L29.6555 2.1424H0V33.9656H2.15469V4.29747L31.8245 4.29658Z" fill="#58595D"/>
</svg>
