<svg width="27" height="31" viewBox="0 0 27 31" fill="none" xmlns="http://www.w3.org/2000/svg">
<path d="M6.45176 14.4291C6.26007 14.447 6.06837 14.453 5.87068 14.453C5.56516 14.453 2.68967 13.8839 2.70764 13.5784L2.5459 16.0945L4.61265 19.9045L8.24295 20.5934L11.6576 17.8916C11.8673 17.7239 11.8972 16.5617 11.9451 16.3041C12.1189 15.3397 12.2207 14.3212 12.4963 13.3807C12.7479 12.5241 13.2451 11.3319 11.8193 11.5236C10.777 11.6614 10.0641 12.4941 9.33923 13.1651C8.54847 13.8899 7.5121 14.3213 6.44577 14.4231L6.45176 14.4291Z" fill="#FC4B23"/>
<path d="M13.2333 9.42104L4.70271 7.534C4.3912 7.46211 4.07969 7.64782 3.97785 7.95334L2.24657 13.4168C1.86916 15.1181 2.06086 16.8374 2.77973 18.2691C3.41473 19.5332 4.40318 20.4377 5.58932 20.875L4.48705 25.8652L0.317595 28.1955C0.0959431 28.3214 -0.0298594 28.573 0.0060842 28.8246C0.0420278 29.0762 0.233727 29.2798 0.485332 29.3398L7.85975 30.9692C7.90168 30.9812 7.94961 30.9812 7.99154 30.9812C8.19522 30.9812 8.39291 30.8793 8.50673 30.6996C8.65051 30.484 8.63853 30.2084 8.48876 29.9987L5.69116 26.1228L6.79343 21.1326C6.92522 21.1446 7.05701 21.1566 7.1888 21.1566C8.32103 21.1566 9.44127 20.7492 10.4357 19.9585C11.6877 18.964 12.5863 17.4844 12.9697 15.7291L13.6946 10.104C13.7365 9.78646 13.5269 9.49292 13.2153 9.42104H13.2333ZM12.3287 11.1823L12.173 12.4163L11.7776 15.5195C11.4601 16.9392 10.7233 18.1733 9.68688 18.988C8.69244 19.7728 7.54824 20.0783 6.45795 19.8387C5.37366 19.5991 4.45709 18.8442 3.88799 17.712C3.37879 16.6936 3.19308 15.4895 3.34883 14.2974L3.67233 13.0214L4.99026 8.86391L12.4186 10.5053L12.3287 11.1823Z" fill="#2E2F35"/>
<path d="M16.7136 10.4095C16.6237 10.1579 16.5638 9.89433 16.5159 9.63074C16.1984 7.98932 16.2044 6.29997 15.8509 4.66454C15.4975 3.02911 14.7127 1.3757 13.269 0.537022C12.8496 0.291408 12.3584 0.123669 11.8792 0.219519C11.3999 0.315368 10.9686 0.740701 10.9985 1.22594C11.0345 1.83698 11.6935 2.17245 12.2027 2.51392C13.3708 3.29269 14.1017 4.6226 14.3892 6.00044C14.6708 7.35431 14.2155 8.66625 14.3892 9.97819C14.527 11.0206 14.8924 12.1468 15.0841 13.2071C15.1321 13.4587 15.162 14.6269 15.3717 14.7946L18.7863 17.4964L22.4166 16.8075C22.812 16.7296 23.7525 14.3453 23.9562 13.9619C24.5013 12.9555 25.1363 10.9666 23.1714 11.2003C22.5903 11.2662 22.0632 11.5537 21.512 11.7514C20.5775 12.0869 19.5471 12.1648 18.5707 11.9791C18.1693 11.9012 17.7619 11.7754 17.4384 11.5238C17.085 11.2482 16.8633 10.8468 16.7136 10.4155V10.4095Z" fill="#FC4B23"/>
<path d="M13.305 7.00083L14.0299 12.626C14.4133 14.3812 15.3119 15.8609 16.5639 16.8553C17.5584 17.6401 18.6846 18.0535 19.8108 18.0535C19.9426 18.0535 20.0744 18.0415 20.2062 18.0295L21.3085 23.0197L18.5109 26.8956C18.3611 27.1053 18.3551 27.3808 18.4929 27.5965C18.6067 27.7702 18.8044 27.878 19.0081 27.878C19.05 27.878 19.0979 27.878 19.1399 27.8661L26.5143 26.2366C26.7659 26.1827 26.9576 25.979 26.9935 25.7214C27.0295 25.4698 26.9097 25.2182 26.682 25.0924L22.5126 22.7621L21.4103 17.7719C22.6024 17.3406 23.5849 16.436 24.2199 15.166C24.9388 13.7402 25.1305 12.015 24.7531 10.3136L23.0218 4.8502C22.9259 4.54468 22.6084 4.36497 22.2969 4.43086L13.7663 6.3179C13.4548 6.38979 13.2451 6.68332 13.2871 7.00083H13.305ZM14.599 7.40219L22.0273 5.76077L23.3453 9.91824L23.6688 11.1942C23.8245 12.3864 23.6388 13.5965 23.1296 14.6089C22.5605 15.7411 21.6499 16.4959 20.5596 16.7355C19.4754 16.9752 18.3252 16.6756 17.3307 15.8849C16.3003 15.0702 15.5575 13.8361 15.24 12.4163L14.8446 9.31319L14.6889 8.07913L14.599 7.40219Z" fill="#2E2F35"/>
<path d="M10.1541 0.309314C9.82462 0.06969 9.39929 -0.0740846 9.0099 0.0397366C8.62051 0.153558 8.32697 0.608844 8.48872 0.986251C8.65645 1.38163 9.21358 1.47149 9.59099 1.27979C9.84259 1.15399 10.0523 0.914364 10.0822 0.632806C10.1122 0.351248 9.91448 0.0517173 9.63292 0.0157737" fill="#FC4B23"/>
</svg>
