<svg width="159" height="69" viewBox="0 0 159 69" fill="none" xmlns="http://www.w3.org/2000/svg">
<path d="M21.6655 25.4556L22.2449 34.6316H21.6655C20.8928 31.8848 19.7896 29.9078 18.3569 28.7003C16.9237 27.4928 15.2036 26.8888 13.1974 26.8888C11.5148 26.8888 9.99392 27.3435 8.63601 28.2523C7.27751 29.1613 6.20874 30.611 5.4302 32.6014C4.65108 34.5918 4.26149 37.0667 4.26149 40.0258C4.26149 42.4674 4.62889 44.584 5.36479 46.3753C6.09952 48.1669 7.20565 49.5403 8.68271 50.4955C10.1592 51.451 11.8448 51.9287 13.7395 51.9287C15.3841 51.9287 16.8361 51.554 18.0947 50.8041C19.3533 50.0545 20.7369 48.5649 22.2449 46.3356L22.8243 46.7336C21.5534 49.1355 20.0699 50.8938 18.3756 52.0081C16.6801 53.1228 14.6675 53.6803 12.3372 53.6803C8.13728 53.6803 4.8847 52.0216 2.57947 48.7042C0.859448 46.236 -0.000244141 43.3301 -0.000244141 39.9861C-0.000244141 37.2925 0.566279 34.8176 1.7005 32.5617C2.83472 30.3058 4.39528 28.5577 6.38338 27.3166C8.37089 26.0761 10.543 25.4556 12.8978 25.4556C14.73 25.4556 16.537 25.9333 18.3195 26.8888C18.8428 27.1809 19.2167 27.3266 19.4409 27.3266C19.7774 27.3266 20.07 27.2007 20.3193 26.9484C20.6435 26.5904 20.8742 26.0928 21.0114 25.4556H21.6655Z" fill="#58595D"/>
<path d="M33.0548 34.2936V48.9432C33.0548 50.0845 33.1326 50.844 33.2885 51.2222C33.4439 51.6004 33.6746 51.8825 33.98 52.0682C34.2855 52.2542 34.8426 52.3468 35.6533 52.3468V53.0634H27.3347V52.3468C28.1693 52.3468 28.73 52.2606 29.0168 52.0881C29.3035 51.9158 29.5307 51.6301 29.6989 51.2321C29.8677 50.8341 29.9518 50.0713 29.9518 48.9432V41.9169C29.9518 39.9399 29.8958 38.6593 29.7831 38.0753C29.696 37.6507 29.5587 37.3557 29.3718 37.1896C29.1849 37.0237 28.9298 36.9408 28.6056 36.9408C28.2564 36.9408 27.8329 37.0404 27.3347 37.2392L27.0725 36.5229L32.2319 34.2936H33.0548ZM31.5031 24.7593C32.0264 24.7593 32.472 24.9553 32.84 25.3466C33.2073 25.7379 33.3913 26.2121 33.3913 26.7696C33.3913 27.3268 33.2073 27.8045 32.84 28.2028C32.472 28.6009 32.0264 28.7997 31.5031 28.7997C30.9798 28.7997 30.5312 28.6009 30.1574 28.2028C29.783 27.8045 29.5962 27.3267 29.5962 26.7696C29.5962 26.2121 29.7801 25.7379 30.148 25.3466C30.5154 24.9553 30.9669 24.7593 31.5031 24.7593Z" fill="#58595D"/>
<path d="M44.5745 38.1548C46.5813 35.5807 48.494 34.2935 50.3139 34.2935C51.2483 34.2935 52.052 34.5422 52.7254 35.0398C53.3982 35.5375 53.9338 36.3569 54.3327 37.4978C54.6067 38.2941 54.7439 39.5151 54.7439 41.1604V48.9431C54.7439 50.0975 54.8309 50.8807 55.0055 51.2919C55.1428 51.6236 55.3642 51.8823 55.6696 52.0681C55.9745 52.2541 56.5387 52.3467 57.361 52.3467V53.0633H48.8929V52.3467H49.248C50.0452 52.3467 50.6036 52.2173 50.9213 51.9586C51.239 51.6998 51.4604 51.3184 51.5848 50.8141C51.6344 50.6149 51.6595 49.9915 51.6595 48.9431V41.479C51.6595 39.8203 51.4569 38.616 51.0522 37.866C50.6468 37.1167 49.9646 36.7415 49.005 36.7415C47.5221 36.7415 46.0451 37.6044 44.5745 39.3291V48.9431C44.5745 50.1772 44.6428 50.9402 44.7801 51.232C44.9547 51.6172 45.1947 51.899 45.5001 52.078C45.805 52.257 46.4253 52.3467 47.3598 52.3467V53.0633H38.8917V52.3467H39.2655C40.1381 52.3467 40.7268 52.1112 41.0322 51.6402C41.3377 51.1692 41.4901 50.2701 41.4901 48.9431V42.1755C41.4901 39.9862 41.4434 38.6525 41.3499 38.1747C41.2565 37.697 41.1134 37.3719 40.9201 37.1994C40.7268 37.0271 40.468 36.9406 40.1445 36.9406C39.7952 36.9406 39.3776 37.0402 38.8917 37.2391L38.6113 36.5227L43.7708 34.2935H44.5745V38.1548Z" fill="#58595D"/>
<path d="M63.4042 41.6974C63.3914 44.4044 64.0082 46.5278 65.2545 48.067C66.5009 49.6066 67.9651 50.3757 69.6478 50.3757C70.7691 50.3757 71.7445 50.0475 72.5733 49.3904C73.402 48.7337 74.0971 47.6091 74.6577 46.0167L75.237 46.4147C74.9754 48.2329 74.215 49.888 72.9563 51.3809C71.6977 52.8737 70.1214 53.6201 68.2267 53.6201C66.1709 53.6201 64.41 52.7677 62.9458 51.0626C61.4816 49.3575 60.7498 47.0651 60.7498 44.1854C60.7498 41.0675 61.5002 38.6355 63.0018 36.8907C64.5034 35.1458 66.3887 34.2729 68.6572 34.2729C70.5758 34.2729 72.1528 34.9467 73.3863 36.2935C74.6204 37.6403 75.237 39.4418 75.237 41.6974H63.4042ZM63.4042 40.543H71.3304C71.2679 39.3755 71.137 38.5526 70.9373 38.0748C70.626 37.3319 70.1617 36.7482 69.5449 36.3233C68.9282 35.8987 68.2828 35.6864 67.61 35.6864C66.5757 35.6864 65.65 36.1142 64.8341 36.9701C64.0176 37.826 63.5409 39.0172 63.4042 40.543Z" fill="#58595D"/>
<path d="M78.083 36.6422L83.3546 34.3729H84.0649V38.6326C84.9497 37.0271 85.8373 35.9025 86.7286 35.2586C87.6199 34.6153 88.5579 34.2935 89.542 34.2935C91.262 34.2935 92.6953 35.0098 93.8417 36.443C95.2499 38.1946 95.9543 40.4771 95.9543 43.2901C95.9543 46.4352 95.1068 49.036 93.4119 51.0927C92.016 52.778 90.2586 53.6204 88.1403 53.6204C87.2175 53.6204 86.4203 53.4812 85.7474 53.2026C85.2487 53.0037 84.688 52.6054 84.0649 52.0082V57.5616C84.0649 58.8089 84.1366 59.602 84.2797 59.9401C84.4228 60.2786 84.6728 60.5472 85.0279 60.7464C85.383 60.9456 86.0278 61.0449 86.9623 61.0449V61.7813H77.9895V61.0449H78.4568C79.1419 61.058 79.7282 60.9187 80.2141 60.627C80.4507 60.4806 80.6347 60.2453 80.7656 59.9203C80.8964 59.595 80.9618 58.7691 80.9618 57.4422V40.2049C80.9618 39.0239 80.9121 38.2743 80.8123 37.9557C80.7124 37.6374 80.5535 37.3985 80.3356 37.2391C80.1172 37.0799 79.8217 37.0002 79.448 37.0002C79.1483 37.0002 78.768 37.0934 78.3072 37.2791L78.083 36.6422ZM84.0649 39.8069V46.6142C84.0649 48.0872 84.1209 49.0558 84.233 49.5201C84.4077 50.2899 84.8346 50.9668 85.5139 51.5506C86.1931 52.1346 87.0493 52.4264 88.0842 52.4264C89.33 52.4264 90.3398 51.9089 91.1125 50.8737C92.1217 49.5202 92.627 47.6162 92.627 45.1611C92.627 42.3746 92.0534 40.2318 90.907 38.7319C90.1092 37.697 89.1617 37.1795 88.0655 37.1795C87.4674 37.1795 86.8752 37.3387 86.2894 37.6573C85.8409 37.8961 85.0992 38.6125 84.0649 39.8069Z" fill="#58595D"/>
<path d="M109.961 50.4359C108.204 51.8823 107.101 52.7184 106.653 52.9438C105.98 53.2753 105.263 53.4414 104.503 53.4414C103.319 53.4414 102.343 53.0104 101.577 52.1478C100.811 51.2851 100.428 50.1506 100.428 48.744C100.428 47.855 100.615 47.0852 100.988 46.4352C101.499 45.5328 102.387 44.6833 103.652 43.8873C104.917 43.0912 107.02 42.1226 109.961 40.9814V40.2647C109.961 38.4469 109.69 37.1994 109.148 36.5227C108.606 35.8458 107.818 35.5074 106.783 35.5074C105.998 35.5074 105.375 35.7334 104.914 36.1843C104.44 36.6355 104.204 37.1529 104.204 37.7367L104.241 38.8914C104.241 39.5017 104.094 39.973 103.802 40.3045C103.509 40.6362 103.125 40.8021 102.652 40.8021C102.191 40.8021 101.814 40.6298 101.521 40.2846C101.228 39.9397 101.082 39.4684 101.082 38.8715C101.082 37.7303 101.63 36.6819 102.727 35.7264C103.823 34.7709 105.362 34.2935 107.344 34.2935C108.864 34.2935 110.111 34.5656 111.083 35.1094C111.818 35.5208 112.36 36.1644 112.709 37.0402C112.933 37.6108 113.046 38.7786 113.046 40.5433V46.7337C113.046 48.4721 113.076 49.5371 113.139 49.9284C113.201 50.32 113.304 50.5819 113.448 50.7145C113.591 50.8474 113.756 50.9137 113.943 50.9137C114.142 50.9137 114.317 50.8673 114.466 50.7744C114.728 50.6021 115.233 50.1173 115.98 49.3213V50.4359C114.584 52.4263 113.251 53.4216 111.98 53.4216C111.369 53.4216 110.883 53.1959 110.522 52.7447C110.16 52.2938 109.973 51.524 109.961 50.4359ZM109.961 49.142V42.1953C108.079 42.9917 106.864 43.5558 106.316 43.8873C105.331 44.4713 104.627 45.0817 104.204 45.7186C103.78 46.3555 103.568 47.0523 103.568 47.8086C103.568 48.7638 103.836 49.5569 104.372 50.1871C104.907 50.8176 105.524 51.1324 106.223 51.1324C107.169 51.1324 108.416 50.4692 109.961 49.142Z" fill="#58595D"/>
<path d="M118.359 34.8315H126.416V35.568C125.905 35.568 125.547 35.6609 125.341 35.8466C125.135 36.0326 125.033 36.2779 125.033 36.5831C125.033 36.9017 125.25 37.3926 125.687 38.0561C125.824 38.2684 126.03 38.6004 126.303 39.0513L127.519 41.1214L128.921 39.0513C129.818 37.7374 130.267 36.9084 130.267 36.5632C130.267 36.2847 130.161 36.049 129.949 35.8565C129.737 35.6644 129.394 35.568 128.921 35.568V34.8315H134.715V35.568C134.105 35.6077 133.575 35.787 133.127 36.1053C132.516 36.5568 131.681 37.5386 130.622 39.0513L128.285 42.3754L132.548 48.9039C133.594 50.5097 134.342 51.4751 134.79 51.8002C135.239 52.1255 135.819 52.3077 136.529 52.3474V53.064H128.453V52.3474C129.014 52.3474 129.45 52.2151 129.762 51.9494C129.999 51.7637 130.117 51.5183 130.117 51.2129C130.117 50.9077 129.718 50.138 128.921 48.9039L126.416 45.0027L123.668 48.9039C122.82 50.1117 122.397 50.8283 122.397 51.0537C122.397 51.372 122.537 51.6608 122.817 51.9196C123.098 52.1783 123.518 52.3211 124.079 52.3474V53.064H118.489V52.3474C118.938 52.2811 119.331 52.1155 119.668 51.8498C120.141 51.4652 120.938 50.4834 122.06 48.9039L125.649 43.8285L122.397 38.8124C121.474 37.3794 120.761 36.4806 120.256 36.1153C119.752 35.7505 119.118 35.568 118.359 35.568V34.8315Z" fill="#58595D"/>
<path d="M99.1366 64.9025C99.0695 64.8303 98.99 64.6239 98.99 64.0501V58.9206C98.99 58.3944 99.0537 58.1941 99.1069 58.1188C99.2359 57.9374 99.455 57.8492 99.778 57.8492H100.132V57.4854H97.725L94.8912 63.5279L92.0317 57.528L92.0112 57.4854H89.6033V57.8492H89.678C89.9939 57.8492 90.2241 57.8846 90.3613 57.9538C90.4951 58.0215 90.5868 58.1048 90.6353 58.2023C90.7089 58.3454 90.7462 58.5872 90.7462 58.9206V64.0501C90.7462 64.5757 90.6826 64.7766 90.6294 64.852C90.4998 65.0333 90.2825 65.1215 89.9642 65.1215H89.6033V65.4853H92.5621V65.1215H92.2017C91.9073 65.1215 91.6918 65.0479 91.561 64.9034C91.4967 64.8315 91.4196 64.625 91.4196 64.0501V59.1385L94.3953 65.4424L94.4158 65.4853H94.7072L97.6976 59.1391V64.0501C97.6976 64.5757 97.6339 64.7766 97.5802 64.8528C97.4546 65.0336 97.2373 65.1215 96.9155 65.1215H96.5551V65.4853H100.132V65.1215H99.778C99.4836 65.1215 99.2681 65.0479 99.1366 64.9025Z" fill="#58595D"/>
<path d="M106.035 64.647C105.801 64.7468 105.602 64.7886 105.465 64.6753C105.413 64.6327 105.374 64.5503 105.348 64.4309C105.32 64.3007 105.305 63.9272 105.305 63.3206V60.0327H103.299V60.3951L103.372 60.3966C103.792 60.4053 103.96 60.4833 104.028 60.5473C104.125 60.6381 104.174 60.8253 104.174 61.1033V64.0764C103.893 64.3506 103.648 64.5392 103.445 64.6368C103.24 64.7358 103.056 64.786 102.897 64.786C102.664 64.786 102.471 64.7162 102.307 64.5728C102.148 64.4335 102.067 64.1254 102.067 63.6564V60.0327H100.008V60.3975L100.083 60.3966C100.352 60.3945 100.544 60.415 100.642 60.4617C100.738 60.5073 100.808 60.5704 100.857 60.6545C100.891 60.7126 100.93 60.844 100.93 61.138V63.506C100.93 64.0048 100.975 64.3982 101.065 64.675C101.156 64.9586 101.322 65.1939 101.558 65.3744C101.794 65.5557 102.077 65.6475 102.397 65.6475C102.682 65.6475 102.956 65.5803 103.212 65.448C103.444 65.3277 103.76 65.0611 104.174 64.6353V65.6475H104.531L106.245 64.9601L106.104 64.6175L106.035 64.647Z" fill="#58595D"/>
<path d="M108.516 65.0527C108.427 65.0042 108.362 64.9347 108.318 64.841C108.288 64.7741 108.251 64.6109 108.251 64.2123V57.1035H107.909L106.181 57.7872L106.349 58.1236L106.412 58.099C106.685 57.993 106.861 57.9843 106.966 58.0695C107.013 58.1081 107.05 58.1904 107.074 58.3075C107.101 58.4389 107.114 58.8051 107.114 59.3956V64.2123C107.114 64.605 107.076 64.7747 107.043 64.8477C106.999 64.9476 106.937 65.0194 106.861 65.0618C106.806 65.0916 106.679 65.1275 106.385 65.1275H106.311V65.4855H109.132V65.1275H109.057C108.723 65.1275 108.578 65.0869 108.516 65.0527Z" fill="#58595D"/>
<path d="M112.186 64.2821L112.167 64.327C112.105 64.4669 112.019 64.5738 111.909 64.6442C111.799 64.7151 111.684 64.751 111.569 64.751C111.432 64.751 111.323 64.7011 111.236 64.5978C111.147 64.4932 111.102 64.2759 111.102 63.9515V60.5874H112.375V60.0325H111.102V58.29H110.793L110.774 58.3359C110.612 58.7211 110.486 58.988 110.399 59.129C110.225 59.4003 110.024 59.6377 109.802 59.8345C109.582 60.0302 109.364 60.1706 109.155 60.2521L109.107 60.2705V60.5874H109.97V64.0788C109.97 64.469 110.014 64.7648 110.102 64.9581C110.191 65.1552 110.332 65.3088 110.52 65.4148C110.705 65.5191 110.898 65.5719 111.093 65.5719C111.378 65.5719 111.657 65.4706 111.923 65.2705C112.187 65.0717 112.394 64.7729 112.538 64.3825L112.574 64.2821H112.186Z" fill="#58595D"/>
<path d="M113.974 58.4282C114.16 58.4282 114.321 58.3624 114.452 58.2328C114.583 58.1028 114.65 57.9446 114.65 57.7629C114.65 57.581 114.583 57.4236 114.451 57.2951C114.32 57.1681 114.16 57.1035 113.974 57.1035C113.783 57.1035 113.621 57.1681 113.49 57.2951C113.358 57.423 113.292 57.5804 113.292 57.7629C113.292 57.9454 113.359 58.1037 113.493 58.2331C113.626 58.3625 113.788 58.4282 113.974 58.4282Z" fill="#58595D"/>
<path d="M115.37 65.1278H115.295C114.991 65.1278 114.857 65.089 114.799 65.0563C114.715 65.0101 114.654 64.9409 114.61 64.8449C114.579 64.7759 114.542 64.6101 114.542 64.2126V59.877H114.206L112.465 60.5579L112.604 60.9034L112.672 60.8789C112.947 60.7784 113.149 60.7714 113.248 60.852C113.293 60.8891 113.329 60.9618 113.353 61.0672C113.388 61.2319 113.405 61.6025 113.405 62.169V64.2126C113.405 64.606 113.365 64.7748 113.331 64.8469C113.284 64.9488 113.223 65.0192 113.146 65.0621C113.091 65.0919 112.96 65.1278 112.646 65.1278H112.572V65.4858H115.37V65.1278Z" fill="#58595D"/>
<path d="M118.985 59.877C118.659 59.877 118.343 59.9757 118.048 60.1699C117.804 60.3316 117.558 60.5959 117.316 60.9569V59.9H117.015L115.241 60.5924L115.365 60.916L115.434 60.8903C115.738 60.7781 115.91 60.8018 116.012 60.8704C116.068 60.9078 116.109 60.965 116.135 61.0416C116.155 61.0991 116.179 61.255 116.179 61.6711V66.6849C116.179 67.1498 116.148 67.3171 116.123 67.3755C116.088 67.4541 116.04 67.5116 115.98 67.5455C115.837 67.6237 115.656 67.6658 115.456 67.6579H115.233V68.0215H118.239V67.6579H118.164C117.88 67.6579 117.684 67.6313 117.582 67.5794C117.483 67.5285 117.416 67.4634 117.378 67.3799C117.35 67.3189 117.316 67.1548 117.316 66.7193V65.2636C117.473 65.3869 117.619 65.4736 117.751 65.5215C117.972 65.6053 118.238 65.6479 118.539 65.6479C119.232 65.6479 119.816 65.3924 120.273 64.8878C120.823 64.2783 121.101 63.4981 121.101 62.5685C121.101 61.7351 120.869 61.0483 120.41 60.5276C120.032 60.096 119.553 59.877 118.985 59.877ZM119.893 63.1126C119.893 63.8053 119.736 64.3484 119.427 64.7269C119.194 65.0125 118.898 65.1512 118.521 65.1512C118.21 65.1512 117.95 65.0709 117.749 64.9123C117.547 64.7537 117.419 64.5689 117.367 64.3616C117.334 64.2328 117.316 63.9548 117.316 63.5354V61.585C117.703 61.1796 117.892 61.0415 117.983 60.9968C118.158 60.9101 118.337 60.8661 118.515 60.8661C118.844 60.8661 119.121 61.005 119.362 61.2906C119.714 61.7115 119.893 62.3244 119.893 63.1126Z" fill="#58595D"/>
<path d="M123.794 65.0527C123.704 65.0042 123.64 64.9347 123.596 64.841C123.566 64.7741 123.529 64.6109 123.529 64.2123V57.1035H123.187L121.459 57.7872L121.627 58.1236L121.69 58.099C121.963 57.993 122.139 57.9843 122.244 58.0695C122.291 58.1081 122.328 58.1904 122.352 58.3075C122.379 58.4389 122.392 58.8051 122.392 59.3956V64.2123C122.392 64.605 122.353 64.7747 122.321 64.8477C122.276 64.9476 122.215 65.0194 122.139 65.0618C122.084 65.0916 121.957 65.1275 121.663 65.1275H121.588V65.4855H124.41V65.1275H124.335C124.001 65.1275 123.856 65.0869 123.794 65.0527Z" fill="#58595D"/>
<path d="M129.152 63.3348C128.979 63.7825 128.765 64.1011 128.515 64.2824C128.265 64.4632 127.966 64.5549 127.627 64.5549C127.116 64.5549 126.664 64.3373 126.284 63.9083C125.914 63.4913 125.723 62.9102 125.713 62.1802H129.481V62.1054C129.481 61.4317 129.276 60.885 128.87 60.4805C128.465 60.0761 127.94 59.8711 127.311 59.8711C126.571 59.8711 125.947 60.1351 125.456 60.656C124.967 61.1759 124.719 61.9071 124.719 62.829C124.719 63.6823 124.961 64.3727 125.439 64.8805C125.917 65.3898 126.501 65.6479 127.175 65.6479C127.796 65.6479 128.321 65.4207 128.735 64.9728C129.144 64.5298 129.395 64.0304 129.48 63.489L129.488 63.4402L129.184 63.2501L129.152 63.3348ZM126.978 60.4318C127.177 60.4318 127.371 60.4902 127.554 60.6055C127.737 60.7206 127.877 60.8812 127.97 61.083C128.024 61.2016 128.062 61.4071 128.082 61.6948H125.723C125.774 61.3102 125.917 61.0042 126.146 60.7843C126.394 60.5472 126.666 60.4318 126.978 60.4318Z" fill="#58595D"/>
<path d="M135.457 65.1274C135.246 65.1169 135.072 65.0675 134.942 64.9808C134.849 64.9191 134.653 64.7261 134.247 64.1573L132.922 62.3035L133.633 61.3804C133.963 60.9488 134.225 60.6661 134.411 60.5408C134.543 60.4556 134.701 60.4071 134.881 60.3966L134.951 60.3922V60.0327H132.957V60.3966H133.032C133.163 60.3966 133.258 60.4191 133.311 60.4632C133.362 60.5049 133.385 60.5519 133.385 60.6112C133.385 60.6492 133.345 60.7914 132.972 61.2902L132.59 61.8056L132.26 61.2934C132.173 61.1617 132.107 61.0645 132.063 61.0017C131.893 60.7669 131.868 60.66 131.868 60.6171C131.868 60.5502 131.891 60.5002 131.94 60.4602C131.975 60.4313 132.054 60.3966 132.234 60.3966H132.309V60.0327H129.594V60.3966H129.669C129.895 60.3966 130.084 60.4459 130.232 60.5435C130.383 60.6433 130.606 60.9009 130.894 61.3086L131.897 62.7223L130.788 64.1549C130.437 64.607 130.185 64.8905 130.041 64.9968C129.945 65.0663 129.83 65.1104 129.7 65.1279L129.635 65.1367V65.4854H131.565V65.1306L131.493 65.1274C131.332 65.1207 131.212 65.0847 131.137 65.0205C131.064 64.9594 131.029 64.8958 131.029 64.8278C131.031 64.8067 131.067 64.7031 131.418 64.2463L132.231 63.1921L132.97 64.244C133.302 64.713 133.338 64.8394 133.338 64.8721C133.338 64.9367 133.311 64.9855 133.254 65.0275C133.168 65.0938 133.043 65.1274 132.883 65.1274H132.808V65.4854H135.528V65.1312L135.457 65.1274Z" fill="#58595D"/>
<path d="M151.463 35.6479L152.921 40.8706L158.049 42.631L153.532 45.6308L153.443 51.0521L149.194 47.6834L144.01 49.2736L145.901 44.1919L142.787 39.7533L148.204 39.9813L151.463 35.6479Z" fill="#58595D"/>
<path d="M143.259 15.0569L144.228 19.0904L148.1 20.5788L144.563 22.7468L144.344 26.8893L141.189 24.1957L137.182 25.2674L138.769 21.4347L136.511 17.9546L140.647 18.2794L143.259 15.0569Z" fill="#58595D"/>
<path d="M130.159 4.32715L131.128 8.36068L135 9.8491L131.464 12.0171L131.245 16.1596L128.09 13.466L124.082 14.5377L125.669 10.705L123.412 7.22487L127.547 7.54973L130.159 4.32715Z" fill="#58595D"/>
<path d="M113.936 0.146973L115.231 3.84213L119.009 4.87074L115.894 7.24361L116.083 11.1544L112.864 8.92573L109.203 10.3141L110.328 6.56383L107.876 3.51117L111.791 3.42202L113.936 0.146973Z" fill="#58595D"/>
<path d="M136.339 1.22168L137.003 3.55546L139.302 4.33144L137.287 5.68425L137.26 8.11054L135.351 6.61285L133.035 7.33645L133.869 5.05797L132.465 3.07887L134.89 3.1684L136.339 1.22168Z" fill="#58595D"/>
<path d="M121.846 16.2722L122.51 18.606L124.809 19.382L122.795 20.7348L122.767 23.1611L120.858 21.6634L118.542 22.387L119.376 20.1086L117.973 18.1295L120.397 18.219L121.846 16.2722Z" fill="#58595D"/>
<path d="M69.6707 20.5151L70.5807 22.2966L72.564 22.557L71.1509 23.9729L71.5162 25.9396L69.7329 25.0332L67.9754 25.9884L68.2863 24.0123L66.8347 22.6359L68.8102 22.321L69.6707 20.5151Z" fill="#58595D"/>
<path d="M62.4131 19.9575L63.323 21.739L65.3064 21.9993L63.8933 23.4153L64.2586 25.382L62.4753 24.4756L60.7177 25.4308L61.0287 23.4547L59.5771 22.0783L61.5526 21.7634L62.4131 19.9575Z" fill="#58595D"/>
<path d="M54.8433 23.6611L55.5096 24.9656L56.9619 25.1563L55.9271 26.1931L56.1947 27.6332L54.8889 26.9695L53.6018 27.669L53.8295 26.2219L52.7666 25.2141L54.2131 24.9835L54.8433 23.6611Z" fill="#58595D"/>
<path d="M45.3776 24.2642L45.7961 25.0834L46.7081 25.2031L46.0583 25.8542L46.2263 26.7587L45.4062 26.3418L44.598 26.7811L44.741 25.8724L44.0735 25.2394L44.9819 25.0946L45.3776 24.2642Z" fill="#58595D"/>
<path d="M34.1295 18.8848L34.548 19.704L35.4601 19.8237L34.8103 20.4748L34.9782 21.3793L34.1582 20.9624L33.3499 21.4017L33.4929 20.493L32.8254 19.86L33.7338 19.7152L34.1295 18.8848Z" fill="#58595D"/>
<path d="M146.094 30.356L147.594 33.076L150.685 33.3822L148.562 35.6495L149.226 38.684L146.413 37.3652L143.732 38.9345L144.118 35.8522L141.797 33.7875L144.847 33.2012L146.094 30.356Z" fill="#58595D"/>
<path d="M151.671 22.8691L151.778 25.8855L154.324 27.5073L151.488 28.5413L150.732 31.4635L148.873 29.0862L145.86 29.2704L147.546 26.7671L146.44 23.9588L149.342 24.789L151.671 22.8691Z" fill="#58595D"/>
<path d="M100.996 4.11694L102.195 6.88695L105.157 7.46965L102.893 9.46586L103.254 12.4625L100.656 10.9262L97.9172 12.1955L98.5753 9.24985L96.522 7.03768L99.5269 6.75342L100.996 4.11694Z" fill="#58595D"/>
<path d="M88.9883 13.8604L90.4937 16.7111L93.6954 17.0872L91.4494 19.3997L92.0811 22.5611L89.1876 21.1395L86.3763 22.7172L86.8341 19.5261L84.4648 17.3399L87.6412 16.7892L88.9883 13.8604Z" fill="#58595D"/>
<path d="M79.8385 18.709L82.2173 20.9541L85.4155 20.2674L84.0153 23.2235L85.6567 26.0529L82.4125 25.6348L80.2289 28.0702L79.6241 24.8556L76.6331 23.5314L79.5035 21.9628L79.8385 18.709Z" fill="#58595D"/>
<path d="M94.1856 6.41455L94.1784 8.40357L95.8128 9.53712L93.9189 10.1449L93.3459 12.0496L92.1826 10.4362L90.1941 10.4799L91.369 8.87496L90.713 6.9972L92.6024 7.61871L94.1856 6.41455Z" fill="#58595D"/>
</svg>
