<svg width="120" height="52" viewBox="0 0 120 52" fill="none" xmlns="http://www.w3.org/2000/svg">
<path d="M97.8511 17.5125L92.8438 20.4031L97.8511 23.2938V17.5125Z" fill="#58595D"/>
<path d="M100.083 16.2241L97.8518 17.5127V23.2933L100.083 24.5819L107.329 20.4068L100.083 16.2241Z" fill="#58595D"/>
<path d="M90.605 10.7522V19.11L92.8439 20.4028L97.8512 17.5121V14.9357L90.605 10.7522Z" fill="#58595D"/>
<path d="M97.8518 14.936V17.5125L100.083 16.2247L97.8518 14.936Z" fill="#58595D"/>
<path d="M92.8439 20.4031L90.605 21.6959V30.0553L97.8512 25.8719V23.2946L92.8439 20.4031Z" fill="#58595D"/>
<path d="M97.8518 23.2949V25.8722L100.083 24.5835L97.8518 23.2949Z" fill="#58595D"/>
<path d="M90.605 19.1106V21.6962L92.8439 20.4034L90.605 19.1106Z" fill="#58595D"/>
<path d="M1.2884 50.6719H4.02773C4.31872 50.6719 4.36028 51.1292 4.02773 51.1292H1.10799C0.913437 51.1292 0.789551 50.9912 0.789551 50.8249V47.0172C0.789551 46.8576 0.913437 46.7188 1.10799 46.7188H4.0344C4.33287 46.7188 4.31872 47.1627 4.02773 47.1627H1.2884V48.7232H3.89638C4.17321 48.7232 4.18736 49.1671 3.89638 49.1671H1.2884V50.6719Z" fill="#58595D"/>
<path d="M10.2846 46.8856C10.2846 46.5947 10.8117 46.5805 10.8117 46.8856V50.8662C10.8117 51.2129 10.3328 51.2478 10.1874 51.0051L7.59346 47.5308L7.64919 48.4877V50.9352C7.64919 51.2753 7.12207 51.2827 7.12207 50.9352V46.9621C7.12207 46.6154 7.51032 46.5597 7.68407 46.8166L10.3536 50.3874L10.2846 49.3407V46.8856Z" fill="#58595D"/>
<path d="M17.1163 46.7119C17.4563 46.7119 17.4563 47.1908 17.1163 47.1908H15.5699C15.5699 48.4387 15.5766 49.7074 15.5766 50.9561C15.5766 51.1298 15.4311 51.213 15.313 51.213C15.195 51.213 15.0636 51.1298 15.0636 50.9561V47.1908H13.524C13.1981 47.1908 13.1981 46.7119 13.524 46.7119H17.1163Z" fill="#58595D"/>
<path d="M20.4041 50.6719H23.1435C23.4344 50.6719 23.476 51.1292 23.1435 51.1292H20.2237C20.0292 51.1292 19.9053 50.9912 19.9053 50.8249V47.0172C19.9053 46.8576 20.0292 46.7188 20.2237 46.7188H23.1501C23.4486 46.7188 23.4344 47.1627 23.1435 47.1627H20.4041V48.7232H23.0121C23.2889 48.7232 23.3031 49.1671 23.0121 49.1671H20.4041V50.6719Z" fill="#58595D"/>
<path d="M26.7778 49.5835V50.9287C26.7778 51.2479 26.2715 51.2479 26.2715 50.9353V46.9547C26.2715 46.8092 26.3754 46.7119 26.5284 46.7119H28.1712C29.3717 46.7119 29.9819 47.392 29.9819 48.2034C29.9819 48.9034 29.6003 49.4097 28.7473 49.5552L29.8705 50.769C30.1341 51.0326 29.7533 51.3377 29.5238 51.1016L28.123 49.5835H26.7778ZM26.7778 49.1462H28.1787C29.0874 49.1462 29.4822 48.723 29.4681 48.2034C29.4615 47.6347 28.9834 47.1767 28.1787 47.1767H26.7778V49.1462Z" fill="#58595D"/>
<path d="M36.141 46.7119C36.481 46.7119 36.481 47.1908 36.141 47.1908H34.5946C34.5946 48.4387 34.6013 49.7074 34.6013 50.9561C34.6013 51.1298 34.4558 51.213 34.3377 51.213C34.2197 51.213 34.0883 51.1298 34.0883 50.9561V47.1908H32.5486C32.2227 47.1908 32.2227 46.7119 32.5486 46.7119H36.141Z" fill="#58595D"/>
<path d="M38.7906 49.9648L38.2286 51.0606C38.1039 51.3175 37.6458 51.137 37.7713 50.8594L39.8656 46.7333C39.9071 46.6426 40.0044 46.6011 40.0942 46.6011C40.184 46.6011 40.268 46.6426 40.3162 46.7333L42.4037 50.8386C42.5841 51.137 42.0703 51.31 41.939 51.0398L41.3978 49.9648H38.7906ZM40.0942 47.3435L38.9985 49.5275H41.1833L40.0942 47.3435Z" fill="#58595D"/>
<path d="M45.0054 46.8093C45.0054 46.4626 45.5258 46.4692 45.5258 46.8093V50.9562C45.5258 51.2754 45.0054 51.2896 45.0054 50.9562V46.8093Z" fill="#58595D"/>
<path d="M51.6425 46.8856C51.6425 46.5947 52.1696 46.5805 52.1696 46.8856V50.8662C52.1696 51.2129 51.6907 51.2478 51.5453 51.0051L48.9514 47.5308L49.007 48.4877V50.9352C49.007 51.2753 48.48 51.2827 48.48 50.9352V46.9621C48.48 46.6154 48.8682 46.5597 49.042 46.8166L51.7115 50.3874L51.6425 49.3407V46.8856Z" fill="#58595D"/>
<path d="M59.0979 46.8235C59.2575 46.5741 59.5767 46.6572 59.5767 46.9482V50.9429C59.5767 51.2755 59.0705 51.2755 59.0705 50.9429V47.7879L57.6554 49.9993C57.5449 50.2005 57.2813 50.2005 57.1766 49.9993L55.7624 47.7945V50.9429C55.7624 51.2755 55.2561 51.2755 55.2561 50.9429V46.9482C55.2561 46.6497 55.5887 46.5741 55.7275 46.8235L57.4193 49.4589L59.0979 46.8235Z" fill="#58595D"/>
<path d="M63.2387 50.6719H65.978C66.269 50.6719 66.3106 51.1292 65.978 51.1292H63.0583C62.8638 51.1292 62.739 50.9912 62.739 50.8249V47.0172C62.739 46.8576 62.8638 46.7188 63.0583 46.7188H65.9847C66.2832 46.7188 66.269 47.1627 65.978 47.1627H63.2387V48.7232H65.8459C66.1236 48.7232 66.1377 49.1671 65.8459 49.1671H63.2387V50.6719Z" fill="#58595D"/>
<path d="M72.2347 46.8856C72.2347 46.5947 72.7618 46.5805 72.7618 46.8856V50.8662C72.7618 51.2129 72.283 51.2478 72.1375 51.0051L69.5444 47.5308L69.5993 48.4877V50.9352C69.5993 51.2753 69.073 51.2827 69.073 50.9352V46.9621C69.073 46.6154 69.4605 46.5597 69.6342 46.8166L72.3037 50.3874L72.2347 49.3407V46.8856Z" fill="#58595D"/>
<path d="M79.0663 46.7119C79.4063 46.7119 79.4063 47.1908 79.0663 47.1908H77.5199C77.5199 48.4387 77.5266 49.7074 77.5266 50.9561C77.5266 51.1298 77.3811 51.213 77.263 51.213C77.145 51.213 77.0136 51.1298 77.0136 50.9561V47.1908H75.4739C75.148 47.1908 75.148 46.7119 75.4739 46.7119H79.0663Z" fill="#58595D"/>
<path d="M89.3585 50.3601C88.9495 50.9005 88.2628 51.199 87.5902 51.1923C86.3972 51.1857 85.3713 50.1939 85.3987 48.8828C85.3987 47.8286 86.1893 46.865 87.2502 46.6638C87.3541 46.6497 87.4863 46.6431 87.611 46.6431C88.2137 46.6431 88.8589 46.8509 89.2405 47.2948C89.4483 47.5376 89.095 47.8702 88.8797 47.6208C88.4914 47.1702 87.8471 47.0105 87.3267 47.1427C86.5635 47.3231 85.8983 47.9949 85.8983 48.9036C85.9116 49.8813 86.7023 50.7002 87.5969 50.7209C88.1098 50.7276 88.6444 50.5056 88.9495 50.0966V49.1738H87.7008C87.3749 49.1738 87.4098 48.7165 87.7008 48.7165H89.1715C89.3727 48.7165 89.435 48.8204 89.435 48.9734V50.1315C89.435 50.2072 89.4209 50.2978 89.3585 50.3601Z" fill="#58595D"/>
<path d="M93.0144 49.5835V50.9287C93.0144 51.2479 92.5081 51.2479 92.5081 50.9353V46.9547C92.5081 46.8092 92.612 46.7119 92.765 46.7119H94.4085C95.6082 46.7119 96.2184 47.392 96.2184 48.2034C96.2184 48.9034 95.8369 49.4097 94.9839 49.5552L96.107 50.769C96.3706 51.0326 95.9898 51.3377 95.7612 51.1016L94.3595 49.5835H93.0144ZM93.0144 49.1462H94.4152C95.3239 49.1462 95.7196 48.723 95.7055 48.2034C95.698 47.6347 95.22 47.1767 94.4152 47.1767H93.0144V49.1462Z" fill="#58595D"/>
<path d="M98.8748 48.8483C98.8748 47.7592 99.6105 46.8305 100.713 46.6568C100.969 46.6219 101.205 46.6293 101.448 46.6568C102.515 46.823 103.341 47.711 103.341 48.8483C103.341 50.2907 102.301 51.206 101.122 51.206C99.8733 51.206 98.8748 50.3181 98.8748 48.8483ZM99.3952 48.869C99.3952 50.0064 100.144 50.7272 101.122 50.7272C102.058 50.7272 102.828 50.0338 102.828 48.869C102.828 47.9745 102.238 47.2603 101.386 47.1215C101.178 47.0941 100.976 47.0941 100.782 47.1215C99.9431 47.2537 99.3952 47.9254 99.3952 48.869Z" fill="#58595D"/>
<path d="M109.806 46.8999C109.806 46.5599 110.326 46.5599 110.326 46.8933V49.1745C110.326 50.5056 109.293 51.179 108.28 51.179C107.268 51.179 106.234 50.5056 106.234 49.1745V46.8933C106.234 46.5873 106.755 46.5873 106.755 46.8999V49.1745C106.755 51.179 109.806 51.179 109.806 49.1745V46.8999Z" fill="#58595D"/>
<path d="M113.946 49.8254V50.9419C113.946 51.2612 113.447 51.2545 113.447 50.9486V46.9547C113.447 46.8092 113.565 46.7119 113.703 46.7119H115.208C116.408 46.7119 116.97 47.5092 116.97 48.3065C116.97 49.1387 116.401 49.8254 115.187 49.8254H113.946ZM113.946 49.3748H115.187C116.109 49.3748 116.491 48.8336 116.478 48.3065C116.47 47.7386 116.02 47.1625 115.216 47.1625H113.946V49.3748Z" fill="#58595D"/>
<path d="M118.967 49.1477C119.102 49.1477 119.23 49.1735 119.35 49.2242C119.47 49.2741 119.577 49.3456 119.668 49.437C119.76 49.5293 119.831 49.6349 119.882 49.7555C119.932 49.876 119.958 50.0032 119.958 50.1387C119.958 50.3183 119.914 50.4837 119.825 50.6359C119.736 50.788 119.616 50.9085 119.464 50.9967C119.312 51.0856 119.146 51.1297 118.967 51.1297C118.787 51.1297 118.622 51.0856 118.469 50.9967C118.317 50.9085 118.197 50.788 118.109 50.6359C118.02 50.4837 117.976 50.3183 117.976 50.1387C117.976 49.96 118.02 49.7937 118.109 49.6415C118.197 49.4894 118.317 49.3689 118.469 49.2807C118.622 49.1926 118.787 49.1477 118.967 49.1477ZM118.969 49.3423C118.825 49.3423 118.692 49.378 118.569 49.4487C118.447 49.5202 118.351 49.6166 118.278 49.7396C118.207 49.8618 118.171 49.9949 118.171 50.1387C118.171 50.2834 118.208 50.4164 118.279 50.5394C118.351 50.6625 118.449 50.7589 118.571 50.8296C118.693 50.9003 118.826 50.9352 118.969 50.9352C119.115 50.9352 119.248 50.9003 119.37 50.8288C119.49 50.7581 119.587 50.6608 119.657 50.5386C119.728 50.4164 119.763 50.2834 119.763 50.1387C119.763 49.9941 119.728 49.8602 119.657 49.738C119.587 49.6158 119.49 49.5194 119.369 49.4478C119.248 49.378 119.114 49.3423 118.969 49.3423ZM118.734 50.6691H118.519V49.6174H119.017C119.095 49.6174 119.159 49.6299 119.213 49.6549C119.265 49.679 119.304 49.7139 119.332 49.7596C119.358 49.8045 119.372 49.8569 119.372 49.9167C119.372 49.9907 119.347 50.0547 119.297 50.1088C119.247 50.1628 119.177 50.1952 119.088 50.2077C119.134 50.2243 119.171 50.2501 119.199 50.2842C119.227 50.3183 119.264 50.3757 119.311 50.4571L119.435 50.6691H119.169L119.083 50.4995C119.042 50.4239 119.008 50.3673 118.98 50.3308C118.951 50.2942 118.923 50.2692 118.894 50.2568C118.866 50.2435 118.831 50.2376 118.79 50.2376H118.734V50.6691ZM118.734 49.7846V50.0705H118.906C118.983 50.0705 119.042 50.0606 119.083 50.0398C119.124 50.0198 119.144 49.9791 119.144 49.9192C119.144 49.8777 119.126 49.8452 119.09 49.8211C119.056 49.797 119.001 49.7846 118.927 49.7846H118.734Z" fill="#58595D"/>
<path d="M29.8766 38.7252C29.8766 38.8166 29.8516 38.864 29.8433 38.874C29.8267 38.8906 29.7336 38.9347 29.5199 38.9347H4.08907C3.28264 38.9347 2.99414 38.4326 2.99414 37.962V4.80021C2.99414 4.34629 3.33252 3.88818 4.08907 3.88818H29.5798C29.7602 3.88818 29.7918 3.90233 29.7918 4.08524C29.7918 4.38371 29.6338 4.3837 29.5199 4.3837H4.34847C4.14314 4.3837 3.97516 4.55162 3.97516 4.75864V20.9696C3.97516 21.1766 4.14314 21.3445 4.34847 21.3445H28.3735C28.4458 21.3445 28.5456 21.3445 28.5456 21.6289C28.5456 21.8409 28.5056 21.8409 28.3735 21.8409H4.34847C4.14314 21.8409 3.97516 22.0088 3.97516 22.2141V37.9437C3.97516 38.1482 4.14314 38.317 4.34847 38.317H29.5199C29.8267 38.317 29.8749 38.5739 29.8766 38.7252Z" fill="#58595D"/>
<path d="M29.5203 35.323H7.32853C7.12982 35.323 6.96935 35.1618 6.96935 34.9631V25.1778C6.96935 24.9882 7.12233 24.8353 7.31104 24.8353H28.373C29.33 24.8353 30.1779 24.4653 30.7608 23.7936C31.2637 23.2132 31.5406 22.4442 31.5406 21.6287C31.5406 20.0382 30.4299 18.3497 28.373 18.3497H7.31104C7.12233 18.3497 6.96935 18.1968 6.96935 18.0072V7.73892C6.96935 7.54022 7.12982 7.37894 7.32853 7.37894H29.5203C31.6412 7.37894 32.7859 5.6821 32.7859 4.0842C32.7859 3.2653 32.5016 2.49463 31.9837 1.91434C31.3951 1.25588 30.5413 0.892578 29.5802 0.892578H4.08869C2.94721 0.892578 1.90216 1.30161 1.14645 2.04652C0.406516 2.77397 0 3.75167 0 4.80003V37.9618C0 40.224 1.75751 41.9299 4.08869 41.9299H29.5203C30.804 41.9299 31.5863 41.3887 32.0161 40.9356C32.5673 40.3545 32.8708 39.5697 32.8708 38.7258C32.8708 37.0531 31.6171 35.323 29.5203 35.323ZM31.2629 40.2206C30.8464 40.6596 30.2436 40.8907 29.5203 40.8907H4.08869C2.32119 40.8907 1.0392 39.6595 1.0392 37.9618V4.80003C1.0392 3.16472 2.35029 1.93178 4.08869 1.93178H29.5802C30.2511 1.93178 30.814 2.16456 31.2089 2.60769C31.5564 2.99594 31.7467 3.52055 31.7467 4.08422C31.7467 5.20575 30.9819 6.34054 29.5203 6.34054H6.29013C6.09145 6.34054 5.93015 6.50102 5.93015 6.70054V19.0722C5.93015 19.2468 6.0723 19.389 6.24688 19.389H28.373C29.0224 19.389 29.5736 19.6358 29.9676 20.1023C30.3118 20.5105 30.5014 21.0533 30.5014 21.6287C30.5014 22.672 29.8354 23.796 28.373 23.796H6.24688C6.0723 23.796 5.93015 23.9382 5.93015 24.1128V36.0023C5.93015 36.201 6.09145 36.3622 6.29013 36.3622H29.5203C30.2004 36.3622 30.809 36.6291 31.2363 37.1146C31.6146 37.5461 31.8324 38.1339 31.8324 38.7258C31.8324 39.3028 31.6295 39.8332 31.2629 40.2206Z" fill="#58595D"/>
<path d="M29.5206 37.0076H5.65935C5.45232 37.0076 5.28439 36.8397 5.28439 36.6327V23.5244C5.28439 23.3182 5.45232 23.1486 5.65935 23.1486H28.3741C29.3983 23.1486 29.8564 22.3854 29.8564 21.6281C29.8564 20.534 29.0866 20.0335 28.3741 20.0335H5.65935C5.45232 20.0335 5.28439 19.8655 5.28439 19.6585V6.06891C5.28439 5.86191 5.45232 5.69397 5.65935 5.69397H29.5206C30.6072 5.69397 31.1026 4.8601 31.1026 4.08443C31.1026 3.67789 30.9697 3.3071 30.7277 3.03691C30.46 2.73678 30.0634 2.57715 29.5804 2.57715H4.08973C2.71878 2.57715 1.68457 3.53241 1.68457 4.80026V37.9612C1.68457 39.2847 2.69633 40.245 4.08973 40.245H29.5206C30.0634 40.245 30.5033 40.0829 30.7934 39.7761C31.047 39.5084 31.1875 39.1351 31.1875 38.7244C31.1875 37.893 30.603 37.0076 29.5206 37.0076ZM30.3894 39.3903L30.3578 39.4219H30.3544C30.1698 39.5957 29.8897 39.6846 29.5206 39.6846H4.08973C3.2018 39.6846 2.24657 39.1459 2.24657 37.9612V4.80026C2.24657 3.70949 3.17354 3.13669 4.08973 3.13669H29.5804C30.4725 3.13669 30.5406 3.86245 30.5406 4.08443C30.5406 4.71046 30.13 5.13363 29.5206 5.13363H4.97928C4.8388 5.13363 4.72404 5.24753 4.72404 5.38887V20.4259C4.72404 20.519 4.79888 20.5938 4.89283 20.5938H28.3741C28.9253 20.5938 29.2944 21.0103 29.2944 21.6281C29.2944 21.8525 29.2279 22.5883 28.3741 22.5883H4.89283C4.79888 22.5883 4.72404 22.6656 4.72404 22.7587V37.3127C4.72404 37.4532 4.8388 37.5671 4.97928 37.5671H29.5206C30.3952 37.5671 30.6255 38.3245 30.6255 38.7244C30.6255 38.9904 30.5407 39.2266 30.3894 39.3903Z" fill="#58595D"/>
<path d="M74.3497 3.98668C74.348 3.995 74.3455 4.00499 74.3389 4.01579L57.0314 39.0515C56.9033 39.2826 56.6897 39.4422 56.5068 39.4422C56.2624 39.4356 56.0512 39.0357 55.9905 38.911L38.368 3.91188C38.3039 3.75059 38.2707 3.58015 38.6581 3.40391C38.7345 3.36898 38.8867 3.31079 39.0505 3.31079C39.2783 3.31079 39.4379 3.42053 39.5435 3.64667L56.2998 37.0321C56.358 37.146 56.4736 37.2183 56.6024 37.2183C56.733 37.2183 56.8493 37.146 56.9075 37.0279L73.2939 3.73397L73.3229 3.65912C73.3853 3.49701 73.5059 3.41887 73.6879 3.41887C73.8043 3.41887 73.9166 3.44962 73.9906 3.47622C74.3747 3.61589 74.3913 3.80461 74.3497 3.98668Z" fill="#58595D"/>
<path d="M75.0107 0.660548C73.1667 -0.00621375 71.2629 0.78858 70.5554 2.51285L56.8153 30.432C56.7188 30.629 56.4379 30.6299 56.3398 30.4336L42.2455 2.35489C41.2695 0.285602 39.0355 -0.0552633 37.421 0.677186C35.6078 1.49941 34.8579 3.37916 35.6394 5.14749L35.6527 5.17741L53.3036 40.2339C53.9728 41.6048 55.1168 42.4071 56.4429 42.4353C56.4661 42.4362 56.4903 42.4362 56.5135 42.4362C57.8088 42.4362 59.0167 41.683 59.6785 40.4558L77.1357 5.11754L77.1639 5.0319C77.8656 2.92852 76.6128 1.24084 75.0107 0.660548ZM76.1779 4.70351L76.1646 4.73759L58.764 39.962C58.2852 40.8516 57.4256 41.3969 56.5135 41.3969H56.4653C55.5391 41.377 54.7252 40.7842 54.2331 39.77L36.5922 4.73346L36.5897 4.72679C36.2995 4.07 36.2945 3.41239 36.5755 2.82545C36.82 2.31083 37.2722 1.88515 37.85 1.62244C38.4569 1.34727 39.1495 1.28574 39.7522 1.45285C40.4481 1.64656 40.9885 2.11627 41.3119 2.81297L56.3489 32.7681C56.447 32.9644 56.7272 32.9635 56.8244 32.7665L71.5048 2.93683C72.0593 1.53597 73.5093 1.22254 74.6574 1.63823C75.7506 2.03396 76.6934 3.16132 76.1779 4.70351Z" fill="#58595D"/>
<path d="M74.4387 2.2447C74.1776 2.15159 73.9208 2.10172 73.6755 2.10172C72.8259 2.10172 72.3054 2.65957 72.1017 3.18166L72.0892 3.2091L56.9217 34.0289C56.8593 34.1578 56.733 34.2368 56.59 34.2368C56.4511 34.2368 56.3248 34.1578 56.2607 34.0331L40.7315 3.09519C40.4164 2.41679 39.7696 1.9978 39.0414 1.9978C38.7387 1.9978 38.4278 2.06845 38.1169 2.20979C37.3163 2.57226 36.7168 3.4103 37.1774 4.45949L54.8125 39.4835C55.2024 40.2858 55.7935 40.7356 56.4777 40.7505L56.5176 40.7522C57.1769 40.7522 57.8345 40.3232 58.1929 39.6598L75.5727 4.4761C75.8345 3.66301 75.586 2.65956 74.4387 2.2447ZM75.0631 4.22918L75.0548 4.25579L75.0506 4.26411L75.0481 4.27241L75.0365 4.29737L57.6957 39.4004V39.4046L57.689 39.4129C57.428 39.8859 56.9632 40.1902 56.5093 40.1902H56.4927C56.0279 40.1802 55.6114 39.8443 55.3188 39.2424L37.6854 4.22337L37.6837 4.21838L37.6796 4.20425C37.4243 3.59237 37.6812 3.02454 38.3488 2.72193C38.4777 2.66372 38.7387 2.56562 39.0605 2.56562C39.4271 2.56562 39.9276 2.69698 40.2177 3.32134L56.4528 35.6651C56.4819 35.7216 56.5359 35.7548 56.5983 35.7548C56.6606 35.7548 56.7163 35.7216 56.7438 35.6634L72.6122 3.42026L72.6246 3.38701C72.8051 2.92477 73.18 2.66953 73.6821 2.66953C73.8667 2.66953 74.0613 2.70529 74.2458 2.77096C74.9384 3.02204 75.2435 3.56742 75.0631 4.22918Z" fill="#58595D"/>
<path d="M110.478 9.14422C107.745 6.04819 103.945 3.98307 99.7778 3.32545C98.6554 3.19908 97.6378 3.13672 96.6709 3.13672C95.709 3.13672 94.7862 3.19908 93.8443 3.3238C89.6076 3.99305 85.9604 6.05484 83.2992 9.28307C80.7069 12.4273 79.2803 16.4977 79.2803 20.7469C79.2803 26.4152 81.0844 31.2155 84.4963 34.6266C87.7038 37.8349 92.204 39.5999 97.1689 39.5999C101.864 39.5999 106.239 37.8016 109.489 34.5377C111.152 32.8708 112.455 30.8821 113.358 28.6274C114.325 26.2239 114.814 23.5719 114.814 20.7469C114.814 16.3697 113.315 12.3583 110.478 9.14422ZM108.865 34.0006C105.862 37.0966 101.708 38.8018 97.1689 38.8018C92.5066 38.8018 88.2699 37.0617 85.2387 33.9033C82.1011 30.6352 80.4434 26.1474 80.4434 20.9281C80.4434 11.9584 85.7442 5.32904 93.9457 4.03875L93.9707 4.03627C94.8852 3.90575 95.8329 3.84007 96.789 3.84007C97.7392 3.84007 98.7136 3.9041 99.6838 4.03296L99.7337 4.04126C103.73 4.69223 107.317 6.72826 109.831 9.77525C112.371 12.8505 113.713 16.7072 113.713 20.9281C113.713 26.2115 112.037 30.73 108.865 34.0006Z" fill="#58595D"/>
<path d="M108.282 11.0518C106.046 8.34236 102.978 6.60228 99.4103 6.02116C98.5357 5.90477 97.6545 5.84741 96.794 5.84741C95.931 5.84741 95.0764 5.90477 94.2533 6.02365C90.7358 6.57734 87.7711 8.2509 85.6802 10.8681C83.5669 13.5102 82.4512 16.9895 82.4512 20.9277C82.4512 25.6183 83.9152 29.6247 86.6862 32.5137C89.3366 35.2738 93.0587 36.7936 97.169 36.7936C101.159 36.7936 104.803 35.3046 107.424 32.6026C110.226 29.7161 111.706 25.6781 111.706 20.9277C111.706 17.1798 110.522 13.7646 108.282 11.0518ZM106.754 31.9517C104.309 34.4716 100.906 35.8583 97.169 35.8583C93.3164 35.8583 89.8321 34.44 87.3621 31.8669C84.7616 29.1566 83.3865 25.3739 83.3865 20.9277C83.3865 17.2031 84.4324 13.9267 86.4102 11.45C88.3515 9.02159 91.1116 7.46691 94.3939 6.94813C95.172 6.83839 95.9768 6.7827 96.789 6.7827C97.6046 6.7827 98.4427 6.83839 99.2782 6.94813C102.613 7.496 105.477 9.12134 107.563 11.6471C109.661 14.1894 110.771 17.3977 110.771 20.9277C110.771 25.4296 109.381 29.2414 106.754 31.9517Z" fill="#58595D"/>
<path d="M112.722 7.16187C109.519 3.53709 105.076 1.12028 100.208 0.362067L100.155 0.355426C97.6805 0.0710873 95.5447 0.0735796 93.4289 0.35708L93.3997 0.362067C90.8948 0.755299 88.5396 1.57921 86.3988 2.80631C84.3295 3.99517 82.5105 5.53154 80.9882 7.37968C77.9546 11.056 76.2852 15.8031 76.2852 20.7465C76.2852 27.227 78.3918 32.7581 82.3783 36.7438C86.1502 40.5157 91.4028 42.5941 97.1684 42.5941C102.665 42.5941 107.796 40.4833 111.612 36.6506C113.559 34.6969 115.081 32.3724 116.137 29.7444C117.246 26.9843 117.808 23.9564 117.808 20.7465C117.808 15.7017 116.002 10.8756 112.722 7.16187ZM115.173 29.357C114.171 31.8536 112.723 34.0626 110.876 35.9182C107.255 39.5538 102.388 41.5549 97.1684 41.5549C91.6805 41.5549 86.6898 39.587 83.114 36.0097C79.3279 32.2228 77.3244 26.9452 77.3244 20.7465C77.3244 16.0434 78.9106 11.5307 81.7888 8.03895C84.7626 4.43246 88.8339 2.13291 93.5619 1.38799C95.6228 1.11031 97.6182 1.11029 100.036 1.38631L100.049 1.38799C104.677 2.10963 108.902 4.40586 111.944 7.85024C115.056 11.3736 116.77 15.9545 116.77 20.7465C116.77 23.8226 116.233 26.7215 115.173 29.357Z" fill="#58595D"/>
<path d="M111.501 8.24391C108.55 4.90347 104.452 2.67789 99.962 1.97704C98.7698 1.84069 97.694 1.77417 96.669 1.77417C95.6464 1.77417 94.6595 1.84069 93.6477 1.97704C89.071 2.697 85.1287 4.92424 82.2479 8.41684C79.457 11.803 77.9207 16.1802 77.9207 20.7469C77.9207 26.7835 79.8611 31.9164 83.5341 35.5886C86.9968 39.0546 91.8395 40.9617 97.1686 40.9617C102.229 40.9617 106.947 39.023 110.456 35.4996C112.247 33.6997 113.649 31.5573 114.622 29.1355C115.655 26.5699 116.177 23.7473 116.177 20.7469C116.177 16.0996 114.516 11.66 111.501 8.24391ZM114.008 28.8886C113.066 31.2297 111.714 33.2948 109.985 35.0316C106.602 38.4277 102.05 40.2983 97.1686 40.2983C92.0174 40.2983 87.3434 38.4593 84.0047 35.1205C80.4589 31.5739 78.5841 26.6031 78.5841 20.7469C78.5841 16.3365 80.0664 12.1073 82.7601 8.83916C85.5327 5.47793 89.3304 3.33132 93.745 2.63463C94.726 2.50161 95.6838 2.44011 96.6756 2.44011C97.6649 2.44011 98.71 2.50162 99.8672 2.63298L99.8814 2.63463C104.209 3.31719 108.16 5.46546 111.001 8.68371C113.952 12.0267 115.511 16.1968 115.511 20.7469C115.511 23.6609 115.006 26.4003 114.008 28.8886Z" fill="#58595D"/>
<path d="M109.293 10.2184C106.886 7.30282 103.451 5.35327 99.6236 4.72974L99.5878 4.72307C98.6533 4.60086 97.7114 4.53687 96.7911 4.53687C95.8674 4.53687 94.9512 4.60088 94.0675 4.72558L94.0534 4.72974C86.2077 5.961 81.1396 12.3193 81.1396 20.9274C81.1396 25.9646 82.7301 30.2845 85.7413 33.4196C88.6386 36.4416 92.6966 38.1043 97.1685 38.1043C101.517 38.1043 105.494 36.4749 108.365 33.5152C111.407 30.3776 113.014 26.0245 113.014 20.9274C113.014 16.8711 111.728 13.1698 109.293 10.2184ZM107.887 33.0529C105.144 35.8812 101.336 37.4392 97.1685 37.4392C92.8795 37.4392 88.9912 35.848 86.221 32.9598C83.332 29.9511 81.8031 25.7884 81.8031 20.9274C81.8031 16.8403 82.9687 13.2214 85.1735 10.4637C87.3675 7.72018 90.4743 5.96348 94.1573 5.38485C95.0153 5.26265 95.9015 5.20027 96.7928 5.20027C97.6823 5.20027 98.5952 5.26265 99.5055 5.38485C103.236 5.9901 106.442 7.80914 108.781 10.6416C111.116 13.4725 112.35 17.0291 112.35 20.9274C112.35 25.8491 110.807 30.0417 107.887 33.0529Z" fill="#58595D"/>
</svg>
