<svg width="37" height="34" viewBox="0 0 37 34" fill="none" xmlns="http://www.w3.org/2000/svg">
<path d="M12.1596 14.7484C12.1596 14.7484 11.3915 9.93907 14.9614 11.6498C14.9614 11.6498 13.8965 8.12358 15.8342 7.16347C17.7719 6.20336 18.444 7.48641 18.444 7.48641C18.444 7.48641 17.5712 3.7507 19.8929 3.32302C22.2146 2.89533 22.5987 5.35671 22.5987 5.35671C22.5987 5.35671 25.5575 3.50631 26.3605 5.88913C26.9366 7.59988 26.5526 7.92283 27.2334 9.94779C27.9142 11.9728 28.8743 14.7571 30.3232 16.2496C29.5551 15.4553 32.3045 12.898 32.706 12.6536C34.1898 11.7633 35.5689 12.2172 35.918 14.0065C36.3195 16.0401 35.1499 16.8693 34.443 18.4841C33.8494 19.8457 33.9804 21.4255 33.9804 22.8744C33.9804 33.2262 23.1834 35.1377 17.7632 27.579C13.3205 21.3819 12.1683 14.7571 12.1683 14.7571L12.1596 14.7484Z" stroke="#2E2F35" stroke-width="1.78057" stroke-linecap="round" stroke-linejoin="round"/>
<path d="M17.5277 17.882C17.5277 17.882 15.2235 14.7224 14.7434 10.6375" stroke="#2E2F35" stroke-width="1.78057" stroke-miterlimit="10" stroke-linecap="round"/>
<path d="M21.5776 17.1052C21.5776 17.1052 18.8718 12.6625 18.4878 7.06763" stroke="#2E2F35" stroke-width="1.78057" stroke-miterlimit="10" stroke-linecap="round"/>
<path d="M24.9554 15.5078C24.9554 15.5078 22.2322 8.3244 22.529 5.34805" stroke="#2E2F35" stroke-width="1.78057" stroke-miterlimit="10" stroke-linecap="round"/>
<path d="M20.3381 18.938C20.3381 18.938 22.1536 15.246 27.0153 15.8046" stroke="#2E2F35" stroke-width="1.75439" stroke-miterlimit="10" stroke-linecap="round"/>
<path d="M30.367 16.6861C30.4106 17.6113 29.6862 18.3357 29.0403 18.9205" stroke="#2E2F35" stroke-width="1.78057" stroke-miterlimit="10" stroke-linecap="round"/>
<path d="M8.9477 6.30823L4.83667 2.34558" stroke="#FE3B1F" stroke-width="2.84543" stroke-miterlimit="10" stroke-linecap="round"/>
<path d="M6.53871 12.2435L2 10.8731" stroke="#FE3B1F" stroke-width="2.84543" stroke-miterlimit="10" stroke-linecap="round"/>
<path d="M7.56875 18.6761L2.54126 19.6712" stroke="#FE3B1F" stroke-width="2.84543" stroke-miterlimit="10" stroke-linecap="round"/>
</svg>
