<svg width="134" height="23" viewBox="0 0 134 23" fill="none" xmlns="http://www.w3.org/2000/svg">
<path d="M133.842 3.87049H123.71C123.685 3.86775 123.659 3.87081 123.634 3.87943C123.61 3.88806 123.588 3.90206 123.569 3.92036C123.551 3.93866 123.537 3.96082 123.528 3.98522C123.52 4.00961 123.517 4.03562 123.519 4.06135V8.86695C123.517 8.89268 123.52 8.91869 123.528 8.94308C123.537 8.96748 123.551 8.98964 123.569 9.00794C123.588 9.02624 123.61 9.04024 123.634 9.04887C123.659 9.05749 123.685 9.06055 123.71 9.05781H133.833C134.189 9.05781 133.833 9.23129 133.833 9.58694V12.3193C133.833 12.675 134.189 12.8572 133.833 12.8572H123.71C123.685 12.8544 123.659 12.8575 123.634 12.8662C123.61 12.8748 123.588 12.8887 123.569 12.907C123.551 12.9253 123.537 12.9475 123.528 12.9719C123.52 12.9963 123.517 13.0223 123.519 13.048V18.0705C123.517 18.0962 123.52 18.1222 123.528 18.1466C123.537 18.171 123.551 18.1932 123.569 18.2115C123.588 18.2298 123.61 18.2438 123.634 18.2524C123.659 18.261 123.685 18.2641 123.71 18.2613H133.833C134.189 18.2613 133.833 18.4435 133.833 18.7992V21.5316C133.833 21.8872 134.189 22.0607 133.833 22.0607H119.633C119.561 22.0708 119.488 22.0641 119.419 22.0411C119.351 22.0181 119.288 21.9794 119.237 21.9281C119.185 21.8768 119.147 21.8143 119.124 21.7454C119.101 21.6766 119.094 21.6034 119.104 21.5316V0.600248C119.093 0.527745 119.098 0.453521 119.12 0.383573C119.143 0.313625 119.181 0.249922 119.233 0.19758C119.284 0.145237 119.347 0.105741 119.417 0.0822668C119.486 0.0587925 119.561 0.0519946 119.633 0.0624391H133.842C134.198 0.0624391 133.842 0.244597 133.842 0.600248V3.33268C133.842 3.68833 134.198 3.87049 133.842 3.87049Z" fill="#58595B"/>
<path d="M31.571 21.4622C30.3794 20.8741 29.3847 19.9518 28.7084 18.8079C28.0228 17.6104 27.6751 16.2493 27.7022 14.8697V7.70466C27.676 6.32517 28.0236 4.96427 28.7084 3.76645C29.3882 2.63825 30.3833 1.73364 31.571 1.16413C32.6321 0.659262 33.7809 0.364691 34.954 0.296692H24.0069V22.2169H33.5487C32.8618 22.045 32.1979 21.7917 31.571 21.4622Z" fill="#F05A22"/>
<path d="M0.00476677 21.6791V0.747765C-0.00567778 0.675083 0.00109367 0.600956 0.024568 0.531381C0.0480422 0.461806 0.0875386 0.398712 0.139881 0.347214C0.192223 0.295716 0.255927 0.257259 0.325874 0.234919C0.395822 0.21258 0.470073 0.206988 0.542575 0.218613H3.89956C3.97207 0.206988 4.04626 0.21258 4.11621 0.234919C4.18616 0.257259 4.24992 0.295716 4.30226 0.347214C4.3546 0.398712 4.3941 0.461806 4.41757 0.531381C4.44105 0.600956 4.44782 0.675083 4.43737 0.747765V21.6791C4.44744 21.7521 4.44046 21.8264 4.41699 21.8962C4.39352 21.9661 4.3542 22.0295 4.3021 22.0816C4.25 22.1337 4.18653 22.1731 4.11669 22.1965C4.04685 22.22 3.97255 22.227 3.89956 22.2169H0.533892C0.461573 22.2255 0.388241 22.2174 0.319521 22.1933C0.250801 22.1692 0.188523 22.1297 0.137445 22.0778C0.0863672 22.0259 0.0478319 21.9629 0.0248327 21.8938C0.0018335 21.8247 -0.00501258 21.7513 0.00476677 21.6791Z" fill="#F05A22"/>
<path d="M8.27157 21.6791V0.747765C8.26146 0.675916 8.2682 0.60268 8.29121 0.53387C8.31423 0.465059 8.35289 0.402544 8.4042 0.351238C8.4555 0.299932 8.51805 0.261244 8.58686 0.238228C8.65567 0.215213 8.7289 0.208499 8.80075 0.218613H12.0363C12.1634 0.213733 12.2893 0.243436 12.4009 0.304541C12.5124 0.365647 12.6052 0.45586 12.6695 0.565583L20.5285 13.6379C20.5285 13.716 20.6153 13.7507 20.6673 13.7333C20.6944 13.718 20.7163 13.695 20.7302 13.6672C20.7441 13.6394 20.7494 13.608 20.7454 13.5772V0.747765C20.7349 0.675083 20.7417 0.600956 20.7652 0.531381C20.7887 0.461806 20.8282 0.398712 20.8805 0.347214C20.9329 0.295716 20.9966 0.257259 21.0665 0.234919C21.1365 0.21258 21.2107 0.206988 21.2832 0.218613H24.5794C24.6513 0.208499 24.7245 0.215213 24.7933 0.238228C24.8621 0.261244 24.9247 0.299932 24.976 0.351238C25.0273 0.402544 25.066 0.465059 25.089 0.53387C25.112 0.60268 25.1187 0.675916 25.1086 0.747765V21.6791C25.1202 21.7516 25.1146 21.8258 25.0923 21.8957C25.07 21.9657 25.0315 22.0294 24.98 22.0817C24.9285 22.1341 24.8654 22.1736 24.7958 22.1971C24.7262 22.2206 24.6521 22.2274 24.5794 22.2169H21.3526C21.2243 22.2132 21.0991 22.176 20.9896 22.1091C20.8801 22.0421 20.7899 21.9477 20.7281 21.8352L12.843 8.64145C12.7996 8.5547 12.7476 8.52869 12.6955 8.54604C12.6435 8.56339 12.6175 8.61543 12.6175 8.70218V21.7138C12.6275 21.7868 12.6205 21.8611 12.5971 21.931C12.5736 22.0008 12.5343 22.0642 12.4822 22.1163C12.4301 22.1684 12.3667 22.2077 12.2968 22.2312C12.227 22.2547 12.1526 22.2617 12.0796 22.2516H8.74865C8.67659 22.2547 8.60481 22.2412 8.53884 22.2121C8.47286 22.1829 8.41453 22.1389 8.36835 22.0835C8.32218 22.0281 8.28941 21.9628 8.27263 21.8926C8.25585 21.8225 8.25547 21.7494 8.27157 21.6791Z" fill="#F05A22"/>
<path d="M58.21 0.218661H61.5756C61.6481 0.207036 61.7223 0.212628 61.7923 0.234968C61.8622 0.257308 61.926 0.295765 61.9783 0.347263C62.0307 0.398761 62.0702 0.461855 62.0936 0.53143C62.1171 0.601005 62.1239 0.675132 62.1135 0.747814V21.6791C62.1235 21.7521 62.1165 21.8264 62.0931 21.8963C62.0696 21.9661 62.0303 22.0296 61.9782 22.0817C61.9261 22.1338 61.8627 22.1731 61.7928 22.1966C61.723 22.22 61.6486 22.227 61.5756 22.217H58.21C58.1373 22.2274 58.0632 22.2206 57.9936 22.1972C57.924 22.1737 57.8609 22.1341 57.8094 22.0818C57.7579 22.0294 57.7195 21.9657 57.6972 21.8958C57.6748 21.8258 57.6692 21.7516 57.6808 21.6791V13.1956C57.6836 13.1698 57.6805 13.1438 57.6719 13.1194C57.6633 13.095 57.6493 13.0729 57.631 13.0546C57.6127 13.0363 57.5906 13.0223 57.5662 13.0137C57.5418 13.0051 57.5157 13.002 57.49 13.0047H50.6112C50.5855 13.002 50.5594 13.0051 50.5351 13.0137C50.5107 13.0223 50.4885 13.0363 50.4702 13.0546C50.4519 13.0729 50.4379 13.095 50.4293 13.1194C50.4207 13.1438 50.4176 13.1698 50.4204 13.1956V21.6791C50.4304 21.7521 50.4235 21.8264 50.4 21.8963C50.3765 21.9661 50.3372 22.0296 50.2851 22.0817C50.233 22.1338 50.1695 22.1731 50.0997 22.1966C50.0299 22.22 49.9556 22.227 49.8826 22.217H46.5082C46.4352 22.227 46.3609 22.22 46.291 22.1966C46.2212 22.1731 46.1578 22.1338 46.1057 22.0817C46.0536 22.0296 46.0143 21.9661 45.9908 21.8963C45.9673 21.8264 45.9603 21.7521 45.9704 21.6791V0.747814C45.96 0.675132 45.9667 0.601005 45.9902 0.53143C46.0137 0.461855 46.0532 0.398761 46.1055 0.347263C46.1579 0.295765 46.2216 0.257308 46.2916 0.234968C46.3615 0.212628 46.4357 0.207036 46.5082 0.218661H49.8652C49.9377 0.207036 50.0119 0.212628 50.0818 0.234968C50.1518 0.257308 50.2156 0.295765 50.2679 0.347263C50.3202 0.398761 50.3597 0.461855 50.3832 0.53143C50.4067 0.601005 50.4135 0.675132 50.403 0.747814V9.01449C50.3984 9.04057 50.4002 9.06739 50.4082 9.09264C50.4162 9.11788 50.4301 9.14084 50.4488 9.15956C50.4675 9.17828 50.4905 9.19219 50.5157 9.20017C50.541 9.20814 50.5678 9.20993 50.5939 9.20535H57.4727C57.4987 9.20993 57.5255 9.20814 57.5508 9.20017C57.576 9.19219 57.599 9.17828 57.6177 9.15956C57.6364 9.14084 57.6504 9.11788 57.6583 9.09264C57.6663 9.06739 57.6681 9.04057 57.6635 9.01449V0.747814C57.6527 0.674284 57.6595 0.599226 57.6834 0.528862C57.7074 0.458499 57.7477 0.394831 57.8011 0.343134C57.8545 0.291436 57.9194 0.253198 57.9905 0.231553C58.0616 0.209909 58.1368 0.205484 58.21 0.218661Z" fill="#58595B"/>
<path d="M76.4784 21.4015L75.6109 18.5303C75.6099 18.5078 75.6043 18.4858 75.5944 18.4656C75.5845 18.4454 75.5707 18.4275 75.5536 18.4128C75.5365 18.3982 75.5167 18.3873 75.4952 18.3806C75.4737 18.3739 75.4511 18.3717 75.4288 18.3741H67.8647C67.8191 18.3715 67.7742 18.3861 67.7388 18.415C67.7035 18.4439 67.6803 18.4851 67.6739 18.5303L66.8064 21.4015C66.7714 21.5297 66.694 21.6422 66.5869 21.721C66.4799 21.7997 66.3493 21.8399 66.2165 21.8352H62.6427C62.567 21.8415 62.491 21.829 62.4214 21.7987C62.3518 21.7684 62.2907 21.7213 62.2437 21.6617C62.2063 21.5987 62.1865 21.5268 62.1865 21.4535C62.1865 21.3803 62.2063 21.3084 62.2437 21.2454L68.8275 0.652311C68.8595 0.524037 68.9348 0.410764 69.0408 0.331706C69.1467 0.252649 69.2767 0.212678 69.4088 0.218591H73.9541C74.0858 0.214297 74.2151 0.254886 74.3207 0.333692C74.4263 0.412497 74.502 0.524841 74.5353 0.652311L81.1105 21.2454C81.1263 21.305 81.1263 21.3678 81.1105 21.4275C81.1133 21.4826 81.1039 21.5376 81.0829 21.5886C81.0619 21.6396 81.0299 21.6853 80.9891 21.7224C80.8947 21.8016 80.7737 21.8419 80.6508 21.8352H77.0682C76.9351 21.8415 76.8038 21.8019 76.6964 21.7229C76.5891 21.6439 76.512 21.5305 76.4784 21.4015ZM68.9143 15.0085H74.3792C74.5006 15.0085 74.5527 14.9391 74.5353 14.7916L71.7508 5.37121C71.7508 5.29314 71.6988 5.24976 71.6467 5.24976C71.5947 5.24976 71.5513 5.24977 71.508 5.37121L68.7582 14.835C68.7408 14.9391 68.7929 15.0085 68.9143 15.0085Z" fill="#58595B"/>
<path d="M94.0699 21.7745L90.2011 13.2215C90.1876 13.175 90.1589 13.1344 90.1196 13.1061C90.0803 13.0778 90.0327 13.0635 89.9843 13.0654H87.1217C87.096 13.0627 87.07 13.0657 87.0456 13.0744C87.0212 13.083 86.999 13.0969 86.9807 13.1152C86.9624 13.1335 86.9484 13.1557 86.9398 13.1801C86.9312 13.2045 86.9281 13.2305 86.9309 13.2562V21.6444C86.9425 21.7169 86.937 21.7911 86.9146 21.8611C86.8923 21.931 86.8538 21.9947 86.8023 22.0471C86.7508 22.0994 86.6877 22.1389 86.6181 22.1624C86.5485 22.1858 86.4744 22.1926 86.4017 22.1822H83.0361C82.9634 22.1926 82.8893 22.1858 82.8197 22.1624C82.7501 22.1389 82.687 22.0994 82.6355 22.0471C82.584 21.9947 82.5456 21.931 82.5232 21.8611C82.5009 21.7911 82.4953 21.7169 82.5069 21.6444V0.721734C82.4953 0.649232 82.5009 0.575007 82.5232 0.505059C82.5456 0.435112 82.584 0.371382 82.6355 0.31904C82.687 0.266697 82.7501 0.227201 82.8197 0.203727C82.8893 0.180252 82.9634 0.173455 83.0361 0.183899H91.8666C93.1009 0.167491 94.319 0.46604 95.4058 1.05134C96.4 1.5874 97.2168 2.40118 97.7566 3.39344C98.3394 4.45613 98.6382 5.65124 98.624 6.8632C98.6576 8.17006 98.2848 9.45514 97.557 10.5411C96.8415 11.5691 95.8037 12.3292 94.6077 12.7011C94.5795 12.71 94.5534 12.7246 94.531 12.744C94.5086 12.7634 94.4904 12.7871 94.4776 12.8138C94.4634 12.8342 94.4558 12.8584 94.4558 12.8832C94.4558 12.908 94.4634 12.9323 94.4776 12.9526L98.624 21.627C98.6848 21.7102 98.7182 21.8102 98.7194 21.9133C98.7206 21.9627 98.7093 22.0117 98.6865 22.0557C98.6638 22.0996 98.6303 22.1372 98.5893 22.1649C98.4895 22.2319 98.3711 22.2653 98.251 22.2603H94.6945C94.5529 22.2538 94.4169 22.2036 94.305 22.1166C94.1932 22.0296 94.111 21.9101 94.0699 21.7745ZM86.9309 4.17415V9.45683C86.9278 9.48226 86.9307 9.50803 86.9394 9.53212C86.948 9.55622 86.9622 9.57798 86.9807 9.59566C86.9993 9.61333 87.0217 9.62646 87.0461 9.63399C87.0706 9.64151 87.0965 9.64324 87.1217 9.63902H91.2074C91.9965 9.67409 92.7681 9.40026 93.3586 8.87567C93.6431 8.62158 93.8683 8.30806 94.0182 7.95729C94.1681 7.60652 94.2391 7.22707 94.2261 6.84583C94.2354 6.46126 94.1628 6.07911 94.0133 5.72468C93.8637 5.37026 93.6406 5.05167 93.3586 4.79C93.0723 4.51845 92.7343 4.30711 92.3648 4.16854C91.9952 4.02997 91.6017 3.96699 91.2074 3.98329H87.1217C87.0924 3.97886 87.0625 3.98199 87.0348 3.9924C87.0071 4.00281 86.9825 4.02014 86.9633 4.04275C86.9442 4.06536 86.9311 4.09251 86.9255 4.12158C86.9198 4.15065 86.9216 4.18069 86.9309 4.20883V4.17415Z" fill="#58595B"/>
<path d="M104.366 21.4882C103.168 20.8781 102.171 19.9354 101.495 18.7731C100.795 17.546 100.442 16.1519 100.472 14.7396V7.69594C100.442 6.2781 100.796 4.8785 101.495 3.64496C102.173 2.49042 103.17 1.55656 104.366 0.955917C105.695 0.300801 107.162 -0.0263993 108.643 0.00172806C110.108 -0.0268998 111.557 0.300548 112.867 0.955917C114.041 1.52659 115.032 2.41267 115.73 3.51488C116.409 4.59198 116.764 5.84147 116.753 7.11472V7.17545C116.764 7.24813 116.757 7.32226 116.734 7.39183C116.71 7.46141 116.671 7.52447 116.618 7.57597C116.566 7.62747 116.502 7.66598 116.432 7.68832C116.362 7.71066 116.288 7.71625 116.216 7.70463H112.859C112.721 7.71058 112.585 7.6838 112.46 7.62653C112.364 7.57449 112.321 7.52244 112.321 7.46172V7.23618C112.33 6.7825 112.245 6.33184 112.072 5.91241C111.899 5.49298 111.641 5.11382 111.315 4.79867C110.564 4.14964 109.601 3.79831 108.608 3.8111C107.616 3.82389 106.662 4.19991 105.928 4.86808C105.581 5.23429 105.312 5.66649 105.136 6.1389C104.961 6.61132 104.882 7.11427 104.904 7.61785V14.835C104.883 15.3451 104.971 15.8538 105.161 16.3278C105.351 16.8017 105.639 17.2301 106.006 17.5847C106.379 17.9359 106.818 18.2095 107.297 18.3896C107.777 18.5698 108.287 18.653 108.799 18.6343C109.744 18.6785 110.672 18.3693 111.401 17.7669C111.73 17.4622 111.987 17.089 112.155 16.6737C112.323 16.2585 112.397 15.8113 112.373 15.3641V13.9762C112.376 13.9516 112.373 13.9267 112.365 13.9033C112.357 13.88 112.343 13.8588 112.326 13.8413C112.308 13.8238 112.287 13.8105 112.264 13.8023C112.24 13.7941 112.215 13.7913 112.191 13.794H108.851C108.778 13.8045 108.704 13.7977 108.635 13.7742C108.565 13.7507 108.502 13.7112 108.451 13.6589C108.399 13.6066 108.361 13.5429 108.338 13.4729C108.316 13.403 108.31 13.3287 108.322 13.2562V10.6539C108.31 10.5814 108.316 10.5072 108.338 10.4372C108.361 10.3673 108.399 10.3035 108.451 10.2512C108.502 10.1989 108.565 10.1594 108.635 10.1359C108.704 10.1124 108.778 10.1056 108.851 10.1161H116.207C116.28 10.106 116.354 10.113 116.424 10.1365C116.494 10.1599 116.557 10.1993 116.61 10.2514C116.662 10.3035 116.701 10.3669 116.724 10.4368C116.748 10.5066 116.755 10.5809 116.745 10.6539V14.6441C116.78 16.0907 116.433 17.521 115.739 18.7905C115.081 19.9519 114.09 20.8888 112.893 21.4795C111.567 22.1198 110.107 22.4378 108.634 22.4077C107.158 22.4535 105.693 22.1378 104.366 21.4882Z" fill="#58595B"/>
<path d="M41.1474 15.0172C41.1544 14.9346 41.1914 14.8574 41.2515 14.8003V14.5574H46.6817V7.79138H41.6071C41.3035 7.79138 41.1474 7.73934 41.1474 7.63525V7.53116V7.33161C41.1622 6.84804 41.0757 6.36674 40.8934 5.91858C40.7112 5.47042 40.4372 5.06531 40.0891 4.72929C39.2918 4.079 38.2945 3.72388 37.2656 3.72388C36.2367 3.72388 35.2394 4.079 34.4421 4.72929C34.0835 5.07241 33.8027 5.48849 33.6187 5.94939C33.4346 6.41029 33.3516 6.90529 33.3751 7.40102V14.9738C33.3615 15.458 33.4494 15.9397 33.6331 16.3879C33.8169 16.8361 34.0925 17.2408 34.4421 17.5761C35.2415 18.2218 36.238 18.574 37.2656 18.574C38.2932 18.574 39.2897 18.2218 40.0891 17.5761C40.4317 17.245 40.7025 16.847 40.8846 16.4067C41.0667 15.9665 41.1561 15.4935 41.1474 15.0172Z" fill="#58595B"/>
</svg>
