<svg width="115" height="40" viewBox="0 0 115 40" fill="none" xmlns="http://www.w3.org/2000/svg">
<path d="M49.9994 24.3268C48.8829 24.0602 47.8884 23.4261 47.1757 22.5262C46.463 21.6263 46.0736 20.5129 46.0699 19.365V18.0726C46.0731 16.9236 46.4623 15.8089 47.1749 14.9076C47.8874 14.0062 48.8822 13.3704 49.9994 13.1021V8.95575C47.784 9.24237 45.7486 10.3257 44.2736 12.0035C42.7986 13.6812 41.9848 15.8386 41.9843 18.0726V19.365C41.9884 21.5979 42.8035 23.7533 44.2779 25.4303C45.7522 27.1073 47.7855 28.1917 49.9994 28.4818V24.3268Z" fill="#F05A22"/>
<path d="M52.9485 8.95575V13.1021C54.0642 13.372 55.0569 14.0086 55.7678 14.9098C56.4787 15.811 56.8666 16.9247 56.8694 18.0726V19.365C56.8662 20.5118 56.478 21.6242 55.767 22.524C55.0561 23.4237 54.0635 24.0585 52.9485 24.3268V28.4818C55.161 28.1898 57.1921 27.1045 58.6647 25.4277C60.1373 23.7509 60.9511 21.5966 60.9551 19.365V18.0726C60.9548 15.8399 60.1423 13.6836 58.669 12.0061C57.1958 10.3285 55.1625 9.24431 52.9485 8.95575Z" fill="#EF913C"/>
<path d="M85.2173 35.9071C85.4286 35.9996 85.6061 36.155 85.7257 36.3522C85.8453 36.5494 85.901 36.7787 85.8853 37.0088C85.898 37.193 85.866 37.3776 85.792 37.5467C85.718 37.7159 85.6042 37.8646 85.4602 37.9803C85.1388 38.2141 84.7468 38.3305 84.3499 38.3099H82.6844C82.6704 38.3113 82.6563 38.3095 82.6431 38.3047C82.6298 38.3 82.6177 38.2924 82.6078 38.2824C82.5979 38.2725 82.5902 38.2605 82.5855 38.2472C82.5807 38.234 82.5789 38.2198 82.5803 38.2058V33.7212C82.5803 33.6518 82.5803 33.6084 82.6844 33.6084H84.2978C84.6991 33.5848 85.0967 33.698 85.4255 33.9294C85.5617 34.0464 85.6687 34.1936 85.738 34.3592C85.8072 34.5249 85.8368 34.7044 85.8245 34.8835C85.8354 35.0882 85.783 35.2913 85.6743 35.4652C85.5657 35.639 85.4061 35.7752 85.2173 35.8551C85.2173 35.8551 85.2173 35.8898 85.2173 35.9071ZM83.3784 34.3457V35.5775L83.4218 35.6209H84.2892C84.4916 35.6307 84.6911 35.5693 84.853 35.4474C84.9198 35.3878 84.9724 35.314 85.0069 35.2315C85.0414 35.1489 85.0571 35.0597 85.0526 34.9703C85.0554 34.8798 85.0391 34.7898 85.0047 34.706C84.9703 34.6223 84.9186 34.5469 84.853 34.4845C84.6911 34.3626 84.4916 34.3012 84.2892 34.311H83.4218C83.4218 34.311 83.3436 34.3197 83.3436 34.3457H83.3784ZM84.9311 37.4772C85.0642 37.3383 85.1384 37.1534 85.1384 36.9611C85.1384 36.7687 85.0642 36.5838 84.9311 36.445C84.7704 36.3199 84.5707 36.2554 84.3672 36.2628H83.4218L83.3784 36.3061V37.6247C83.3784 37.6247 83.3784 37.6247 83.4218 37.6247H84.3759C84.5612 37.6369 84.745 37.5848 84.8964 37.4772H84.9311Z" fill="#58595B"/>
<path d="M86.4232 39.5677V39.1427C86.4232 39.0646 86.4231 39.0299 86.4751 39.0299C86.6215 39.0347 86.7678 39.0172 86.9089 38.9779C87.0113 38.9434 87.0997 38.8764 87.1605 38.787C87.2374 38.657 87.2957 38.5168 87.3339 38.3706C87.3385 38.3612 87.341 38.3508 87.341 38.3403C87.341 38.3298 87.3385 38.3194 87.3339 38.3099L86.241 35.031C86.241 35.031 86.241 35.031 86.241 34.979C86.241 34.9269 86.241 34.9096 86.3364 34.9096H86.9436C86.9709 34.9067 86.9983 34.914 87.0207 34.9299C87.043 34.9459 87.0589 34.9695 87.0651 34.9963L87.7243 37.2169L88.3575 34.9963C88.3637 34.9695 88.3795 34.9459 88.4019 34.9299C88.4243 34.914 88.4516 34.9067 88.479 34.9096H89.0862C89.0999 34.9038 89.1147 34.9009 89.1296 34.9009C89.1445 34.9009 89.1592 34.9038 89.173 34.9096C89.1814 34.9241 89.1857 34.9405 89.1857 34.9573C89.1857 34.974 89.1814 34.9905 89.173 35.005L88.0019 38.4747C87.9208 38.7242 87.8101 38.963 87.6722 39.186C87.5617 39.3403 87.4076 39.4581 87.2298 39.5243C86.9739 39.6003 86.7071 39.6325 86.4405 39.6198C86.4405 39.6198 86.4232 39.6805 86.4232 39.5677Z" fill="#58595B"/>
<path d="M91.3761 38.2059V32.4895C91.3731 32.4717 91.3744 32.4534 91.3798 32.4363C91.3853 32.4191 91.3948 32.4035 91.4076 32.3908C91.4203 32.378 91.4359 32.3685 91.4531 32.363C91.4703 32.3576 91.4885 32.3563 91.5063 32.3593H92.2262C92.3216 32.3593 92.365 32.4027 92.365 32.4895V38.2059C92.365 38.2926 92.365 38.336 92.2262 38.336H91.5063C91.4885 38.339 91.4703 38.3378 91.4531 38.3323C91.4359 38.3268 91.4203 38.3173 91.4076 38.3046C91.3948 38.2918 91.3853 38.2762 91.3798 38.259C91.3744 38.2419 91.3731 38.2236 91.3761 38.2059Z" fill="#58595B"/>
<path d="M96.9017 34.3111C97.0436 34.4595 97.1537 34.6352 97.2253 34.8276C97.2969 35.02 97.3284 35.225 97.3181 35.43V38.2059C97.3196 38.2241 97.317 38.2424 97.3104 38.2595C97.3039 38.2766 97.2935 38.2919 97.2801 38.3044C97.2668 38.317 97.2508 38.3263 97.2333 38.3318C97.2159 38.3372 97.1974 38.3387 97.1793 38.336H96.494C96.4759 38.3387 96.4575 38.3372 96.44 38.3318C96.4226 38.3263 96.4066 38.317 96.3932 38.3044C96.3799 38.2919 96.3695 38.2766 96.3629 38.2595C96.3564 38.2424 96.3537 38.2241 96.3552 38.2059V35.6035C96.3616 35.4883 96.345 35.373 96.3063 35.2642C96.2676 35.1555 96.2075 35.0556 96.1297 34.9703C96.0555 34.8881 95.9644 34.8231 95.8625 34.7796C95.7607 34.7362 95.6505 34.7154 95.5399 34.7188C95.4287 34.7159 95.3182 34.7359 95.2152 34.7777C95.1122 34.8195 95.0189 34.8821 94.9413 34.9616C94.8634 35.0469 94.8035 35.1468 94.7648 35.2555C94.726 35.3643 94.7093 35.4796 94.7157 35.5949V38.1972C94.7157 38.2839 94.6724 38.3273 94.577 38.3273H93.8657C93.7702 38.3273 93.7269 38.2839 93.7269 38.1972V34.1029C93.724 34.084 93.7255 34.0646 93.7314 34.0465C93.7373 34.0283 93.7475 34.0117 93.761 33.9982C93.7746 33.9847 93.791 33.9746 93.8092 33.9686C93.8274 33.9627 93.8468 33.9611 93.8657 33.9641H94.577C94.5959 33.9611 94.6153 33.9627 94.6335 33.9686C94.6517 33.9746 94.6681 33.9847 94.6816 33.9982C94.6952 34.0117 94.7054 34.0283 94.7113 34.0465C94.7172 34.0646 94.7187 34.084 94.7157 34.1029V34.3284C94.8422 34.1747 95.0032 34.053 95.1856 33.9731C95.3679 33.8932 95.5666 33.8574 95.7654 33.8687C95.9749 33.8614 96.1837 33.8969 96.379 33.973C96.5744 34.049 96.7522 34.164 96.9017 34.3111Z" fill="#58595B"/>
<path d="M100.892 34.1028V34.71C100.893 34.7283 100.891 34.7466 100.884 34.7637C100.878 34.7807 100.867 34.7961 100.854 34.8086C100.841 34.8211 100.825 34.8304 100.807 34.8359C100.79 34.8413 100.771 34.8428 100.753 34.8401H99.9637C99.9566 34.8385 99.9491 34.8387 99.942 34.8407C99.935 34.8427 99.9285 34.8465 99.9233 34.8517C99.9181 34.8569 99.9143 34.8634 99.9123 34.8705C99.9103 34.8775 99.91 34.885 99.9116 34.8922V38.2058C99.9116 38.2925 99.8684 38.3359 99.7729 38.3359H99.0616C98.9662 38.3359 98.9229 38.2925 98.9229 38.2058V34.8922C98.9245 34.885 98.9243 34.8775 98.9222 34.8705C98.9202 34.8634 98.9164 34.8569 98.9112 34.8517C98.906 34.8465 98.8996 34.8427 98.8925 34.8407C98.8854 34.8387 98.8779 34.8385 98.8708 34.8401H98.3851C98.2896 34.8401 98.2462 34.8402 98.2462 34.71V34.1028C98.2433 34.0839 98.2448 34.0646 98.2507 34.0464C98.2566 34.0282 98.2668 34.0117 98.2803 33.9981C98.2939 33.9846 98.3104 33.9745 98.3286 33.9686C98.3468 33.9626 98.3662 33.961 98.3851 33.964H98.8708C98.8779 33.9657 98.8854 33.9655 98.8925 33.9635C98.8996 33.9614 98.906 33.9577 98.9112 33.9525C98.9164 33.9472 98.9202 33.9408 98.9222 33.9337C98.9243 33.9266 98.9245 33.9191 98.9229 33.912V33.7645C98.9038 33.4678 98.9542 33.1708 99.0703 32.8971C99.1677 32.6966 99.3385 32.5412 99.5474 32.4633C99.8507 32.3715 100.168 32.3334 100.484 32.3506H100.753C100.771 32.3479 100.79 32.3493 100.807 32.3548C100.825 32.3603 100.841 32.3696 100.854 32.3821C100.867 32.3946 100.878 32.41 100.884 32.4271C100.891 32.4441 100.893 32.4625 100.892 32.4807V33.0098C100.895 33.0287 100.893 33.0481 100.887 33.0663C100.881 33.0845 100.871 33.101 100.858 33.1145C100.844 33.128 100.828 33.1382 100.81 33.1441C100.791 33.15 100.772 33.1516 100.753 33.1486H100.562C100.379 33.1305 100.196 33.1833 100.05 33.2961C99.9426 33.4503 99.8934 33.6379 99.9116 33.8252V33.9033C99.91 33.9105 99.9103 33.918 99.9123 33.925C99.9143 33.9321 99.9181 33.9386 99.9233 33.9438C99.9285 33.949 99.935 33.9528 99.942 33.9548C99.9491 33.9568 99.9566 33.957 99.9637 33.9554H100.771C100.789 33.9549 100.807 33.9587 100.824 33.9663C100.841 33.974 100.855 33.9854 100.867 33.9996C100.879 34.0138 100.887 34.0305 100.891 34.0483C100.896 34.0662 100.896 34.0848 100.892 34.1028ZM101.759 38.2058V32.4894C101.759 32.4026 101.759 32.3593 101.898 32.3593H102.618C102.636 32.3562 102.654 32.3575 102.671 32.363C102.688 32.3684 102.704 32.378 102.717 32.3907C102.73 32.4034 102.739 32.419 102.744 32.4362C102.75 32.4534 102.751 32.4716 102.748 32.4894V38.2058C102.751 38.2236 102.75 38.2418 102.744 38.2589C102.739 38.2761 102.73 38.2917 102.717 38.3045C102.704 38.3172 102.688 38.3268 102.671 38.3322C102.654 38.3377 102.636 38.339 102.618 38.3359H101.898C101.777 38.3359 101.699 38.2925 101.699 38.2058H101.759Z" fill="#58595B"/>
<path d="M106.435 33.9727H107.146C107.165 33.9697 107.185 33.9713 107.203 33.9772C107.221 33.9831 107.237 33.9933 107.251 34.0068C107.265 34.0203 107.275 34.0369 107.281 34.0551C107.287 34.0733 107.288 34.0926 107.285 34.1115V38.2058C107.287 38.224 107.284 38.2424 107.277 38.2594C107.271 38.2765 107.261 38.2919 107.247 38.3044C107.234 38.3169 107.218 38.3263 107.2 38.3317C107.183 38.3372 107.164 38.3386 107.146 38.3359H106.435C106.417 38.3386 106.398 38.3372 106.381 38.3317C106.364 38.3263 106.348 38.3169 106.334 38.3044C106.321 38.2919 106.31 38.2765 106.304 38.2594C106.297 38.2424 106.295 38.224 106.296 38.2058V37.9456C106.17 38.0961 106.01 38.2141 105.829 38.2896C105.648 38.3651 105.451 38.3958 105.255 38.3793C104.86 38.3944 104.473 38.2614 104.171 38.0063C104.022 37.8733 103.904 37.7082 103.828 37.5235C103.751 37.3387 103.717 37.1391 103.729 36.9394V34.0942C103.726 34.0753 103.727 34.0559 103.733 34.0377C103.739 34.0195 103.749 34.003 103.763 33.9895C103.776 33.976 103.793 33.9658 103.811 33.9599C103.829 33.954 103.849 33.9524 103.867 33.9554H104.579C104.598 33.9524 104.617 33.954 104.635 33.9599C104.653 33.9658 104.67 33.976 104.683 33.9895C104.697 34.003 104.707 34.0195 104.713 34.0377C104.719 34.0559 104.72 34.0753 104.717 34.0942V36.6531C104.705 36.8855 104.779 37.1143 104.926 37.295C104.999 37.3776 105.09 37.4424 105.193 37.4844C105.295 37.5265 105.405 37.5448 105.516 37.5379C105.63 37.5433 105.743 37.5244 105.85 37.4825C105.956 37.4407 106.052 37.3768 106.131 37.295C106.21 37.2087 106.271 37.1074 106.31 36.9971C106.349 36.8868 106.365 36.7698 106.357 36.6531V34.0942C106.355 34.0682 106.362 34.0424 106.376 34.0206C106.39 33.9987 106.411 33.9819 106.435 33.9727Z" fill="#58595B"/>
<path d="M108.04 38.2666C108.033 38.238 108.033 38.2084 108.04 38.1798L109.393 36.1847C109.402 36.1752 109.406 36.1628 109.406 36.15C109.406 36.1372 109.402 36.1249 109.393 36.1153L108.04 34.1375C108.034 34.1089 108.034 34.0795 108.04 34.0508C108.04 33.9988 108.04 33.9727 108.153 33.9727H108.925C108.957 33.9719 108.989 33.9795 109.018 33.9947C109.047 34.0098 109.072 34.0322 109.089 34.0595L109.957 35.3433L110.824 34.0595C110.838 34.0308 110.861 34.0071 110.889 33.9916C110.917 33.9761 110.949 33.9695 110.98 33.9727H111.848C111.917 33.9727 111.961 33.9728 111.961 34.0508C111.966 34.0795 111.966 34.1089 111.961 34.1375L110.607 36.1153C110.599 36.1249 110.594 36.1372 110.594 36.15C110.594 36.1628 110.599 36.1752 110.607 36.1847L111.961 38.1798C111.967 38.2084 111.967 38.238 111.961 38.2666C111.961 38.2666 111.961 38.336 111.848 38.336H111.076C111.044 38.3378 111.012 38.3315 110.984 38.3179C110.955 38.3042 110.93 38.2836 110.911 38.2579L110.044 36.9654L109.176 38.2579C109.157 38.2831 109.132 38.3033 109.103 38.3169C109.075 38.3304 109.043 38.337 109.011 38.336H108.144C108.083 38.336 108.04 38.3099 108.04 38.2666Z" fill="#58595B"/>
<path d="M4.05093 9.16394H0V28.4732H4.05093V9.16394Z" fill="#59595B"/>
<path d="M4.05093 1.9989H0V5.48601H4.05093V1.9989Z" fill="#59595B"/>
<path d="M25.6849 19.2696C25.6849 16.4938 25.7716 13.3711 23.8286 11.1764C23.237 10.5131 22.484 10.014 21.6426 9.72777C17.184 8.19241 12.9682 10.0401 11.164 12.5556V9.72777H7.36456V28.4038H11.164V15.9994C12.0583 14.6468 13.3023 13.5617 14.7639 12.8593C16.6896 11.8877 19.2224 11.853 20.7838 13.5358C21.4447 14.2582 21.8101 15.2025 21.8075 16.1815C21.8075 17.0056 21.8075 28.5252 21.8075 28.5252H25.6849C25.763 28.4732 25.7022 20.059 25.6849 19.2696Z" fill="#59595B"/>
<path d="M38.3757 3.07452C38.9787 3.0599 39.5806 3.13295 40.1626 3.29138C40.412 3.33662 40.6542 3.41542 40.8826 3.52561V0.402793C34.2553 -1.14125 31.8265 2.13768 31.1586 3.76846C30.4906 5.39925 30.6988 8.86902 30.6988 8.86902V10.014H27.6541V13.0414H30.6988V28.4819H34.7411V13.0414H40.8826V10.014H34.7411V8.45266C34.7411 7.12548 34.5936 5.62481 35.4524 4.49714C35.8073 4.06211 36.2526 3.70954 36.7574 3.46388C37.2622 3.21822 37.8144 3.08535 38.3757 3.07452Z" fill="#59595B"/>
<path d="M75.4674 9.42416C72.0497 9.19862 69.0657 10.4478 67.6604 12.4342V9.95328H63.861V28.4818H67.6604V16.6413C68.557 15.2959 69.805 14.2218 71.269 13.5358C72.5753 12.8545 74.092 12.6963 75.5108 13.0934L75.4674 9.42416Z" fill="#59595B"/>
<path d="M89.8668 15.1493H94.0045C93.3831 13.3974 92.2332 11.8816 90.7137 10.8111C89.1941 9.74051 87.3797 9.16806 85.5209 9.17263H84.9398C82.5524 9.17493 80.2635 10.1243 78.5754 11.8124C76.8873 13.5005 75.938 15.7894 75.9357 18.1767V19.4691C75.938 21.8573 76.8871 24.147 78.5749 25.8365C80.2627 27.526 82.5517 28.4773 84.9398 28.4819H85.5209C87.3804 28.4845 89.1951 27.9103 90.7145 26.8383C92.234 25.7662 93.3834 24.2493 94.0045 22.4965H89.8668C89.3789 23.1946 88.73 23.7648 87.9751 24.1589C87.2201 24.553 86.3812 24.7594 85.5296 24.7605H84.9483C83.5457 24.7582 82.2011 24.2 81.2093 23.2082C80.2175 22.2163 79.6593 20.8718 79.657 19.4691V18.1767C79.6593 16.774 80.2175 15.4295 81.2093 14.4376C82.2011 13.4458 83.5457 12.8875 84.9483 12.8853H85.5296C86.3812 12.8864 87.2201 13.0928 87.9751 13.4869C88.73 13.881 89.3789 14.4512 89.8668 15.1493Z" fill="#59595B"/>
<path d="M105.429 9.17262H104.847C103.665 9.17262 102.494 9.40549 101.402 9.85798C100.309 10.3105 99.3168 10.9737 98.4807 11.8098C97.6446 12.6459 96.9814 13.6385 96.5289 14.7309C96.0764 15.8233 95.8434 16.9942 95.8434 18.1767V19.4691C95.8434 21.8579 96.7918 24.1491 98.4802 25.839C100.169 27.529 102.459 28.4795 104.847 28.4818H105.429C107.068 28.4737 108.675 28.0218 110.079 27.1742C111.482 26.3266 112.63 25.1148 113.4 23.6675H108.638C107.74 24.4487 106.608 24.9095 105.42 24.9774H104.839C102.549 24.9774 99.9551 23.3205 99.7382 20.8657V20.6662H114.415C114.754 18.4763 114.453 16.2352 113.548 14.2124C112.815 12.6866 111.661 11.4018 110.223 10.509C108.785 9.61621 107.121 9.1526 105.429 9.17262ZM99.6776 17.0316L99.7469 16.7974C100.048 15.6751 100.712 14.6835 101.634 13.9763C102.556 13.269 103.685 12.8855 104.847 12.8852H105.429C106.591 12.8855 107.72 13.269 108.642 13.9763C109.565 14.6835 110.228 15.6751 110.529 16.7974L110.599 17.0316H99.6776Z" fill="#59595B"/>
</svg>
