<svg width="120" height="54" viewBox="0 0 120 54" fill="none" xmlns="http://www.w3.org/2000/svg">
<path d="M46.4043 17.1885C46.4043 22.165 46.403 27.1414 46.4081 32.1179C46.4083 32.3523 46.378 32.4639 46.0948 32.4628C43.1434 32.4512 40.192 32.4507 37.2406 32.4602C36.9399 32.4612 36.7494 32.3821 36.5913 32.1145C36.0362 31.1748 35.413 30.2778 34.842 29.3468C34.1566 28.229 33.3953 27.158 32.682 26.057C31.0694 23.5678 29.4656 21.0729 27.8597 18.5794C27.4924 18.0091 27.088 17.4622 26.7741 16.8584C26.7404 16.7934 26.7177 16.7097 26.625 16.7414C26.5452 16.7687 26.5413 16.8539 26.5415 16.9268C26.5422 17.2059 26.5483 17.485 26.5484 17.7641C26.5494 22.5464 26.5485 27.3287 26.5545 32.1109C26.5548 32.3434 26.5307 32.462 26.2463 32.461C23.307 32.4502 20.3677 32.4534 17.4285 32.4525C16.8685 32.4523 16.8712 32.452 16.8712 31.9125C16.8716 22.093 16.8714 12.2735 16.8709 2.45396C16.8708 1.91 16.8688 1.92365 17.4068 1.92434C20.2244 1.92792 23.0421 1.92842 25.8597 1.9155C26.1252 1.91428 26.2837 1.99049 26.4243 2.20978C27.9682 4.61914 29.5188 7.02419 31.0689 9.42959C32.2837 11.3148 33.5012 13.1983 34.7159 15.0835C35.3003 15.9905 35.8808 16.8998 36.4639 17.8076C36.5199 17.8948 36.5562 18.0314 36.6976 17.9818C36.8162 17.9402 36.7713 17.8189 36.7714 17.727C36.7719 15.7489 36.7731 13.7708 36.7709 11.7927C36.7673 8.62488 36.7634 5.45706 36.7525 2.28923C36.7516 2.03554 36.8092 1.90921 37.0938 1.91205C40.1056 1.94207 43.1175 1.95356 46.1292 1.90562C46.3182 1.90261 46.4026 1.96702 46.4028 2.14984C46.4029 2.31976 46.4011 2.48965 46.4011 2.65957C46.401 7.50252 46.4011 12.3455 46.4011 17.1884L46.4043 17.1885Z" fill="#58595D"/>
<path d="M111.613 32.4537C109.84 32.4537 108.067 32.4501 106.294 32.4586C106.087 32.4596 105.977 32.3953 105.868 32.217C105.376 31.4124 105.002 30.5397 104.502 29.7466C103.931 28.8421 103.455 27.8879 102.916 26.9681C102.421 26.1228 101.949 25.2613 101.465 24.4077C101.407 24.3066 101.392 24.1542 101.238 24.1549C101.081 24.1557 101.079 24.3151 101.021 24.4139C100.437 25.3993 99.8166 26.365 99.2811 27.3758C98.7023 28.4684 97.9972 29.4867 97.4505 30.5972C97.189 31.1283 96.8599 31.6259 96.5728 32.145C96.4493 32.3681 96.3029 32.4629 96.0268 32.462C92.4445 32.4503 88.8621 32.4548 85.2797 32.4553C85.185 32.4553 85.0691 32.4917 85.0181 32.384C84.9777 32.2988 85.0552 32.2289 85.1039 32.1594C85.7663 31.2154 86.4306 30.2726 87.0879 29.3251C87.7854 28.3196 88.507 27.329 89.1618 26.2962C89.9438 25.0626 90.8047 23.8839 91.6109 22.6674C92.8778 20.756 94.1896 18.8741 95.4962 16.9892C95.7028 16.6912 95.6869 16.4794 95.4832 16.1814C94.4569 14.6798 93.4549 13.1615 92.4473 11.6471C90.9634 9.41656 89.4826 7.18399 87.9993 4.95303C87.395 4.04423 86.7875 3.13763 86.1828 2.2291C86.131 2.15124 86.0372 2.07415 86.087 1.97155C86.1401 1.86203 86.2568 1.90736 86.3496 1.90868C89.8467 1.95855 93.3441 1.93132 96.8412 1.91715C97.1396 1.91594 97.2993 2.00619 97.4406 2.26611C98.6729 4.53382 99.9165 6.79545 101.165 9.05448C101.265 9.23585 101.269 9.56415 101.516 9.55366C101.728 9.54472 101.778 9.23556 101.883 9.05429C103.034 7.05925 104.174 5.0582 105.317 3.05896C105.359 2.98554 105.423 2.9195 105.446 2.84106C105.7 1.98029 106.308 1.89853 107.115 1.91138C110.235 1.96107 113.356 1.92577 116.477 1.93151C116.684 1.9319 116.973 1.77879 117.085 1.99083C117.185 2.1821 116.891 2.31599 116.782 2.47867C114.78 5.45076 112.697 8.36587 110.64 11.2997C109.438 13.0139 108.238 14.729 107.027 16.4366C106.914 16.5955 106.957 16.685 107.045 16.818C107.668 17.7577 108.304 18.6896 108.899 19.647C110.162 21.6792 111.497 23.6645 112.819 25.6573C113.509 26.6963 114.21 27.7295 114.876 28.7823C115.609 29.9387 116.374 31.0713 117.15 32.197C117.191 32.2558 117.262 32.3128 117.23 32.3872C117.189 32.4823 117.089 32.4589 117.005 32.4589C115.207 32.4586 113.41 32.4587 111.613 32.4587V32.4537Z" fill="#58595D"/>
<path d="M1.26722 17.1862C1.26722 12.2604 1.26711 7.33453 1.26722 2.40871C1.26723 1.90832 1.26771 1.92338 1.77316 1.9239C4.78382 1.92698 7.79447 1.92459 10.8051 1.91865C11.3307 1.91761 11.3377 1.90575 11.338 2.42346C11.3415 8.27135 11.3439 14.1192 11.3439 19.9671C11.3439 23.9951 11.3371 28.0232 11.3428 32.0511C11.3432 32.3358 11.2921 32.4607 10.9697 32.4596C7.8375 32.4494 4.70517 32.452 1.57294 32.458C1.33776 32.4585 1.25896 32.3896 1.25928 32.1456C1.26575 27.1592 1.2641 22.1727 1.2641 17.1862H1.26722Z" fill="#58595D"/>
<path d="M59.2587 39.5673C39.8999 39.5673 20.541 39.5673 1.18217 39.5673C0.975707 39.5673 0.769244 39.5669 0.562789 39.5681C0.0496106 39.5712 -0.0790637 39.4009 0.0425735 38.8934C0.0703131 38.7777 0.129092 38.7282 0.2427 38.7298C0.327684 38.7309 0.412744 38.729 0.49775 38.729C39.6163 38.729 78.7347 38.7291 117.853 38.7292C117.902 38.7292 117.95 38.7304 117.999 38.7296C118.482 38.722 118.628 38.9159 118.505 39.3919C118.464 39.5514 118.367 39.5902 118.209 39.5858C117.687 39.5714 117.165 39.568 116.643 39.5679C97.515 39.5672 78.3868 39.5673 59.2587 39.5673Z" fill="#58595D"/>
<path d="M63.787 48.7706C63.7871 47.3873 63.7907 46.004 63.7836 44.6208C63.7824 44.3816 63.8327 44.2627 64.1091 44.2783C64.5206 44.3015 64.9375 44.3146 65.3463 44.2736C65.6813 44.2401 65.8709 44.3936 66.0369 44.6334C66.7556 45.6712 67.6349 46.5817 68.3853 47.5939C68.5667 47.8386 68.68 47.839 68.8741 47.5908C69.6807 46.5595 70.5097 45.5456 71.3261 44.5217C71.4666 44.3454 71.6272 44.2691 71.8582 44.2787C72.2946 44.2968 72.7325 44.2969 73.1691 44.2819C73.4191 44.2734 73.5207 44.359 73.5204 44.6128C73.5167 47.3915 73.5175 50.1702 73.5217 52.9489C73.522 53.1875 73.4265 53.2635 73.1914 53.2575C72.6455 53.2435 72.0987 53.2431 71.553 53.2598C71.3298 53.2667 71.2899 53.1773 71.2904 52.9826C71.2944 51.381 71.2912 49.7794 71.2882 48.1778C71.288 48.0736 71.3468 47.9195 71.2328 47.8799C71.0896 47.8302 71.0215 47.9966 70.947 48.0896C70.2551 48.9536 69.5628 49.8173 68.8856 50.6927C68.6896 50.946 68.5847 50.9563 68.3784 50.6868C67.7892 49.9169 67.1649 49.1737 66.5558 48.4188C66.4601 48.3002 66.3717 48.1758 66.2796 48.0544C66.2298 47.9887 66.1879 47.8957 66.0855 47.9273C65.9797 47.9599 66.005 48.0584 66.0053 48.1422C66.0101 49.6949 66.004 51.2477 66.0253 52.8001C66.0303 53.1632 65.9419 53.2901 65.5576 53.2568C65.0756 53.215 64.5868 53.2391 64.1016 53.2542C63.8749 53.2612 63.7784 53.216 63.7808 52.9567C63.7939 51.5614 63.787 50.166 63.787 48.7706Z" fill="#58595D"/>
<path d="M83.0039 44.1392C85.1704 44.1629 86.6468 44.8949 87.5957 46.5341C88.1948 47.5691 88.2678 48.7106 88.0211 49.8518C87.7028 51.324 86.816 52.4151 85.4306 52.9736C83.4094 53.7884 81.4386 53.6137 79.7903 52.1071C78.4938 50.9222 78.1335 49.364 78.5222 47.6467C79.0237 45.4308 81.1005 44.041 83.0039 44.1392ZM83.28 51.4905C84.7154 51.5041 85.8427 50.341 85.8161 48.7869C85.7877 47.1257 84.7514 46.075 83.3121 46.0315C81.8536 45.9874 80.7347 47.1648 80.7032 48.6813C80.6678 50.383 81.8471 51.5283 83.28 51.4905Z" fill="#58595D"/>
<path d="M48.8608 50.2659C47.9807 51.2688 47.0948 52.2662 46.0748 53.1333C45.9084 53.2747 45.7362 53.4058 45.5454 53.5162C45.1546 53.7424 44.7742 53.8012 44.397 53.4982C44.0527 53.2216 43.9182 52.7313 44.0557 52.2777C44.201 51.7983 44.4266 51.3584 44.7078 50.9455C44.7417 50.8956 44.7769 50.846 44.8049 50.7929C44.8387 50.7288 44.8765 50.6545 44.799 50.5996C44.7193 50.543 44.6663 50.6096 44.6193 50.6627C44.4423 50.8624 44.2717 51.068 44.0893 51.2626C44.0163 51.3405 43.9571 51.5266 43.8161 51.4138C43.6829 51.3071 43.821 51.1977 43.898 51.1117C44.2783 50.687 44.6426 50.2457 45.0485 49.8469C45.7113 49.1959 46.2366 48.4416 46.765 47.6869C46.8081 47.6254 46.8517 47.5652 46.8215 47.4889C46.7832 47.3922 46.6931 47.3867 46.607 47.3906C46.5346 47.3938 46.463 47.4127 46.3906 47.4172C46.2825 47.4241 46.1912 47.3942 46.1905 47.2651C46.19 47.1642 46.2602 47.1147 46.3532 47.1021C46.413 47.094 46.4782 47.0833 46.5343 47.0984C47.0041 47.2254 47.2522 46.9802 47.4381 46.5919C47.5265 46.4075 47.6912 46.257 47.7657 46.0691C48.0008 45.4765 48.4479 45.3038 49.0368 45.3694C49.1068 45.3772 49.1928 45.3459 49.2366 45.4176C49.2941 45.5117 49.2057 45.5681 49.1601 45.6369C48.8991 46.0305 48.6409 46.4259 48.3835 46.8218C48.2473 47.0312 48.2936 47.1297 48.5562 47.12C48.9685 47.1047 49.3813 47.0984 49.7939 47.0975C49.9148 47.0972 50.1097 47.0333 50.1114 47.2303C50.113 47.4271 49.9212 47.4132 49.7759 47.4112C49.2905 47.4048 48.8047 47.4027 48.3199 47.3823C48.1452 47.3749 48.0091 47.4041 47.9165 47.5599C46.9259 49.2262 45.8239 50.8239 44.8666 52.5105C44.7894 52.6465 44.7375 52.7983 44.6859 52.9469C44.5846 53.2389 44.7653 53.4642 45.0688 53.4118C45.2854 53.3743 45.478 53.2685 45.6547 53.1338C46.1006 52.794 46.4825 52.3856 46.8877 52.0019C48.8959 50.1001 50.5314 47.9182 51.8362 45.4822C52.2021 44.7991 52.6178 44.1429 52.9975 43.4669C53.1243 43.2413 53.2856 43.1198 53.5472 43.1377C53.6069 43.1418 53.6678 43.1236 53.7283 43.1228C53.8949 43.1209 54.12 42.939 54.2004 43.0684C54.3041 43.2354 54.0879 43.4108 53.9937 43.5726C52.7391 45.7296 51.4813 47.8848 50.2222 50.0393C50.1122 50.2275 49.9855 50.406 49.8724 50.5925C49.8371 50.6506 49.7827 50.7288 49.8572 50.7865C49.9316 50.8441 49.9872 50.7742 50.0357 50.7216C50.3074 50.4278 50.5738 50.129 50.8513 49.8407C51.1888 49.49 51.5647 49.1825 51.9709 48.9146C52.3759 48.6474 52.6828 48.6275 52.9442 48.8356C53.2008 49.0398 53.3248 49.5097 53.2056 49.8728C53.0611 50.313 52.8449 50.7175 52.5771 51.0962C52.255 51.5517 51.9401 52.0123 51.6254 52.4729C51.5641 52.5626 51.5039 52.6575 51.4677 52.7587C51.3997 52.9491 51.2864 53.1563 51.4841 53.3318C51.6806 53.5062 51.857 53.3471 52.0109 53.2484C52.7129 52.7984 53.2686 52.1843 53.8285 51.5789C54.4783 50.8762 55.0632 50.1118 55.8485 49.5417C56.3973 49.1433 56.9962 48.8635 57.6594 48.7274C58.1756 48.6215 58.5609 48.7881 58.833 49.2328C59.0171 49.5339 58.8504 50.0506 58.5294 50.39C57.7672 51.1958 56.7757 51.5626 55.7478 51.8555C55.3889 51.9578 55.1847 52.5354 55.3804 52.9793C55.5494 53.3625 55.8918 53.498 56.3565 53.3741C56.9021 53.2286 57.3403 52.9047 57.7375 52.526C58.1324 52.1496 58.5032 51.748 58.8849 51.3577C58.9717 51.2689 59.047 51.0834 59.1933 51.2082C59.3096 51.3073 59.1797 51.4266 59.0996 51.5143C58.3888 52.2937 57.6979 53.0984 56.6976 53.5321C55.6637 53.9803 54.6818 53.4374 54.5013 52.325C54.4601 52.071 54.462 51.8185 54.4909 51.5636C54.4997 51.486 54.5271 51.3806 54.4202 51.3442C54.3189 51.3097 54.2548 51.4141 54.2205 51.4669C53.7783 52.1471 53.156 52.65 52.556 53.1743C52.4197 53.2934 52.2693 53.3987 52.1162 53.4959C51.524 53.8722 50.9973 53.6408 50.8428 52.9506C50.6804 52.2255 50.9314 51.615 51.3524 51.05C51.7433 50.5252 52.1421 50.0062 52.5319 49.4806C52.6149 49.3686 52.7412 49.239 52.6037 49.0945C52.4626 48.9462 52.3024 49.0419 52.1729 49.1233C51.3719 49.6266 50.7429 50.3206 50.1206 51.0168C49.4578 51.7584 48.7892 52.4958 48.193 53.2946C47.9227 53.6568 47.4745 53.5174 47.1147 53.6254C46.9845 53.6644 47.005 53.4876 47.0732 53.3877C47.715 52.4465 48.251 51.4373 48.9235 50.5166C49.118 50.4005 49.1525 50.1889 49.2982 49.9456C49.0476 50.0087 48.9387 50.1156 48.8608 50.2659ZM58.3354 49.3717C58.3238 49.2043 58.2827 49.0997 58.1142 49.0643C57.7366 48.985 57.4171 49.0977 57.1311 49.3317C56.4702 49.8725 56.0081 50.561 55.6577 51.3311C55.6238 51.4056 55.5515 51.4772 55.633 51.5579C55.6938 51.6181 55.7709 51.5866 55.8389 51.5666C56.7413 51.3017 57.4997 50.824 58.048 50.0473C58.195 49.839 58.2905 49.6024 58.3354 49.3717ZM44.9149 50.5063C44.9068 50.4982 44.8969 50.4822 44.8909 50.4836C44.8737 50.4874 44.8582 50.4982 44.842 50.5063C44.8501 50.5144 44.8598 50.5304 44.8659 50.5291C44.8831 50.5256 44.8989 50.5149 44.9149 50.5063Z" fill="#58595D"/>
<path d="M113.003 48.7554C113.003 47.3839 113.007 46.0123 112.999 44.6409C112.998 44.3904 113.043 44.2755 113.342 44.2784C115.09 44.295 116.839 44.2954 118.587 44.2814C118.924 44.2787 119.053 44.3766 119.022 44.718C118.996 45.0069 118.999 45.3015 119.022 45.5909C119.045 45.877 118.948 45.9779 118.657 45.9736C117.649 45.9588 116.641 45.979 115.633 45.9559C115.299 45.9483 115.211 46.0509 115.24 46.3719C115.272 46.7208 115.26 47.0759 115.24 47.4268C115.225 47.6924 115.303 47.7901 115.585 47.7854C116.544 47.7691 117.504 47.7863 118.463 47.7742C118.746 47.7707 118.897 47.8187 118.858 48.1552C118.822 48.4543 118.826 48.7638 118.859 49.0637C118.894 49.3756 118.758 49.436 118.487 49.4336C117.516 49.4249 116.544 49.4398 115.573 49.427C115.299 49.4234 115.218 49.501 115.236 49.7815C115.265 50.2529 115.252 50.7277 115.24 51.2007C115.233 51.4607 115.31 51.5625 115.595 51.557C116.663 51.5363 117.732 51.5498 118.801 51.5362C119.031 51.5333 119.102 51.6228 119.099 51.8336C119.093 52.2219 119.089 52.6106 119.101 52.9987C119.108 53.2502 118.968 53.2579 118.774 53.2573C116.952 53.2517 115.13 53.2486 113.309 53.2586C113.059 53.26 112.998 53.1742 112.999 52.9426C113.006 51.5469 113.003 50.1511 113.003 48.7554Z" fill="#58595D"/>
<path d="M31.4261 49.1596C31.426 47.8005 31.4262 46.4414 31.4259 45.0823C31.4258 44.63 31.4251 44.634 31.8989 44.6344C33.6112 44.6358 35.3235 44.6437 37.0356 44.6261C37.3859 44.6224 37.4823 44.7422 37.4584 45.0685C37.4364 45.3698 37.4518 45.6749 37.4671 45.9775C37.4805 46.2421 37.3815 46.3436 37.1076 46.3395C36.1243 46.3244 35.1406 46.3281 34.1571 46.326C33.6878 46.3251 33.6812 46.3344 33.684 46.7865C33.6861 47.1141 33.6933 47.4422 33.6793 47.7692C33.6681 48.0306 33.7617 48.1437 34.0347 48.1408C35.006 48.1306 35.9778 48.1476 36.9487 48.1253C37.2176 48.1192 37.2926 48.1997 37.2831 48.4482C37.2701 48.7875 37.2611 49.1289 37.2849 49.467C37.304 49.7387 37.225 49.823 36.9439 49.818C35.9727 49.8006 35.001 49.8193 34.0297 49.8075C33.7604 49.8042 33.6648 49.8826 33.6789 50.1626C33.702 50.6223 33.6958 51.0846 33.6772 51.5448C33.6664 51.8115 33.7451 51.9072 34.0259 51.903C35.0699 51.8872 36.1145 51.9073 37.1584 51.8879C37.4559 51.8824 37.5504 51.9907 37.5445 52.263C37.5365 52.6269 37.5401 52.991 37.5414 53.355C37.5422 53.5535 37.4544 53.6281 37.25 53.6271C35.4167 53.6182 33.5833 53.6105 31.7501 53.6217C31.4355 53.6236 31.424 53.4657 31.4246 53.2372C31.4278 51.878 31.4262 50.5188 31.4261 49.1596Z" fill="#58595D"/>
<path d="M92.8808 44.284C93.0144 44.284 93.148 44.2835 93.2816 44.2841C94.2436 44.2878 93.9776 44.1755 94.3517 44.9943C94.925 46.2488 95.4529 47.5241 95.9974 48.7916C96.0593 48.9358 96.1004 49.0888 96.1593 49.2344C96.181 49.2882 96.2208 49.3423 96.2915 49.3413C96.3734 49.3402 96.3714 49.266 96.3948 49.214C97.0889 47.668 97.7846 46.1226 98.4763 44.5755C98.5722 44.3611 98.7119 44.2715 98.9572 44.2787C99.5516 44.2961 100.147 44.2906 100.742 44.2813C100.999 44.2772 101.038 44.3521 100.926 44.5813C99.5552 47.3892 98.1812 50.1955 96.8352 53.0152C96.6297 53.4458 96.3094 53.3005 96.0062 53.3319C95.7397 53.3596 95.6507 53.2113 95.548 52.9813C94.3881 50.383 93.2103 47.7927 92.0365 45.2006C91.9467 45.0021 91.8576 44.8029 91.7576 44.6095C91.6321 44.3667 91.7103 44.2776 91.9703 44.2848C92.2736 44.2931 92.5773 44.2867 92.8808 44.2867V44.284Z" fill="#58595D"/>
<path d="M19.0824 44.6362C19.3131 44.6362 19.5514 44.6735 19.7728 44.6281C20.1828 44.5439 20.3175 44.7787 20.4481 45.0918C21.0678 46.5776 21.6998 48.0583 22.3258 49.5414C22.3496 49.5977 22.3658 49.6792 22.428 49.675C22.552 49.6667 22.6067 49.5573 22.6507 49.4581C22.8667 48.9714 23.0711 48.4796 23.2921 47.9952C23.7647 46.9595 24.2511 45.9299 24.7169 44.8912C24.8078 44.6887 24.9298 44.6279 25.1353 44.6309C25.7179 44.6394 26.3007 44.6377 26.8834 44.6337C27.2026 44.6315 27.2555 44.7055 27.1171 44.99C26.5769 46.1008 26.0359 47.2113 25.496 48.3223C24.6753 50.0109 23.8555 51.7 23.0346 53.3886C22.9492 53.5644 22.8731 53.755 22.616 53.71C22.3082 53.6561 21.9531 53.8249 21.7546 53.3756C20.7463 51.0943 19.7096 48.8257 18.6846 46.5518C18.4459 46.0223 18.2219 45.486 17.9759 44.96C17.867 44.7273 17.8351 44.6014 18.1724 44.632C18.4734 44.6592 18.7789 44.6362 19.0824 44.6362C19.0824 44.6367 19.0824 44.6357 19.0824 44.6362Z" fill="#58595D"/>
<path d="M0.515526 49.1297C0.515526 47.7597 0.519982 46.3897 0.511745 45.0198C0.510114 44.7486 0.583521 44.6187 0.88222 44.6289C1.39111 44.6464 1.90131 44.6406 2.41054 44.6278C2.66605 44.6214 2.79501 44.702 2.79424 44.9757C2.78818 47.1459 2.79638 49.3161 2.77543 51.4861C2.77251 51.7892 2.85456 51.8655 3.13315 51.8632C4.16429 51.8548 5.19564 51.871 6.22664 51.8565C6.54366 51.852 6.69867 51.9104 6.65469 52.276C6.61588 52.5985 6.63585 52.9304 6.6545 53.2567C6.66981 53.5246 6.57337 53.622 6.3017 53.6207C4.48202 53.612 2.66231 53.6118 0.842611 53.6176C0.589193 53.6185 0.509879 53.531 0.511934 53.2761C0.523083 51.8941 0.517228 50.5119 0.517228 49.1297H0.515526Z" fill="#58595D"/>
<path d="M13.6012 49.1427C13.6014 50.513 13.5941 51.8834 13.6068 53.2535C13.6097 53.5648 13.5104 53.6442 13.2022 53.6252C12.6705 53.5925 12.135 53.606 11.6016 53.6191C11.3473 53.6253 11.2669 53.5365 11.2675 53.2806C11.2741 50.5281 11.2733 47.7757 11.2639 45.0232C11.2629 44.7232 11.3561 44.6125 11.6635 44.6261C12.1722 44.6486 12.6842 44.6594 13.1915 44.6261C13.5269 44.6041 13.6087 44.7209 13.606 45.0319C13.5942 46.4021 13.6009 47.7724 13.6012 49.1427Z" fill="#58595D"/>
<path d="M107.62 48.7671C107.62 50.1365 107.613 51.5061 107.626 52.8754C107.629 53.1642 107.533 53.2633 107.25 53.2556C106.704 53.2406 106.158 53.2345 105.613 53.2573C105.364 53.2678 105.305 53.197 105.307 52.9565C105.318 50.8482 105.317 48.7397 105.318 46.6312C105.318 45.9647 105.326 45.2979 105.307 44.6319C105.299 44.342 105.382 44.2593 105.681 44.2785C106.2 44.3118 106.723 44.3 107.244 44.2837C107.527 44.2748 107.629 44.3684 107.627 44.659C107.615 46.0283 107.62 47.3977 107.62 48.7671Z" fill="#58595D"/>
<path d="M48.8606 50.267C48.9386 50.1166 49.0477 50.0095 49.2985 49.9463C49.1527 50.1899 49.1182 50.4018 48.9234 50.518C48.932 50.4266 48.9703 50.3282 48.8606 50.267Z" fill="#58595D"/>
<path d="M44.9147 50.507C44.8986 50.5152 44.8829 50.5259 44.8657 50.5295C44.8595 50.5307 44.8499 50.5148 44.8418 50.5067C44.858 50.4986 44.8735 50.4878 44.8906 50.484C44.8966 50.4826 44.9064 50.4986 44.9147 50.507Z" fill="#58595D"/>
<path d="M52.3122 14.4709L51.5393 12.6211C51.3832 13.1193 51.2514 13.6281 51.1401 14.1445L52.3122 14.4709Z" fill="#58595D"/>
<path d="M55.1732 6.24263L57.4784 11.6044L60.3312 2.29517C58.3705 3.28017 56.6225 4.62377 55.1732 6.24263Z" fill="#58595D"/>
<path d="M55.551 29.76L55.5393 26.958L54.2559 28.2887C54.6683 28.8339 55.1141 29.352 55.5867 29.8443L55.551 29.76Z" fill="#58595D"/>
<path d="M54.6841 12.5632L54.0667 7.61377C53.4083 8.51839 52.8358 9.48868 52.3596 10.5135L54.6841 12.5632Z" fill="#58595D"/>
<path d="M53.4608 25.208L52.5115 25.453C52.6062 25.6463 52.704 25.8379 52.8056 26.027L53.4608 25.208Z" fill="#58595D"/>
<path d="M79.9488 29.4873L79.4661 30.9627C79.8948 30.5921 80.3049 30.2011 80.6955 29.7908L79.9488 29.4873Z" fill="#58595D"/>
<path d="M80.906 29.5704C81.2921 29.1504 81.6583 28.7119 82.0019 28.2554L80.6748 28.5199L80.906 29.5704Z" fill="#58595D"/>
<path d="M79.1669 29.546L77.4346 31.6379L78.5279 29.2373L75.8485 30.6845L78.2935 28.4725L75.5498 28.0398L78.4172 27.3914L77.2167 24.8443L79.1428 26.4241L79.9007 23.56L80.0736 26.4341L81.9896 24.1441L80.7181 27.0486L82.5184 26.0629L80.8327 27.6896L82.1737 28.0178C84.2546 25.1539 85.4852 21.6321 85.4852 17.8212C85.4852 8.22842 77.7087 0.451904 68.1159 0.451904C65.3728 0.451904 62.7795 1.09005 60.4729 2.22246L60.5577 12.2192L67.3938 3.53765L63.4073 13.5958L73.2134 8.16178L65.4907 16.1413L76.7178 14.7458L66.173 19.1352L77.2082 22.3702L65.7499 22.0716L74.7928 29.2504L64.0574 24.9031L69.591 34.5873L61.6342 26.6952L62.489 34.2533C64.2543 34.8577 66.1457 35.1905 68.1159 35.1905C72.3609 35.1905 76.2486 33.6656 79.2658 31.1364L79.1669 29.546ZM81.9217 12.5349L81.5677 10.5526L82.6296 12.5349L83.7624 11.6145L83.0545 13.2429L84.581 14.3621L83.196 14.1633L83.5563 16.333L82.2757 14.3049L80.7181 15.7208L81.7801 13.5969L79.8685 12.1809L81.9217 12.5349Z" fill="#58595D"/>
<path d="M61.0233 33.6759L58.8567 27.4546L57.3733 31.4648C58.488 32.3437 59.7123 33.0884 61.0233 33.6759Z" fill="#58595D"/>
</svg>
