<svg width="32" height="32" viewBox="0 0 32 32" fill="none" xmlns="http://www.w3.org/2000/svg">
<circle cx="16" cy="16" r="16" fill="#111114"/>
<path d="M19.2901 12.9801C20.5453 12.9801 21.749 13.4787 22.6366 14.3662C23.5241 15.2538 24.0227 16.4575 24.0227 17.7126V23.2339H20.8677V17.7126C20.8677 17.2943 20.7015 16.893 20.4056 16.5972C20.1098 16.3013 19.7085 16.1351 19.2901 16.1351C18.8718 16.1351 18.4705 16.3013 18.1747 16.5972C17.8788 16.893 17.7126 17.2943 17.7126 17.7126V23.2339H14.5576V17.7126C14.5576 16.4575 15.0562 15.2538 15.9437 14.3662C16.8313 13.4787 18.035 12.9801 19.2901 12.9801Z" fill="white"/>
<path d="M11.4026 13.7688H8.24756V23.2338H11.4026V13.7688Z" fill="white"/>
<path d="M9.82507 11.4025C10.6963 11.4025 11.4026 10.6962 11.4026 9.82501C11.4026 8.95377 10.6963 8.2475 9.82507 8.2475C8.95383 8.2475 8.24756 8.95377 8.24756 9.82501C8.24756 10.6962 8.95383 11.4025 9.82507 11.4025Z" fill="white"/>
</svg>
