<svg width="125" height="58" viewBox="0 0 125 58" fill="none" xmlns="http://www.w3.org/2000/svg">
<path d="M27.7134 57.2598V51.7799C27.7134 51.0739 27.4164 50.2951 26.1109 50.2951C25.6095 50.2746 25.1105 50.3725 24.6541 50.5809V57.3046H23.4214V50.0205C24.3007 49.6237 25.2587 49.4321 26.223 49.4602C28.3466 49.4602 28.9685 50.6369 28.9685 51.7015V57.2094H27.7134V57.2598Z" fill="#58595D"/>
<path d="M33.3947 57.4006C31.3103 57.4006 30.4082 55.686 30.4082 53.4504C30.4082 51.2147 31.3271 49.4609 33.3779 49.4609C35.4286 49.4609 36.3643 51.1419 36.3643 53.428C36.3643 55.7141 35.4623 57.4006 33.3947 57.4006ZM33.3947 50.2734C31.9379 50.2734 31.6521 51.9039 31.6521 53.4447C31.6521 54.9856 31.9603 56.5321 33.3947 56.5321C34.8291 56.5321 35.1205 54.9744 35.1205 53.4447C35.1205 51.9151 34.8515 50.279 33.3947 50.279V50.2734Z" fill="#58595D"/>
<path d="M40.7184 57.2606H39.5978L37.0652 49.6235H38.3988L40.0012 55.0922C40.0935 55.3978 40.1592 55.7109 40.1973 56.0279C40.2281 55.7107 40.2901 55.3973 40.3823 55.0922L42.024 49.6235H43.1838L40.7184 57.2606Z" fill="#58595D"/>
<path d="M46.8371 57.4006C44.7527 57.4006 43.8506 55.686 43.8506 53.4504C43.8506 51.2147 44.7696 49.4609 46.8259 49.4609C48.8823 49.4609 49.8123 51.1419 49.8123 53.428C49.8123 55.7141 48.9046 57.4006 46.8371 57.4006ZM46.8371 50.2734C45.3803 50.2734 45.0945 51.9039 45.0945 53.4447C45.0945 54.9856 45.4083 56.5321 46.8371 56.5321C48.2659 56.5321 48.5629 54.9744 48.5629 53.4447C48.5629 51.9151 48.2995 50.279 46.8371 50.279V50.2734Z" fill="#58595D"/>
<path d="M56.3006 57.4004C54.6981 57.4004 53.499 55.854 53.499 53.4502C53.499 51.0465 54.6197 49.4832 56.3343 49.4832C56.9031 49.4517 57.4648 49.6224 57.92 49.9651L57.7071 50.4469C57.3449 50.1736 56.8997 50.0332 56.4463 50.0491C54.8606 50.0491 54.2779 51.4947 54.2779 53.411C54.2779 55.3945 55.0007 56.8233 56.4015 56.8233C56.8643 56.8318 57.3171 56.6881 57.6902 56.4143L57.9144 56.9354C57.4439 57.267 56.8754 57.4308 56.3006 57.4004Z" fill="#58595D"/>
<path d="M59.8139 47.9988C59.5323 47.9988 59.304 47.7705 59.304 47.4889C59.304 47.2073 59.5323 46.979 59.8139 46.979C60.0955 46.979 60.3238 47.2073 60.3238 47.4889C60.3238 47.7705 60.0955 47.9988 59.8139 47.9988ZM59.4328 57.2608V49.6237H60.1948V57.2608H59.4328Z" fill="#58595D"/>
<path d="M66.4983 57.2604V51.702C66.4983 50.9064 66.1845 50.0211 64.6716 50.0211C64.0946 49.9944 63.5193 50.1018 62.9908 50.3349V57.2772H62.1951V50.0211C62.9932 49.6199 63.8799 49.4272 64.7725 49.4608C66.7448 49.4608 67.2492 50.7047 67.2492 51.6404V57.2435H66.4872L66.4983 57.2604Z" fill="#58595D"/>
<path d="M69.5856 53.775C69.6977 55.8033 70.6334 56.8063 72.1518 56.8063C72.7905 56.8228 73.4218 56.666 73.9785 56.3524L74.2194 56.9127C73.5808 57.2542 72.8646 57.4241 72.1407 57.4058C70.2972 57.4058 68.8684 56.2852 68.8684 53.4276C68.8684 50.7381 70.1571 49.5054 71.7596 49.5054C73.3621 49.5054 74.494 50.542 74.494 53.0746L69.5856 53.775ZM71.7204 50.0489C70.5045 50.0489 69.552 50.9846 69.552 53.3043L73.7151 52.6656C73.7375 50.7605 72.9699 50.0489 71.7204 50.0489Z" fill="#58595D"/>
<path d="M84.6858 57.2609V51.7026C84.7845 50.8729 84.1918 50.1203 83.3622 50.0216C83.2435 50.0075 83.1235 50.0075 83.0048 50.0216C82.2922 50.0054 81.6105 50.3123 81.1502 50.8565V57.2609H80.3882V51.6242C80.3882 50.6604 79.7382 50.0104 78.4495 50.0104C77.8975 49.9803 77.3468 50.0882 76.847 50.3242V57.2665H76.0793V50.0216C76.819 49.615 77.6568 49.4211 78.4999 49.4613C79.3848 49.3774 80.2513 49.7515 80.7972 50.4531C81.3849 49.8077 82.2217 49.4464 83.0945 49.4613C84.9211 49.4613 85.4478 50.722 85.4478 51.6409V57.2441H84.6858V57.2609Z" fill="#58595D"/>
<path d="M89.6502 57.4006C87.7788 57.4006 86.9719 56.5097 86.9719 55.221C86.9719 53.1814 88.8434 52.5595 91.2359 52.3185V51.7918C91.2359 50.4191 90.4291 50.0381 89.3813 50.0381C88.7586 50.0483 88.149 50.2181 87.6107 50.5311L87.409 50.0212C88.042 49.668 88.7519 49.4756 89.4766 49.4609C90.7485 49.4609 91.97 50.0212 91.97 51.7862V56.8291C91.26 57.2191 90.4601 57.4161 89.6502 57.4006ZM91.2359 52.7668C88.9947 53.0638 87.7228 53.5064 87.7228 55.2154C87.7228 56.4312 88.4848 56.9299 89.7511 56.9299C90.2635 56.9399 90.7714 56.8325 91.2359 56.6161V52.7612V52.7668Z" fill="#58595D"/>
<path d="M95.2082 57.3723C94.5611 57.3963 93.9227 57.2181 93.3816 56.8624L93.6113 56.3021C94.0658 56.6221 94.6137 56.7817 95.1689 56.756C96.0231 56.8272 96.7733 56.1924 96.8445 55.3382C96.8484 55.2917 96.8502 55.245 96.8499 55.1983C96.8499 54.2794 96.3512 53.8928 95.4323 53.5566C93.9026 52.9963 93.6169 52.195 93.6169 51.4162C93.643 50.3087 94.5619 49.432 95.6695 49.4581C95.6913 49.4586 95.7131 49.4595 95.7349 49.4607C96.3096 49.4566 96.8707 49.6351 97.3373 49.9706L97.1076 50.4636C96.7234 50.173 96.2559 50.0138 95.7741 50.0098C95.0214 49.9504 94.363 50.5125 94.3036 51.2652C94.2993 51.3191 94.2983 51.3733 94.3005 51.4274C94.3005 52.2791 94.9112 52.6601 95.7181 52.957C97.2197 53.5174 97.5895 54.3186 97.5895 55.1983C97.526 56.4533 96.4637 57.4231 95.2082 57.3723Z" fill="#58595D"/>
<path d="M2.95863 40.2442C2.80174 42.7376 5.88905 42.1773 7.18898 41.3985C8.64569 40.5196 9.76619 39.1783 10.3716 37.5884C10.8304 36.0444 11.0625 34.442 11.0608 32.8313C11.1504 30.4668 11.1449 25.8442 11.1113 23.4797C12.753 25.5976 13.6999 29.7551 13.6999 29.7551C13.7503 29.94 13.8008 30.1194 13.8512 30.3155C14.4675 32.4727 15.8963 34.4394 18.3953 33.8735C22.3511 32.9882 22.508 27.7436 23.158 24.5835C23.4094 23.2907 23.7464 22.0159 24.1665 20.7677C24.4626 19.9134 24.8126 19.0787 25.2143 18.2687C25.5444 17.5983 25.9187 16.9506 26.3349 16.33C28.7163 12.8 32.3751 9.88077 36.6615 9.37088C39.8161 8.99547 42.8867 9.37089 45.4977 11.276C46.1549 11.7586 46.7613 12.3068 47.3076 12.9121C48.1126 13.8489 48.7154 14.942 49.0782 16.1227C48.1723 16.0956 47.2696 16.002 46.3775 15.8425C43.3966 15.3326 41.6316 13.7526 39.183 12.2173C36.6504 10.6596 33.0587 13.6013 31.2153 15.2038C31.2153 15.2038 26.8561 19.3053 26.4695 25.4743C26.1813 29.2749 27.2124 33.0586 29.3887 36.1876C30.9589 38.3521 33.0899 40.0472 35.5522 41.0903C37.5339 41.9037 39.652 42.3334 41.794 42.3566C48.9829 42.3566 57.4829 35.8458 57.8135 21.9556C57.8135 21.9556 59.5336 21.2888 61.1754 20.4371C60.9905 21.5129 60.856 22.6784 60.7439 23.743C60.3517 27.4803 59.8754 31.8171 59.6961 35.56C59.5328 37.1438 59.5875 38.7425 59.8586 40.3115C59.94 40.692 60.1045 41.0498 60.3405 41.3593C60.8151 41.8704 61.5007 42.1314 62.1951 42.0653C62.1951 42.0653 65.3609 42.4463 71.4067 33.1002C72.7234 31.0663 74.5501 28.5449 75.9733 26.5894C76.3767 26.029 76.7633 25.4687 77.1892 24.9084C77.7495 24.1968 78.265 23.4852 78.8141 22.7848C80.0916 21.1543 81.4027 19.5406 82.8035 18.0054C83.0556 17.7252 83.3134 17.445 83.5768 17.1761L83.6608 17.0864C84.1819 16.5653 84.7254 16.0555 85.2745 15.5568C85.8236 15.0581 86.3951 14.593 86.9555 14.128C87.2188 13.9151 87.4821 13.7134 87.7455 13.506L88.2497 13.1531C88.81 12.7496 89.432 12.3798 90.0427 12.0324C90.3397 11.8531 90.6479 11.685 90.9561 11.5169L91.4324 11.276C92.6153 10.7288 93.8408 10.2791 95.0968 9.93123C97.9054 9.18919 100.851 9.13156 103.686 9.76315C109.435 11.0295 113.307 17.1817 112.584 23.0314C112.021 27.1343 109.621 30.7578 106.062 32.8761C102.924 34.6691 97.4445 35.3079 94.9063 31.1952C92.368 27.0825 95.9877 22.1909 95.9877 22.1909C96.3799 21.5802 96.8114 20.9918 97.2484 20.4147C98.3242 18.9747 99.753 17.2321 98.8733 15.3103C97.7527 12.8281 94.5365 14.9236 93.2702 16.033C92.3736 16.8296 91.5486 17.7033 90.8047 18.6441C89.9537 19.7042 89.221 20.8541 88.6195 22.0732C87.5891 24.1539 86.9707 26.4143 86.7985 28.7298C86.7063 30.0252 86.7514 31.3268 86.9331 32.6128C87.2774 35.3686 88.513 37.9363 90.4518 39.9248C92.5754 42.0204 95.6515 42.5359 98.5091 42.3342C101.9 42.0306 105.162 40.893 108.006 39.0228C111.393 36.876 114.336 34.0988 116.675 30.8422C117.323 29.9221 117.904 28.9558 118.412 27.951C120.05 24.8017 120.945 21.3189 121.028 17.77C121.028 12.3462 118.686 6.56373 113.968 3.53243C109.984 0.977396 105.278 0.417069 100.638 0.938161C99.375 1.08563 98.1229 1.31586 96.8898 1.62735C83.4423 4.98924 72.4712 19.3669 69.0421 24.3089C68.762 24.6955 68.6275 24.9196 68.2969 24.8692C68.0468 24.7668 67.9055 24.5006 67.9608 24.2361C68.325 18.0838 71.1601 11.9203 71.1601 11.9203C71.261 11.6682 71.3059 11.5785 71.4179 11.36L71.4907 11.1975C71.7204 10.7045 71.967 10.2226 72.2024 9.72949C72.7616 8.57663 73.1395 7.34441 73.323 6.07627C73.5247 4.55221 72.9532 3.06735 71.1321 3.19622C68.3306 3.40354 66.9074 6.40683 65.417 8.63688C63.5455 11.4385 60.2004 14.24 57.3316 15.0749C53.5606 0.333032 40.3765 0.870948 40.3765 0.870948C23.0067 0.870948 18.0591 20.325 18.0591 20.325C16.0906 14.3376 12.805 8.86744 8.4441 4.31687C7.65314 3.42757 6.42467 3.06663 5.27838 3.38676C3.59743 3.87983 2.17983 5.32544 1.26091 6.79907C0.241141 8.44639 -0.459274 9.76872 0.358786 11.769C0.358786 11.769 4.04564 19.7647 2.95863 40.2442ZM50.1091 25.3287C49.9192 26.9839 49.4233 28.5893 48.6467 30.0633C48.4373 30.4356 48.1894 30.7849 47.9071 31.1055C47.0261 32.0802 45.8722 32.7674 44.5956 33.0778C44.2369 33.1642 43.8713 33.2186 43.503 33.2403C42.7083 33.2973 41.9099 33.2041 41.1497 32.9658C39.8899 32.5447 38.7409 31.8458 37.7878 30.9206C36.9405 30.1229 36.2273 29.194 35.6755 28.1695C35.1954 27.2058 34.8323 26.1881 34.594 25.1381C34.3289 24.0119 34.242 22.851 34.3363 21.6978V21.569C38.4378 24.9308 44.8477 25.0877 50.1595 24.2809C50.1627 24.6308 50.1459 24.9807 50.1091 25.3287Z" fill="#58595D"/>
<path d="M49.0782 16.1387C51.874 16.2635 54.67 15.8936 57.3372 15.0461C53.5551 0.332242 40.3765 0.870173 40.3765 0.870173C23.0067 0.870173 18.0591 20.3243 18.0591 20.3243C16.0906 14.3368 12.805 8.86666 8.4441 4.31609C7.65314 3.42679 6.42467 3.06586 5.27838 3.38598C3.59743 3.87906 2.17983 5.32466 1.26091 6.79829C0.241141 8.44561 -0.459274 9.76795 0.358786 11.7683C0.358786 11.7683 4.04564 19.7639 2.95863 40.2435C2.80174 42.7368 5.88905 42.1765 7.18898 41.3977C8.6457 40.5188 9.76619 39.1775 10.3716 37.5876C10.8304 36.0436 11.0625 34.4412 11.0608 32.8305C11.1504 30.466 11.1449 25.8434 11.1113 23.4789C12.753 25.5969 13.6999 29.7544 13.6999 29.7544C13.7503 29.9393 13.8008 30.1186 13.8512 30.3147C14.4675 32.4719 15.8963 34.4386 18.3953 33.8727C22.3511 32.9874 22.508 27.7429 23.158 24.5827C23.4094 23.2899 23.7464 22.0151 24.1665 20.7669C24.4626 19.9126 24.8126 19.0779 25.2143 18.2679C25.5444 17.5975 25.9187 16.9499 26.3349 16.3292C28.7163 12.7993 32.3751 9.87999 36.6615 9.37011C39.8161 8.9947 42.8867 9.37011 45.4977 11.2752C46.1549 11.7578 46.7613 12.306 47.3076 12.9113C48.1126 13.8481 48.7155 14.9412 49.0782 16.1219V16.1387Z" fill="#58595D"/>
<path d="M59.7405 35.5542C59.5772 37.138 59.6319 38.7367 59.903 40.3056C59.9844 40.6861 60.149 41.044 60.3849 41.3534C60.8596 41.8645 61.5452 42.1255 62.2396 42.0594C62.2396 42.0594 65.4053 42.4405 71.4511 33.0944C72.7678 31.0605 74.5945 28.539 76.0177 26.5835C76.4211 26.0232 76.8077 25.4629 77.2336 24.9026C77.7939 24.191 78.3094 23.4794 78.8585 22.779C80.136 21.1485 81.4471 19.5348 82.8479 17.9995C83.1 17.7194 83.3578 17.4392 83.6212 17.1702L83.7052 17.0806C84.2263 16.5595 84.7698 16.0496 85.3189 15.5509C85.868 15.0522 86.4396 14.5872 86.9999 14.1222C87.2632 13.9092 87.5265 13.7075 87.7899 13.5002L88.2942 13.1472C88.8545 12.7438 89.4765 12.3739 90.0872 12.0265C90.3842 11.8472 90.6923 11.6791 91.0005 11.5111L91.4768 11.2701C92.6597 10.723 93.8852 10.2732 95.1412 9.92536C97.9498 9.18332 100.895 9.12569 103.731 9.75728C109.48 11.0236 113.351 17.1759 112.629 23.0256C112.066 27.1285 109.665 30.7519 106.107 32.8703C102.969 34.6633 97.489 35.302 94.9508 31.1893C92.4125 27.0766 96.0321 22.1851 96.0321 22.1851C96.4243 21.5743 96.8558 20.986 97.2928 20.4089C98.3686 18.9689 99.7974 17.2263 98.9177 15.3044C97.7971 12.8222 94.5809 14.9178 93.3146 16.0272C92.4022 16.8236 91.5622 17.6992 90.8043 18.6439C89.9533 19.704 89.2206 20.8538 88.6191 22.073C87.5887 24.1537 86.9703 26.414 86.7981 28.7295C86.7059 30.025 86.751 31.3266 86.9327 32.6125C87.2769 35.3684 88.5126 37.9361 90.4514 39.9246C92.575 42.0202 95.6511 42.5357 98.5087 42.334C101.899 42.0303 105.162 40.8927 108.006 39.0225C111.392 36.8757 114.335 34.0986 116.674 30.8419C117.323 29.9218 117.903 28.9555 118.411 27.9507C120.049 24.8014 120.945 21.3187 121.028 17.7698C121.028 12.3459 118.686 6.56349 113.968 3.53219C109.984 0.977152 105.277 0.416825 100.638 0.937917C99.3746 1.08538 98.1225 1.31561 96.8894 1.62711C83.4419 4.989 72.4708 19.3667 69.0417 24.3087C68.7616 24.6953 68.6271 24.9194 68.2965 24.8689C68.0464 24.7666 67.9051 24.5003 67.9604 24.2358C68.3246 18.0836 71.1597 11.9201 71.1597 11.9201C71.2606 11.668 71.3055 11.5783 71.4175 11.3598L71.4903 11.1973C71.72 10.7042 71.7033 10.7715 71.933 10.2784C71.9778 10.1775 72.0114 10.1215 72.0563 10.0206C69.2547 15.96 61.2253 20.4425 61.2253 20.4425C61.0404 21.5183 60.906 22.6838 60.7939 23.7484C60.3905 27.4688 59.9142 31.8056 59.7405 35.5542Z" fill="#58595D"/>
<path d="M47.907 31.111C48.1893 30.7905 48.4372 30.4412 48.6466 30.0689C49.4232 28.5949 49.9191 26.9894 50.109 25.3342C50.1511 24.9734 50.1717 24.6104 50.1707 24.2472C52.793 23.7073 55.3606 22.9289 57.8414 21.9219C57.8272 25.637 57.0271 29.3072 55.4936 32.6911L47.907 31.111Z" fill="#58595D"/>
<path d="M120.524 1.83408V4.07537H120.02V1.83408H119.308V1.43066H121.258L121.208 1.82851H120.524V1.83408Z" fill="#58595D"/>
<path d="M123.616 4.07537L123.532 2.75862V1.94615L123.045 3.8008H122.563L122.053 1.94615C122.07 2.23166 122.07 2.51792 122.053 2.80343L121.93 4.07537H121.442L121.649 1.45307H122.294L122.77 3.28531L123.269 1.43066H123.919L124.104 4.07537H123.616Z" fill="#58595D"/>
</svg>
