<svg width="18" height="21" viewBox="0 0 18 21" fill="none" xmlns="http://www.w3.org/2000/svg">
<path d="M6.38086 11.9268L7.71851 15.1716L16.0249 1.80811L7.81344 10.6841L6.76489 11.5427L6.38086 11.9268Z" fill="#2E2F35"/>
<path d="M8.8274 12.4443L15.0712 14.6104L16.9957 1.46261C17.0432 1.13035 16.6893 0.888711 16.4002 1.05268L1 9.70425L6.45415 11.6891" stroke="white" stroke-width="1.07875" stroke-linecap="round" stroke-linejoin="round"/>
<path d="M11.1014 13.247L10.3203 13.9805L8.99132 15.2362L8.24482 15.9395C8.14127 16.0388 7.97298 15.9827 7.94277 15.8446L6.4541 11.6893L10.6785 7.1499" stroke="white" stroke-width="1.07875" stroke-linecap="round" stroke-linejoin="round"/>
<path d="M16.7929 1.10034L16.1154 2.0669L8.82737 12.4445L8.11108 15.9914" stroke="white" stroke-width="1.07875" stroke-linecap="round" stroke-linejoin="round"/>
<path d="M3.9039 12.6687L1.59106 15.659" stroke="#2E2F35" stroke-width="1.2945" stroke-linecap="round" stroke-linejoin="round"/>
<path d="M5.69467 16.5393L3.38184 19.5296" stroke="#2E2F35" stroke-width="1.2945" stroke-linecap="round" stroke-linejoin="round"/>
<path d="M11.8739 15.8359L9.56104 18.8262" stroke="#2E2F35" stroke-width="1.2945" stroke-linecap="round" stroke-linejoin="round"/>
</svg>
