<svg width="138" height="81" viewBox="0 0 138 81" fill="none" xmlns="http://www.w3.org/2000/svg">
<path d="M109.003 41.5676C109.003 37.4616 106.287 34.3254 102.278 34.3254C98.2686 34.3254 95.5519 37.4616 95.5519 41.5676C95.5519 45.6737 98.2686 48.8108 102.278 48.8108C106.287 48.8108 109.003 45.6737 109.003 41.5676ZM90.8962 41.5676C90.8962 35.0689 95.94 30.2834 102.278 30.2834C108.615 30.2834 113.659 35.0689 113.659 41.5676C113.659 48.0669 108.615 52.8533 102.278 52.8533C95.94 52.8533 90.8962 48.0669 90.8962 41.5676Z" fill="#58595D"/>
<path d="M57.6873 58.9515C59.3868 60.653 59.3868 63.4074 57.6873 65.1069L43.3271 79.467C41.6286 81.1655 38.8722 81.1655 37.1737 79.467L22.8126 65.1069C21.1146 63.4074 21.1146 60.6529 22.8126 58.9535L37.1737 44.5933C38.8722 42.8934 41.6286 42.8934 43.3271 44.5933L57.6873 58.9515Z" fill="#58595D"/>
<path d="M36.1486 37.4117C37.8476 39.1122 37.8476 41.8682 36.1486 43.5672L21.788 57.9283C20.089 59.6263 17.3335 59.6263 15.6345 57.9283L1.27387 43.5672C-0.424623 41.8682 -0.424623 39.1122 1.27387 37.4117L15.6345 23.0521C17.3335 21.3531 20.089 21.3531 21.788 23.0521L36.1486 37.4117Z" fill="#58595D"/>
<path d="M57.6873 15.8732C59.3868 17.5727 59.3868 20.3277 57.6873 22.0267L43.3271 36.3863C41.6286 38.0858 38.8722 38.0863 37.1737 36.3863L22.8126 22.0267C21.1146 20.3277 21.1146 17.5727 22.8126 15.8732L37.1737 1.51316C38.8722 -0.186351 41.6286 -0.186351 43.3271 1.51316L57.6873 15.8732Z" fill="#58595D"/>
<path d="M61.9126 26.8023L62.4632 26.4982C62.6664 26.8336 62.9263 27.1 63.4525 27.1C63.8888 27.1 64.1999 26.8659 64.1999 26.5111C64.1999 26.1369 63.947 25.9719 63.4769 25.7637L63.1917 25.6365C62.5656 25.3582 62.1849 25.0412 62.1849 24.3768C62.1849 23.7362 62.6788 23.2795 63.3954 23.2795C63.9659 23.2795 64.351 23.4952 64.6114 23.9579L64.0861 24.2804C63.9207 23.9951 63.7313 23.862 63.3954 23.862C63.053 23.862 62.8378 24.0716 62.8378 24.3628C62.8378 24.6863 63.0212 24.832 63.4585 25.0223L63.7368 25.149C64.4722 25.4725 64.8643 25.8139 64.8643 26.5046C64.8643 27.2579 64.2764 27.6948 63.4645 27.6948C62.6465 27.6948 62.1531 27.2898 61.9126 26.8023Z" fill="#58595D"/>
<path d="M70.1006 23.3313H70.7719V25.649H72.8436V23.3313H73.5154V27.6391H72.8436V26.2443H70.7719V27.6391H70.1006V23.3313Z" fill="#58595D"/>
<path d="M82.5543 25.4857C82.5543 24.5674 81.9207 23.8762 81.0213 23.8762C80.1214 23.8762 79.4814 24.5674 79.4814 25.4857C79.4814 26.404 80.1214 27.0948 81.0213 27.0948C81.9207 27.0948 82.5543 26.404 82.5543 25.4857ZM78.7976 25.4857C78.7976 24.1997 79.785 23.2739 81.0213 23.2739C82.2507 23.2739 83.2381 24.1997 83.2381 25.4857C83.2381 26.7718 82.2507 27.6961 81.0213 27.6961C79.785 27.6961 78.7976 26.7718 78.7976 25.4857Z" fill="#58595D"/>
<path d="M87.9712 23.3318H88.6753L89.4351 25.6246C89.5176 25.8651 89.5996 26.2388 89.5996 26.2388C89.5996 26.2388 89.7079 25.8711 89.8088 25.6246L90.7972 23.2866H90.8797L91.8736 25.6246C91.9754 25.8651 92.0773 26.2388 92.0773 26.2388C92.0773 26.2388 92.1652 25.8651 92.2477 25.6246L93.008 23.3318H93.6605L92.1727 27.6839H92.0897L91.0193 25.1182C90.9309 24.9085 90.8414 24.5915 90.8414 24.5915C90.8414 24.5915 90.7395 24.9085 90.6516 25.1182L89.5554 27.6839H89.4734L87.9712 23.3318Z" fill="#58595D"/>
<path d="M99.7935 26.0236C100.642 26.0236 100.984 25.6241 100.984 24.9712C100.984 24.3187 100.636 23.9207 99.7935 23.9207H99.4074V26.0236H99.7935ZM98.7351 23.3313H99.8189C101.01 23.3313 101.669 23.9709 101.669 24.9712C101.669 25.9665 101.003 26.612 99.8189 26.612H99.4074V27.6391H98.7351V23.3313Z" fill="#58595D"/>
<path d="M106.877 23.3313H107.549V27.0498H109.538V27.6391H106.877V23.3313Z" fill="#58595D"/>
<path d="M117.103 26.467L116.565 25.1233C116.458 24.8698 116.35 24.4832 116.35 24.4832C116.35 24.4832 116.248 24.8698 116.14 25.1233L115.602 26.467H117.103ZM116.324 23.2856H116.4L118.288 27.6387H117.591L117.344 27.0305H115.374L115.127 27.6387H114.48L116.324 23.2856Z" fill="#58595D"/>
<path d="M122.938 25.4849C122.938 24.1989 123.927 23.2795 125.149 23.2795C125.922 23.2795 126.492 23.5648 126.872 24.1353L126.359 24.5025C126.119 24.1288 125.713 23.8813 125.149 23.8813C124.255 23.8813 123.623 24.5666 123.623 25.4849C123.623 26.4032 124.255 27.0939 125.149 27.0939C125.744 27.0939 126.144 26.8276 126.422 26.4157L126.936 26.7774C126.562 27.3469 125.954 27.6953 125.149 27.6953C123.927 27.6953 122.938 26.771 122.938 25.4849Z" fill="#58595D"/>
<path d="M132.088 23.3313H134.826V23.9207H132.76V25.5918H134.591V26.1688H132.76V27.0498H134.913V27.6391H132.088V23.3313Z" fill="#58595D"/>
<path d="M66.6115 30.5747H62.0835V52.5622H66.6115V30.5747Z" fill="#58595D"/>
<path d="M69.5913 41.5676C69.5913 35.0688 74.6038 30.3162 80.9083 30.3162C84.8857 30.3162 87.7311 31.7379 89.7029 34.8099L86.2438 37.2677C85.2087 35.5861 83.4302 34.3895 80.9083 34.3895C76.9309 34.3895 74.248 37.4615 74.248 41.5676C74.248 45.6737 76.9309 48.8107 80.9083 48.8107C83.7537 48.8107 85.3378 47.4521 86.5667 45.5772L90.0915 48.0027C88.1837 50.9768 85.1441 52.8533 80.9083 52.8533C74.6038 52.8533 69.5913 48.0669 69.5913 41.5676Z" fill="#58595D"/>
<path d="M123.165 42.3441C122.067 41.31 120.546 39.3372 120.546 39.3372C120.546 39.3372 120.869 41.7626 120.869 43.3473V52.5619H116.633V30.3811H117.086L128.177 40.7927C129.244 41.7945 130.764 43.7995 130.764 43.7995C130.764 43.7995 130.473 41.3099 130.473 39.7904V30.5744H134.708V52.7556H134.255L123.165 42.3441Z" fill="#58595D"/>
<path d="M62.97 55.4128H61.7908V54.8826H64.7614V55.4128H63.5826V58.7596H62.97V55.4128Z" fill="#58595D"/>
<path d="M73.573 54.8833H74.1917V56.9699H76.1004V54.8833H76.72V58.7603H76.1004V57.5056H74.1917V58.7603H73.573V54.8833Z" fill="#58595D"/>
<path d="M85.9238 54.8833H88.4462V55.4135H86.543V56.9187H88.2301V57.4375H86.543V58.2301H88.5277V58.7603H85.9238V54.8833Z" fill="#58595D"/>
<path d="M99.679 57.7055L99.1826 56.496C99.0832 56.2685 98.9843 55.9206 98.9843 55.9206C98.9843 55.9206 98.8909 56.2685 98.7915 56.496L98.2956 57.7055H99.679ZM98.961 54.8423H99.031L100.77 58.76H100.128L99.9007 58.2129H98.0849L97.8578 58.76H97.262L98.961 54.8423Z" fill="#58595D"/>
<path d="M110.022 55.4128H108.843V54.8826H111.814V55.4128H110.635V58.7596H110.022V55.4128Z" fill="#58595D"/>
<path d="M121.595 57.2432C122.382 57.2432 122.698 56.9072 122.698 56.3313C122.698 55.7504 122.371 55.4135 121.595 55.4135H121.244V57.2432H121.595ZM123.375 58.7603H122.663L121.951 57.7401C121.84 57.7515 121.729 57.763 121.618 57.763H121.244V58.7603H120.625V54.8833H121.618C122.715 54.8833 123.329 55.4413 123.329 56.3313C123.329 56.9301 123.053 57.3411 122.534 57.5627L123.375 58.7603Z" fill="#58595D"/>
<path d="M132.372 54.8833H134.895V55.4135H132.992V56.9187H134.679V57.4375H132.992V58.2301H134.976V58.7603H132.372V54.8833Z" fill="#58595D"/>
<path d="M136.156 23.172C136.108 23.0901 136.046 23.0478 135.946 23.0478C135.841 23.0478 135.726 23.1199 135.726 23.2347C135.726 23.337 135.827 23.3912 135.909 23.423L136.003 23.4593C136.19 23.5323 136.329 23.6352 136.329 23.8553C136.329 24.0939 136.144 24.2648 135.909 24.2648C135.696 24.2648 135.531 24.1078 135.503 23.8971L135.668 23.8618C135.667 24.0069 135.782 24.1117 135.923 24.1117C136.064 24.1117 136.165 23.9925 136.165 23.8553C136.165 23.7142 136.052 23.6531 135.939 23.6059L135.848 23.5671C135.699 23.503 135.563 23.418 135.563 23.2347C135.563 23.022 135.751 22.8948 135.949 22.8948C136.096 22.8948 136.216 22.9663 136.288 23.093L136.156 23.172Z" fill="#58595D"/>
<path d="M136.731 23.3686H136.727L136.573 24.2372H136.405L136.673 22.8667L137.125 23.9023L137.576 22.8667L137.845 24.2372H137.676L137.522 23.3686H137.519L137.125 24.265L136.731 23.3686Z" fill="#58595D"/>
</svg>
