<svg width="121" height="58" viewBox="0 0 121 58" fill="none" xmlns="http://www.w3.org/2000/svg">
<path d="M79.723 48.7736C79.6139 48.2914 79.4386 47.8437 79.2113 47.4498C79.0433 47.1657 78.8386 46.9 78.611 46.6606C77.6897 45.7078 76.2966 45.1875 74.52 45.1875C71.0136 45.1875 68.8306 47.5524 68.8306 51.3661C68.8306 52.551 69.1085 53.8034 69.747 54.886C70.6474 56.4167 72.2781 57.5807 74.9292 57.5807C76.3624 57.5807 77.3737 57.4144 78.632 57.1193C78.7793 57.0825 78.8887 56.9665 78.9182 56.8193L79.2338 55.157C79.2616 55.0267 79.2113 54.886 79.1004 54.7994C79.0793 54.7769 79.0499 54.7648 79.0274 54.7492C78.9321 54.7055 78.8226 54.6972 78.7204 54.7492C77.8286 55.1202 76.9264 55.4293 74.9292 55.4293C73.2011 55.4293 72.3232 54.5791 71.8915 53.5692C71.6067 52.896 71.5093 52.1571 71.4958 51.5428H79.4975C79.7005 51.5428 79.8775 51.373 79.8775 51.1697V50.1289C79.8775 49.6463 79.8187 49.1991 79.723 48.7736ZM77.1915 49.6221H71.6275C71.9778 48.0121 73.0919 47.1047 74.7452 47.1047C75.5888 47.1047 76.1508 47.384 76.5167 47.7862C76.9941 48.3052 77.1538 49.0234 77.1915 49.6221Z" fill="#58595D"/>
<path d="M53.6106 45.5768C53.5385 45.4881 53.4363 45.4292 53.319 45.4292H51.4071C51.1953 45.4292 51.0349 45.5993 51.0349 45.802V56.9584C51.0349 57.0766 51.0938 57.1857 51.1816 57.2518C51.2474 57.2969 51.3194 57.3333 51.4071 57.3333H53.319C53.5246 57.3333 53.6921 57.1632 53.6921 56.9584V45.802C53.6921 45.7154 53.6547 45.6405 53.6106 45.5768Z" fill="#58595D"/>
<path d="M66.8895 46.5563C66.1956 45.7511 64.9951 45.1875 62.9878 45.1875C61.2257 45.1875 59.87 45.7079 58.993 46.7109V45.8014C58.993 45.6625 58.9114 45.5378 58.7883 45.4809C58.7363 45.4511 58.685 45.4286 58.6192 45.4286H56.7011C56.4965 45.4286 56.3281 45.5987 56.3281 45.8014V56.9579C56.3281 57.0985 56.4078 57.2163 56.5242 57.2755C56.577 57.3085 56.6361 57.3327 56.7011 57.3327H58.6192C58.8238 57.3327 58.993 57.1626 58.993 56.9579V51.9575C58.993 48.8779 60.1043 47.4415 62.4913 47.4415C63.7718 47.4415 64.5855 47.8662 64.9275 48.6939C65.0453 48.9874 65.1112 49.329 65.1112 49.7264V56.9579C65.1112 57.0899 65.1857 57.2076 65.2951 57.2755C65.3523 57.3032 65.4115 57.3327 65.4929 57.3327H67.4032C67.6063 57.3327 67.7744 57.1626 67.7744 56.9579V49.2576C67.7744 48.3347 67.5644 47.3407 66.8895 46.5563Z" fill="#58595D"/>
<path d="M97.8179 46.3221C97.1399 45.5987 96.0778 45.1875 94.7145 45.1875C93.0151 45.1875 91.7207 45.8014 90.9298 46.9818C90.2722 45.8312 89.0354 45.1875 87.4147 45.1875C86.1273 45.1875 84.9871 45.6559 84.1962 46.4676C84.1823 46.4836 84.1577 46.5061 84.1459 46.5199V45.8014C84.1459 45.781 84.1286 45.7584 84.1286 45.7376C84.1164 45.6559 84.0715 45.5832 84.0122 45.5329C83.9481 45.4737 83.865 45.4286 83.7711 45.4286H81.8538C81.6477 45.4286 81.479 45.5987 81.479 45.8014V56.9579C81.479 57.1349 81.6044 57.2755 81.7637 57.3084C81.7932 57.3171 81.8226 57.3327 81.8538 57.3327H83.7711C83.9758 57.3327 84.1459 57.1626 84.1459 56.9579V50.7657C84.1459 48.7736 85.2213 47.4415 86.8299 47.4415C87.8553 47.4415 88.4714 47.8524 88.6602 48.635C88.7052 48.7961 88.7264 48.9783 88.7264 49.1831V56.9579C88.7264 57.1626 88.9034 57.3327 89.1012 57.3327H91.0185C91.2233 57.3327 91.4 57.1626 91.4 56.9579V50.7657C91.4 48.7736 92.4756 47.4415 94.0859 47.4415C94.9049 47.4415 95.4634 47.7135 95.7548 48.2169C95.9024 48.4809 95.9806 48.7961 95.9806 49.1831V56.9579C95.9806 57.1124 96.0778 57.2371 96.2007 57.2963C96.2531 57.3171 96.305 57.3327 96.3625 57.3327H98.2711C98.4772 57.3327 98.6473 57.1626 98.6473 56.9579V48.5987C98.6473 47.6684 98.3528 46.9 97.8179 46.3221Z" fill="#58595D"/>
<path d="M109.43 46.1174C108.646 45.4945 107.411 45.1875 105.696 45.1875C104.372 45.1875 102.988 45.3784 101.471 45.781C101.334 45.826 101.225 45.9424 101.203 46.0949L101.129 46.5931L100.975 47.6255C100.961 47.7571 101.012 47.8957 101.122 47.9775C101.232 48.0571 101.385 48.071 101.503 48.0121C102.82 47.3996 104.123 47.1047 105.492 47.1047C106.135 47.1047 107.109 47.2 107.549 47.7C107.688 47.8662 107.775 48.0644 107.775 48.3277C107.775 49.3238 106.574 49.69 104.591 50.1792C102.424 50.7134 99.738 51.3731 99.738 54.0241C99.738 54.6972 99.868 55.2748 100.125 55.7657C100.748 56.944 102.082 57.5807 104.049 57.5807C105.25 57.5807 106.028 57.463 106.633 57.3466H106.656C106.685 57.3376 106.69 57.3375 106.706 57.3327C106.832 57.2873 106.927 57.192 106.963 57.0638L107.278 55.7137C107.299 55.6115 107.278 55.5007 107.219 55.4207C107.206 55.3929 107.189 55.3704 107.161 55.3479C107.067 55.2609 106.927 55.2245 106.787 55.2747C106.019 55.5231 105.28 55.6552 104.591 55.6552C104.138 55.6552 102.754 55.5769 102.453 54.595C102.424 54.4856 102.401 54.3536 102.401 54.2063C102.401 52.8528 104.116 52.3618 105.769 51.8931C106.51 51.68 107.226 51.4839 107.775 51.1974V56.9579C107.775 57.0413 107.804 57.1123 107.857 57.1712C107.922 57.2648 108.032 57.3327 108.149 57.3327H110.067C110.272 57.3327 110.441 57.1626 110.441 56.9579V48.4459C110.441 47.4273 110.104 46.6606 109.43 46.1174Z" fill="#58595D"/>
<path d="M119.695 52.8597C119.131 51.8571 118.099 51.0813 117.154 50.3697C116.261 49.6965 115.418 49.0618 115.295 48.4511C115.286 48.4008 115.279 48.3572 115.279 48.3052C115.279 47.4567 116.429 47.332 117.118 47.332C117.835 47.332 118.612 47.4935 119.431 47.8247C119.474 47.8368 119.526 47.8437 119.577 47.8437C119.781 47.8368 119.95 47.684 119.95 47.4727C119.95 47.4273 119.942 47.384 119.929 47.3455L119.688 45.7945C119.672 45.6625 119.577 45.5537 119.454 45.51C119.438 45.5035 119.417 45.4875 119.386 45.4875C118.648 45.3489 117.673 45.1875 116.685 45.1875C114.099 45.1875 112.616 46.2996 112.616 48.2411C112.616 48.7147 112.739 49.1488 112.939 49.551C113.457 50.5887 114.533 51.4021 115.515 52.1501C116.166 52.641 116.789 53.1077 117.147 53.5692C117.344 53.8259 117.461 54.0743 117.461 54.3241C117.461 55.3479 116.07 55.4293 115.647 55.4293C114.751 55.4293 113.81 55.2162 112.616 54.7405C112.49 54.6903 112.352 54.7111 112.241 54.7994C112.139 54.8812 112.088 55.0115 112.102 55.1428L112.352 56.805V56.8193C112.382 56.9578 112.482 57.076 112.631 57.1123C113.81 57.4193 114.93 57.5807 115.968 57.5807C118.041 57.5807 120.127 56.6076 120.127 54.4336C120.127 53.847 119.965 53.3284 119.695 52.8597Z" fill="#58595D"/>
<path d="M48.3779 54.7268H48.3708C48.2894 54.6606 48.1809 54.6402 48.0776 54.6519C48.0629 54.6519 48.0404 54.6606 48.0196 54.6606C46.6948 55.1068 45.391 55.3251 44.0436 55.3251C41.056 55.3251 39.6367 53.8973 38.9783 52.3619C38.5229 51.3 38.4282 50.1793 38.4282 49.4541C38.4282 49.2286 38.4369 49.0027 38.4508 48.7896C38.4577 48.694 38.4734 48.6056 38.4803 48.526C38.4943 48.4009 38.503 48.2706 38.5229 48.1525C38.5385 48.042 38.5681 47.9394 38.581 47.83C38.6053 47.7434 38.6192 47.646 38.6417 47.5594C38.6703 47.4343 38.7061 47.3249 38.7433 47.2088C38.7589 47.136 38.7787 47.0616 38.8023 47.0027C38.8456 46.8724 38.8968 46.7543 38.9489 46.6309C38.9714 46.5859 38.9837 46.5253 39.0147 46.4837C39.0736 46.3517 39.1397 46.2287 39.2038 46.1036C39.2265 46.0724 39.2333 46.036 39.2558 46.0062C39.3357 45.8676 39.4242 45.7512 39.5126 45.6265C39.5268 45.6058 39.5422 45.5832 39.5484 45.5673C39.6445 45.4374 39.7469 45.3123 39.8571 45.2032C39.8649 45.1876 39.8787 45.1806 39.8849 45.1668C39.9967 45.0469 40.1192 44.9326 40.2449 44.8214L40.2509 44.8127C41.1731 44.0304 42.4103 43.5981 43.912 43.569H44.0436C45.4197 43.569 46.5535 43.798 47.918 44.1638C47.9537 44.169 47.9813 44.1777 48.0196 44.1846C48.1365 44.2209 48.2684 44.1915 48.3631 44.1118C48.4586 44.0304 48.5088 43.9071 48.4949 43.789L48.3119 42.0557C48.2894 41.8859 48.1653 41.7556 48.0049 41.7262C47.9814 41.7192 47.9614 41.7193 47.938 41.7106C46.4519 41.4328 45.2444 41.3149 44.0436 41.3149C38.9106 41.3149 35.6028 44.5072 35.6028 49.4541C35.6028 51.0087 35.9115 52.3688 36.4668 53.5107C36.4963 53.5693 36.5176 53.6267 36.5471 53.6874C37.8288 56.1371 40.3767 57.5289 43.8756 57.5739H44.2189C45.7424 57.5601 47.0462 57.3241 48.0196 57.1193C48.1731 57.0826 48.2894 56.9579 48.3119 56.7982L48.5088 55.0618C48.5235 54.9402 48.4723 54.8134 48.3779 54.7268Z" fill="#58595D"/>
<path d="M103.052 17.258C103.176 17.1392 103.2 16.957 103.119 16.8096C103.074 16.7366 103.016 16.6855 102.951 16.65C102.877 16.6119 102.791 16.6048 102.702 16.6284L100.322 17.2208L100.124 17.2641L98.953 14.9375C98.8733 14.8404 98.7932 14.7761 98.7187 14.7154C98.6595 14.6945 98.5933 14.6791 98.5209 14.6945C98.5139 14.6945 98.514 14.7025 98.5067 14.7025C98.3529 14.7466 98.2274 14.8776 98.2226 15.0382L98.0314 17.6831L95.4101 18.0909C95.3096 18.1074 95.2279 18.1654 95.169 18.2444C95.1323 18.2896 95.1028 18.3468 95.0941 18.4136C95.0733 18.5827 95.169 18.7433 95.3284 18.81L97.7816 19.8041L97.7743 19.879L97.3579 22.4181C97.3496 22.4917 97.3578 22.5568 97.3876 22.615C97.4157 22.7016 97.4812 22.7763 97.5699 22.8207C97.6204 22.8423 97.6724 22.8579 97.7244 22.8579C97.8335 22.8579 97.9434 22.8058 98.0158 22.7251L99.723 20.6909L102.086 21.9123C102.218 21.9783 102.388 21.9575 102.505 21.8551C102.512 21.848 102.518 21.8413 102.534 21.8315C102.65 21.7075 102.665 21.5244 102.568 21.3787L101.172 19.1241L103.052 17.258Z" fill="#58595D"/>
<path d="M91.9025 22.866L88.3302 21.5258L88.3372 21.5032L88.8419 17.7486C88.8645 17.5821 88.7765 17.4207 88.6219 17.346C88.5991 17.346 88.587 17.346 88.5717 17.3391C88.4238 17.3017 88.2783 17.346 88.183 17.465L85.8043 20.4431L82.3637 18.7826C82.2317 18.7228 82.0789 18.7451 81.9695 18.839C81.9542 18.8468 81.9317 18.8616 81.9248 18.8763C81.8153 19.0014 81.7997 19.1834 81.895 19.33L83.9525 22.4487L83.9979 22.5146L81.3538 25.2673C81.288 25.348 81.2512 25.4504 81.2585 25.5545C81.2585 25.6038 81.2738 25.6628 81.3036 25.7218C81.3902 25.8677 81.5654 25.9326 81.7269 25.8876L85.0563 24.974L85.4014 24.8718L87.2025 28.2313C87.2095 28.24 87.2182 28.2462 87.2251 28.2608C87.2999 28.3644 87.416 28.4292 87.5411 28.4292C87.5618 28.4292 87.5895 28.4291 87.6276 28.4222C87.7801 28.3858 87.9051 28.24 87.9138 28.072L88.0805 24.2636L91.8367 23.5835C91.9601 23.5608 92.0501 23.4898 92.1007 23.3874C92.1232 23.3422 92.1437 23.305 92.1437 23.2554C92.1579 23.0864 92.0574 22.9251 91.9025 22.866Z" fill="#58595D"/>
<path d="M96.144 14.2302L93.6848 12.3772L93.6415 12.3495L94.929 9.48846C94.9952 9.33414 94.9501 9.15192 94.8199 9.0478C94.7977 9.02683 94.7596 9.00257 94.7298 8.99562C94.6141 8.94538 94.4765 8.95235 94.3653 9.02681L91.8026 10.827L89.4762 8.72681C89.3508 8.60711 89.1686 8.59307 89.023 8.68957C88.9486 8.73267 88.8984 8.80496 88.8759 8.89518C88.8464 8.96102 88.8464 9.03986 88.8686 9.11468L89.7832 12.1084L89.6892 12.1663L87.0676 13.6681C86.9949 13.7116 86.943 13.7774 86.9063 13.8503C86.8768 13.924 86.8685 14.0046 86.891 14.0843C86.927 14.2529 87.0816 14.3622 87.243 14.3707L87.7841 14.3787L90.3749 14.4211L91.0203 17.4886C91.0564 17.6431 91.1814 17.7513 91.3273 17.7731C91.3429 17.7801 91.3567 17.7801 91.3637 17.7801H91.3862C91.4953 17.7801 91.584 17.7437 91.6498 17.6724C91.6641 17.6509 91.664 17.6431 91.664 17.6431L91.8463 17.2319L92.7692 14.5676L95.88 14.9044C96.0484 14.9191 96.2029 14.8236 96.2684 14.6691V14.6553C96.3207 14.5027 96.2757 14.3334 96.144 14.2302Z" fill="#58595D"/>
<path d="M110.22 13.0805C110.183 13.0138 110.131 12.9686 110.073 12.94C109.993 12.8957 109.897 12.8663 109.804 12.8957L107.796 13.3939L107.78 13.3634L106.866 11.5487C106.794 11.4029 106.625 11.3213 106.465 11.3507C106.42 11.3576 106.384 11.3732 106.354 11.3957C106.244 11.4548 106.17 11.5641 106.156 11.6892L106.009 13.7539L103.975 14.0608C103.835 14.0816 103.726 14.177 103.682 14.3019C103.674 14.3324 103.662 14.3602 103.662 14.3889C103.637 14.5569 103.734 14.7184 103.887 14.7774L105.711 15.5242L105.797 15.5599L105.467 17.5969C105.461 17.6177 105.467 17.6332 105.467 17.654C105.467 17.6696 105.461 17.6993 105.467 17.7209C105.49 17.7704 105.535 17.8432 105.6 17.9335C105.624 17.9551 105.652 17.9752 105.681 17.9923C105.731 18.0202 105.783 18.0278 105.834 18.0278C105.945 18.0278 106.046 17.9836 106.125 17.8962L107.453 16.3146L109.281 17.2586C109.392 17.3114 109.509 17.3114 109.604 17.267C109.656 17.2445 109.699 17.222 109.729 17.1787C109.845 17.0538 109.868 16.8707 109.772 16.7311L108.754 15.0915L108.683 14.9822L110.154 13.5255C110.27 13.4076 110.292 13.2247 110.22 13.0805Z" fill="#58595D"/>
<path d="M112.419 6.44983C112.399 6.39768 112.353 6.36803 112.319 6.3405C112.244 6.30396 112.171 6.28925 112.09 6.30397L110.493 6.69789L110.48 6.68399L109.749 5.22837C109.688 5.1085 109.55 5.04446 109.417 5.06695C109.388 5.07302 109.359 5.08881 109.338 5.10335C109.252 5.1477 109.183 5.23516 109.183 5.33666L109.06 6.98418L107.434 7.24003C107.323 7.25476 107.237 7.33619 107.2 7.43009C107.192 7.45244 107.185 7.47426 107.178 7.49678C107.164 7.6279 107.237 7.76041 107.362 7.80997L108.826 8.40515L108.892 8.42595L108.628 10.0586V10.1601C108.649 10.1974 108.685 10.2634 108.729 10.3372C108.751 10.351 108.774 10.3657 108.804 10.3811C108.84 10.4021 108.884 10.4108 108.927 10.4108C109.008 10.4108 109.097 10.3658 109.154 10.2997L110.216 9.04178L111.687 9.79672C111.769 9.83309 111.862 9.83309 111.937 9.79672C111.973 9.78009 112.01 9.76032 112.038 9.72899C112.126 9.63526 112.142 9.47903 112.074 9.37076L111.255 8.05978L111.203 7.97125L112.376 6.80891C112.471 6.71348 112.492 6.56694 112.419 6.44983Z" fill="#58595D"/>
<path d="M120.034 7.72507C120.011 7.67483 119.975 7.64524 119.922 7.61597C119.865 7.58028 119.785 7.56471 119.711 7.58809L118.137 7.97421L118.123 7.95251L117.405 6.5262C117.346 6.40998 117.214 6.3431 117.091 6.37272C117.054 6.38053 117.032 6.38833 117.002 6.40132C116.916 6.44375 116.857 6.53243 116.848 6.63482L116.732 8.25346L115.135 8.50236C115.019 8.51556 114.938 8.59797 114.901 8.69323C114.894 8.71419 114.887 8.73587 114.887 8.75751C114.872 8.89108 114.946 9.01423 115.069 9.06621L116.504 9.65274L116.57 9.67353L116.308 11.2768V11.3722C116.329 11.4077 116.366 11.4746 116.409 11.5473C116.431 11.5631 116.454 11.5769 116.475 11.5847C116.52 11.6065 116.555 11.6133 116.6 11.6133C116.682 11.6133 116.768 11.5769 116.818 11.5109L117.866 10.274L119.308 11.0131C119.388 11.0564 119.484 11.0486 119.558 11.02C119.595 10.9975 119.631 10.9837 119.66 10.948C119.749 10.8517 119.763 10.7058 119.688 10.5958L118.89 9.3084L118.833 9.22006L119.99 8.07829C120.084 7.98183 120.099 7.84391 120.034 7.72507Z" fill="#58595D"/>
<path d="M41.3957 9.20001C41.3471 9.37824 41.1371 9.42656 41.1371 9.42656L35.8054 10.6739L30.5727 15.9717L20.1209 26.6013L15.4876 31.3166L12.1814 34.6546L8.81115 38.09L6.42892 40.5211C6.28237 40.7636 6.33174 40.6977 6.33174 40.6977C6.57461 40.8103 9.41049 39.013 9.41049 39.013L15.4545 35.4321L19.7964 32.8728L24.8851 29.8746L28.109 27.9629C28.4976 27.7526 30.9127 26.699 30.9127 26.699C31.6899 26.2131 33.6176 25.5644 33.6176 25.5644C35.4655 25.1591 35.7413 25.354 35.7413 25.354C36.9401 25.4837 36.8915 26.4883 36.8915 26.4883C36.94 27.5737 35.9184 28.7407 35.9184 28.7407C35.6111 29.2753 34.0086 30.3486 34.0086 30.3486C33.3173 30.7785 33.242 30.5921 33.242 30.5921C32.6617 30.4802 32.9236 29.7869 32.9236 29.7869C32.9236 29.7308 33.392 28.9458 33.392 28.9458C33.9714 28.3471 33.9151 28.0672 33.9151 28.0672C34.0463 27.6746 33.0364 27.9546 33.0364 27.9546C32.4569 27.9917 30.8102 28.8339 30.8102 28.8339C30.6055 29.0019 28.174 30.6666 28.174 30.6666C27.2952 31.2099 24.9009 33.6018 24.9009 33.6018C24.5643 33.8082 23.9102 35.2096 23.9102 35.2096C23.5363 36.7437 24.5279 37.0247 24.5279 37.0247C25.1819 37.4169 26.6028 37.2121 26.6028 37.2121C26.8467 37.3056 29.464 36.4815 29.464 36.4815C29.5949 36.5005 32.0265 35.51 32.0265 35.51L34.6073 34.2939L36.5523 33.2473C37.3566 33.0239 37.2438 33.8269 37.2438 33.8269C37.2627 34.3127 36.2339 36.0148 36.2339 36.0148C36.2159 36.1069 34.8129 38.3346 34.8129 38.3346L36.7762 37.0437L46.9685 30.1428L49.5676 28.3662C50.0916 28.1233 50.1471 28.5903 50.1471 28.5903L50.9704 31.6021L51.8119 34.7433L52.5224 37.3424L53.4022 35.7338L55.1404 32.8343L56.6179 30.5921L58.7313 27.6937L60.92 24.9453L63.5182 22.0466L67.016 18.5491L70.4583 15.5572C71.3189 14.772 74.4037 12.6769 74.4037 12.6769C75.0942 12.1907 75.0768 12.9385 75.0768 12.9385L75.002 17.1264C75.0769 17.5004 74.702 17.5942 74.702 17.5942L71.7471 18.2112L74.6081 19.2583C74.9833 19.4076 74.8339 19.7446 74.8339 19.7446L74.5163 22.6248L76.2929 20.306C76.5742 19.8755 76.9282 20.1563 76.9282 20.1563L80.7798 21.9142C81.3785 22.326 80.7434 22.6433 80.7434 22.6433C79.5828 22.793 73.6557 25.2807 73.6557 25.2807C73.3383 25.2994 67.4272 28.441 67.4272 28.441C67.2782 28.5155 62.7719 31.3963 62.7719 31.3963C61.4258 32.1997 56.9928 35.9957 56.9928 35.9957C55.6273 37.0247 52.2239 40.9895 52.2239 40.9895C51.7756 41.5878 51.4953 40.9895 51.4953 40.9895L48.2595 33.7144L33.2428 42.2072C33.0745 42.6739 29.2783 47.8547 29.2783 47.8547C27.6319 50.2858 24.808 53.0927 24.808 53.0927C21.7598 56.0667 20.2449 56.384 20.2449 56.384C18.8421 57.0003 18.693 55.8602 18.693 55.8602C18.5429 55.4662 18.6366 54.6074 18.6366 54.6074C18.6183 54.1584 19.2725 52.6801 19.2725 52.6801C19.4971 52.0257 20.9554 49.9698 20.9554 49.9698C21.7413 48.6426 24.9762 45.8543 24.9762 45.8543C25.4995 45.1237 31.5408 40.6354 31.5408 40.6354L33.1855 37.3108C27.3699 40.7895 24.3024 41.0674 24.3024 41.0674C22.6383 41.5722 20.7681 41.2739 20.7681 41.2739C18.8976 41.0865 18.2053 39.7211 18.2053 39.7211C17.6449 38.6 18.2627 36.8408 18.2627 36.8408C18.2436 36.7299 19.4962 34.9151 19.4962 34.9151L14.279 38.3C6.08891 43.6682 3.45066 44.5461 3.45066 44.5461C2.19805 45.1063 1.22545 44.7335 1.22545 44.7335C-0.701149 44.0237 0.664298 42.0787 0.664298 42.0787C0.79439 41.6297 3.45756 38.8432 3.45756 38.8432L28.03 12.8613C22.0016 14.219 5.35228 19.6488 5.35228 19.6488C5.85101 19.9485 6.59038 20.5669 6.59038 20.5669C7.16897 21.0862 6.45057 21.2653 6.45057 21.2653C1.65843 21.9438 0.482133 21.7847 0.482133 21.7847C-0.636016 21.0659 0.541027 20.1873 0.541027 20.1873C0.620884 20.0877 1.63922 19.5086 1.63922 19.5086C1.73919 19.3685 45.5962 0.524856 45.5962 0.524856L45.9164 0.444976C46.3751 0.305375 46.3153 0.844094 46.3153 0.844094L46.2157 1.00362L41.3957 9.20001ZM30.4312 43.7808C29.955 44.0327 29.4617 44.3275 28.9595 44.6587C26.2659 46.4339 23.4439 49.1664 23.2613 50.3409C23.1754 50.5165 23.0995 50.6846 23.037 50.8512C23.0285 50.9087 23.0265 50.9745 23.0326 51.04C23.0399 51.1235 23.0617 51.2035 23.0929 51.2465C23.1012 51.2538 23.1324 51.278 23.2221 51.2815C23.36 51.2832 23.6845 51.2347 24.3086 50.8703C24.5314 50.688 26.8735 48.7642 30.4312 43.7808Z" fill="#58595D"/>
</svg>
