<svg width="63" height="76" viewBox="0 0 63 76" fill="none" xmlns="http://www.w3.org/2000/svg">
<path d="M11.9114 38.5905V17.5657C11.9114 17.5657 11.7386 -0.159202 33.4233 0.265065C33.4233 0.265065 19.3126 2.60639 18.4641 18.2257V38.5905H11.9114Z" fill="#58595D"/>
<path d="M22.1099 38.5905H28.7568V18.0371C28.7568 18.0371 28.7568 16.2222 30.2181 15.1851L32.858 18.3906L35.5451 15.1851C35.5451 15.1851 37.0064 16.4657 37.0222 18.0371C37.0379 19.6084 37.0222 38.5905 37.0222 38.5905H43.6533V18.0371C43.6533 18.0371 43.7632 5.15191 29.0553 8.16893C29.0553 8.16893 31.1609 5.63903 34.8851 5.63903C38.6092 5.63903 44.0461 6.94328 46.7488 14.5172C46.7488 14.5172 47.1416 15.9393 47.1416 18.0371V38.5905H53.8828V18.0371C53.8828 18.0371 54.1612 7.28213 44.2496 2.39438C43.1156 1.83519 38.5149 -0.0178471 34.1393 0.753899C31.1251 1.28553 27.5814 3.19665 24.6555 7.82322C24.6555 7.82322 22.1099 11.9716 22.1099 18.7285V38.5905Z" fill="#58595D"/>
<path d="M16.0753 45.0649L12.2412 52.356L8.53274 45.0649H0.990234L12.2412 67.0011L23.4921 45.0649H16.0753Z" fill="#58595D"/>
<path d="M62.6503 45.0649H55.0371L52.7161 49.019L50.3937 45.0649H42.7883L48.9068 55.5088L42.7883 65.9326H50.4172L52.7161 62.0111L55.0134 65.9326H62.6503L56.5279 55.5088L62.6503 45.0649Z" fill="#58595D"/>
<path d="M33.203 43.7759C26.833 43.7759 21.6692 48.9749 21.6692 55.3882C21.6692 61.8015 26.833 67.0006 33.203 67.0006C39.5729 67.0006 44.7368 61.8015 44.7368 55.3882C44.7368 48.9749 39.5729 43.7759 33.203 43.7759ZM33.203 59.7409C30.8153 59.7409 28.8798 57.7921 28.8798 55.3882C28.8798 52.9843 30.8153 51.0356 33.203 51.0356C35.5906 51.0356 37.5262 52.9843 37.5262 55.3882C37.5262 57.7921 35.5906 59.7409 33.203 59.7409Z" fill="#58595D"/>
<path d="M61.8724 72.1239L61.8646 73.7189C61.7939 74.0096 61.3381 74.0095 61.3381 74.0095V72.5089H60.584V73.436C60.584 74.0488 59.81 73.9997 59.81 73.9997V72.5148H59.0675V73.5931C59.0675 73.9879 58.8082 73.9939 58.8082 73.9939H54.2277V72.6975H53.4617V73.9939H48.6966V72.6975H47.9305V73.9939H43.2075C43.2101 73.9607 43.2126 73.9275 43.2126 73.8937C43.2126 73.2135 42.6612 72.6621 41.981 72.6621C41.3008 72.6621 40.7494 73.2135 40.7494 73.8937C40.7494 73.9275 40.7518 73.9607 40.7545 73.9939H35.8821V71.0161H35.0964V74.5831H40.5413C40.7946 74.5831 40.8565 74.3945 40.8565 74.3945C41.0485 74.8248 41.4793 75.1252 41.981 75.1252C42.4644 75.1252 42.8815 74.8461 43.0832 74.4408C43.1176 74.5382 43.2518 74.5831 43.2518 74.5831H59.7903C60.3089 74.5831 60.5918 74.2138 60.5918 74.2138V74.5831H61.4953C62.0532 74.5831 62.3637 74.2688 62.5273 74.0001C62.6493 73.7996 62.6896 73.3182 62.6896 73.3182V72.1239H61.8724ZM41.981 74.3081C41.7282 74.3081 41.5234 74.1032 41.5234 73.8504C41.5234 73.5977 41.7282 73.3928 41.981 73.3928C42.2337 73.3928 42.4386 73.5977 42.4386 73.8504C42.4386 74.1032 42.2337 74.3081 41.981 74.3081Z" fill="#58595D"/>
<path d="M48.6975 71.354H47.9304V71.9518H48.6975V71.354Z" fill="#58595D"/>
<path d="M53.5688 75.314H52.8018V75.9118H53.5688V75.314Z" fill="#58595D"/>
<path d="M54.8181 75.314H54.051V75.9118H54.8181V75.314Z" fill="#58595D"/>
<path d="M6.92576 71.708C6.46715 71.708 6.10381 71.8352 5.83579 72.0897C5.56777 72.344 5.43384 72.6897 5.43384 73.1265C5.43384 73.5622 5.56777 73.907 5.83579 74.1615C6.10381 74.4158 6.46715 74.5431 6.92576 74.5431C7.07943 74.5431 7.22694 74.526 7.36836 74.4919C7.50969 74.4578 7.64552 74.407 7.7758 74.34V73.7745C7.64423 73.8636 7.51459 73.9288 7.3867 73.9702C7.25881 74.0118 7.12428 74.0324 6.98295 74.0324C6.72966 74.0324 6.53051 73.952 6.38541 73.7909C6.2403 73.6299 6.16779 73.4084 6.16779 73.1265C6.16779 72.8434 6.2403 72.6214 6.38541 72.4603C6.53051 72.2993 6.72966 72.2186 6.98295 72.2186C7.12428 72.2186 7.25881 72.2394 7.3867 72.2809C7.51459 72.3225 7.64423 72.3877 7.7758 72.4768V71.9113C7.64552 71.8441 7.50969 71.7935 7.36836 71.7594C7.22694 71.7251 7.07943 71.708 6.92576 71.708Z" fill="#58595D"/>
<path d="M10.2073 71.7573H9.49731V74.4898H10.2073V71.7573Z" fill="#58595D"/>
<path d="M13.8292 73.6313L12.8279 71.7573H12.0349V74.4898H12.708V72.6156L13.7093 74.4898H14.5023V71.7573H13.8292V73.6313Z" fill="#58595D"/>
<path d="M17.0393 73.3312H18.1734V72.7987H17.0393V72.2899H18.2453V71.7573H16.3293V74.4898H18.286V73.9573H17.0393V73.3312Z" fill="#58595D"/>
<path d="M21.5728 73.2196L20.9458 71.7573H20.0422V74.4898H20.7153V72.4911L21.3496 73.9645H21.7996L22.4341 72.4911V74.4898H23.1053V71.7573H22.2035L21.5728 73.2196Z" fill="#58595D"/>
<path d="M25.625 71.7573L24.6052 74.4898H25.3189L25.494 73.9921H26.6042L26.7776 74.4898H27.4913L26.4715 71.7573H25.625ZM25.6711 73.485L26.0491 72.3978L26.4254 73.485H25.6711Z" fill="#58595D"/>
<path d="M30.2405 72.841L29.9382 72.7806C29.7942 72.7513 29.695 72.7162 29.6403 72.6753C29.5856 72.6344 29.5582 72.5774 29.5582 72.5043C29.5582 72.4067 29.5988 72.3347 29.6799 72.2883C29.7611 72.2418 29.8865 72.2186 30.0561 72.2186C30.184 72.2186 30.3198 72.2358 30.4637 72.27C30.6075 72.3041 30.7551 72.3547 30.9063 72.4219V71.8435C30.7354 71.7984 30.57 71.7645 30.4102 71.7419C30.2503 71.7194 30.0948 71.708 29.9436 71.708C29.6116 71.708 29.3572 71.7813 29.1802 71.9277C29.0031 72.0741 28.9146 72.2835 28.9146 72.5554C28.9146 72.7727 28.9782 72.9453 29.1054 73.0734C29.2327 73.2016 29.4341 73.2949 29.7095 73.3535L29.9842 73.4139C30.1514 73.4505 30.263 73.492 30.3189 73.5384C30.3748 73.5846 30.4029 73.6505 30.4029 73.736C30.4029 73.8312 30.3615 73.9043 30.2792 73.9557C30.1968 74.0069 30.0783 74.0324 29.9233 74.0324C29.7708 74.0324 29.6125 74.0091 29.4485 73.9621C29.2843 73.9151 29.1144 73.8452 28.9387 73.7524V74.3473C29.1144 74.412 29.2901 74.4608 29.466 74.4938C29.6417 74.5267 29.817 74.5431 29.9916 74.5431C30.3616 74.5431 30.6367 74.4696 30.8168 74.3226C30.9969 74.1755 31.087 73.9514 31.087 73.65C31.087 73.4206 31.0225 73.2436 30.8934 73.1193C30.7643 72.9948 30.5466 72.902 30.2405 72.841Z" fill="#58595D"/>
</svg>
