<svg width="145" height="59" viewBox="0 0 145 59" fill="none" xmlns="http://www.w3.org/2000/svg">
<path d="M139.996 9.43663C142.782 9.85201 144.91 12.3155 144.84 15.0442C144.84 15.089 144.837 15.1369 144.833 15.188L144.776 16.0571C143.718 31.9341 143.44 35.9952 143.389 36.6023C143.162 39.4045 140.926 41.852 138.184 42.2929L133.951 42.9128L133.04 48.629C132.276 53.0128 129.477 55.5275 125.359 55.5275H86.5911L86.1438 56.0931C84.8625 57.7098 83.07 58.6428 81.2296 58.6524H62.3363C60.4831 58.6428 58.6842 57.7098 57.3965 56.0931L56.9492 55.5275H18.284C14.373 55.5275 11.2066 52.6486 10.5867 48.5268L9.6697 42.7243L6.61508 42.2962C3.86401 41.852 1.61778 39.4077 1.39092 36.6087C1.37814 36.4489 0.0297579 15.9325 0.00419601 15.3158C-0.114026 12.012 2.28559 9.86162 4.71395 9.44944L8.4779 8.78799L8.82297 8.4014C10.1682 6.90924 11.9735 5.98583 13.9066 5.80689C25.9653 4.69177 34.8288 4.57036 45.0918 4.42657H45.2132C46.8555 4.4042 48.5298 4.38183 50.2584 4.35307L50.9454 4.34348L51.3831 3.81627C52.5717 2.38801 54.2652 1.47739 56.0258 1.31124C60.7802 0.886273 66.1833 0.662598 71.6503 0.662598C77.1173 0.662598 82.5108 0.886254 87.2461 1.30802C89.0578 1.47737 90.7098 2.34967 91.892 3.76196L92.3297 4.28279L93.0071 4.29555C95.5409 4.34667 98.0619 4.38184 100.289 4.41059L100.378 4.41376C110.28 4.55435 120.518 4.70132 131.909 5.81006C133.871 6.00177 135.772 7.01148 137.123 8.58352L137.465 8.97971L139.996 9.43663ZM141.613 14.9644C141.641 13.8077 140.616 12.8204 139.52 12.6318C137.951 12.3603 136.967 12.1366 135.449 11.9002C134.772 10.3792 133.299 9.18741 131.596 9.02125C116.585 7.56104 103.868 7.7943 90.2177 7.46519C89.8918 5.94108 88.5626 4.6726 86.9682 4.52243C77.4944 3.68209 65.8095 3.68209 56.3357 4.52243C54.7157 4.6758 53.3705 5.97944 53.0734 7.53231C39.2765 7.79432 29.1349 7.63773 14.2037 9.02125C12.5582 9.17462 11.1331 10.2961 10.427 11.7372C8.545 12.0248 7.1423 12.3187 5.26033 12.6318C4.25384 12.8012 3.17385 13.5936 3.22817 15.2072L3.5381 19.9744H7.75578C8.01779 19.9744 8.22866 20.1885 8.22866 20.4537V21.8884C8.22866 22.1536 8.01779 22.3677 7.75578 22.3677H3.68508L4.13881 29.7709H8.22547C8.48428 29.7709 8.69837 29.985 8.69837 30.247V31.6849C8.69837 31.9469 8.48428 32.1609 8.22547 32.1609H4.28579L4.40719 34.1196C4.47109 34.7746 4.5414 35.5351 4.6085 36.3403C4.71394 37.6567 5.84186 38.9028 7.11355 39.1073C8.74311 39.3629 10.8519 39.6089 12.4815 39.8454L13.7819 48.0539C14.1558 50.5461 15.9419 52.3004 18.284 52.3004H59.0644C59.3776 53.8021 60.7195 55.4156 62.3267 55.4252H81.2136C82.8208 55.4156 84.166 53.8021 84.4791 52.3004H125.359C128.365 52.3004 129.458 50.3896 129.861 48.0539L131.139 40.0467C133.235 39.7464 135.57 39.4364 137.667 39.1073C138.938 38.9028 140.066 37.6567 140.172 36.3403C140.274 35.0909 140.478 32.9118 140.549 32.1609H136.235C135.973 32.1609 135.762 31.9469 135.762 31.6849V30.247C135.762 29.985 135.973 29.7709 136.235 29.7709H140.705L141.111 22.3676H136.705C136.443 22.3676 136.232 22.1536 136.232 21.8884V20.4537C136.232 20.1885 136.443 19.9744 136.705 19.9744H141.261L141.613 14.9644Z" fill="#58595D"/>
<path d="M131.934 24.4954C131.934 27.5756 130.739 30.3267 128.57 32.2374C126.557 34.0107 123.793 34.9469 120.578 34.9469C117.262 34.9469 114.559 34.0523 112.546 32.2789C110.399 30.397 109.219 27.6331 109.219 24.4954C109.219 21.412 110.408 18.6705 112.565 16.7726C114.565 15.0152 117.326 14.0854 120.537 14.0854C123.748 14.0854 126.512 15.0089 128.531 16.7598C130.723 18.661 131.934 21.4089 131.934 24.4954ZM120.578 29.202C123.857 29.202 126.144 27.2657 126.144 24.489C126.144 21.7923 123.786 19.8304 120.537 19.8304C117.278 19.8304 115.006 21.7444 115.006 24.489C115.006 27.745 117.805 29.202 120.578 29.202Z" fill="#58595D"/>
<path d="M121.565 40.6855L123.945 46.3155H122.284L121.875 45.3154H119.718L119.322 46.3155H117.692L120.07 40.6855H121.565ZM121.428 44.1108L120.805 42.5228L120.175 44.1108H121.428Z" fill="#58595D"/>
<path d="M116.508 40.7246V46.3162H114.968V43.105L113.536 45.2937H113.504L112.082 43.121V46.3162H110.568V40.7246H112.204L113.536 42.8878L114.872 40.7246H116.508Z" fill="#58595D"/>
<path d="M109.136 44.9966V46.3162H104.599V40.7246H109.094V42.0442H106.132V42.8878H108.816V44.1115H106.132V44.9966H109.136Z" fill="#58595D"/>
<path d="M106.474 34.2439V34.4484C106.474 34.5986 106.372 34.6976 106.225 34.6976H100.56C100.409 34.6976 100.31 34.5986 100.31 34.4484V34.2439H100.304V23.1502C100.304 23.1502 97.1216 23.8531 96.2461 30.2563H96.2365C96.2109 30.3745 96.1279 30.4512 95.9969 30.4512H92.4374C92.3096 30.4512 92.2201 30.3745 92.1978 30.2563H92.1914C91.3127 23.8531 88.1303 23.1502 88.1303 23.1502V34.3014H88.1271V34.4484C88.1271 34.5986 88.028 34.6976 87.8779 34.6976H82.2128C82.0658 34.6976 81.9635 34.5986 81.9635 34.4484V34.3014H81.9603V14.8618H81.9635V14.6733C81.9635 14.5263 82.0658 14.4272 82.2128 14.4272H83.3822C87.8139 14.4272 92.2393 17.386 94.1436 21.9647L94.2171 22.1405L94.2906 21.9647C96.195 17.386 100.62 14.4272 105.052 14.4272H106.225C106.375 14.4272 106.474 14.5263 106.474 14.6733V34.2439Z" fill="#58595D"/>
<path d="M102.969 40.7246V46.3162H101.611L99.2209 43.2488V46.3162H97.6904V40.7246H99.1347L101.435 43.6801V40.7246H102.969Z" fill="#58595D"/>
<path d="M96.0258 40.7246H94.4697V46.3162H96.0258V40.7246Z" fill="#58595D"/>
<path d="M91.9681 44.3347L93.1343 45.1654C92.6071 45.8908 91.8978 46.4275 90.6581 46.4275C89.0605 46.4275 87.776 45.2038 87.776 43.5359V43.5199C87.776 41.8903 89.0317 40.6123 90.722 40.6123C91.8659 40.6123 92.6008 41.0916 93.096 41.7786L91.9298 42.6828C91.6102 42.2834 91.2428 42.0277 90.706 42.0277C89.9232 42.0277 89.3736 42.6891 89.3736 43.5039V43.5199C89.3736 44.357 89.9232 45.0121 90.706 45.0121C91.2907 45.0121 91.6326 44.7405 91.9681 44.3347Z" fill="#58595D"/>
<path d="M83.3668 44.9966V46.3162H78.8296V40.7246H83.3252V42.0442H80.3633V42.8878H83.0473V44.1115H80.3633V44.9966H83.3668Z" fill="#58595D"/>
<path d="M78.1389 34.2123V34.4519C78.1389 34.5989 78.0399 34.7011 77.8929 34.7011L72.231 34.6915C72.0904 34.6915 71.9977 34.5989 71.9882 34.4615V32.4133C71.9882 32.2664 71.8891 32.1642 71.7389 32.1642H71.7038V32.1609L62.7572 32.1577C62.6102 32.1577 62.5112 32.2568 62.5112 32.407V34.4519C62.5112 34.5989 62.4121 34.7011 62.2619 34.7011H56.6032C56.4563 34.7011 56.354 34.5989 56.354 34.4519V27.4289C56.354 18.8753 61.2395 14.0537 67.2465 14.0537C73.2535 14.0537 78.1389 18.8753 78.1389 27.4289V34.2123ZM71.9882 27.2882L71.985 25.5948C71.985 22.4763 69.8602 19.9393 67.2465 19.9393C64.636 19.9393 62.5112 22.4762 62.5112 25.5948V27.2915H62.5144C62.5208 27.432 62.6166 27.5279 62.7572 27.5279H62.7987V27.5375H71.7389C71.8891 27.5375 71.9882 27.4352 71.9882 27.2882Z" fill="#58595D"/>
<path d="M77.4396 44.5745V44.5904C77.4396 45.7311 76.5354 46.4117 75.1774 46.4117C74.1901 46.4117 73.2475 46.0986 72.5605 45.4851L73.4233 44.4531C73.9728 44.894 74.5895 45.1241 75.2349 45.1241C75.6503 45.1241 75.874 44.9803 75.874 44.7407V44.7247C75.874 44.4946 75.6887 44.3668 74.9314 44.191C73.7428 43.9194 72.8225 43.5839 72.8225 42.4337V42.4177C72.8225 41.3792 73.6469 40.6284 74.9889 40.6284C75.9379 40.6284 76.6792 40.884 77.2863 41.3729L76.513 42.4656C76.0018 42.1078 75.4426 41.9161 74.9474 41.9161C74.5735 41.9161 74.3882 42.0758 74.3882 42.2739V42.2899C74.3882 42.5455 74.5799 42.6573 75.3531 42.8331C76.6408 43.1111 77.4396 43.5264 77.4396 44.5745Z" fill="#58595D"/>
<path d="M71.4229 40.7246V43.8239C71.4229 45.6292 70.394 46.4184 68.806 46.4184C67.2148 46.4184 66.2179 45.6133 66.2179 43.8623V40.7246H67.7899V43.8303C67.7899 44.6387 68.1989 45.0221 68.822 45.0221C69.445 45.0221 69.8508 44.6547 69.8508 43.8718V40.7246H71.4229Z" fill="#58595D"/>
<path d="M65.0005 43.5039V43.5199C65.0005 45.1239 63.7064 46.4275 61.9842 46.4275C60.2588 46.4275 58.9807 45.1399 58.9807 43.5359V43.5199C58.9807 41.9159 60.2748 40.6123 62.0002 40.6123C63.7224 40.6123 65.0005 41.8999 65.0005 43.5039ZM63.4189 43.5359V43.5199C63.4189 42.7115 62.8373 42.0118 61.9842 42.0118C61.1375 42.0118 60.5687 42.6955 60.5687 43.5039V43.5199C60.5687 44.3251 61.1535 45.0281 62.0002 45.0281C62.8533 45.0281 63.4189 44.3411 63.4189 43.5359Z" fill="#58595D"/>
<path d="M57.6997 40.7246V46.3162H56.1532V44.1914H54.1626V46.3162H52.6129V40.7246H54.1626V42.8174H56.1532V40.7246H57.6997Z" fill="#58595D"/>
<path d="M54.0063 29.9342V29.9598L52.8144 34.4682L52.7857 34.5704C52.7473 34.6471 52.6707 34.6983 52.5684 34.6983H39.2572C39.107 34.6983 39.0048 34.5992 39.0048 34.4522V14.9104C39.0048 14.7634 39.107 14.6611 39.2572 14.6611H45.1939C45.3409 14.6611 45.4399 14.7634 45.4399 14.9104V15.1468H45.4431L45.4367 29.5061C45.4367 29.6562 45.539 29.7553 45.6891 29.7553H53.8273C53.936 29.7553 54.0063 29.8288 54.0063 29.9342Z" fill="#58595D"/>
<path d="M51.1337 40.7246V42.0825H49.4594V46.3162H47.9098V42.0825H46.2323V40.7246H51.1337Z" fill="#58595D"/>
<path d="M44.8801 40.7246V42.0825H41.9565V43.0315H44.6022V44.3192H41.9565V46.3162H40.4069V40.7246H44.8801Z" fill="#58595D"/>
<path d="M36.8443 40.6855L39.2247 46.3155H37.5632L37.1574 45.3154H35.0006L34.6012 46.3155H32.9717L35.3521 40.6855H36.8443ZM36.7101 44.1108L36.087 42.5228L35.4544 44.1108H36.7101Z" fill="#58595D"/>
<path d="M35.7423 34.2123V34.4519C35.7423 34.5989 35.6433 34.7011 35.4931 34.7011L29.8344 34.6915C29.6938 34.6915 29.5979 34.5989 29.5884 34.4615V32.4133C29.5884 32.2664 29.4893 32.1642 29.3391 32.1642H29.304V32.1609L20.3606 32.1577C20.2104 32.1577 20.1114 32.2568 20.1114 32.407V34.4519C20.1114 34.5989 20.0123 34.7011 19.8621 34.7011H14.2034C14.0564 34.7011 13.9574 34.5989 13.9574 34.4519V27.4289C13.9574 18.8753 18.8429 14.0537 24.8499 14.0537C30.8537 14.0537 35.7423 18.8753 35.7423 27.4289V34.2123ZM29.5884 27.2882L29.5852 25.5948C29.5852 22.4763 27.4604 19.9393 24.8499 19.9393C22.2362 19.9393 20.1114 22.4762 20.1114 25.5948V27.2915H20.1146C20.121 27.432 20.2168 27.5279 20.3606 27.5279H20.4021V27.5375H29.3391C29.4893 27.5375 29.5884 27.4352 29.5884 27.2882Z" fill="#58595D"/>
<path d="M30.9434 44.3671L32.2758 46.3162H30.4864L29.3617 44.6227H28.6811V46.3162H27.1315V40.7246H29.7771C30.6302 40.7246 31.2213 40.9483 31.5952 41.3317C31.9243 41.6512 32.0904 42.0826 32.0904 42.6321V42.6481C32.0904 43.5044 31.6367 44.07 30.9434 44.3671ZM30.5344 42.7471V42.728C30.5344 42.2903 30.2149 42.0666 29.6972 42.0666H28.6811V43.4085H29.7036C30.2308 43.4085 30.5344 43.1529 30.5344 42.7471Z" fill="#58595D"/>
<path d="M25.853 43.4884V43.5044C25.853 45.118 24.6804 46.3162 22.6674 46.3162H20.5426V40.7246H22.6993C24.6964 40.7246 25.853 41.8748 25.853 43.4884ZM24.265 43.5268V43.5108C24.265 42.6162 23.6483 42.0986 22.7217 42.0986H22.0923V44.9422H22.7217C23.6483 44.9422 24.265 44.431 24.265 43.5268Z" fill="#58595D"/>
</svg>
