<svg width="124" height="53" viewBox="0 0 124 53" fill="none" xmlns="http://www.w3.org/2000/svg">
<path d="M65.7589 4.96128C71.6591 -0.0339299 77.8457 0.0676686 83.107 2.66086C88.0005 5.24001 89.7536 8.95091 89.8315 14.3679L89.8283 27.6574C89.8283 27.6574 89.7795 31.4067 85.9352 31.4067C82.2832 31.4067 82.1103 27.6801 82.1103 27.6801L82.0585 14.55C82.0585 14.55 81.8369 8.44961 75.7365 8.44961C69.6051 8.44961 69.1178 14.5181 69.1178 14.5181V27.4436C69.1178 27.4436 69.1178 31.3592 65.2351 31.3592C61.4438 31.3592 61.3645 27.4436 61.3645 27.4436L61.3619 14.5549C61.3619 14.5549 61.2463 8.44961 54.7649 8.44961C48.3149 8.44961 48.4803 14.6462 48.4803 14.6462V27.9017C48.4803 27.9017 48.0303 31.3879 44.6295 31.3879C41.1035 31.3879 40.7463 27.8693 40.7463 27.8693L40.7224 14.4933C40.7224 9.56247 41.6745 4.66789 48.6913 1.898C51.8787 0.638704 55.6177 0.665199 58.9721 1.42803C61.2084 2.24001 63.1406 3.33396 65.0217 4.96128L65.3782 5.27243L65.7589 4.96128Z" fill="#58595D"/>
<path d="M28.3296 27.5776C28.3296 23.7337 24.5176 23.7181 24.5176 23.7181H10.7782C9.96427 23.7181 9.86899 23.099 10.065 22.3724C11.7436 18.2039 15.4651 13.5367 19.4446 11.4988C22.7373 9.81661 26.5117 8.06777 30.4257 8.32283C31.2448 8.38814 31.2448 8.76691 31.2459 10.0527V27.3902C31.2459 27.3902 31.4431 31.3275 35.2564 31.3275C39.1802 31.3275 38.869 27.5203 38.869 27.5203L38.8529 5.74957C38.9041 4.42704 38.6635 3.15591 37.8752 2.1386C37.2904 1.6059 36.5022 1.04619 35.6115 0.920301C30.9341 0.537794 26.4428 0.960842 22.1401 2.21529C14.1582 4.54049 6.53282 11.024 2.61904 18.7382C1.28611 21.3658 0.0507985 24.8132 0 27.9915C0.0507985 29.5166 0.686687 31.295 2.42704 31.295L24.5795 31.4074C24.5795 31.4074 28.3296 31.549 28.3296 27.5776Z" fill="#58595D"/>
<path d="M119.94 18.1395C123.817 18.5432 123.334 22.1816 123.334 22.1816C121.24 28.765 115.073 32.7899 107.798 32.7899C98.795 32.7899 91.4973 25.4895 91.4973 16.4869C91.4973 7.4859 98.795 0.188232 107.798 0.188232C115.107 0.188232 121.292 3.75446 123.36 10.3817C123.36 10.3817 124.346 14.3719 120.056 14.8683C116.881 14.8683 116.391 12.279 116.391 12.279C115.162 8.72303 111.785 7.41575 107.811 7.41575C102.8 7.41575 98.7399 11.4761 98.7399 16.4869C98.7399 21.4999 102.8 25.5625 107.811 25.5625C111.738 25.5625 115.079 23.8192 116.344 20.3297C116.344 20.3297 117.122 18.0753 119.94 18.1395Z" fill="#58595D"/>
<path d="M4.57219 41.2349C5.24662 41.2349 5.76224 41.4372 6.10419 41.8366C6.29606 42.0615 6.45559 42.4005 6.57865 42.8442L6.58347 42.8613H8.58275L8.58133 42.8364C8.55201 42.2504 8.33498 41.6584 7.93624 41.0775C7.21424 40.0421 6.05727 39.5171 4.4976 39.5171C3.33137 39.5171 2.3572 39.9087 1.60196 40.6803C0.734271 41.566 0.294189 42.8433 0.294189 44.4771C0.294189 45.988 0.681224 47.1947 1.44409 48.0633C2.20742 48.9287 3.27089 49.3674 4.60452 49.3674C5.68255 49.3674 6.57909 49.0423 7.26969 48.4018C7.95959 47.7617 8.39461 46.919 8.56223 45.8975L8.56687 45.8703H6.57704L6.57241 45.8878C6.44519 46.3653 6.28358 46.7278 6.09171 46.9661C5.74583 47.4066 5.23551 47.6301 4.57493 47.6301C3.93074 47.6301 3.3923 47.3692 2.97439 46.8543C2.55509 46.3381 2.34272 45.5489 2.34272 44.509C2.34272 43.4681 2.54427 42.6526 2.94187 42.0855C3.33808 41.5212 3.88644 41.2349 4.57219 41.2349Z" fill="#58595D"/>
<path d="M11.6476 39.6948H9.65649V49.1069H11.6476V39.6948Z" fill="#58595D"/>
<path d="M18.8865 46.1598L15.2128 39.7068L15.206 39.6948H13.1174V49.1069H14.9881V42.5265L18.7567 49.0949L18.7634 49.1069H20.7569V39.6948H18.8865V46.1598Z" fill="#58595D"/>
<path d="M24.2801 45.015H28.8292V43.3415H24.2801V41.4002H29.2359V39.6948H22.3206V49.1069H29.4645V47.3761H24.2801V45.015Z" fill="#58595D"/>
<path d="M35.2044 46.9776L33.5227 39.7133L33.5185 39.6948H30.6287V49.1069H32.4994V42.749C32.4994 42.575 32.4972 42.3316 32.4929 41.9829C32.4901 41.7715 32.4883 41.5895 32.4874 41.4394L34.2022 49.0884L34.2064 49.1069H36.1456L37.8773 41.438C37.8763 41.5881 37.8745 41.7705 37.8717 41.9829C37.8675 42.3043 37.8653 42.562 37.8653 42.749V49.1069H39.736V39.6948H36.8778L35.2044 46.9776Z" fill="#58595D"/>
<path d="M46.1499 39.6948H43.9024L40.5538 49.0755L40.5427 49.1069H42.6399L43.2746 47.1817H46.6895L47.302 49.0907L47.3074 49.1069H49.4798L46.1554 39.7105L46.1499 39.6948ZM46.1564 45.5207H43.8225L45.0053 41.9349L46.1564 45.5207Z" fill="#58595D"/>
<path d="M56.8399 44.4142C56.4793 44.1293 55.9311 43.8993 55.2109 43.7303L53.5675 43.3424C52.9376 43.1951 52.521 43.0653 52.3292 42.9568C52.0346 42.7966 51.8854 42.5514 51.8854 42.2276C51.8854 41.8735 52.0374 41.5936 52.3373 41.396C52.6407 41.196 53.0525 41.0949 53.5619 41.0949C54.0202 41.0949 54.409 41.1729 54.7173 41.3272C55.1763 41.5594 55.4262 41.957 55.4601 42.5089L55.4612 42.531H57.3882L57.3875 42.5066C57.3529 41.5082 56.9766 40.7356 56.2685 40.2106C55.5619 39.6869 54.697 39.4214 53.6979 39.4214C52.5012 39.4214 51.5806 39.7035 50.9616 40.26C50.3419 40.8169 50.0277 41.5257 50.0277 42.3676C50.0277 43.2911 50.3497 43.9792 50.9844 44.4137C51.3576 44.6723 52.0514 44.9152 53.0466 45.1355L54.0606 45.3576C54.6496 45.4841 55.0846 45.6305 55.3534 45.7931C55.618 45.9574 55.7521 46.1921 55.7521 46.4908C55.7521 47.0066 55.476 47.365 54.9311 47.5552C54.6409 47.6554 54.2571 47.7062 53.7905 47.7062C53.014 47.7062 52.4591 47.5146 52.1414 47.1364C51.9678 46.9295 51.8496 46.6109 51.79 46.1893L51.787 46.1689H49.875V46.1925C49.875 47.1696 50.2345 47.9487 50.9436 48.5079C51.6511 49.0652 52.6349 49.3483 53.8674 49.3483C55.075 49.3483 56.023 49.0611 56.6856 48.4945C57.3497 47.9269 57.6863 47.2038 57.6863 46.3449C57.6863 45.5072 57.4014 44.8575 56.8399 44.4142Z" fill="#58595D"/>
<path d="M65.7188 49.2038V39.6855H67.8863V47.4505H68.0321V49.2038H65.7188Z" fill="#58595D"/>
<path d="M67.8857 49.2039V47.4506H74.7693V45.1961C74.7693 43.6197 76.1538 42.5293 78.194 42.5293H80.8715V47.4506H80.9626V49.2039H80.4526C79.7968 50.1321 78.7587 50.5889 77.3742 50.5889H74.7693V49.2039H67.8857ZM76.9371 48.8208H77.4835C78.2848 48.8208 78.6675 48.4673 78.6675 47.7452V44.2826H78.121C77.3194 44.2826 76.9371 44.6364 76.9371 45.3582V48.8208Z" fill="#58595D"/>
<path d="M80.8713 47.4505H88.0231V42.5292H90.191V47.4505H90.3003V49.2038H80.8713V47.4505ZM88.0231 39.6855H90.191V41.4388H88.0231V39.6855Z" fill="#58595D"/>
<path d="M90.1909 47.4506H99.5646V42.5293H101.732V47.4506H101.841V49.2039H90.1909V47.4506ZM96.4862 50.309H98.654V52.0918H96.4862V50.309ZM99.5646 50.309H101.732V52.0918H99.5646V50.309Z" fill="#58595D"/>
<path d="M111.745 47.4506V44.9015H113.913V47.4506H116.39V43.7226H118.558V47.4506H120.98V42.5293H123.148V49.2039H101.551V47.4506H111.745Z" fill="#58595D"/>
</svg>
