<svg width="24" height="20" viewBox="0 0 24 20" fill="none" xmlns="http://www.w3.org/2000/svg">
<g clip-path="url(#clip0_270_8241)">
<path fill-rule="evenodd" clip-rule="evenodd" d="M6.20233 1.50208C3.6067 1.50208 1.50208 3.6067 1.50208 6.20233C1.50208 6.30075 1.5789 6.37757 1.67732 6.37757H21.511C21.6094 6.37757 21.6862 6.30075 21.6862 6.20233C21.6862 3.6067 19.5816 1.50208 16.986 1.50208H6.20233ZM0 6.20233C0 2.77713 2.77713 0 6.20233 0H16.986C20.4112 0 23.1883 2.77713 23.1883 6.20233C23.1883 7.13032 22.439 7.87965 21.511 7.87965H1.67732C0.749322 7.87965 0 7.13032 0 6.20233Z" fill="#2E2F35"/>
<path fill-rule="evenodd" clip-rule="evenodd" d="M16.9862 17.7745C19.5818 17.7745 21.6864 15.6698 21.6864 13.0742C21.6864 12.9758 21.6096 12.899 21.5112 12.899L1.67748 12.899C1.57906 12.899 1.50224 12.9758 1.50224 13.0742C1.50224 15.6698 3.60686 17.7745 6.20249 17.7745L16.9862 17.7745ZM23.1885 13.0742C23.1885 16.4994 20.4114 19.2766 16.9862 19.2766L6.20249 19.2766C2.77729 19.2766 0.000164032 16.4994 0.000164032 13.0742C0.000164032 12.1462 0.749487 11.3969 1.67748 11.3969L21.5112 11.3969C22.4392 11.3969 23.1885 12.1462 23.1885 13.0742Z" fill="#2E2F35"/>
<path d="M21.1419 9.0687C21.1419 9.0687 21.1231 9.0687 21.1106 9.0687H2.07181C1.50853 9.0687 1.05165 9.57565 1.03913 10.2078C1.03287 10.8399 1.47723 11.3656 2.04051 11.3719H12.5363C13.2748 11.8851 13.9883 12.6361 14.2324 13.093C14.5703 13.7064 14.539 14.3823 14.4452 15.0707C14.295 16.1034 13.9883 17.1611 14.5203 18.0686C14.8332 18.6006 15.4653 18.9323 16.0724 18.8635C16.6858 18.7946 17.2303 18.3127 17.3617 17.7119C17.5244 16.9233 17.0175 16.1785 16.8172 15.3962C16.523 14.2759 16.9549 13.1431 17.7372 12.3357C18.0564 12.0103 19.0641 11.6535 19.6649 11.3594H21.1169C21.6802 11.3656 22.1371 10.8587 22.1433 10.2265C22.1496 9.59442 21.7052 9.0687 21.1419 9.06244V9.0687Z" fill="#FE3B1F"/>
</g>
<defs>
<clipPath id="clip0_270_8241">
<rect width="23.1883" height="19.2767" fill="white"/>
</clipPath>
</defs>
</svg>
