<svg width="187" height="34" viewBox="0 0 187 34" fill="none" xmlns="http://www.w3.org/2000/svg">
<path d="M14.5987 28.217C11.6275 28.217 8.83162 27.0606 6.72886 24.9575L5.73437 25.9523C3.3641 23.5859 2.05959 20.437 2.05959 17.0853C2.05959 13.7348 3.36416 10.5858 5.7322 8.21815L6.72659 9.21292C8.82817 7.11075 11.6252 5.9521 14.5987 5.9521C17.5725 5.9521 20.3684 7.10919 22.4699 9.21136L25.9141 5.76483C22.8944 2.74257 18.8733 1.07788 14.5987 1.07788C10.3232 1.07788 6.30394 2.74253 3.28011 5.76577L4.27516 6.76087C1.51785 9.51661 0 13.1835 0 17.0853C0 20.9853 1.51852 24.6518 4.27648 27.4099L3.28237 28.406C6.30621 31.4269 10.3254 33.0926 14.5987 33.0926C18.8752 33.0926 22.8961 31.4269 25.918 28.4024L22.4728 24.9575C20.3684 27.059 17.5725 28.217 14.5987 28.217Z" fill="#58595D"/>
<path d="M28.4375 32.9988H33.3114V3.34766L28.4375 7.32083V32.9988Z" fill="#58595D"/>
<path d="M28.4375 4.88355L33.3114 0.911133H28.4375V4.88355Z" fill="#58595D"/>
<path d="M50.1573 5.95214H54.1746V23.1234L40.666 7.2281V3.51447H35.793V26.6799H40.666V10.4095L54.1746 26.3067V32.9982H59.0499V1.07788H50.1573V5.95214Z" fill="#58595D"/>
<path d="M61.5979 33.0926H73.7355V28.217H66.4708V5.95214H73.7355V1.07788H61.5979V33.0926Z" fill="#58595D"/>
<path d="M178.913 5.95248H186.176L186.174 1.07788H174.039V33.0929H186.176V28.2174H178.913V5.95248Z" fill="#58595D"/>
<path d="M86.6119 6.06672C89.6348 6.06672 92.0962 8.5274 92.0962 11.5506H96.9681C96.9681 5.83931 92.3232 1.19312 86.6119 1.19312C80.9007 1.19312 76.2554 5.83931 76.2554 11.5506H77.6956C78.0278 14.9214 80.8227 18.1152 86.6119 18.1152C91.1742 18.1152 93.216 19.4326 93.4726 22.619H92.0962C92.0962 25.6419 89.6348 28.102 86.6119 28.102C83.5893 28.102 81.1287 25.6419 81.1287 22.619H76.2554C76.2554 28.33 80.9007 32.9756 86.6119 32.9756C92.3232 32.9756 96.9681 28.33 96.9681 22.619H95.5327C95.239 18.264 92.245 16.0538 86.6119 16.0538C82.2768 16.0538 80.1287 13.8894 79.7792 11.5506H81.1287C81.1287 8.5274 83.5893 6.06672 86.6119 6.06672Z" fill="#58595D"/>
<path d="M113.87 28.217C110.896 28.217 108.101 27.0606 105.999 24.9575L105.005 25.9532C102.634 23.5875 101.331 20.4372 101.331 17.0853C101.331 13.7334 102.634 10.5842 105.002 8.21815L105.997 9.21292C108.099 7.11075 110.896 5.95214 113.87 5.95214C116.843 5.95214 119.637 7.10919 121.739 9.21136L125.185 5.76417C122.163 2.74256 118.144 1.07788 113.869 1.07788C109.593 1.07788 105.574 2.74253 102.551 5.76577L103.545 6.75988L103.544 6.76087C100.788 9.51792 99.2693 13.1844 99.2693 17.0853C99.2693 20.986 100.789 24.6525 103.547 27.4099L102.553 28.406C105.575 31.4269 109.594 33.0926 113.87 33.0926C118.144 33.0926 122.166 31.4269 125.187 28.4024L121.741 24.9575C119.637 27.059 116.843 28.217 113.87 28.217Z" fill="#58595D"/>
<path d="M161.162 0.911133H151.37V5.78407H152.511L160.837 18.1594H156.295V16.7695H151.42V32.9983H156.295V20.2192H161.162V21.6258C166.873 21.6258 171.522 16.9802 171.522 11.2679C171.522 5.55634 166.873 0.911133 161.162 0.911133ZM162.296 16.6332L154.996 5.78407H161.162C164.185 5.78407 166.646 8.24475 166.646 11.2679C166.646 13.9031 164.777 16.1092 162.296 16.6332Z" fill="#58595D"/>
<path d="M130.811 26.2752H127.49V28.2369H142.875L144.349 33.0368L148.677 33.0265L138.924 0.911133L130.811 26.2752ZM135.804 26.2752L138.914 15.3331L142.274 26.2752H135.804Z" fill="#58595D"/>
<path d="M73.5729 15.7397H68.6672V17.8002H73.5729V15.7397Z" fill="#58595D"/>
<path d="M186.012 15.7393H181.107V17.7995H186.012V15.7393Z" fill="#58595D"/>
</svg>
