<svg width="118" height="58" viewBox="0 0 118 58" fill="none" xmlns="http://www.w3.org/2000/svg">
<path d="M108.586 2.48804H96.1534L102.482 11.5347L108.586 2.48804Z" fill="#58595D"/>
<path d="M18.1985 35.2325C9.31736 35.2325 2.09594 28.0117 2.09594 19.1334C2.09594 10.2563 9.31736 3.03375 18.1985 3.03375C23.796 3.03375 28.7331 5.90664 31.6195 10.2551L33.2946 8.9626C30.0244 4.12322 24.4864 0.938965 18.2038 0.938965C8.149 0.938965 0 9.08621 0 19.1369C0 29.1865 8.149 37.3343 18.2038 37.3343C24.673 37.3343 30.3517 33.9535 33.5789 28.8663L31.8614 27.635C29.0144 32.193 23.9567 35.2325 18.1985 35.2325Z" fill="#58595D"/>
<path d="M18.2038 27.2441C13.7247 27.2441 10.0925 23.6137 10.0925 19.1369C10.0925 14.6589 13.7247 11.0291 18.2038 11.0291C21.2333 11.0291 23.8737 12.6931 25.2651 15.1557L31.2046 10.5741C28.4153 6.35101 23.6289 3.5564 18.1986 3.5564C9.60518 3.5564 2.61743 10.5441 2.61743 19.1334C2.61743 27.7232 9.60518 34.7109 18.1986 34.7109C23.7819 34.7109 28.686 31.7568 31.4359 27.3306L25.3499 22.9686C23.9814 25.5137 21.2945 27.2441 18.2038 27.2441Z" fill="#58595D"/>
<path d="M72.2481 35.868H61.6064L72.2528 18.8384L72.2481 35.868Z" fill="#58595D"/>
<path d="M38.7285 2.49927H36.6296V35.8675H38.7285V2.49927Z" fill="#58595D"/>
<path d="M62.3238 2.49927L54.3626 15.4134L46.4025 2.49927H39.2506V35.8675H45.8293V16.7048L54.3626 29.7656H54.511L72.1003 2.72232L72.2486 2.49927H62.3238Z" fill="#58595D"/>
<path d="M108.941 35.8677L85.5895 2.48828H83.1963L106.136 35.8677H108.941Z" fill="#58595D"/>
<path d="M74.3508 2.48804L85.325 18.902L73.8882 35.8675H85.6364L91.3705 26.8597L97.0651 35.8675H105.502L82.5617 2.48804H74.3508Z" fill="#58595D"/>
<path d="M36.8513 44.3423H35.012V42.845H40.4075V44.3423H38.5588V49.0063H36.8513V44.3423Z" fill="#58595D"/>
<path d="M41.1555 42.845H42.8624V45.1511H45.0543V42.845H46.7618V49.0063H45.0543V46.6661H42.8624V49.0063H41.1555V42.845Z" fill="#58595D"/>
<path d="M47.8524 42.845H52.8083V44.2894H49.5428V45.2311H52.4999V46.5772H49.5428V47.5543H52.8525V49.0063H47.8524V42.845Z" fill="#58595D"/>
<path d="M55.2549 42.845H57.156L58.5557 46.7443L59.9648 42.845H61.8306L59.3303 49.0511H57.7458L55.2549 42.845Z" fill="#58595D"/>
<path d="M62.4717 42.845H64.1798V49.0063H62.4717V42.845Z" fill="#58595D"/>
<path d="M65.5792 42.845H68.2284C69.777 42.845 70.7806 43.6466 70.7806 45.0015V45.0192C70.7806 46.4807 69.6628 47.2459 68.1408 47.2459H67.2861V49.0063H65.5792V42.845ZM68.1054 45.908C68.7034 45.908 69.0825 45.5831 69.0825 45.0981V45.0804C69.0825 44.5531 68.7034 44.28 68.096 44.28H67.2861V45.908H68.1054Z" fill="#58595D"/>
<path d="M72.6814 45.944V45.9257C72.6814 44.1305 74.0552 42.7227 75.9204 42.7227C77.1794 42.7227 77.9893 43.25 78.5349 43.9987L77.25 44.9928C76.8968 44.562 76.4919 44.2718 75.9033 44.2718C75.0405 44.2718 74.433 45.0099 74.433 45.9081V45.9257C74.433 46.8498 75.0405 47.5714 75.9033 47.5714C76.5461 47.5714 76.924 47.2724 77.2935 46.8239L78.5791 47.7386C77.9975 48.5402 77.2147 49.13 75.8586 49.13C74.0987 49.13 72.6814 47.7833 72.6814 45.944Z" fill="#58595D"/>
<path d="M79.4739 42.845H81.182V49.0063H79.4739V42.845Z" fill="#58595D"/>
<path d="M82.6747 42.845H84.2674L86.8024 46.1016V42.845H88.4922V49.0063H87.0043L84.3645 45.6266V49.0063H82.6747V42.845Z" fill="#58595D"/>
<path d="M89.9119 42.845H94.8672V44.2894H91.6017V45.2311H94.5593V46.5772H91.6017V47.5543H94.9113V49.0063H89.9119V42.845Z" fill="#58595D"/>
<path d="M96.0658 42.845H97.8704L99.3395 45.2311L100.81 42.845H102.614V49.0063H100.915V45.4683L99.3395 47.8797H99.3042L97.7374 45.4771V49.0063H96.0658V42.845Z" fill="#58595D"/>
<path d="M105.658 42.801H107.304L109.928 49.006H108.096L107.656 47.897H105.271L104.832 49.006H103.045L105.658 42.801ZM107.155 46.568L106.47 44.8252L105.773 46.568H107.155Z" fill="#58595D"/>
<path d="M50.1188 51.6477H55.0747V53.0909H51.8092V54.0327H54.7663V55.3799H51.8092V56.3564H55.1183V57.8079H50.1188V51.6477Z" fill="#58595D"/>
<path d="M61.9294 51.6477L59.9047 54.6495L62.0177 57.8079H60.0541L58.8746 55.9432L57.6869 57.8079H55.7681L57.8805 54.6754L55.8564 51.6477H57.8199L58.9017 53.3811L60.0106 51.6477H61.9294Z" fill="#58595D"/>
<path d="M62.7694 51.6477H65.4192C66.9684 51.6477 67.9713 52.4482 67.9713 53.8031V53.8213C67.9713 55.2828 66.8542 56.048 65.3309 56.048H64.4775V57.8079H62.7694V51.6477ZM65.2956 54.7107C65.8942 54.7107 66.2727 54.3846 66.2727 53.9008V53.8832C66.2727 53.3546 65.8942 53.0815 65.2862 53.0815H64.4775V54.7107H65.2956Z" fill="#58595D"/>
<path d="M68.8241 51.6477H73.78V53.0909H70.5139V54.0327H73.4716V55.3799H70.5139V56.3564H73.8242V57.8079H68.8241V51.6477Z" fill="#58595D"/>
<path d="M75.0741 51.6477H77.9871C78.9294 51.6477 79.5803 51.8937 79.9936 52.3081C80.355 52.6677 80.5397 53.1345 80.5397 53.7419V53.7595C80.5397 54.7107 80.0383 55.3346 79.2719 55.6607L80.7422 57.8079H78.7793L77.5385 55.9432H76.7816V57.8079H75.0741V51.6477ZM77.917 54.6047C78.4892 54.6047 78.8323 54.3228 78.8323 53.8737V53.8567C78.8323 53.364 78.4715 53.118 77.9082 53.118H76.7817V54.6047H77.917Z" fill="#58595D"/>
<path d="M81.8866 51.6477H83.5947V57.8079H81.8866V51.6477Z" fill="#58595D"/>
<path d="M85.1243 51.6477H90.0795V53.0909H86.8141V54.0327H89.7717V55.3799H86.8141V56.3564H90.1231V57.8079H85.1243V51.6477Z" fill="#58595D"/>
<path d="M91.4987 51.6477H93.0914L95.627 54.9043V51.6477H97.3162V57.8079H95.8283L93.1885 54.4287V57.8079H91.4987V51.6477Z" fill="#58595D"/>
<path d="M98.2042 54.7464V54.7287C98.2042 52.9323 99.5774 51.5244 101.443 51.5244C102.702 51.5244 103.511 52.053 104.058 52.8005L102.773 53.7952C102.42 53.3643 102.015 53.0748 101.426 53.0748C100.564 53.0748 99.9564 53.8129 99.9564 54.711V54.7287C99.9564 55.6528 100.564 56.3744 101.426 56.3744C102.068 56.3744 102.447 56.0748 102.817 55.6269L104.102 56.5415C103.521 57.3432 102.738 57.9324 101.382 57.9324C99.6221 57.9324 98.2042 56.5851 98.2042 54.7464Z" fill="#58595D"/>
<path d="M104.665 51.6477H109.62V53.0909H106.355V54.0327H109.313V55.3799H106.355V56.3564H109.665V57.8079H104.665V51.6477Z" fill="#58595D"/>
<path d="M112.434 34.95C112.434 35.3714 112.745 35.5362 113.128 35.5362C113.549 35.5362 113.706 35.3302 113.706 35.123C113.706 34.9117 113.591 34.8275 113.48 34.7852C113.289 34.7122 113.039 34.6627 112.665 34.5603C112.196 34.4332 112.058 34.1495 112.058 33.8658C112.058 33.3172 112.564 33.0605 113.059 33.0605C113.63 33.0605 114.109 33.3631 114.109 33.9341H113.63C113.607 33.5821 113.37 33.4514 113.039 33.4514C112.818 33.4514 112.537 33.5326 112.537 33.8081C112.537 33.9999 112.668 34.1071 112.863 34.1612C112.905 34.1718 113.511 34.3296 113.653 34.3719C114.014 34.4791 114.185 34.7852 114.185 35.0689C114.185 35.6821 113.641 35.927 113.097 35.927C112.473 35.927 111.966 35.6292 111.955 34.9499L112.434 34.95Z" fill="#58595D"/>
<path d="M114.597 33.1265H115.273L116.027 35.2689H116.034L116.77 33.1265H117.438V35.8622H116.982V33.7509H116.974L116.215 35.8622H115.82L115.062 33.7509H115.054V35.8622H114.597V33.1265Z" fill="#58595D"/>
</svg>
