<svg width="133" height="37" viewBox="0 0 133 37" fill="none" xmlns="http://www.w3.org/2000/svg">
<path d="M11.4502 31.7678L12.6039 31.4468C12.6494 31.8554 12.8468 32.2319 13.1569 32.5019C13.4669 32.7718 13.8671 32.9153 14.2781 32.9041C15.0327 32.9041 15.6486 32.4791 15.6486 31.8458C15.6486 31.2126 15.1715 30.8743 14.5296 30.7355L13.6015 30.5534C13.0857 30.5009 12.6066 30.2624 12.2538 29.8824C11.901 29.5025 11.6986 29.0071 11.6844 28.4888C11.7203 27.8583 12.0021 27.2671 12.4692 26.8421C12.9364 26.4172 13.5516 26.1924 14.1826 26.2162C14.7695 26.1466 15.3613 26.2983 15.8425 26.6415C16.3236 26.9847 16.6596 27.4949 16.7849 28.0725L15.6746 28.4195C15.5951 28.0953 15.4091 27.8072 15.1465 27.6012C14.8839 27.3952 14.5598 27.2832 14.226 27.2831C13.9098 27.2612 13.5974 27.3628 13.3546 27.5667C13.1119 27.7706 12.9578 28.0608 12.9249 28.3761C12.9413 28.6288 13.0458 28.8679 13.22 29.0517C13.3943 29.2355 13.6275 29.3524 13.879 29.3823L14.8419 29.5731C15.3981 29.6125 15.9189 29.8604 16.3001 30.2674C16.6813 30.6743 16.8947 31.2102 16.8977 31.7678C16.8771 32.0857 16.7928 32.3963 16.6498 32.681C16.5068 32.9657 16.308 33.2188 16.0652 33.4251C15.8225 33.6315 15.5407 33.7869 15.2366 33.8822C14.9326 33.9775 14.6125 34.0107 14.2954 33.9798C13.6274 34.0495 12.9582 33.8582 12.4279 33.446C11.8977 33.0337 11.5473 32.4324 11.4502 31.7678Z" fill="#777878"/>
<path d="M20.5235 32.9128C20.6915 32.9163 20.8583 32.8839 21.0127 32.8178C21.1671 32.7516 21.3056 32.6532 21.4189 32.5292C21.5323 32.4052 21.6178 32.2584 21.6698 32.0987C21.7218 31.939 21.7392 31.7699 21.7206 31.603V28.7318H22.8743V33.893H21.7813V33.1991C21.601 33.4463 21.3648 33.6475 21.0919 33.7862C20.8191 33.9249 20.5173 33.9972 20.2113 33.9971C19.9408 34.0077 19.6712 33.9596 19.4211 33.8561C19.1711 33.7526 18.9463 33.5961 18.7625 33.3974C18.5787 33.1987 18.4401 32.9626 18.3562 32.7052C18.2724 32.4479 18.2453 32.1754 18.2769 31.9066V28.7318H19.4219V31.6203C19.3872 32.349 19.7342 32.9128 20.5235 32.9128Z" fill="#777878"/>
<path d="M27.4198 33.9971C27.0831 33.9971 26.7511 33.9187 26.45 33.7682C26.1488 33.6176 25.8869 33.399 25.6849 33.1297V33.9191H24.5573V26.0167H25.7109V29.4864C25.9095 29.2135 26.1708 28.9922 26.4727 28.8413C26.7746 28.6903 27.1083 28.6141 27.4458 28.619C28.1544 28.619 28.834 28.9005 29.335 29.4015C29.836 29.9026 30.1175 30.5821 30.1175 31.2907C30.1175 31.9993 29.836 32.6789 29.335 33.1799C28.834 33.6809 28.1544 33.9624 27.4458 33.9624L27.4198 33.9971ZM27.2723 32.9562C27.5984 32.9735 27.9221 32.8926 28.2017 32.7239C28.4812 32.5552 28.7037 32.3065 28.8403 32.01C28.9769 31.7134 29.0213 31.3827 28.9678 31.0606C28.9143 30.7385 28.7654 30.4398 28.5403 30.2033C28.3152 29.9668 28.0242 29.8034 27.7052 29.7341C27.3861 29.6648 27.0536 29.6929 26.7507 29.8147C26.4477 29.9365 26.1883 30.1464 26.006 30.4173C25.8238 30.6882 25.727 31.0076 25.7283 31.3341C25.7213 31.5412 25.7561 31.7476 25.8305 31.9409C25.905 32.1343 26.0176 32.3108 26.1617 32.4597C26.3058 32.6086 26.4784 32.727 26.6692 32.8079C26.86 32.8887 27.0651 32.9303 27.2723 32.9302V32.9562Z" fill="#777878"/>
<path d="M31.0023 32.4791L31.9912 32.2188C32.0349 32.4576 32.1635 32.6725 32.3532 32.8239C32.5429 32.9754 32.7809 33.0531 33.0234 33.0429C33.5005 33.0429 33.7608 32.7913 33.7608 32.4357C33.7608 32.08 33.5786 31.9759 33.1449 31.8718L32.4856 31.7157C32.118 31.674 31.7778 31.501 31.5276 31.2285C31.2773 30.9559 31.1339 30.6022 31.1237 30.2324C31.155 29.7782 31.3635 29.3546 31.7043 29.0527C32.045 28.7509 32.4908 28.5951 32.9454 28.6189C33.3786 28.5667 33.8157 28.6796 34.1694 28.9353C34.5231 29.1909 34.7674 29.5704 34.8538 29.9982L33.8735 30.2757C33.8393 30.0596 33.7246 29.8644 33.5524 29.7293C33.3803 29.5942 33.1635 29.5291 32.9454 29.5471C32.7732 29.5326 32.6021 29.5862 32.4691 29.6966C32.3361 29.8069 32.2516 29.965 32.2341 30.137C32.2341 30.4406 32.4683 30.6054 32.7545 30.6661L33.4658 30.8222C33.8545 30.8635 34.2154 31.0429 34.4829 31.3279C34.7504 31.6129 34.9066 31.9845 34.9231 32.375C34.9188 32.6079 34.8656 32.8373 34.767 33.0483C34.6684 33.2594 34.5267 33.4474 34.3509 33.6003C34.1752 33.7532 33.9693 33.8674 33.7466 33.9358C33.524 34.0041 33.2894 34.025 33.0581 33.9971C32.5873 34.0491 32.1142 33.9218 31.7331 33.6404C31.3521 33.359 31.0911 32.9443 31.0023 32.4791Z" fill="#777878"/>
<path d="M35.99 31.2993C35.9888 30.9452 36.0583 30.5944 36.1943 30.2674C36.3303 29.9404 36.5302 29.6439 36.7822 29.3951C37.0342 29.1463 37.3333 28.9503 37.662 28.8185C37.9907 28.6867 38.3423 28.6218 38.6964 28.6276C39.2227 28.6002 39.743 28.7492 40.1751 29.0508C40.6071 29.3525 40.9262 29.7896 41.0819 30.2931L40.0409 30.6314C39.9572 30.3417 39.7779 30.0889 39.5322 29.9141C39.2865 29.7393 38.9889 29.6527 38.6877 29.6685C38.4797 29.6668 38.2736 29.7082 38.0823 29.7899C37.8911 29.8716 37.7187 29.992 37.5762 30.1435C37.4337 30.295 37.324 30.4744 37.254 30.6703C37.1841 30.8662 37.1554 31.0744 37.1697 31.282C37.1542 31.4921 37.1822 31.7033 37.2519 31.9022C37.3215 32.1011 37.4314 32.2835 37.5746 32.4381C37.7178 32.5927 37.8913 32.7162 38.0843 32.8008C38.2773 32.8855 38.4857 32.9295 38.6964 32.9301C38.9999 32.9407 39.2984 32.8502 39.5449 32.6727C39.7914 32.4953 39.972 32.2411 40.0583 31.9499L41.1079 32.2882C40.9522 32.8071 40.6281 33.2594 40.1866 33.5736C39.7452 33.8878 39.2117 34.0459 38.6704 34.0231C38.3117 34.0342 37.9545 33.9711 37.6214 33.8376C37.2883 33.7041 36.9863 33.5031 36.7346 33.2473C36.4829 32.9915 36.2868 32.6864 36.1586 32.3512C36.0305 32.0159 35.9731 31.6578 35.99 31.2993Z" fill="#777878"/>
<path d="M44.9073 29.8681C44.7219 29.8509 44.5349 29.8756 44.3604 29.9405C44.1859 30.0054 44.0282 30.1087 43.899 30.2429C43.7699 30.377 43.6726 30.5385 43.6144 30.7154C43.5561 30.8923 43.5385 31.08 43.5627 31.2647V33.867H42.4091V28.7057H43.5367V29.5038C43.6718 29.2447 43.8747 29.0272 44.1237 28.8744C44.3727 28.7216 44.6585 28.6393 44.9507 28.6363C45.046 28.6296 45.1416 28.6296 45.2369 28.6363V29.816C45.1262 29.8276 45.0162 29.8449 44.9073 29.8681Z" fill="#777878"/>
<path d="M46.9372 26.2943C47.1396 26.2943 47.3338 26.3747 47.4769 26.5178C47.6201 26.661 47.7005 26.8551 47.7005 27.0576C47.6805 27.2449 47.5918 27.4182 47.4517 27.5441C47.3116 27.67 47.1299 27.7397 46.9415 27.7397C46.7531 27.7397 46.5714 27.67 46.4313 27.5441C46.2912 27.4182 46.2025 27.2449 46.1825 27.0576C46.1825 26.8566 46.2617 26.6638 46.403 26.5209C46.5443 26.378 46.7362 26.2965 46.9372 26.2943ZM47.5184 33.893V28.7318H46.3647V33.893H47.5184Z" fill="#777878"/>
<path d="M52.1417 33.9971C51.8152 33.9885 51.4949 33.906 51.205 33.7557C50.915 33.6055 50.6629 33.3914 50.4676 33.1297V36.4259H49.3138V28.7231H50.4068V29.5211C50.6049 29.2476 50.866 29.026 51.1681 28.875C51.4701 28.724 51.8041 28.6481 52.1417 28.6537C52.8503 28.6537 53.5298 28.9351 54.0309 29.4362C54.5319 29.9372 54.8134 30.6168 54.8134 31.3254C54.8134 32.034 54.5319 32.7135 54.0309 33.2146C53.5298 33.7156 52.8503 33.9971 52.1417 33.9971ZM51.9942 32.9562C52.3177 32.9648 52.6365 32.8769 52.9099 32.7038C53.1833 32.5307 53.3991 32.2801 53.5296 31.984C53.6602 31.6879 53.6998 31.3597 53.6432 31.041C53.5867 30.7224 53.4366 30.4278 53.2121 30.1947C52.9876 29.9616 52.6988 29.8006 52.3825 29.7321C52.0662 29.6636 51.7367 29.6908 51.4359 29.8102C51.1351 29.9296 50.8766 30.1357 50.6934 30.4025C50.5101 30.6692 50.4104 30.9844 50.4068 31.308C50.3962 31.5173 50.4283 31.7265 50.5012 31.9229C50.574 32.1194 50.6861 32.2989 50.8305 32.4507C50.975 32.6024 51.1488 32.7232 51.3414 32.8056C51.534 32.888 51.7414 32.9304 51.9509 32.9301L51.9942 32.9562Z" fill="#777878"/>
<path d="M57.5546 29.764V32.2622C57.5546 32.7046 57.7801 32.9302 58.3526 32.9302C58.5086 32.939 58.665 32.939 58.821 32.9302V33.9017C58.5522 33.973 58.2751 34.008 57.997 34.0058C56.9821 34.0058 56.4096 33.6154 56.4096 32.3576V29.8334H55.412V28.8012H56.4096V27.2051H57.5546V28.8012H58.8644V29.8334L57.5546 29.764Z" fill="#777878"/>
<path d="M60.8162 26.2943C61.0171 26.2965 61.2091 26.378 61.3504 26.5209C61.4917 26.6638 61.5709 26.8566 61.5709 27.0576C61.5709 27.2578 61.4913 27.4497 61.3498 27.5912C61.2083 27.7328 61.0163 27.8123 60.8162 27.8123C60.616 27.8123 60.4241 27.7328 60.2826 27.5912C60.141 27.4497 60.0615 27.2578 60.0615 27.0576C60.0615 26.8566 60.1407 26.6638 60.282 26.5209C60.4233 26.378 60.6152 26.2965 60.8162 26.2943ZM61.3974 33.893V28.7318H60.2437V33.893H61.3974Z" fill="#777878"/>
<path d="M65.5178 28.6276C66.0456 28.6379 66.5586 28.8037 66.9925 29.1044C67.4264 29.4051 67.7618 29.8272 67.9567 30.3178C68.1517 30.8084 68.1974 31.3456 68.0881 31.8621C67.9789 32.3786 67.7196 32.8513 67.3428 33.221C66.9659 33.5906 66.4883 33.8408 65.9698 33.9401C65.4514 34.0394 64.9151 33.9833 64.4284 33.779C63.9416 33.5747 63.526 33.2312 63.2337 32.7916C62.9415 32.352 62.7855 31.8359 62.7854 31.308C62.7817 30.9506 62.8503 30.5961 62.987 30.2658C63.1237 29.9355 63.3256 29.6363 63.5808 29.386C63.836 29.1357 64.1391 28.9394 64.4719 28.8091C64.8048 28.6788 65.1605 28.6171 65.5178 28.6276ZM65.5178 32.9648C65.8442 32.9804 66.1678 32.898 66.447 32.7283C66.7263 32.5587 66.9485 32.3094 67.0851 32.0126C67.2217 31.7158 67.2665 31.3849 67.2137 31.0624C67.1609 30.74 67.013 30.4406 66.7889 30.2028C66.5648 29.965 66.2747 29.7996 65.956 29.7278C65.6372 29.656 65.3042 29.6811 64.9998 29.7999C64.6954 29.9187 64.4334 30.1257 64.2475 30.3944C64.0616 30.6631 63.9602 30.9813 63.9564 31.308C63.9495 31.5182 63.9846 31.7277 64.0597 31.9241C64.1349 32.1206 64.2485 32.3 64.394 32.4519C64.5394 32.6039 64.7137 32.7252 64.9067 32.8088C65.0997 32.8924 65.3075 32.9366 65.5178 32.9388V32.9648Z" fill="#777878"/>
<path d="M71.9455 29.7119C71.7783 29.7086 71.6124 29.7408 71.4587 29.8065C71.3049 29.8721 71.1668 29.9697 71.0537 30.0927C70.9405 30.2157 70.8547 30.3614 70.8021 30.5201C70.7495 30.6788 70.7312 30.8468 70.7484 31.0131V33.893H69.5947V28.7317H70.7224V29.4257C70.9023 29.1779 71.1384 28.9764 71.4114 28.8376C71.6843 28.6989 71.9863 28.6269 72.2925 28.6276C72.5637 28.614 72.8347 28.6601 73.0862 28.7626C73.3377 28.8651 73.5637 29.0215 73.7482 29.2209C73.9327 29.4202 74.0711 29.6577 74.1538 29.9164C74.2366 30.1751 74.2615 30.4488 74.2269 30.7182V33.893H73.0819V31.0044C73.0819 30.2671 72.7349 29.7119 71.9455 29.7119Z" fill="#777878"/>
<path d="M81.3744 31.0912H80.0212V33.893H78.8328V26.3203H81.5132C83.4129 26.3203 84.1589 27.5 84.1589 28.6797C84.1589 29.8594 83.1961 31.0912 81.3744 31.0912ZM81.3744 27.4219H79.9865V30.0242H81.3744C82.5195 30.0242 82.9185 29.3216 82.9185 28.7317C82.9185 28.1419 82.6496 27.4219 81.4091 27.4219H81.3744Z" fill="#777878"/>
<path d="M85.4168 33.893V26.0167H86.5705V33.893H85.4168Z" fill="#777878"/>
<path d="M91.2893 33.893C91.2528 33.6577 91.2354 33.4198 91.2373 33.1817C91.0759 33.4335 90.852 33.6394 90.5876 33.7792C90.3231 33.9191 90.027 33.9881 89.7279 33.9797C89.5129 34.0012 89.2957 33.9783 89.0899 33.9125C88.8841 33.8466 88.6939 33.7392 88.5313 33.5969C88.3687 33.4546 88.237 33.2804 88.1444 33.0852C88.0518 32.8899 88.0003 32.6777 87.993 32.4617V32.401C87.993 31.2039 89.2422 30.8309 90.1356 30.8309H90.7775C91.1245 30.8309 91.2546 30.6401 91.2546 30.3972C91.2546 29.9808 90.925 29.6078 90.2397 29.6078C89.9776 29.5864 89.7168 29.6634 89.5084 29.8238C89.2999 29.9841 89.1586 30.2164 89.112 30.4753L88.0711 30.2411C88.1341 29.9315 88.2723 29.6422 88.4735 29.3986C88.6747 29.1551 88.9327 28.9648 89.2248 28.8445C89.5571 28.7061 89.9145 28.6381 90.2744 28.6449C90.6661 28.6046 91.0608 28.6842 91.4063 28.8731C91.7517 29.0621 92.0316 29.3516 92.2088 29.7032C92.3369 29.9922 92.3962 30.3069 92.3823 30.6227V33.0776C92.376 33.3674 92.3905 33.6573 92.4257 33.945L91.2893 33.893ZM91.2373 31.6376H90.127C89.6932 31.6376 89.1381 31.8718 89.1381 32.3576C89.141 32.4588 89.1649 32.5584 89.2084 32.6498C89.2519 32.7413 89.314 32.8227 89.3908 32.8888C89.4675 32.9549 89.5572 33.0043 89.6541 33.0338C89.7509 33.0633 89.8529 33.0723 89.9535 33.0602C90.1237 33.0757 90.2953 33.0541 90.4563 32.9967C90.6173 32.9394 90.764 32.8477 90.8861 32.7281C91.0082 32.6084 91.1028 32.4637 91.1635 32.3039C91.2241 32.1441 91.2493 31.973 91.2373 31.8024V31.6376Z" fill="#777878"/>
<path d="M95.5919 29.764V32.2622C95.5919 32.7046 95.8174 32.9302 96.3899 32.9302C96.5459 32.9392 96.7023 32.9392 96.8583 32.9302V33.9017C96.5896 33.9735 96.3124 34.0085 96.0343 34.0058C95.0194 34.0058 94.4468 33.6154 94.4468 32.3576V29.8334H93.4493V28.8012H94.4468V27.2051H95.5919V28.8012H96.9104V29.8334L95.5919 29.764Z" fill="#777878"/>
<path d="M98.7754 33.893V29.7466H97.7865V28.7317H98.7754V28.1332C98.7754 26.5718 99.6428 25.9993 100.675 25.9993C100.895 25.9983 101.114 26.0275 101.326 26.086V27.0576C101.19 27.0221 101.049 27.0075 100.909 27.0142C100.597 27.0142 99.9291 27.1356 99.9291 28.1072V28.7231H101.282V29.738H99.9291V33.8843L98.7754 33.893Z" fill="#777878"/>
<path d="M104.709 28.6276C105.236 28.6379 105.749 28.8037 106.183 29.1044C106.617 29.4051 106.953 29.8272 107.148 30.3178C107.342 30.8084 107.388 31.3456 107.279 31.8621C107.17 32.3786 106.91 32.8513 106.534 33.221C106.157 33.5906 105.679 33.8408 105.161 33.9401C104.642 34.0394 104.106 33.9833 103.619 33.779C103.132 33.5747 102.717 33.2312 102.424 32.7916C102.132 32.352 101.976 31.8359 101.976 31.308C101.974 30.9509 102.043 30.597 102.18 30.2672C102.317 29.9375 102.519 29.6388 102.774 29.3887C103.029 29.1386 103.332 28.9424 103.664 28.8116C103.996 28.6809 104.352 28.6183 104.709 28.6276ZM104.709 32.9648C105.035 32.9804 105.359 32.898 105.638 32.7283C105.917 32.5587 106.139 32.3094 106.276 32.0126C106.412 31.7158 106.457 31.3849 106.404 31.0624C106.352 30.74 106.204 30.4406 105.98 30.2028C105.756 29.965 105.465 29.7996 105.147 29.7278C104.828 29.656 104.495 29.6811 104.191 29.7999C103.886 29.9187 103.624 30.1257 103.438 30.3944C103.252 30.6631 103.151 30.9813 103.147 31.308C103.14 31.5182 103.175 31.7277 103.25 31.9241C103.326 32.1206 103.439 32.3 103.585 32.4519C103.73 32.6039 103.905 32.7252 104.098 32.8088C104.291 32.8924 104.498 32.9366 104.709 32.9388V32.9648Z" fill="#777878"/>
<path d="M111.284 29.8681C111.098 29.8509 110.911 29.8756 110.737 29.9405C110.562 30.0054 110.405 30.1087 110.276 30.2429C110.146 30.377 110.049 30.5385 109.991 30.7154C109.933 30.8923 109.915 31.08 109.939 31.2647V33.867H108.786V28.7057H109.913V29.5038C110.048 29.2447 110.251 29.0272 110.5 28.8744C110.749 28.7216 111.035 28.6393 111.327 28.6363C111.423 28.6296 111.518 28.6296 111.613 28.6363V29.816C111.503 29.8276 111.393 29.8449 111.284 29.8681Z" fill="#777878"/>
<path d="M115.066 29.7032C114.346 29.7032 113.93 30.241 113.93 31.0131V33.893H112.776V28.7317H113.895V29.4256C114.07 29.1788 114.302 28.977 114.57 28.8367C114.838 28.6965 115.136 28.6219 115.439 28.6189C115.758 28.6035 116.075 28.6763 116.355 28.8294C116.635 28.9824 116.867 29.2097 117.026 29.4863C117.237 29.2118 117.51 28.9904 117.821 28.8397C118.133 28.6891 118.476 28.6135 118.822 28.6189C120.132 28.6189 120.704 29.5384 120.704 30.7094V33.893H119.551V30.9783C119.551 30.2497 119.247 29.7032 118.449 29.7032C118.285 29.7029 118.123 29.7377 117.974 29.8053C117.825 29.8729 117.692 29.9717 117.584 30.095C117.477 30.2184 117.397 30.3634 117.35 30.5202C117.303 30.6771 117.29 30.8422 117.313 31.0044V33.893H116.168V30.9957C116.168 30.2584 115.855 29.7032 115.066 29.7032Z" fill="#777878"/>
<path d="M0.0954068 18.6955C0.0651262 18.6663 0.0410703 18.6313 0.0246732 18.5925C0.00827604 18.5538 -0.000111348 18.5121 1.11618e-06 18.47V0.323146C0.00219521 0.238716 0.0366914 0.158357 0.0964128 0.0986354C0.156134 0.0389141 0.23652 0.00439136 0.32095 0.00219727H1.10164C1.18607 0.00439136 1.26643 0.0389141 1.32615 0.0986354C1.38587 0.158357 1.42039 0.238716 1.42259 0.323146V18.47C1.42039 18.5544 1.38587 18.6348 1.32615 18.6945C1.26643 18.7542 1.18607 18.7888 1.10164 18.791H0.32095C0.278867 18.7911 0.237193 18.7827 0.198436 18.7663C0.15968 18.7499 0.124631 18.7258 0.0954068 18.6955Z" fill="#5A4194"/>
<path d="M11.8664 18.6954C11.8361 18.6662 11.8121 18.6312 11.7957 18.5924C11.7793 18.5536 11.7709 18.512 11.771 18.4699V0.32303C11.7732 0.2386 11.8077 0.158241 11.8674 0.0985198C11.9272 0.0387985 12.0075 0.00427577 12.0919 0.00208168H12.8987C12.9753 -0.00243747 13.0515 0.0157144 13.1178 0.0542848C13.1842 0.0928552 13.2377 0.150133 13.2717 0.218942L22.9089 15.8329C22.9089 15.8936 22.9523 15.9109 22.987 15.9023C23.0217 15.8936 23.0391 15.8589 23.0391 15.8068V0.32303C23.0413 0.2386 23.0758 0.158241 23.1355 0.0985198C23.1952 0.0387985 23.2756 0.00427577 23.36 0.00208168H24.1407C24.1828 0.00196921 24.2245 0.0103566 24.2632 0.0267537C24.302 0.0431509 24.337 0.0672332 24.3662 0.0975138C24.3978 0.125708 24.4228 0.160537 24.4393 0.199538C24.4558 0.238538 24.4634 0.28072 24.4616 0.32303V18.4699C24.4634 18.5122 24.4558 18.5544 24.4393 18.5934C24.4228 18.6324 24.3978 18.6672 24.3662 18.6954C24.337 18.7257 24.302 18.7498 24.2632 18.7662C24.2245 18.7826 24.1828 18.7909 24.1407 18.7908H23.334C23.2574 18.7954 23.1811 18.7772 23.1148 18.7386C23.0485 18.7001 22.9949 18.6428 22.961 18.574L13.3237 2.96006C13.3237 2.90801 13.2804 2.89065 13.2457 2.89933C13.211 2.908 13.1936 2.89934 13.1936 2.99476V18.4699C13.1914 18.5543 13.1569 18.6347 13.0972 18.6944C13.0375 18.7541 12.9571 18.7886 12.8727 18.7908H12.0919C12.0499 18.7909 12.0082 18.7826 11.9695 18.7662C11.9307 18.7498 11.8957 18.7257 11.8664 18.6954Z" fill="#5A4194"/>
<path d="M46.1826 1.17318C46.1534 1.20346 46.1183 1.22751 46.0796 1.24391C46.0408 1.26031 45.9991 1.2687 45.9571 1.26858H35.8687C35.7993 1.26858 35.756 1.2686 35.756 1.3727V8.6158C35.7546 8.63094 35.7567 8.6462 35.7619 8.66049C35.7671 8.67477 35.7753 8.68773 35.7861 8.69847C35.7968 8.70922 35.8098 8.7175 35.8241 8.7227C35.8384 8.72789 35.8536 8.7299 35.8687 8.72857H43.0078C43.0493 8.72682 43.0908 8.73361 43.1295 8.74853C43.1683 8.76345 43.2037 8.78619 43.2333 8.81532C43.2942 8.87812 43.3284 8.96205 43.3287 9.04952V9.70878C43.3265 9.79321 43.292 9.87357 43.2323 9.93329C43.1726 9.99302 43.0922 10.0275 43.0078 10.0297H35.8687C35.7993 10.0297 35.756 10.0297 35.756 10.1338V18.5133C35.7577 18.5548 35.7509 18.5963 35.736 18.6351C35.7211 18.6739 35.6984 18.7092 35.6692 18.7388C35.6064 18.7997 35.5225 18.8339 35.435 18.8342H34.663C34.6195 18.835 34.5764 18.827 34.5361 18.8106C34.4958 18.7942 34.4593 18.7698 34.4288 18.7388C34.3985 18.7096 34.3744 18.6746 34.358 18.6358C34.3417 18.5971 34.3333 18.5554 34.3334 18.5133V0.323076C34.3333 0.280994 34.3417 0.23932 34.358 0.200563C34.3744 0.161806 34.3985 0.126784 34.4288 0.0975599C34.4593 0.0666224 34.4958 0.0421961 34.5361 0.0257938C34.5764 0.00939155 34.6195 0.00134151 34.663 0.0021277H45.9397C46.0242 0.00432179 46.1045 0.0388445 46.1642 0.0985658C46.224 0.158287 46.2585 0.238646 46.2607 0.323076V0.947634C46.2655 1.03018 46.2375 1.1113 46.1826 1.17318Z" fill="#5A4194"/>
<path d="M54.5533 18.6954C54.523 18.6662 54.499 18.6312 54.4826 18.5924C54.4662 18.5537 54.4578 18.512 54.4579 18.4699V0.323076C54.4578 0.280994 54.4662 0.23932 54.4826 0.200563C54.499 0.161806 54.523 0.126784 54.5533 0.0975599C54.5838 0.0666224 54.6204 0.0421961 54.6606 0.0257938C54.7009 0.00939155 54.744 0.00134151 54.7875 0.0021277H55.5595C55.647 0.00245971 55.7309 0.0366717 55.7937 0.0975599C55.8229 0.127213 55.8456 0.162509 55.8605 0.201304C55.8754 0.240099 55.8822 0.281548 55.8805 0.323076V18.4699C55.8822 18.5115 55.8754 18.5529 55.8605 18.5917C55.8456 18.6305 55.8229 18.6658 55.7937 18.6954C55.7309 18.7563 55.647 18.7906 55.5595 18.7909H54.7875C54.744 18.7917 54.7009 18.7836 54.6606 18.7672C54.6204 18.7508 54.5838 18.7264 54.5533 18.6954Z" fill="#5A4194"/>
<path d="M89.9189 18.6954C89.8886 18.6662 89.8646 18.6312 89.8482 18.5924C89.8318 18.5537 89.8234 18.512 89.8235 18.4699V0.323076C89.8234 0.280994 89.8318 0.23932 89.8482 0.200563C89.8646 0.161806 89.8886 0.126784 89.9189 0.0975599C89.9494 0.0666224 89.986 0.0421961 90.0262 0.0257938C90.0665 0.00939155 90.1097 0.00134151 90.1531 0.0021277H90.9251C91.0126 0.00245971 91.0966 0.0366717 91.1594 0.0975599C91.1885 0.127213 91.2112 0.162509 91.2261 0.201304C91.241 0.240099 91.2478 0.281548 91.2461 0.323076V18.4699C91.2478 18.5115 91.241 18.5529 91.2261 18.5917C91.2112 18.6305 91.1885 18.6658 91.1594 18.6954C91.0966 18.7563 91.0126 18.7906 90.9251 18.7909H90.1531C90.1097 18.7917 90.0665 18.7836 90.0262 18.7672C89.986 18.7508 89.9494 18.7264 89.9189 18.6954Z" fill="#5A4194"/>
<path d="M112.646 0.0975684C112.676 0.126792 112.7 0.161815 112.716 0.200572C112.733 0.239328 112.741 0.281002 112.741 0.323085V0.947643C112.739 1.03207 112.704 1.11246 112.645 1.17218C112.585 1.2319 112.505 1.2664 112.42 1.26859H107.103C107.089 1.26725 107.075 1.26902 107.061 1.27378C107.048 1.27854 107.036 1.28617 107.026 1.29612C107.016 1.30607 107.009 1.31809 107.004 1.33133C106.999 1.34457 106.997 1.3587 106.999 1.37271V18.4699C106.996 18.5544 106.962 18.6347 106.902 18.6945C106.842 18.7542 106.762 18.7887 106.678 18.7909H105.923C105.839 18.7887 105.758 18.7542 105.699 18.6945C105.639 18.6347 105.604 18.5544 105.602 18.4699V1.37271C105.603 1.3587 105.602 1.34457 105.597 1.33133C105.592 1.31809 105.585 1.30607 105.575 1.29612C105.565 1.28617 105.553 1.27854 105.539 1.27378C105.526 1.26902 105.512 1.26725 105.498 1.26859H100.449C100.365 1.2664 100.285 1.2319 100.225 1.17218C100.165 1.11246 100.131 1.03207 100.129 0.947643V0.323085C100.131 0.238655 100.165 0.158296 100.225 0.0985743C100.285 0.038853 100.365 0.00433032 100.449 0.00213623H112.446C112.522 0.00854017 112.593 0.0424898 112.646 0.0975684Z" fill="#5A4194"/>
<path d="M125.657 18.6954C125.628 18.6658 125.605 18.6305 125.591 18.5917C125.576 18.5529 125.569 18.5115 125.571 18.4699V10.2553C125.585 10.213 125.585 10.1674 125.571 10.1252L119.984 0.383796L119.932 0.21898C119.932 0.0801897 120.028 0.0021201 120.227 0.0021201H121.008C121.088 -0.000250476 121.167 0.0185823 121.237 0.0566792C121.307 0.0947762 121.365 0.150774 121.407 0.21898L126.213 8.61579C126.235 8.63268 126.262 8.64182 126.291 8.64182C126.319 8.64182 126.346 8.63268 126.369 8.61579L131.174 0.21898C131.216 0.150774 131.274 0.0947762 131.344 0.0566792C131.415 0.0185823 131.494 -0.000250476 131.573 0.0021201H132.354C132.405 -0.00399959 132.456 0.00318452 132.503 0.0229537C132.55 0.0427229 132.592 0.0744025 132.623 0.114892C132.675 0.184287 132.623 0.271029 132.623 0.383796L127.045 10.1252C127.031 10.1674 127.031 10.213 127.045 10.2553V18.4699C127.045 18.512 127.037 18.5537 127.021 18.5924C127.004 18.6312 126.98 18.6662 126.95 18.6954C126.887 18.7563 126.803 18.7905 126.716 18.7909H125.874C125.793 18.7862 125.716 18.7523 125.657 18.6954Z" fill="#5A4194"/>
<path d="M81.9557 18.7909C81.6621 18.7888 81.3723 18.7252 81.1048 18.6042C80.8374 18.4832 80.5983 18.3074 80.403 18.0882C78.2517 15.9023 76.0658 13.6556 74.0013 11.4784C73.2813 10.741 72.57 9.99504 71.8587 9.25771L70.1238 7.4621C68.389 5.64916 66.5586 3.76681 64.763 1.93652C64.5406 1.72314 64.2471 1.59956 63.939 1.58955C63.8055 1.58448 63.6743 1.62415 63.566 1.70229C63.4073 1.82416 63.2764 1.97852 63.1821 2.15504C63.0879 2.33157 63.0325 2.5262 63.0195 2.72589C63.0195 4.57354 63.0195 6.44719 63.0195 8.26013V15.9023C62.9974 16.2836 63.1215 16.6589 63.3665 16.9519C63.541 17.0932 63.7413 17.1992 63.9563 17.2642C64.2793 17.2559 64.5879 17.1293 64.8238 16.9085C65.6912 16.0411 66.5587 15.1736 67.3567 14.3062C67.6083 14.046 67.8598 13.7771 68.12 13.5168L68.5711 13.0484C68.792 12.8753 69.06 12.7728 69.3401 12.7542C69.6201 12.7356 69.8993 12.8019 70.1412 12.9443C69.8528 13.5671 69.4854 14.1502 69.0482 14.6792C67.9639 15.8156 66.8362 16.9866 65.7086 18.149C65.509 18.3651 65.2678 18.5388 64.9995 18.6595C64.7312 18.7802 64.4413 18.8456 64.1472 18.8516C63.7944 18.845 63.4465 18.7683 63.1236 18.6261C62.6739 18.4717 62.286 18.1765 62.0173 17.7843C61.7485 17.3922 61.6133 16.9238 61.6316 16.4488C61.6316 14.8093 61.6316 13.1438 61.6316 11.5304V2.63046C61.62 2.2965 61.6751 1.96358 61.7936 1.65115C61.9121 1.33871 62.0917 1.05302 62.3218 0.81076C62.552 0.568496 62.8281 0.374526 63.1341 0.240153C63.44 0.105779 63.7697 0.0336982 64.1038 0.0281372C64.433 0.0402392 64.7563 0.118701 65.0544 0.258816C65.3526 0.39893 65.6193 0.597813 65.8387 0.843533C68.7012 3.8015 71.6071 6.8202 74.4176 9.73479L78.0609 13.5168C78.2778 13.7511 78.5033 13.9766 78.7202 14.2021C79.5442 15.0695 80.403 15.937 81.2618 16.8044C81.5071 17.0509 81.8342 17.1991 82.1812 17.2208H82.3027C82.5976 17.1774 83.0921 16.9779 83.0834 16.0845V2.94275C83.1039 2.68762 83.0522 2.43185 82.9341 2.20478C82.8159 1.97772 82.6362 1.78853 82.4154 1.65893C82.2264 1.59075 82.0212 1.58076 81.8264 1.63023C81.6316 1.67971 81.4561 1.78638 81.3225 1.93652C80.455 2.80396 79.5876 3.6714 78.7722 4.53884L78.0262 5.31084L77.5838 5.77059C77.4071 5.9602 77.1688 6.08088 76.9115 6.11107C76.6541 6.14126 76.3943 6.07899 76.1785 5.9354C76.3486 5.30484 76.6435 4.71487 77.046 4.20052C78.1563 3.03815 79.3013 1.84108 80.455 0.730762C80.6497 0.519534 80.8856 0.350498 81.1482 0.234117C81.4108 0.117737 81.6945 0.0564886 81.9817 0.0541593C82.3335 0.0619436 82.6806 0.135497 83.0053 0.271019C83.4493 0.421729 83.834 0.70964 84.1037 1.09319C84.3734 1.47674 84.5143 1.93609 84.506 2.40491C84.506 7.03704 84.506 11.7559 84.506 16.4401C84.5138 16.9078 84.3726 17.3658 84.1028 17.7479C83.833 18.1299 83.4486 18.4162 83.0053 18.5653C82.6744 18.711 82.3172 18.7877 81.9557 18.7909Z" fill="#5A4194"/>
<path d="M63.9476 17.2642C64.2678 17.2431 64.5723 17.1183 64.8151 16.9085C65.6825 16.0411 66.55 15.1736 67.348 14.3062C67.5996 14.046 67.8511 13.7771 68.1114 13.5169L68.5624 13.0484L69.4732 12.0942C69.5063 12.0612 69.5455 12.035 69.5886 12.0171C69.6318 11.9992 69.6781 11.99 69.7248 11.99C69.7715 11.99 69.8178 11.9992 69.861 12.0171C69.9041 12.035 69.9433 12.0612 69.9764 12.0942L70.5055 12.6494C70.5691 12.7143 70.6047 12.8015 70.6047 12.8923C70.6047 12.9831 70.5691 13.0703 70.5055 13.1352C70.0197 13.6383 69.534 14.1501 69.0395 14.6532C67.9639 15.7809 67.4521 16.3273 66.3505 17.4377C66.3302 17.4644 66.3033 17.4854 66.2724 17.4984C65.8935 17.6433 65.4859 17.6975 65.0823 17.6569C64.6786 17.6162 64.2901 17.4817 63.9476 17.2642Z" fill="#B6ADD2"/>
<path d="M82.1205 1.58088C81.9593 1.57773 81.7991 1.60765 81.6499 1.66882C81.5007 1.72999 81.3657 1.82112 81.2531 1.93653C80.3856 2.80397 79.5182 3.67141 78.7288 4.53885L77.9655 5.33688L77.5144 5.80531C77.2975 6.02217 76.9505 6.38649 76.6903 6.67275C76.5993 6.76333 76.4761 6.81419 76.3477 6.81419C76.2193 6.81419 76.0961 6.76333 76.0051 6.67275L75.6494 6.29107C75.6067 6.24838 75.5727 6.19767 75.5496 6.14185C75.5265 6.08603 75.5145 6.02621 75.5145 5.96578C75.5145 5.90536 75.5265 5.84553 75.5496 5.78972C75.5727 5.7339 75.6067 5.68319 75.6494 5.64049L77.0286 4.20054C78.0956 3.09889 78.6681 2.46568 79.7437 1.39873C79.7873 1.34601 79.8493 1.31188 79.9172 1.30329C80.6616 1.13819 81.4403 1.2363 82.1205 1.58088Z" fill="#B6ADD2"/>
</svg>
