<svg width="136" height="45" viewBox="0 0 136 45" fill="none" xmlns="http://www.w3.org/2000/svg">
<g clip-path="url(#clip0_223_14851)">
<path d="M6.24913 15.5518H0V43.9712H6.24913V15.5518Z" fill="white"/>
<path d="M6.24913 2.48047H0V7.37928H6.24913V2.48047Z" fill="white"/>
<path d="M71.0013 2.48047H64.7522V43.9712H71.0013V2.48047Z" fill="white"/>
<path d="M39.0255 30.0994C38.9627 25.8758 39.1511 21.1104 36.1443 17.766C35.2323 16.7472 34.072 15.9818 32.7764 15.5443C25.8914 13.1891 19.3832 16.0232 16.5962 19.87V15.5364H10.7239V43.9637H16.5962V25.0593C17.978 22.9776 19.9028 21.3134 22.1623 20.2468C25.1298 18.7631 29.0395 18.716 31.4496 21.2753C32.4598 22.3763 33.0201 23.8163 33.0198 25.3105C33.0198 26.5745 32.9727 44.1521 33.0198 44.1521H39.002C39.1433 44.1443 39.0412 31.3006 39.0255 30.0994Z" fill="white"/>
<path d="M96.5709 15.5364V34.6371C95.1883 36.7123 93.2631 38.3686 91.0048 39.426C88.0451 40.9098 84.1276 40.9961 81.7253 38.4054C80.7131 37.3056 80.1525 35.8648 80.1552 34.3702C80.1552 33.1062 80.2023 15.5286 80.1552 15.5286H74.016C73.8982 15.5286 74.016 28.3723 74.016 29.5813C74.0788 33.8049 74.016 38.5702 77.0463 41.9146C77.9652 42.9274 79.127 43.6894 80.4221 44.1285C87.3071 46.4837 93.8075 43.6496 96.5945 39.8107V44.1285H102.475V15.5364H96.5709Z" fill="white"/>
<path d="M56.878 4.74942C57.8126 4.71858 58.7466 4.82704 59.6493 5.07128C59.7278 5.07128 60.7562 5.33822 60.7562 5.44028V0.619963C50.5504 -1.73524 46.7742 3.3677 45.7301 5.82496C44.6859 8.28221 45.0235 13.6756 45.0235 13.6756V15.442H40.3131V20.1053H45.0235V43.9478H51.304V20.1288H60.7876V15.4655H51.2726V13.024C51.3119 10.975 51.0371 8.65121 52.3639 6.91621C52.9133 6.24834 53.6019 5.70844 54.3816 5.33419C55.1613 4.95995 56.0132 4.76038 56.878 4.74942Z" fill="white"/>
<path d="M135.361 44.0576L125.344 31.5515L121.418 36.097L127.958 44.0576H135.361Z" fill="#DA802E"/>
<path d="M105.246 15.3481L116.598 29.9111L104.516 44.058H111.055L123.208 29.7934L111.715 15.3481H105.246Z" fill="#D25B2B"/>
<path d="M128.342 15.3481L121.544 23.6855L125.304 28.4509L135.738 15.3481H128.342Z" fill="#DA802E"/>
</g>
<defs>
<clipPath id="clip0_223_14851">
<rect width="135.738" height="45" fill="white"/>
</clipPath>
</defs>
</svg>
