<svg width="124" height="45" viewBox="0 0 124 45" fill="none" xmlns="http://www.w3.org/2000/svg">
<path d="M2.85388 5.70776C4.43004 5.70776 5.70774 4.43003 5.70774 2.85388C5.70774 1.27773 4.43004 0 2.85388 0C1.27773 0 0 1.27773 0 2.85388C0 4.43003 1.27773 5.70776 2.85388 5.70776Z" fill="black"/>
<path d="M96.4953 6.29864L93.2216 10.4557L96.6904 13.1874L99.9641 9.03029L96.4953 6.29864Z" fill="#EF913C"/>
<path d="M53.9547 40.7697C54.1589 40.8775 54.332 41.0358 54.4578 41.2295C54.5805 41.4336 54.6436 41.6679 54.6399 41.906C54.6439 42.0938 54.6072 42.2801 54.5323 42.4523C54.4574 42.6245 54.3462 42.7785 54.2062 42.9036C54.0695 43.0357 53.9078 43.1391 53.7305 43.2076C53.5532 43.2762 53.3639 43.3085 53.174 43.3027H51.0748V38.419H53.0178C53.3926 38.4109 53.7561 38.5476 54.0327 38.8007C54.1675 38.9234 54.2745 39.0736 54.3463 39.2412C54.4181 39.4088 54.4532 39.5899 54.4491 39.7722C54.4559 39.9664 54.4143 40.1593 54.328 40.3334C54.2417 40.5076 54.1134 40.6575 53.9547 40.7697ZM53.0178 39.1736H51.8815V40.4574H53.0178C53.1009 40.4591 53.1834 40.443 53.2597 40.4101C53.336 40.3771 53.4044 40.3282 53.4602 40.2666C53.52 40.2081 53.5671 40.1377 53.5984 40.0601C53.6298 39.9825 53.6447 39.8992 53.6424 39.8155C53.6449 39.7305 53.6301 39.6459 53.5987 39.5669C53.5674 39.4878 53.5203 39.416 53.4602 39.3558C53.403 39.2966 53.3341 39.2499 53.258 39.2186C53.1819 39.1873 53.1001 39.172 53.0178 39.1736ZM53.174 42.548C53.2615 42.5484 53.3482 42.531 53.4288 42.4966C53.5093 42.4623 53.582 42.4119 53.6424 42.3485C53.7056 42.2847 53.7551 42.2088 53.7879 42.1253C53.8207 42.0418 53.8361 41.9524 53.8332 41.8627C53.8352 41.7731 53.8193 41.6841 53.7865 41.6007C53.7538 41.5173 53.7047 41.4412 53.6424 41.3769C53.582 41.3135 53.5093 41.263 53.4288 41.2287C53.3482 41.1944 53.2615 41.177 53.174 41.1774H51.8815V42.548H53.174Z" fill="#58595B"/>
<path d="M57.5027 39.8156H58.3007L56.9648 43.4155C56.8751 43.8006 56.6513 44.1412 56.3335 44.3764C56.0156 44.6116 55.6245 44.726 55.23 44.6993V43.988C55.4338 44.0123 55.6392 43.9563 55.8025 43.8318C55.9673 43.6914 56.0904 43.5084 56.1581 43.3027V43.2333L54.6835 39.8069H55.5076L56.5485 42.3398L57.5027 39.8156Z" fill="#58595B"/>
<path d="M60.4866 37.0484H61.5188V43.32H60.4866V37.0484Z" fill="#58595B"/>
<path d="M65.2401 38.7052C65.4712 38.6964 65.7017 38.7358 65.9167 38.821C66.1318 38.9061 66.3268 39.035 66.4892 39.1997C66.8167 39.5719 66.985 40.0578 66.9577 40.5529V43.3027H65.9948V40.6483C66.0047 40.5095 65.986 40.37 65.9397 40.2386C65.8934 40.1073 65.8206 39.987 65.7259 39.885C65.6278 39.7922 65.5119 39.7205 65.3851 39.6742C65.2583 39.628 65.1233 39.6082 64.9886 39.6161C64.8301 39.6035 64.6707 39.6249 64.5212 39.6787C64.3716 39.7326 64.2352 39.8177 64.1211 39.9283C63.8934 40.1986 63.7812 40.5476 63.8089 40.8999V43.3027H62.846V38.8267H63.8089V39.3992C63.9606 39.1632 64.1745 38.9735 64.427 38.8511C64.6795 38.7287 64.9608 38.6782 65.2401 38.7052Z" fill="#58595B"/>
<path d="M70.5228 36.9183C70.9924 36.9229 71.4603 36.9752 71.9194 37.0744V43.3026H70.9565V37.777H70.5228C69.8202 37.777 69.4645 38.098 69.4645 38.7399V38.8353H70.332V39.7635H69.4645V43.3113H68.5017V39.7635H67.8164V38.8353H68.5017V38.7399C68.5017 37.5255 69.1783 36.9183 70.5228 36.9183Z" fill="#58595B"/>
<path d="M75.9705 38.8267H76.916V43.3027H75.9445V42.7301C75.7952 42.9577 75.5879 43.1412 75.3438 43.2617C75.0998 43.3822 74.828 43.4353 74.5566 43.4155C74.3261 43.4259 74.0958 43.3881 73.8807 43.3045C73.6656 43.2208 73.4704 43.0932 73.3075 42.9297C72.98 42.5575 72.8118 42.0715 72.8391 41.5764V38.8267H73.8019V41.4723C73.7933 41.6124 73.8126 41.7529 73.8588 41.8854C73.905 42.018 73.977 42.14 74.0708 42.2444C74.1688 42.3371 74.2849 42.4088 74.4117 42.4551C74.5385 42.5013 74.6734 42.5212 74.8082 42.5133C74.9595 42.5197 75.1105 42.4954 75.2522 42.4417C75.3939 42.388 75.5232 42.3061 75.6322 42.201C75.86 41.9308 75.9721 41.5818 75.9445 41.2295L75.9705 38.8267Z" fill="#58595B"/>
<path d="M82.0684 43.3027H80.9495L79.8391 41.776L78.7201 43.3027H77.5925L79.2753 41.0039L77.6792 38.8267H78.7982L79.8304 40.2319L80.8627 38.8267H81.9903L80.3856 41.0126L82.0684 43.3027Z" fill="#58595B"/>
<path d="M5.23937 8.22339H0.468445V27.5673H5.23937V8.22339Z" fill="black"/>
<path d="M76.2652 8.22339H71.4943V27.5673H76.2652V8.22339Z" fill="black"/>
<path d="M42.9904 7.69427C41.0603 7.69427 39.1736 8.26661 37.5688 9.33891C35.964 10.4112 34.7131 11.9353 33.9745 13.7185C33.2359 15.5016 33.0427 17.4638 33.4192 19.3568C33.7957 21.2498 34.7252 22.9886 36.09 24.3534C37.4548 25.7182 39.1936 26.6476 41.0866 27.0242C42.9796 27.4007 44.9417 27.2075 46.7249 26.4688C48.5081 25.7302 50.0322 24.4794 51.1045 22.8746C52.1768 21.2698 52.7491 19.3831 52.7491 17.453C52.7491 14.8648 51.721 12.3826 49.8909 10.5525C48.0608 8.72242 45.5786 7.69427 42.9904 7.69427ZM42.9904 22.701C41.9482 22.7026 40.9289 22.3945 40.0622 21.8156C39.1955 21.2367 38.5205 20.4132 38.1229 19.4498C37.7253 18.4864 37.623 17.4265 37.8291 16.4048C38.0352 15.3831 38.5404 14.4458 39.2804 13.7119C40.0204 12.978 40.9619 12.4806 41.9853 12.283C43.0086 12.0854 44.0676 12.1964 45.0277 12.602C45.9878 13.0076 46.8057 13.6895 47.3773 14.5609C47.949 15.4324 48.2487 16.4541 48.2384 17.4963C48.227 18.8807 47.669 20.2044 46.686 21.1793C45.7031 22.1541 44.3748 22.701 42.9904 22.701Z" fill="black"/>
<path d="M42.9904 17.3749C41.2094 17.3731 39.4551 17.8079 37.8812 18.6413C38.0496 19.3807 38.3775 20.0743 38.842 20.6736C39.3065 21.273 39.8963 21.7636 40.5702 22.1111C41.3407 21.8066 42.1619 21.6506 42.9904 21.6514C44.4458 21.6495 45.8619 22.1243 47.0219 23.0032C48.182 23.8822 49.0224 25.1168 49.4145 26.5184C49.8066 27.9201 49.7289 29.4115 49.1934 30.7648C48.6578 32.1181 47.6937 33.2588 46.4486 34.0125C45.2035 34.7662 43.7458 35.0914 42.2985 34.9383C40.8511 34.7853 39.4937 34.1625 38.4337 33.1651C37.3737 32.1678 36.6695 30.8507 36.4287 29.4153C36.188 27.9799 36.4239 26.5052 37.1004 25.2165C35.8913 24.2986 34.914 23.1103 34.2466 21.7468C32.7757 23.7152 32.0123 26.1226 32.0799 28.5789C32.1476 31.0353 33.0423 33.397 34.6192 35.2815C36.1961 37.1661 38.363 38.4632 40.769 38.9629C43.1749 39.4627 45.6791 39.1358 47.8761 38.0351C50.0731 36.9344 51.8343 35.1244 52.8746 32.8981C53.9148 30.6719 54.1732 28.1597 53.6079 25.7683C53.0426 23.3769 51.6868 21.2463 49.7599 19.7214C47.8329 18.1966 45.4477 17.3667 42.9904 17.3662V17.3749Z" fill="#F05A22"/>
<path d="M49.5026 6.29701L46.2289 10.4542L49.6977 13.1858L52.9714 9.02866L49.5026 6.29701Z" fill="black"/>
<path d="M65.5612 8.05854C63.6311 8.05854 61.7444 8.63087 60.1396 9.70317C58.5348 10.7755 57.2839 12.2996 56.5453 14.0828C55.8067 15.8659 55.6135 17.8281 55.99 19.7211C56.3665 21.6141 57.296 23.3529 58.6608 24.7177C60.0256 26.0825 61.7643 27.0119 63.6573 27.3884C65.5504 27.765 67.5125 27.5717 69.2957 26.8331C71.0789 26.0945 72.603 24.8437 73.6753 23.2389C74.7476 21.6341 75.3199 19.7473 75.3199 17.8172C75.321 16.5354 75.0694 15.2659 74.5794 14.0814C74.0894 12.8969 73.3706 11.8207 72.4642 10.9142C71.5578 10.0078 70.4815 9.28909 69.297 8.79907C68.1125 8.30905 66.843 8.0574 65.5612 8.05854ZM65.5612 23.0653C64.5211 23.0653 63.5045 22.7567 62.6399 22.1787C61.7752 21.6007 61.1015 20.7793 60.7038 19.8182C60.3062 18.8572 60.2026 17.7998 60.4061 16.7798C60.6097 15.7599 61.1112 14.8233 61.8472 14.0885C62.5833 13.3537 63.5207 12.8537 64.541 12.6518C65.5613 12.45 66.6185 12.5553 67.5789 12.9545C68.5393 13.3537 69.3596 14.0288 69.9362 14.8944C70.5127 15.76 70.8196 16.7772 70.8179 17.8172C70.8179 18.5071 70.6819 19.1903 70.4176 19.8276C70.1533 20.4649 69.766 21.0438 69.2777 21.5312C68.7895 22.0187 68.2099 22.405 67.5722 22.6683C66.9345 22.9315 66.2511 23.0664 65.5612 23.0653Z" fill="black"/>
<path d="M80.2208 17.453C80.2208 19.3831 80.7932 21.2698 81.8655 22.8746C82.9378 24.4794 84.4619 25.7302 86.245 26.4688C88.0282 27.2075 89.9904 27.4007 91.8834 27.0242C93.7764 26.6476 95.5152 25.7182 96.88 24.3534C98.2448 22.9886 99.1742 21.2498 99.5507 19.3568C99.9272 17.4638 99.734 15.5016 98.9954 13.7185C98.2568 11.9353 97.006 10.4112 95.4012 9.33892C93.7964 8.26662 91.9096 7.69428 89.9795 7.69428C88.6977 7.69314 87.4282 7.94477 86.2437 8.43478C85.0592 8.9248 83.9829 9.64358 83.0765 10.55C82.1701 11.4564 81.4514 12.5326 80.9614 13.7171C80.4713 14.9016 80.2197 16.1711 80.2208 17.453ZM84.7228 17.453C84.7125 16.4112 85.012 15.3898 85.5833 14.5185C86.1547 13.6472 86.972 12.9654 87.9315 12.5595C88.8911 12.1536 89.9497 12.0421 90.9728 12.239C91.9959 12.4359 92.9374 12.9324 93.6778 13.6654C94.4182 14.3985 94.924 15.335 95.1311 16.3561C95.3382 17.3772 95.2372 18.4368 94.8409 19.4004C94.4446 20.3639 93.7709 21.188 92.9053 21.768C92.0398 22.3479 91.0214 22.6576 89.9795 22.6576C88.5943 22.6577 87.2651 22.111 86.2808 21.1364C85.2964 20.1618 84.7366 18.8381 84.7228 17.453Z" fill="#EF913C"/>
<path d="M89.9796 17.3749C91.7578 17.3731 93.5093 17.808 95.0802 18.6414C94.9127 19.3799 94.5861 20.073 94.1231 20.6722C93.6602 21.2715 93.0721 21.7626 92.3997 22.1111C90.9455 21.542 89.3375 21.5019 87.8566 21.9977C86.3757 22.4936 85.1162 23.494 84.2978 24.8241C83.4795 26.1542 83.1545 27.7295 83.3795 29.2749C83.6046 30.8203 84.3654 32.2375 85.5291 33.279C86.6927 34.3205 88.1853 34.9201 89.7461 34.973C91.3069 35.0259 92.8367 34.5289 94.0682 33.5686C95.2998 32.6084 96.1549 31.246 96.4841 29.7194C96.8134 28.1928 96.5958 26.599 95.8695 25.2165C97.0761 24.2983 98.0506 23.1099 98.7147 21.7468C100.186 23.7155 100.949 26.1233 100.881 28.58C100.813 31.0367 99.9183 33.3986 98.3407 35.2832C96.7632 37.1677 94.5957 38.4645 92.1892 38.9636C89.7827 39.4627 87.2783 39.1349 85.0814 38.0331C82.8845 36.9314 81.1238 35.1203 80.0845 32.8932C79.0452 30.6661 78.7881 28.1534 79.3549 25.762C79.9217 23.3705 81.2792 21.2405 83.2074 19.7167C85.1357 18.193 87.5219 17.3648 89.9796 17.3662V17.3749Z" fill="black"/>
<path d="M123.307 17.9647C123.309 15.6506 122.503 13.4084 121.029 11.6251C119.554 9.84178 117.503 8.62933 115.229 8.19713C112.956 7.76492 110.603 8.14009 108.577 9.25782C106.551 10.3755 104.978 12.1657 104.131 14.3192C103.284 16.4726 103.216 18.8543 103.938 21.0529C104.66 23.2514 106.127 25.129 108.085 26.3613C110.044 27.5936 112.371 28.1033 114.666 27.8024C116.96 27.5016 119.077 26.409 120.652 24.7134L117.399 21.4865C116.825 22.143 116.099 22.6486 115.284 22.9592C114.469 23.2697 113.59 23.3757 112.724 23.2679C111.859 23.16 111.033 22.8416 110.319 22.3405C109.605 21.8394 109.025 21.1709 108.629 20.3935H123.003V20.3415C123.202 19.5647 123.303 18.7664 123.307 17.9647ZM113.348 12.6386C114.395 12.6383 115.418 12.9457 116.291 13.5225C117.164 14.0994 117.848 14.9202 118.258 15.8828H108.473C108.881 14.9256 109.56 14.1085 110.426 13.5321C111.292 12.9556 112.308 12.6451 113.348 12.6386Z" fill="black"/>
<path d="M29.7358 17.2014C29.525 14.7446 28.4001 12.4564 26.5835 10.7892C24.7669 9.12191 22.3907 8.197 19.925 8.19733C18.0569 8.1965 16.2284 8.73572 14.6596 9.75005V8.23203H9.8974V27.5673H14.6596V17.904C14.671 16.5271 15.2229 15.2099 16.1966 14.2363C17.1702 13.2627 18.4874 12.7107 19.8643 12.6993C20.5405 12.705 21.2089 12.8444 21.831 13.1094C22.4531 13.3745 23.0166 13.76 23.4891 14.2438C23.9616 14.7275 24.3336 15.3 24.5839 15.9282C24.8342 16.5563 24.9578 17.2278 24.9475 17.904V27.5499H29.7098C29.7098 27.5499 29.7531 17.4182 29.7358 17.2014Z" fill="black"/>
</svg>
