<svg width="127" height="38" viewBox="0 0 127 38" fill="none" xmlns="http://www.w3.org/2000/svg">
<path d="M6.48853 31.8332H10.702V32.8161H9.10944V37.2479H8.08109V32.8161H6.48853V31.8332Z" fill="#434244"/>
<path d="M17.7276 31.8332V37.2479H16.6993V34.9637H14.4242V37.2479H13.3958V31.8332H14.4242V33.9809H16.6993V31.8332H17.7276Z" fill="#434244"/>
<path d="M24.6892 36.256V37.2479H20.858V31.8332H24.5982V32.8161H21.8681V33.9809H24.3525V34.9637H21.8681V36.256H24.6892Z" fill="#434244"/>
<path d="M32.1241 34.536C32.1234 34.7784 32.1666 35.0188 32.2515 35.2458C32.3323 35.4502 32.4494 35.6383 32.5973 35.8009C32.7347 35.9583 32.9058 36.0827 33.0978 36.165C33.2913 36.2562 33.5027 36.3028 33.7166 36.3015C33.884 36.3039 34.0505 36.2762 34.2081 36.2196C34.3525 36.169 34.4877 36.0952 34.6085 36.0011C34.7212 35.9175 34.8196 35.8161 34.8997 35.7008C34.979 35.5949 35.0433 35.4785 35.0908 35.355H36.1646C36.1002 35.6153 35.9958 35.8639 35.8552 36.0922C35.7145 36.3234 35.5361 36.5294 35.3274 36.7019C34.8781 37.0836 34.3062 37.2905 33.7166 37.2843C33.3687 37.2888 33.024 37.2174 32.7065 37.075C32.3912 36.9388 32.1066 36.7408 31.8692 36.4926C31.625 36.2279 31.4335 35.919 31.305 35.5825C31.0262 34.8906 31.0262 34.1176 31.305 33.4257C31.4345 33.0898 31.6259 32.7811 31.8692 32.5157C32.1066 32.2675 32.3912 32.0694 32.7065 31.9333C33.0253 31.7951 33.3691 31.7239 33.7166 31.724C34.027 31.7178 34.3358 31.7703 34.6267 31.8787C34.8833 31.9795 35.1204 32.1242 35.3274 32.3064C35.5361 32.4788 35.7145 32.6849 35.8552 32.9161C35.9958 33.1443 36.1002 33.393 36.1646 33.6533H35.0908C35.0532 33.5307 34.998 33.4142 34.927 33.3074C34.8503 33.1924 34.7549 33.0909 34.6449 33.0071C34.5264 32.9147 34.3944 32.841 34.2535 32.7887C34.0949 32.7364 33.9292 32.7088 33.7621 32.7068C33.5482 32.7054 33.3368 32.7521 33.1433 32.8433C32.9531 32.9288 32.7827 33.0527 32.6428 33.2073C32.4965 33.3711 32.3795 33.5589 32.297 33.7625C32.1886 34.0063 32.1298 34.2692 32.1241 34.536Z" fill="#434244"/>
<path d="M39.9418 37.2479H38.9135V31.8332H39.9418V37.2479Z" fill="#434244"/>
<path d="M47.3768 31.8332V37.2479H46.4668L44.0734 33.7261V37.2571H43.0359V31.8423H43.946L46.3576 35.3642V31.8423L47.3768 31.8332Z" fill="#434244"/>
<path d="M54.2931 36.256V37.2479H50.4709V31.8332H54.2112V32.8161H51.4811V33.9809H53.9746V34.9637H51.4811V36.256H54.2931Z" fill="#434244"/>
<path d="M62.6288 31.8332V37.2479H61.6004V34.2357L60.2263 37.2479H59.5347L58.1605 34.2357V37.2479H57.1321V31.8332H58.0422L59.8623 35.8283L61.6823 31.8332H62.6288Z" fill="#434244"/>
<path d="M66.1962 37.2479H65.1224L67.1427 31.8332H68.0527L70.073 37.2479H68.9992L68.6078 36.1286H66.5511L66.1962 37.2479ZM68.2984 35.1822L67.6159 33.2074L66.9243 35.1822H68.2984Z" fill="#434244"/>
<path d="M80.3292 36.256V37.2479H76.507V31.8332H80.2473V32.8161H77.5171V33.9809H80.0107V34.9637H77.5171V36.256H80.3292Z" fill="#434244"/>
<path d="M83.1684 37.248V31.8332H84.8884C85.2369 31.8319 85.5816 31.9064 85.8985 32.0516C86.2161 32.1932 86.5059 32.3904 86.754 32.6341C86.9998 32.8838 87.1972 33.1769 87.3364 33.4986C87.4745 33.827 87.5457 34.1798 87.5457 34.5361C87.5457 34.8924 87.4745 35.2451 87.3364 35.5735C87.2023 35.9113 87.0046 36.2203 86.754 36.4835C86.5059 36.7272 86.2161 36.9245 85.8985 37.066C85.5838 37.2184 85.2381 37.2963 84.8884 37.2935L83.1684 37.248ZM84.8884 36.256C85.0992 36.2564 85.3075 36.2097 85.4981 36.1195C85.6949 36.0276 85.8736 35.9013 86.0259 35.7464C86.1808 35.5892 86.3043 35.4038 86.3899 35.2004C86.5573 34.7733 86.5573 34.2988 86.3899 33.8717C86.3043 33.6682 86.1808 33.4829 86.0259 33.3257C85.8736 33.1708 85.6949 33.0445 85.4981 32.9526C85.3075 32.8624 85.0992 32.8157 84.8884 32.8161H84.1967V36.256H84.8884Z" fill="#434244"/>
<path d="M91.3773 37.2479H90.3398V31.8332H91.3773V37.2479Z" fill="#434244"/>
<path d="M94.0344 31.8332H98.2478V32.8161H96.6553V37.2479H95.6724V32.8161H94.0344V31.8332Z" fill="#434244"/>
<path d="M101.943 37.2479H100.914V31.8332H101.943V37.2479Z" fill="#434244"/>
<path d="M109.979 34.536C109.981 34.9073 109.91 35.2754 109.769 35.6189C109.637 35.9558 109.443 36.2647 109.196 36.529C108.962 36.7769 108.68 36.9751 108.368 37.1114C108.049 37.2497 107.705 37.321 107.358 37.321C107.01 37.321 106.666 37.2497 106.347 37.1114C106.034 36.9729 105.749 36.7752 105.51 36.529C105.269 36.2619 105.078 35.9536 104.946 35.6189C104.667 34.927 104.667 34.154 104.946 33.4621C105.079 33.1279 105.27 32.8198 105.51 32.5521C105.749 32.3059 106.034 32.1082 106.347 31.9697C106.825 31.7621 107.354 31.7066 107.864 31.8109C108.373 31.9151 108.839 32.1739 109.196 32.5521C109.442 32.817 109.637 33.1256 109.769 33.4621C109.909 33.8027 109.98 34.1677 109.979 34.536ZM105.765 34.536C105.764 34.7784 105.808 35.0188 105.892 35.2458C105.973 35.4502 106.09 35.6383 106.238 35.801C106.376 35.9583 106.547 36.0827 106.739 36.165C106.933 36.2553 107.144 36.3019 107.358 36.3015C107.568 36.2971 107.776 36.2506 107.968 36.1647C108.16 36.0787 108.333 35.955 108.477 35.801C108.622 35.6376 108.736 35.4496 108.814 35.2458C108.996 34.7902 108.996 34.2818 108.814 33.8262C108.734 33.623 108.62 33.4352 108.477 33.271C108.334 33.116 108.16 32.9921 107.967 32.907C107.777 32.8168 107.568 32.7702 107.358 32.7705C107.144 32.7701 106.933 32.8167 106.739 32.907C106.549 32.9925 106.378 33.1165 106.238 33.271C106.092 33.4348 105.975 33.6226 105.892 33.8262C105.808 34.0532 105.764 34.2937 105.765 34.536Z" fill="#434244"/>
<path d="M117.113 31.8332V37.2479H116.203L113.801 33.7261V37.2571H112.772V31.8423H113.682L116.085 35.3642V31.8423L117.113 31.8332Z" fill="#434244"/>
<path d="M100.314 0L83.842 11.1207C82.9319 11.7304 82.4951 12.331 82.4951 12.9408C82.4951 13.5505 82.941 14.1693 83.842 14.7608L100.332 25.8815V20.9855L88.3922 12.959L100.35 4.95062L100.314 0Z" fill="#F0D631"/>
<path d="M0 2.90288H4.25899V23.0148H0V2.90288Z" fill="#FF5A00"/>
<path d="M28.9851 17.0451L29.5675 17.5365V2.87578H33.7901V20.2666C33.7988 20.6804 33.7148 21.0908 33.5444 21.4679C33.3956 21.7927 33.1783 22.0814 32.9074 22.3142C32.6396 22.541 32.3306 22.714 31.9973 22.8238C31.6486 22.9416 31.2825 23 30.9144 22.9967C30.4678 22.9966 30.0245 22.9196 29.6039 22.7692C29.1756 22.6208 28.7778 22.3957 28.43 22.1049L12.5589 8.84564L11.9856 8.36332V23.015H7.76298V5.6332C7.75414 5.22039 7.83487 4.81056 7.9996 4.43194C8.15129 4.10628 8.36809 3.81514 8.63663 3.5765C8.90441 3.34972 9.21339 3.17669 9.54667 3.06688C9.89713 2.95714 10.2624 2.9019 10.6296 2.90308C11.0793 2.90254 11.5257 2.9795 11.9492 3.13059C12.3774 3.27942 12.7751 3.50447 13.1231 3.7949L28.9851 17.0451Z" fill="#FF5A00"/>
<path d="M32.9344 6.74325V2.90288H62.2923V6.74325H51.3719V23.0148H47.1129V6.74325H32.9344Z" fill="#FF5A00"/>
<path d="M105.464 20.7125V5.24185C105.462 4.93014 105.521 4.621 105.637 4.33181C105.739 4.05703 105.901 3.80832 106.11 3.60376C106.32 3.39579 106.571 3.23453 106.848 3.13055C107.154 3.01938 107.477 2.96391 107.803 2.96675H126.004V6.80712H109.732V10.8841H126.031V14.7244H109.732V19.2746H126.031V23.115H107.83C107.505 23.1179 107.181 23.0624 106.875 22.9512C106.599 22.8472 106.347 22.686 106.138 22.478C105.928 22.2734 105.766 22.0247 105.665 21.75C105.521 21.4234 105.453 21.0689 105.464 20.7125Z" fill="#FF5A00"/>
<path d="M111.27 10.8204H81.512V9.51906C81.5072 7.75862 80.8058 6.07168 79.561 4.82686C78.3161 3.58204 76.6292 2.88058 74.8688 2.87578H61.1454V6.74345H74.8688C75.598 6.74331 76.2981 7.02919 76.8188 7.53968C77.3395 8.05016 77.6392 8.74452 77.6535 9.47357V10.7749H64.8401C63.284 10.8354 61.8118 11.4962 60.7323 12.6185C59.6528 13.7408 59.0497 15.2376 59.0497 16.7948C59.0497 18.3521 59.6528 19.8488 60.7323 20.9712C61.8118 22.0935 63.284 22.7542 64.8401 22.8148H68.9262H74.8688C76.6299 22.8123 78.3183 22.1116 79.5636 20.8663C80.8089 19.621 81.5096 17.9326 81.512 16.1714V14.6153H111.27V10.8204ZM77.6535 16.2352C77.6223 16.9637 77.3188 17.654 76.8032 18.1696C76.2876 18.6852 75.5973 18.9886 74.8688 19.0199H68.9262H64.8401C64.2817 18.9839 63.7579 18.7367 63.3751 18.3285C62.9923 17.9203 62.7793 17.3817 62.7793 16.8221C62.7793 16.2625 62.9923 15.7239 63.3751 15.3157C63.7579 14.9075 64.2817 14.6603 64.8401 14.6244H77.6535V16.2352Z" fill="#FF5A00"/>
<g style="mix-blend-mode:multiply" opacity="0.5">
<path d="M81.5306 16.59L77.6448 16.5718V14.6425L81.5306 14.6607V16.59Z" fill="black"/>
</g>
<g style="mix-blend-mode:multiply" opacity="0.5">
<path d="M93.7883 16.5718H86.4625L83.6141 14.6425H90.8762L93.7883 16.5718Z" fill="black"/>
</g>
</svg>
