<svg width="148" height="64" viewBox="0 0 148 64" fill="none" xmlns="http://www.w3.org/2000/svg">
<path d="M32.2278 10.6335V63.8028H37.2721C36.8489 63.298 35.4647 61.5511 35.4647 60.2998V13.1692C35.4647 9.27047 37.9037 6.05167 38.5112 5.30807V5.2627L32.2278 10.6335Z" fill="#58595D"/>
<path d="M0 5.14551L6.29259 10.5103H32.4087L38.523 5.26339V5.14551H0Z" fill="#58595D"/>
<path d="M6.4375 10.6338L9.65635 13.4838L29.0176 13.4868L32.2273 10.6338H6.4375Z" fill="#58595D"/>
<path d="M11.6057 0.336426L19.2099 9.13156L19.3217 9.06203L19.3581 0.405955L19.3097 0.336426H11.6057Z" fill="#58595D"/>
<path d="M19.3218 0.336426V9.12254H19.4397L26.9472 0.493587V0.336426H19.3218Z" fill="#58595D"/>
<path d="M6.4375 63.794H11.4515V63.7759C11.0103 63.2529 9.65332 61.5362 9.65332 60.3001C9.65332 59.1909 9.65947 13.4778 9.65947 13.4778L6.4375 10.6338V63.794Z" fill="#58595D"/>
<path d="M16.1063 13.487C16.1063 13.487 16.1031 59.3786 16.1031 60.3004C16.1031 61.5516 14.7191 63.2985 14.2988 63.8033H19.1982V10.7488L16.1063 13.487Z" fill="#58595D"/>
<path d="M19.3218 10.6338L19.3279 63.794H24.351V63.7727C23.9068 63.2439 22.5589 61.5333 22.5589 60.294C22.5589 57.3895 22.5557 13.4778 22.5496 13.4838L19.3218 10.6338Z" fill="#58595D"/>
<path d="M11.594 0.336426L19.319 1.71774L27.0775 0.336426H11.594Z" fill="#58595D"/>
<path d="M29.0149 13.4841V60.3004C29.0149 61.5546 27.6246 63.2956 27.2014 63.7942H32.0947V10.7549L29.0149 13.4841Z" fill="#58595D"/>
<path d="M0 5.14551C0 5.14551 3.20363 8.71186 3.20363 13.1699V60.3006C3.20363 61.5518 1.81036 63.2926 1.38737 63.7944H6.31065V10.5193L0 5.14551Z" fill="#58595D"/>
<path d="M1.27368 63.9326H11.5888L6.43273 61.8774L1.27368 63.9326Z" fill="#58595D"/>
<path d="M14.1782 63.9412L24.4873 63.9321L19.3283 61.877L14.1782 63.9412Z" fill="#58595D"/>
<path d="M27.082 63.9326L37.3911 63.9418L32.2411 61.8774L27.082 63.9326Z" fill="#58595D"/>
<path d="M94.3601 39.1742L52.8547 40.6441L93.9334 41.5924L94.4338 41.1605V39.1794L94.418 39.1584L94.3601 39.1742Z" fill="#58595D"/>
<path d="M105.646 39.1583V41.5974H105.715L147.325 40.1223L105.651 39.1528L105.646 39.1583Z" fill="#58595D"/>
<path d="M52.9304 35.185V33.7206C53.889 33.6573 54.4582 33.5679 54.6373 33.5045L54.8692 33.2939C54.9534 33.1672 55.0113 32.9881 55.0168 32.7563C55.0955 32.1823 55.1482 31.0073 55.1852 29.1686C55.2061 28.273 55.2325 26.7346 55.2325 24.5535C55.2325 22.5987 55.2061 20.8761 55.1852 19.3795C55.164 17.8833 55.1113 16.9932 55.0168 16.7086L54.8585 16.387L54.4527 16.2237C53.8838 16.1291 53.378 16.05 52.9304 16.05V14.812C54.6743 14.875 55.8859 14.9065 56.5496 14.9065C57.4243 14.9065 58.3199 14.875 59.1997 14.812L60.3168 17.6675L61.2178 19.8329L65.2744 29.2477C66.1384 27.372 66.7918 25.9127 67.2236 24.8641L68.9045 20.8706C69.8477 18.6528 70.4113 17.2671 70.6271 16.7716C70.8326 16.2555 71.0644 15.597 71.3333 14.812C72.45 14.875 73.1614 14.9172 73.4775 14.9172L77.2761 14.812V16.05H77.1021C76.2487 16.0394 75.6956 16.1343 75.4638 16.3767C75.2425 16.6137 75.1264 17.0617 75.1264 17.736C75.1264 18.5158 75.1107 19.1319 75.1107 19.5641L75.0422 23.5891V28.647C75.0422 29.8693 75.0477 30.5963 75.0579 30.8124C75.1264 32.0292 75.1846 32.7775 75.2425 33.0463L75.3898 33.3676L75.6692 33.5679C75.8062 33.6046 76.3329 33.6573 77.2761 33.7206V35.1693L73.1983 35.0744L69.2312 35.1693V33.7206C70.2847 33.6785 70.8853 33.6258 71.038 33.5203C71.1856 33.4045 71.2857 33.1884 71.3596 32.8354C71.4175 32.4826 71.4544 31.297 71.4544 29.2477V18.7791L68.4881 25.5384L67.0763 28.8946C66.6863 29.7799 66.1699 31.06 65.4853 32.7248C65.0637 33.7522 64.7528 34.5792 64.5106 35.1957H63.636C63.3305 34.4056 62.8932 33.2833 62.3031 31.8819C61.323 29.5004 60.575 27.6987 60.0586 26.5186L56.7185 18.7791V25.8494C56.7185 27.0295 56.7237 28.4364 56.75 30.0696C56.7922 31.6816 56.8185 32.6193 56.8554 32.8196L57.0082 33.2939L57.3928 33.5361C57.577 33.6046 58.088 33.6679 58.9681 33.7206V35.1851C57.9986 35.1272 57.0346 35.0905 56.0281 35.0905C54.7322 35.0905 53.689 35.1271 52.9304 35.185Z" fill="#58595D"/>
<path d="M90.1205 26.9689C89.3461 26.9953 88.4873 27.0111 87.5075 27.0111C86.5064 27.0111 85.6002 26.9953 84.815 26.9689L87.4126 19.7511L90.1205 26.9689ZM85.2842 35.0929V33.3703C84.2777 33.3388 83.6824 33.2543 83.4876 33.1227L83.2715 32.6433C83.2715 32.322 83.4875 31.521 83.9088 30.2409L84.4623 28.5601H90.9739L92.0698 31.621C92.2596 32.1796 92.3596 32.5484 92.3596 32.7854L92.1646 33.1858C92.0277 33.2703 91.4534 33.3388 90.4315 33.3703V35.0929L94.8725 35.0087L98.3972 35.0929V33.3703C98.1496 33.3491 97.9599 33.3388 97.839 33.3124C97.4489 33.2703 97.1856 33.2385 97.0959 33.207L96.8431 33.033L96.5955 32.6748L96.0846 31.3789L95.3047 29.4717L89.6462 14.8672H87.8445L86.7277 18.0336L83.4191 27.0535C82.7972 28.7553 82.381 29.8984 82.1649 30.4779C81.6749 31.7001 81.3907 32.4114 81.2903 32.6169L81.0113 33.0227L80.6794 33.2282C80.5475 33.2703 80.1421 33.3125 79.4517 33.3703V35.0929L82.3654 35.0087L85.2842 35.0929Z" fill="#58595D"/>
<path d="M97.4471 39.0424L97.7314 38.8424C98.1423 39.2639 98.469 39.5482 98.7324 39.6852C99.0012 39.8379 99.2594 39.9064 99.5437 39.9064C99.881 39.9064 100.134 39.8379 100.323 39.6588C100.492 39.4903 100.619 39.2427 100.692 38.9318C100.771 38.6054 100.829 37.9047 100.856 36.8773C100.908 34.7804 100.929 33.6266 100.929 33.4053V21.8515C100.929 20.5868 100.914 19.4279 100.898 18.4005C100.866 17.3943 100.808 16.7779 100.745 16.5988L100.566 16.3406L100.081 16.1878L98.3532 16.1087V14.8125C99.981 14.8758 101.641 14.918 103.316 14.918C104.707 14.918 105.898 14.8758 106.904 14.8125V16.0981C106.04 16.1351 105.524 16.156 105.355 16.1878L104.87 16.4827C104.754 16.6145 104.691 16.8673 104.675 17.2361C104.607 18.0529 104.58 19.1697 104.58 20.629V26.767L104.596 32.4831C104.596 34.0742 104.48 35.1701 104.233 36.1026C103.969 37.0667 103.564 37.9571 102.995 38.8002C102.589 39.3691 102.115 39.9064 101.551 40.4229C100.993 40.9338 100.434 41.3081 99.8968 41.5715C99.3594 41.8242 98.8694 41.9824 98.4057 41.9824C98.0844 41.9824 97.7314 41.8876 97.3838 41.7348C97.4208 41.0708 97.4471 40.1489 97.4471 39.0424Z" fill="#58595D"/>
<path d="M113.435 20.2056C113.825 18.9884 114.457 18.0562 115.316 17.4185C116.18 16.7706 117.223 16.449 118.451 16.449C119.536 16.449 120.395 16.6706 121.048 17.0603C121.702 17.4398 122.27 18.0192 122.755 18.7884C123.229 19.5364 123.598 20.4586 123.862 21.5175C124.12 22.5816 124.236 23.7566 124.236 25.0631C124.236 26.9597 124.014 28.5456 123.519 29.884C123.045 31.2011 122.386 32.1337 121.549 32.6919C120.716 33.2399 119.768 33.5244 118.714 33.5244C117.566 33.5244 116.56 33.2399 115.727 32.6446C114.889 32.0755 114.194 31.0744 113.662 29.6625C113.108 28.2559 112.845 26.47 112.845 24.3097C112.845 22.8189 113.04 21.4491 113.435 20.2056ZM110.122 30.6371C110.885 32.1018 111.96 33.2189 113.319 33.9563C114.679 34.7152 116.317 35.0943 118.214 35.0943C119.957 35.0943 121.512 34.7679 122.876 34.1515C123.862 33.6929 124.763 33.0344 125.548 32.1809C126.327 31.3275 126.907 30.321 127.312 29.2254C127.85 27.7395 128.134 26.1117 128.134 24.3994C128.134 23.3669 128.045 22.4182 127.85 21.5703C127.65 20.7271 127.376 19.9371 127.012 19.2258C126.628 18.5093 126.101 17.8347 125.384 17.1446C124.668 16.4703 123.851 15.9487 122.929 15.5956C121.686 15.1056 120.3 14.874 118.756 14.874C117.213 14.874 115.79 15.1216 114.489 15.6168C113.472 16.0014 112.529 16.6442 111.66 17.5186C110.801 18.3881 110.132 19.4576 109.652 20.7008C109.194 21.96 108.952 23.4456 108.952 25.1422C108.952 27.3234 109.347 29.1672 110.122 30.6371Z" fill="#58595D"/>
<path d="M129.852 16.0386V14.8745C130.047 14.8745 130.732 14.9009 131.907 14.9324C132.47 14.9481 133.281 14.9481 134.325 14.9481C135.221 14.9481 135.99 14.9324 136.633 14.9009C137.681 14.869 138.561 14.8269 139.256 14.8269C140.594 14.8269 141.59 14.9324 142.259 15.1485C142.918 15.3539 143.492 15.8016 143.966 16.4707C144.435 17.1293 144.672 17.9512 144.672 18.9153C144.672 20.0533 144.346 21.0858 143.703 22.0184C143.065 22.9509 142.085 23.6834 140.752 24.2417C140.953 24.6526 141.216 25.1006 141.48 25.5379C141.753 25.9855 141.901 26.2386 141.954 26.344L142.112 26.602L144.093 29.9109C144.609 30.7749 144.904 31.2489 144.946 31.3122C145.589 32.2499 145.974 32.8191 146.116 32.977L146.537 33.3352C146.68 33.4037 146.953 33.4407 147.343 33.4564V35.2109C146.032 35.1739 145.078 35.1475 144.493 35.1475C143.808 35.1475 143.134 35.1739 142.475 35.2109C142.428 34.9842 142.317 34.1465 142.159 33.804L139.43 28.8307C138.64 27.3975 137.971 26.2649 137.428 25.443C137.159 25.0427 136.896 24.7317 136.633 24.5105L136.775 24.0417C137.813 24.0995 138.566 23.9677 139.093 23.7043C139.604 23.4252 140.047 22.9667 140.405 22.2608C140.758 21.5759 140.947 20.791 140.947 19.9375C140.947 19.0735 140.752 18.3567 140.378 17.7827C140.02 17.2135 139.541 16.7974 138.987 16.5971C138.635 16.4392 137.986 16.355 137.07 16.355C136.654 16.355 136.248 16.3971 135.853 16.4865C135.837 16.8132 135.8 17.5824 135.763 18.7783C135.731 21.4389 135.695 23.2197 135.695 24.1259C135.695 25.5324 135.716 27.029 135.747 28.5989C135.763 30.5482 135.795 31.6389 135.816 31.9074C135.842 32.429 135.884 32.7766 135.953 32.9348L136.127 33.1352L136.49 33.2931C136.653 33.3352 137.159 33.3616 137.971 33.3828V35.1845C136.527 35.1266 135.052 35.0948 133.545 35.0948C132.212 35.0948 130.99 35.1266 129.852 35.1845V33.3828C130.821 33.3352 131.396 33.2931 131.58 33.214L131.807 33.0612L131.917 32.6715C131.97 32.3078 132.017 31.7598 132.044 31.017L132.144 26.892V21.6495L132.096 18.6677C132.07 17.5033 132.023 16.7762 131.928 16.5605L131.754 16.3074C131.548 16.1916 130.905 16.0968 129.852 16.0386Z" fill="#58595D"/>
<path d="M54.4525 46.7027C53.446 47.7462 52.9402 49.0578 52.9402 50.6332C52.9402 51.239 53.0244 51.8133 53.1669 52.3561C53.3145 52.8565 53.5357 53.3411 53.82 53.8048C54.0994 54.2527 54.4628 54.6425 54.9159 55.0164C55.3587 55.375 55.8961 55.6435 56.4755 55.8438C57.0656 56.0387 57.719 56.1178 58.4039 56.1178C58.9464 56.1178 59.4995 56.0651 60.0211 55.9438C60.5324 55.8017 61.0221 55.5962 61.5649 55.3116L61.6282 55.2695L61.9547 54.4264L61.6597 54.0209L61.507 54.1264C61.1961 54.3791 60.8642 54.5634 60.5323 54.6952C60.0423 54.8637 59.5156 54.9534 58.9464 54.9534C57.682 54.9534 56.6598 54.5476 55.896 53.6993C55.132 52.8513 54.7423 51.7236 54.7423 50.3541C54.7526 49.5585 54.8529 48.8839 55.0584 48.3835C55.2533 47.8407 55.4957 47.414 55.8063 47.1034C56.133 46.7609 56.4704 46.5291 56.8759 46.3606C57.2762 46.2181 57.7663 46.139 58.3878 46.1233C59.157 46.1233 59.7734 46.2181 60.1687 46.4291C60.5323 46.6291 60.7273 46.9294 60.78 47.3298V48.3572H61.5385L61.707 46.7609L61.9601 45.8178L61.7649 45.7493L60.9433 45.5332L59.6419 45.2383L58.5354 45.1277C56.8073 45.1277 55.4375 45.6595 54.4525 46.7027Z" fill="#58595D"/>
<path d="M70.7694 45.1956L68.8146 45.2537L66.6492 45.1956V46.0966H66.8389C67.566 46.1229 67.7187 46.1544 67.7557 46.1705L67.9033 46.2651C67.9136 46.2863 67.9297 46.4233 67.9612 46.9976L67.977 48.9363V52.3555L67.9557 54.3945C67.9297 54.9161 67.8927 55.0161 67.8927 55.0216L67.7557 55.111C67.666 55.1374 67.3657 55.1689 66.8496 55.1689H66.6492V56.0911L68.9095 56.0014L70.9694 56.0911V55.1689H70.7797C70.253 55.1689 69.9738 55.1373 69.879 55.1216L69.7314 54.9952C69.7314 54.9952 69.6838 54.874 69.6629 54.2891L69.6472 52.3555V48.9363L69.6574 48.4781L69.6787 46.8606C69.6944 46.4075 69.7314 46.2651 69.7578 46.2336L69.8735 46.1705C69.9156 46.1442 70.0896 46.1229 70.7797 46.0966H70.9694V45.1956H70.7694Z" fill="#58595D"/>
<path d="M75.1726 45.387V46.0668L76.0154 46.0984L76.2209 46.209L76.3948 46.4463L76.4106 46.6621V52.6631L76.3788 54.3333C76.3421 54.8864 76.3 54.997 76.3 55.0179L76.263 55.0655C76.1946 55.1025 75.989 55.134 75.4202 55.134H75.2305V56.0508L77.0901 55.9823L78.5706 56.0508L78.5863 55.8453V55.134H78.3864C77.8329 55.134 77.6274 55.1025 77.5538 55.0655L77.5168 55.0179C77.5065 54.9758 77.4589 54.7915 77.438 54.3436L77.4061 52.6631V47.6052C77.9911 48.3901 81.7842 53.3795 81.7842 53.3795L82.6432 54.5754L83.4545 55.6292L83.7391 55.9401L83.8548 56.0189L84.0552 56.0665L84.9877 56.3614L84.9562 52.073V48.5432L84.9877 46.8836C85.0141 46.3357 85.0613 46.2144 85.0613 46.209L85.0983 46.1511C85.1616 46.1247 85.3617 46.0826 85.9411 46.072L86.1258 46.0668V45.1819L84.5504 45.1976L82.7644 45.1819V46.0668L82.9541 46.072C83.5284 46.0826 83.7233 46.1247 83.8021 46.1511L83.8548 46.2144C83.8548 46.2144 83.8812 46.3514 83.9076 46.8781L83.9445 48.5432V53.3583L83.6655 53.0162L82.1164 51.0035L80.1038 48.3271L78.7233 46.4727L77.8856 45.2661L77.8329 45.1819L76.7688 45.1976L75.1726 45.1819V45.387Z" fill="#58595D"/>
<path d="M94.3185 45.1394L92.3165 45.1819L90.2141 45.1292V46.0404H90.4038C91.1203 46.072 91.2837 46.0983 91.3155 46.1196L91.4682 46.2144C91.4788 46.2408 91.4997 46.3672 91.5209 46.9415L91.5418 48.9117V52.6895L91.5103 54.3754C91.4946 54.7703 91.4628 54.997 91.4261 55.0655L91.3891 55.1128C91.3154 55.1182 91.1203 55.1812 90.5463 55.1812H90.3511V56.1086L92.2953 56.035L96.2836 56.1086L97.885 55.9665L97.859 55.7874C97.859 55.1655 97.9326 54.3227 98.0432 53.3162L98.0854 53.0846H97.2634L97.0264 54.2384L96.9053 54.7442L96.3624 54.8864L95.1823 54.9497C95.1823 54.9497 93.507 54.8864 93.2172 54.8864C93.2066 54.5597 93.1909 53.0162 93.1909 53.0162C93.1909 53.0162 93.2066 51.3566 93.2172 51.0141C93.4861 51.0141 94.2974 51.0035 94.2974 51.0035C95.0244 51.0035 95.4933 51.0141 95.7251 51.072L95.8936 51.172C95.9093 51.172 95.9412 51.2775 95.9621 51.7463L95.994 52.447H96.8419L96.7946 50.5134L96.8419 48.9802V48.6168H96.0569L96.0148 49.3388L95.9305 49.8391L95.7987 49.8497L94.4658 49.9391C94.4658 49.9391 93.5018 49.9076 93.2278 49.9025C93.2278 49.5388 93.249 47.6264 93.249 47.6264L93.2593 47.11C93.2593 47.11 93.2648 46.5251 93.2806 46.2672L93.5176 46.2617L93.9076 46.2144H94.6028L96.0676 46.3038C96.3046 46.3302 96.5206 46.4093 96.7261 46.4884C96.7631 46.8202 96.7946 47.1521 96.7946 47.5843V47.9107H97.5953L97.7271 46.2144L97.9168 45.2449L97.7007 45.224L96.4258 45.1292L94.3185 45.1394Z" fill="#58595D"/>
<path d="M106.917 45.1282L105.858 45.1864H104.757L102.444 45.1282L102.438 45.3549V46.0398H102.623C103.36 46.0713 103.513 46.0977 103.534 46.1189L103.698 46.2138C103.698 46.2138 103.735 46.3508 103.745 46.9408L103.766 48.9111V53.0416L103.735 54.3957C103.729 54.9172 103.676 55.0172 103.676 55.0172L103.534 55.1176L102.623 55.1649H102.438V56.0923L104.715 56.0237L106.732 56.0923V55.1649H106.532C106.027 55.1649 105.716 55.1334 105.647 55.1176L105.499 55.0172C105.499 54.9963 105.442 54.8857 105.426 54.2902L105.399 52.32V48.6056C105.399 48.6056 105.452 46.572 105.452 46.3032C105.884 46.1768 106.274 46.0977 106.637 46.0977C107.054 46.0977 107.449 46.1925 107.744 46.361C108.049 46.5086 108.271 46.7354 108.403 47.0196C108.55 47.3518 108.619 47.6994 108.619 48.0891C108.619 48.4895 108.55 48.848 108.397 49.1956C108.25 49.5169 108.039 49.7594 107.786 49.907C107.481 50.0912 107.212 50.1546 106.927 50.1546L105.736 49.97L105.8 50.2809L105.984 50.9659L107.043 51.0922C107.396 51.0922 107.712 51.0395 108.007 50.9446C108.423 50.8131 108.84 50.5813 109.203 50.2758C109.593 49.9542 109.883 49.5539 110.073 49.0956C110.273 48.6477 110.383 48.1946 110.383 47.7046C110.383 47.1936 110.257 46.7299 110.009 46.3032C109.746 45.9028 109.404 45.5919 108.971 45.4022C108.545 45.223 107.976 45.1282 107.233 45.1282H106.917Z" fill="#58595D"/>
<path d="M118.442 45.1802L116.524 45.2435L114.385 45.1802L114.328 45.3857V46.0812H114.522C115.223 46.0867 115.392 46.1233 115.418 46.1446L115.571 46.2394C115.555 46.2394 115.618 46.3607 115.629 46.9716L115.65 48.9158V52.8778L115.629 54.084L115.55 54.9059L115.508 54.9744C115.487 55.0165 115.381 55.1114 115.033 55.2802L114.928 55.3381V56.0915L116.424 56.0018L120.37 56.0703L121.445 56.0439L121.919 55.9651L122.062 55.9439V55.7912L122.388 52.9778H121.561L121.256 54.358L121.134 54.7268C120.66 54.8902 119.822 54.9586 118.642 54.9586C118.642 54.9586 117.62 54.9271 117.336 54.922C117.325 54.6426 117.32 53.884 117.32 53.884V48.9158L117.336 47.1665V46.8346C117.357 46.3658 117.404 46.2394 117.425 46.2182L117.546 46.1446C117.589 46.1233 117.747 46.0867 118.453 46.0812H118.642V45.1802H118.442Z" fill="#58595D"/>
<path d="M140.617 45.1281L138.505 45.5288V46.3346H138.705C139.252 46.3346 139.368 46.361 139.389 46.3665L139.595 46.5298C139.795 46.751 140.059 47.0829 140.369 47.5887L140.97 48.574C140.97 48.574 141.845 50.2072 142.082 50.6603L140.322 53.3155L139.352 54.8065L139.058 55.112C139.021 55.1175 138.889 55.1648 138.505 55.1648H138.304V56.0922L139.368 56.034L140.475 56.0922L140.496 55.8603L140.506 55.3754C140.638 55.0648 140.991 54.3322 141.987 52.6887C141.987 52.6887 142.393 52.0353 142.661 51.6456C142.909 52.1247 144.258 54.6644 144.258 54.6644L145.079 56.0922L145.174 56.0658L146.165 56.034L147.334 56.0922V55.1648L146.639 55.1175L146.502 55.0172L145.875 54.011C145.875 54.011 144.015 50.7233 143.678 50.1017L144.099 49.4853L145.259 47.7624L146.107 46.535L146.428 46.1925L146.565 46.124L147.039 46.0819L147.219 46.0713L147.224 45.8658V45.1863L146.223 45.2442L145.058 45.1863L145.048 45.4233V46.0028C145.027 46.0397 144.779 46.5613 143.146 49.1007C142.919 48.674 142.182 47.262 142.182 47.262C141.802 46.5456 141.497 46.0291 141.281 45.7236L140.696 45.1021L140.617 45.1281Z" fill="#58595D"/>
<path d="M130.415 45.1804L128.397 45.2387L126.316 45.1804V46.0815H126.511C127.196 46.0869 127.38 46.1394 127.412 46.1448L127.554 46.2342C127.575 46.287 127.607 46.4294 127.618 46.9719L127.638 48.9267V52.6883L127.607 54.3479C127.575 54.9062 127.528 55.0168 127.528 55.0223L127.496 55.0801L126.643 55.1856H126.448V56.0918L128.397 56.0233L132.37 56.0706L133.976 55.9548L133.971 55.7651C133.971 55.1223 134.024 54.3058 134.145 53.3205L134.156 53.0887H133.339L133.123 54.2373L132.991 54.7271L132.454 54.8904L131.274 54.9538C131.274 54.9538 129.609 54.8904 129.314 54.8747C129.314 54.5534 129.282 53.0151 129.282 53.0151C129.282 53.0151 129.314 51.3658 129.314 51.0288C129.572 51.013 130.394 51.0024 130.394 51.0024C131.095 51.0024 131.579 51.013 131.816 51.076L131.985 51.176C131.996 51.1921 132.043 51.2764 132.043 51.7346L132.08 52.4459H132.933L132.886 50.5229L132.933 48.9791V48.6315H132.153L132.096 49.3479L132.027 49.8274L131.88 49.8801L130.557 49.9644C130.557 49.9644 129.603 49.9171 129.314 49.9171C129.314 49.5589 129.335 47.6411 129.335 47.6411L129.356 46.9667C129.356 46.9667 129.367 46.5346 129.372 46.3027L129.993 46.2661L130.699 46.2185L132.159 46.3346C132.417 46.3609 132.622 46.4294 132.817 46.5137C132.86 46.8349 132.886 47.151 132.886 47.5411V47.9308H133.682L133.808 46.2185L134.003 45.2859L133.792 45.2438L132.527 45.1702L130.415 45.1804Z" fill="#58595D"/>
</svg>
