<svg width="71" height="62" viewBox="0 0 71 62" fill="none" xmlns="http://www.w3.org/2000/svg">
<mask id="mask0_256_3956" style="mask-type:luminance" maskUnits="userSpaceOnUse" x="3" y="6" width="64" height="50">
<path d="M55.2343 6.56507L3.61304 28.4241L15.2773 55.9699L66.8986 34.1109L55.2343 6.56507Z" fill="white"/>
</mask>
<g mask="url(#mask0_256_3956)">
<path d="M49.3752 24.1581L59.7716 17.28L42.2743 22.0561L44.6333 14.7174L36.2039 19.718L36.0007 14.7094L31.5335 21.3952L38.8659 38.7114L44.166 39.5011L40.7311 36.3905L48.7313 36.5948L43.1088 31.9347L54.0014 25.1471L49.3752 24.1581Z" fill="#FE3B1F"/>
<path d="M46.5356 31.8147L51.6541 32.581L52.7717 31.4351L51.3562 30.6607L46.5356 31.8147Z" fill="#FE3B1F"/>
<path d="M45.9657 19.1478L49.0259 17.3511L49.0894 15.8788L47.5657 16.066L45.9657 19.1478Z" fill="#FE3B1F"/>
<path d="M33.6247 26.3341L36.7686 23.9581L36.1172 26.5093L45.7518 23.7461L37.9015 28.4585L40.1668 29.9893L35.6439 31.1029L33.6247 26.3341Z" fill="#222222"/>
<path d="M12.7631 44.0171L10.4029 40.3771L8.84129 37.7635L12.6113 33.3468L19.3905 30.0213L29.1259 19.713L38.0759 40.849L31.5801 39.6878L23.8981 40.6665L23.3082 42.281L27.2299 48.5348L26.2125 49.7843L21.883 48.7976L16.57 43.7697L12.7631 44.0171Z" fill="white"/>
<path d="M29.6371 17.7617C29.3555 17.6376 29.0476 17.6536 28.7319 17.7872C28.4165 17.9208 28.1906 18.1309 28.0718 18.4246C28.0437 18.4937 28.0278 18.5576 28.012 18.6216C27.8564 19.403 27.5505 20.1337 27.0614 20.77C26.6299 21.3392 26.1637 21.8943 25.6682 22.4476C24.7536 23.4646 23.7839 24.419 22.7521 25.328C21.7203 26.2373 20.675 27.0806 19.611 27.846C18.547 28.6113 17.5006 29.2834 16.472 29.8621L11.8244 31.8301C9.96782 32.6163 8.74845 33.6908 8.17148 35.0656C7.58937 36.4283 7.67246 38.0104 8.42783 39.7941L9.24484 41.7236C10.0053 43.5196 11.0835 44.6801 12.4672 45.2104C13.5279 45.6198 14.7373 45.6372 16.0713 45.2727L21.5898 50.3632C22.3205 51.041 23.0559 51.4595 23.7646 51.6461C24.4853 51.8274 25.2279 51.7562 26.0045 51.4273C26.6841 51.1396 27.2118 50.73 27.6002 50.1937C27.9883 49.6573 28.1795 49.0611 28.1807 48.388C28.1819 47.7148 27.9529 47.039 27.4836 46.3361L24.7035 42.2041C25.0205 42.1414 25.3372 42.0788 25.6422 42.0213C26.9322 41.7897 28.2359 41.6241 29.5652 41.5193C30.8946 41.4142 32.2307 41.3923 33.5852 41.4483C34.3154 41.4827 35.0504 41.5292 35.7838 41.6049C36.6227 41.6935 37.3929 42.0254 38.1109 42.4369C38.1506 42.4631 38.2025 42.4841 38.2542 42.5052C38.5479 42.624 38.844 42.6133 39.1715 42.4745C39.4871 42.3409 39.7128 42.1306 39.8198 41.8423C39.9386 41.5486 39.9279 41.2526 39.7891 40.9251L30.2573 18.415C30.1357 18.0944 29.9308 17.8807 29.6371 17.7617ZM13.5027 42.6539C12.8099 42.4035 12.2383 41.7295 11.7861 40.6616L10.964 38.7201C10.5067 37.6401 10.4256 36.7729 10.7279 36.1012C11.0302 35.4292 11.7456 34.8546 12.8984 34.3663L15.4952 33.2666L18.8609 41.215L16.264 42.3147C15.1182 42.7856 14.1955 42.9044 13.5027 42.6539ZM25.5046 48.2189C25.5107 48.4022 25.4772 48.5595 25.3796 48.701C25.2821 48.8424 25.1397 48.9458 24.9578 49.0227C24.7271 49.1204 24.5073 49.1419 24.3104 49.0823C24.1132 49.0225 23.9098 48.8799 23.6754 48.6642L18.7526 44.2373L21.8955 42.9066C21.9441 42.886 21.9978 42.8775 22.0514 42.8692L25.2874 47.6382C25.4162 47.8413 25.4984 48.0354 25.5046 48.2189ZM36.437 39.0243C35.1453 38.8129 33.8532 38.7017 32.5383 38.6717C31.2234 38.642 29.927 38.6899 28.608 38.8191C27.3009 38.9432 25.9833 39.1434 24.6793 39.4095C23.5847 39.6296 22.4986 39.9035 21.4279 40.2138L17.9954 32.1078C18.9512 31.56 19.8673 30.986 20.768 30.3757C21.8909 29.6139 22.9465 28.7949 23.9694 27.9323C24.9923 27.0699 25.936 26.1553 26.8295 25.19C27.7231 24.225 28.5425 23.2197 29.2823 22.1622L36.4247 39.0296L36.437 39.0243Z" fill="#222222"/>
</g>
</svg>
