<svg width="39" height="35" viewBox="0 0 39 35" fill="none" xmlns="http://www.w3.org/2000/svg">
<path d="M9.75202 4.42343L13.1365 0L12.9319 5.59619L18.3234 4.42343L14.6241 8.57139L19.504 11.1924L14.0416 11.9559L16.1196 17.1506L11.4443 14.1676L9.75202 19.4962L8.05978 14.1676L3.39235 17.1506L5.46239 11.9559L0 11.1924L4.87994 8.57139L1.18063 4.42343L6.57218 5.59619L6.36754 0L9.75202 4.42343Z" fill="#FC4B23"/>
<path d="M37.072 24.4076C37.072 25.9424 35.8284 27.186 34.2936 27.186H30.2322C29.6812 27.186 29.2877 27.6897 29.5238 28.2643L31.1531 32.0109C29.0043 30.476 26.8241 28.9806 24.7383 27.3513C24.6045 27.249 24.4313 27.186 24.2661 27.186H12.0741C10.5471 27.186 9.29565 25.9424 9.29565 24.4076V11.9952C9.29565 10.4683 10.5471 9.2168 12.0741 9.2168H34.2936C35.8205 9.2168 37.0641 10.4604 37.0641 11.9952V24.4076H37.072Z" fill="white"/>
<path d="M34.3013 7.67407H12.0819C9.71272 7.67407 7.76074 9.61818 7.76074 11.9873V24.3997C7.76074 26.7767 9.71272 28.7208 12.0819 28.7208H24.0062C26.8319 30.783 29.7048 32.7979 32.5225 34.8837C33.0971 35.2143 34.0495 34.8207 33.6795 33.9471L31.4127 28.7208H34.3013C36.6705 28.7208 38.6146 26.7767 38.6146 24.3997V11.9873C38.6146 9.61818 36.6705 7.67407 34.3013 7.67407ZM37.0798 24.4076C37.0798 25.9424 35.8362 27.186 34.3013 27.186H30.24C29.689 27.186 29.2955 27.6897 29.5316 28.2643L31.1609 32.0108C29.0121 30.476 26.8319 28.9805 24.7461 27.3513C24.6123 27.2489 24.4391 27.186 24.2738 27.186H12.0819C10.5549 27.186 9.30343 25.9424 9.30343 24.4076V11.9952C9.30343 10.4682 10.5549 9.21676 12.0819 9.21676H34.3013C35.8283 9.21676 37.0719 10.4604 37.0719 11.9952V24.4076H37.0798Z" fill="#FC4B23"/>
<path d="M14.136 16.3715H30.7199C31.1764 16.3715 31.5542 15.9072 31.5621 15.3168C31.5621 14.7344 31.2 14.2464 30.7435 14.2385C30.7356 14.2385 30.7278 14.2385 30.7199 14.2385H14.1596C13.7031 14.2385 13.3253 14.7029 13.3174 15.2932C13.3174 15.8835 13.6794 16.3637 14.136 16.3715ZM25.1316 19.9134H14.1596C13.7031 19.9056 13.3253 20.3778 13.3174 20.9603C13.3174 21.5427 13.6794 22.0307 14.136 22.0386H25.108C25.5645 22.0464 25.9423 21.5821 25.9501 20.9917C25.9501 20.4014 25.5881 19.9213 25.1316 19.9134Z" fill="#FE3B1F"/>
</svg>
