<svg width="119" height="64" viewBox="0 0 119 64" fill="none" xmlns="http://www.w3.org/2000/svg">
<path d="M92.5497 56.8795C92.7402 56.8795 92.9008 56.814 93.0319 56.6831C93.1628 56.5521 93.2284 56.3914 93.2284 56.2008C93.2284 56.0164 93.1628 55.8601 93.0319 55.732C92.9008 55.6041 92.7402 55.54 92.5497 55.54C92.3591 55.54 92.2014 55.6041 92.0764 55.732C91.9513 55.8601 91.8889 56.0164 91.8889 56.2008C91.8889 56.3914 91.9513 56.5521 92.0764 56.6831C92.2014 56.814 92.3591 56.8795 92.5497 56.8795Z" fill="#58595D"/>
<path d="M101.714 62.0601C101.524 62.0601 101.364 62.1239 101.236 62.252C101.108 62.38 101.044 62.5362 101.044 62.7208C101.044 62.9113 101.108 63.072 101.236 63.2031C101.364 63.3339 101.524 63.3995 101.714 63.3995C101.905 63.3995 102.064 63.3339 102.192 63.2031C102.32 63.072 102.384 62.9113 102.384 62.7208C102.384 62.5362 102.32 62.38 102.192 62.252C102.064 62.1239 101.905 62.0601 101.714 62.0601Z" fill="#58595D"/>
<path d="M103.375 62.0601C103.185 62.0601 103.027 62.1239 102.902 62.252C102.777 62.38 102.715 62.5362 102.715 62.7208C102.715 62.9113 102.777 63.072 102.902 63.2031C103.027 63.3339 103.185 63.3995 103.375 63.3995C103.566 63.3995 103.727 63.3339 103.858 63.2031C103.988 63.072 104.054 62.9113 104.054 62.7208C104.054 62.5362 103.988 62.38 103.858 62.252C103.727 62.1239 103.566 62.0601 103.375 62.0601Z" fill="#58595D"/>
<path d="M118.108 57.3394C117.983 57.3007 117.837 57.2813 117.67 57.2813C117.444 57.2813 117.267 57.3305 117.139 57.4287C117.011 57.5269 116.947 57.6952 116.947 57.9332V60.1388H116.402C116.194 60.1388 116.051 60.0883 115.974 59.987C115.896 59.8859 115.857 59.7579 115.857 59.603V57.4242C115.816 57.4064 115.732 57.3782 115.607 57.3394C115.483 57.3007 115.336 57.2813 115.17 57.2813C114.944 57.2813 114.767 57.3305 114.639 57.4287C114.51 57.5269 114.447 57.6952 114.447 57.9332V59.5673C114.447 59.7638 114.391 59.9082 114.281 60.0004C114.171 60.0928 114.039 60.1388 113.884 60.1388C113.693 60.1388 113.554 60.0808 113.464 59.9647C113.375 59.8486 113.33 59.6954 113.33 59.5048V57.4242C113.289 57.4064 113.205 57.3782 113.08 57.3394C112.955 57.3007 112.809 57.2813 112.643 57.2813C112.417 57.2813 112.24 57.3305 112.112 57.4287C111.983 57.5269 111.92 57.6952 111.92 57.9332V59.3173C111.92 59.4543 111.912 59.5749 111.897 59.6789C111.882 59.7832 111.853 59.8695 111.808 59.9379C111.763 60.0064 111.698 60.0571 111.611 60.0897C111.525 60.1225 111.411 60.1388 111.268 60.1388H104.801C104.658 60.1388 104.544 60.1195 104.458 60.0808C104.371 60.0421 104.306 59.9856 104.261 59.9111C104.216 59.8367 104.187 59.7459 104.172 59.6388C104.157 59.5316 104.149 59.4096 104.149 59.2726V57.4242C104.108 57.4064 104.024 57.3782 103.899 57.3394C103.775 57.3007 103.628 57.2813 103.462 57.2813C103.236 57.2813 103.059 57.3305 102.931 57.4287C102.802 57.5269 102.739 57.6952 102.739 57.9332V59.2726C102.739 59.4096 102.731 59.5316 102.716 59.6388C102.701 59.7459 102.672 59.8367 102.627 59.9111C102.582 59.9856 102.517 60.0421 102.431 60.0808C102.344 60.1195 102.23 60.1388 102.087 60.1388H93.9073C93.7644 60.1388 93.6498 60.1195 93.5635 60.0808C93.4771 60.0421 93.4116 59.9856 93.3671 59.9111C93.3224 59.8367 93.2925 59.7459 93.2777 59.6388C93.2628 59.5316 93.2554 59.4096 93.2554 59.2726V57.4242C93.2137 57.4064 93.1304 57.3782 93.0054 57.3394C92.8804 57.3007 92.7344 57.2813 92.5679 57.2813C92.3415 57.2813 92.1645 57.3305 92.0365 57.4287C91.9084 57.5269 91.8445 57.6952 91.8445 57.9332V59.2726C91.8445 59.4096 91.837 59.5316 91.8222 59.6388C91.8073 59.7459 91.7775 59.8367 91.733 59.9111C91.6883 59.9856 91.6228 60.0421 91.5365 60.0808C91.4502 60.1195 91.3355 60.1388 91.1927 60.1388H74.9424C74.7994 60.1388 74.6863 60.1225 74.603 60.0897C74.5196 60.0571 74.4542 60.0064 74.4066 59.9379C74.3589 59.8695 74.3276 59.7861 74.3128 59.6879C74.2979 59.5896 74.2905 59.4751 74.2905 59.3441C74.2905 59.0168 74.2309 58.7205 74.1119 58.4556C73.9928 58.1908 73.832 57.9645 73.6297 57.7769C73.4273 57.5894 73.1906 57.4451 72.9198 57.3439C72.6488 57.2427 72.3617 57.192 72.0581 57.192C71.7604 57.192 71.4806 57.2427 71.2186 57.3439C70.9567 57.4451 70.7245 57.5894 70.5222 57.7769C70.3198 57.9645 70.1606 58.1908 70.0444 58.4556C69.9284 58.7205 69.8703 59.0168 69.8703 59.3441C69.8703 59.4751 69.8628 59.5896 69.848 59.6879C69.8331 59.7861 69.8019 59.8695 69.7543 59.9379C69.7066 60.0064 69.6411 60.0571 69.5578 60.0897C69.4743 60.1225 69.3614 60.1388 69.2184 60.1388H64.4769V54.5132C64.4293 54.4895 64.346 54.4582 64.227 54.4194C64.1078 54.3808 63.962 54.3613 63.7894 54.3613C63.5631 54.3613 63.3844 54.412 63.2536 54.5132C63.1225 54.6144 63.0571 54.79 63.0571 55.04V61.389H69.4685C69.7126 61.389 69.9208 61.3309 70.0936 61.2149C70.2662 61.0988 70.409 60.9782 70.5222 60.8532C70.6888 61.002 70.9032 61.1434 71.1651 61.2774C71.4271 61.4113 71.7366 61.4783 72.0938 61.4783C72.439 61.4783 72.7397 61.4113 72.9958 61.2774C73.2517 61.1434 73.4629 61.002 73.6297 60.8532C73.7487 60.9782 73.8931 61.0988 74.0628 61.2149C74.2325 61.3309 74.4424 61.389 74.6923 61.389H91.4339C91.66 61.389 91.8773 61.3532 92.0858 61.2818C92.294 61.2104 92.4576 61.0795 92.5768 60.8889C92.6958 61.0795 92.8492 61.2104 93.0367 61.2818C93.2242 61.3532 93.4341 61.389 93.6663 61.389H102.328C102.554 61.389 102.771 61.3532 102.98 61.2818C103.188 61.2104 103.352 61.0795 103.471 60.8889C103.59 61.0795 103.743 61.2104 103.931 61.2818C104.118 61.3532 104.328 61.389 104.56 61.389H111.527C111.753 61.389 111.951 61.3429 112.121 61.2505C112.29 61.1583 112.431 61.0557 112.545 60.9425C112.598 60.9842 112.658 61.0349 112.723 61.0943C112.789 61.1539 112.874 61.2119 112.978 61.2684C113.082 61.3251 113.207 61.3742 113.353 61.4158C113.499 61.4574 113.676 61.4783 113.884 61.4783C114.217 61.4783 114.487 61.4247 114.692 61.3176C114.898 61.2104 115.051 61.0884 115.152 60.9514C115.253 61.1063 115.38 61.2179 115.532 61.2863C115.683 61.3548 115.884 61.389 116.134 61.389H118.358V57.4242C118.316 57.4064 118.233 57.3782 118.108 57.3394ZM72.6698 59.929C72.5121 60.0986 72.3082 60.1835 72.0581 60.1835C71.8081 60.1835 71.6056 60.0986 71.4508 59.929C71.2959 59.7593 71.2186 59.5495 71.2186 59.2994C71.2186 59.1744 71.2395 59.0583 71.2812 58.9512C71.3227 58.844 71.3793 58.7503 71.4508 58.6699C71.5223 58.5895 71.6101 58.5256 71.7144 58.4779C71.8184 58.4303 71.933 58.4065 72.0581 58.4065C72.1831 58.4065 72.2976 58.4303 72.4019 58.4779C72.506 58.5256 72.5953 58.5895 72.6698 58.6699C72.7441 58.7503 72.8021 58.844 72.8438 58.9512C72.8855 59.0583 72.9063 59.1744 72.9063 59.2994C72.9063 59.5495 72.8275 59.7593 72.6698 59.929Z" fill="#58595D"/>
<path d="M4.84879 59.7814C4.72374 59.8707 4.54054 59.957 4.29946 60.0404C4.05837 60.1238 3.77109 60.1654 3.43779 60.1654C3.16992 60.1654 2.92132 60.1267 2.69221 60.0493C2.46298 59.972 2.265 59.8573 2.09835 59.7055C1.93159 59.5537 1.80065 59.3648 1.70547 59.1385C1.61018 58.9123 1.56263 58.6504 1.56263 58.3526C1.56263 58.061 1.60576 57.799 1.69205 57.5669C1.77834 57.3347 1.90041 57.1368 2.05817 56.973C2.21582 56.8093 2.402 56.6844 2.6163 56.598C2.83059 56.5117 3.06863 56.4685 3.33068 56.4685C3.53905 56.4685 3.72808 56.4924 3.89769 56.54C4.06741 56.5877 4.21763 56.6442 4.34871 56.7096C4.47957 56.7752 4.59122 56.848 4.68354 56.9284C4.77576 57.0087 4.85157 57.0788 4.91118 57.1382C4.95279 57.1145 5.00497 57.0743 5.06744 57.0177C5.13002 56.9612 5.19251 56.8927 5.25509 56.8123C5.31756 56.7319 5.37111 56.6412 5.4158 56.54C5.46037 56.4388 5.48273 56.3316 5.48273 56.2184C5.48273 56.0994 5.45289 55.9849 5.39339 55.8747C5.33389 55.7646 5.23563 55.659 5.09873 55.5577C5.03319 55.5161 4.94686 55.4684 4.83971 55.4148C4.73256 55.3612 4.6032 55.3107 4.45137 55.263C4.29954 55.2154 4.12538 55.1768 3.92898 55.1469C3.73247 55.1172 3.51213 55.1023 3.26819 55.1023C2.80963 55.1023 2.38257 55.1753 1.9868 55.321C1.59081 55.467 1.24556 55.6782 0.950907 55.955C0.656251 56.2318 0.424097 56.5712 0.254483 56.9731C0.0847591 57.3749 0 57.8347 0 58.3526C0 58.8825 0.0877163 59.3469 0.263369 59.7457C0.438912 60.1446 0.676966 60.4779 0.97766 60.7458C1.27825 61.0137 1.62803 61.2146 2.02698 61.3485C2.42571 61.4825 2.84846 61.5494 3.29495 61.5494C3.61035 61.5494 3.8932 61.5256 4.14329 61.478C4.39326 61.4303 4.61053 61.374 4.79519 61.3084C4.97962 61.2429 5.13301 61.176 5.25509 61.1075C5.37695 61.0391 5.47068 60.9811 5.53633 60.9333H5.51846L4.84879 59.7814Z" fill="#58595D"/>
<path d="M9.35768 55.2625C9.12549 55.2625 8.93794 55.3116 8.79512 55.4098C8.65218 55.508 8.58081 55.6792 8.58081 55.9232V61.3882H10.072V55.4053C10.0363 55.3935 9.95143 55.3667 9.81749 55.325C9.68356 55.2834 9.53026 55.2625 9.35768 55.2625Z" fill="#58595D"/>
<path d="M18.2965 55.2625C18.0645 55.2625 17.8768 55.3116 17.734 55.4098C17.5911 55.508 17.5198 55.6792 17.5198 55.9232V58.8611C17.4424 58.7361 17.335 58.5709 17.1983 58.3655C17.0612 58.1601 16.9125 57.9369 16.7518 57.6958C16.5911 57.4547 16.4259 57.2077 16.2561 56.9546C16.0865 56.7017 15.9287 56.471 15.7828 56.2626C15.6369 56.0543 15.5119 55.8786 15.4078 55.7357C15.3036 55.5928 15.2367 55.5066 15.2069 55.4768C15.1712 55.4471 15.0909 55.4039 14.9659 55.3473C14.8408 55.2908 14.674 55.2625 14.4658 55.2625C14.3644 55.2625 14.2648 55.2744 14.1666 55.2982C14.0683 55.322 13.9805 55.3622 13.9032 55.4187C13.8257 55.4754 13.7633 55.5542 13.7157 55.6554C13.668 55.7567 13.6443 55.8846 13.6443 56.0393V61.3882H15.1177V57.6199C15.2248 57.7747 15.3527 57.9623 15.5016 58.1825C15.6503 58.4027 15.8066 58.6378 15.9705 58.8879C16.134 59.1379 16.3008 59.3924 16.4705 59.6514C16.6402 59.9103 16.7993 60.1529 16.9482 60.3791C17.097 60.6054 17.2279 60.8077 17.3411 60.9863C17.4542 61.1649 17.5377 61.2989 17.5912 61.3882H18.9932V55.4053C18.9633 55.3935 18.8829 55.3667 18.752 55.325C18.6209 55.2834 18.4692 55.2625 18.2965 55.2625Z" fill="#58595D"/>
<path d="M27.0741 56.6555C27.1039 56.6079 27.1426 56.5171 27.1902 56.3831C27.2378 56.2492 27.2617 56.1019 27.2617 55.9411C27.2617 55.7209 27.2036 55.5527 27.0875 55.4366C26.9715 55.3205 26.7764 55.2625 26.5026 55.2625H23.4487C22.8594 55.2625 22.5647 55.5453 22.5647 56.1107V61.3882H27.2169V59.9951H24.0559V59.004H26.9581C26.9878 58.9564 27.0264 58.8655 27.0741 58.7316C27.1216 58.5977 27.1456 58.4503 27.1456 58.2896C27.1456 58.0694 27.0875 57.9011 26.9714 57.785C26.8553 57.669 26.6603 57.6109 26.3866 57.6109H24.0559V56.6555H27.0741Z" fill="#58595D"/>
<path d="M36.8119 55.3562C36.6422 55.2937 36.4442 55.2625 36.2181 55.2625C36.0096 55.2625 35.8236 55.3086 35.66 55.4008C35.4962 55.4932 35.3577 55.6673 35.2448 55.9232C35.072 56.2983 34.8831 56.6943 34.6778 57.1109C34.4724 57.5277 34.2625 57.9503 34.0482 58.3789C33.804 57.9145 33.5645 57.4339 33.3293 56.9367C33.0942 56.4398 32.8695 55.9709 32.6551 55.5303C32.6016 55.4827 32.4944 55.4263 32.3337 55.3607C32.173 55.2952 31.9766 55.2625 31.7444 55.2625C31.6312 55.2625 31.524 55.2744 31.4229 55.2982C31.3216 55.322 31.2309 55.3622 31.1505 55.4187C31.0702 55.4754 31.0045 55.5542 30.954 55.6554C30.9034 55.7567 30.8751 55.8817 30.8693 56.0304L30.5657 61.3882H32.0747L32.2712 57.736C32.3664 57.9266 32.4706 58.1364 32.5838 58.3655C32.6967 58.5948 32.8069 58.8254 32.9141 59.0575C33.0212 59.2897 33.124 59.513 33.2221 59.7273C33.3204 59.9416 33.4022 60.1291 33.4677 60.2899H34.575C34.6465 60.1291 34.7283 59.946 34.8206 59.7407C34.9128 59.5353 35.0111 59.3196 35.1153 59.0933C35.2193 58.8671 35.328 58.6378 35.4412 58.4057C35.5543 58.1735 35.6645 57.9474 35.7716 57.727L35.977 61.3882H37.4771L37.1379 55.5036C37.0901 55.4678 36.9816 55.4187 36.8119 55.3562Z" fill="#58595D"/>
<path d="M46.5359 59.6787C46.3781 59.2829 46.2068 58.8647 46.0224 58.4241C45.8379 57.9836 45.6593 57.5624 45.4867 57.1606C45.314 56.7587 45.1547 56.3971 45.0089 56.0756C44.863 55.7541 44.7456 55.519 44.6562 55.3702C44.6442 55.3643 44.6145 55.3464 44.567 55.3166C44.5192 55.2868 44.4567 55.2556 44.3794 55.2228C44.302 55.1902 44.2142 55.1619 44.1159 55.138C44.0178 55.1143 43.9181 55.1023 43.8169 55.1023C43.549 55.1023 43.3331 55.1529 43.1694 55.2541C43.0056 55.3554 42.8673 55.534 42.7542 55.7899C42.5399 56.272 42.3211 56.7721 42.098 57.29C41.8747 57.8079 41.6603 58.3155 41.4549 58.8125C41.2496 59.3097 41.0577 59.78 40.879 60.2234C40.7004 60.667 40.5485 61.0554 40.4236 61.3887H41.9683C42.0517 61.1744 42.1305 60.9632 42.2051 60.7547C42.2794 60.5464 42.3643 60.3172 42.4595 60.0672H45.0581C45.171 60.3529 45.2663 60.6015 45.3438 60.8127C45.4211 61.0241 45.4925 61.2161 45.5581 61.3887H47.2011C47.1534 61.2579 47.0702 61.0391 46.9512 60.7324C46.832 60.4259 46.6935 60.0747 46.5359 59.6787ZM42.9953 58.7187C43.0607 58.5462 43.1322 58.3616 43.2096 58.1651C43.287 57.9687 43.3614 57.7767 43.4329 57.5892C43.5043 57.4016 43.5698 57.232 43.6293 57.0802C43.6888 56.9284 43.7364 56.8109 43.7722 56.7275C43.8079 56.8049 43.857 56.9225 43.9195 57.0802C43.982 57.238 44.049 57.4106 44.1205 57.5981C44.192 57.7856 44.2663 57.9792 44.3438 58.1785C44.4211 58.378 44.4895 58.558 44.549 58.7187H42.9953Z" fill="#58595D"/>
<path d="M55.1709 58.8349C55.0846 58.6325 54.955 58.4598 54.7825 58.3169C54.6098 58.1741 54.3969 58.0535 54.144 57.9553C53.8909 57.8571 53.5979 57.7753 53.2644 57.7097L52.3179 57.5222C52.1394 57.4865 51.9979 57.4494 51.8938 57.4106C51.7895 57.3719 51.7091 57.3302 51.6527 57.2855C51.596 57.2409 51.5603 57.1949 51.5456 57.1472C51.5306 57.0996 51.5231 57.0489 51.5231 56.9953C51.5231 56.9359 51.5335 56.8703 51.5544 56.7989C51.5752 56.7275 51.6199 56.6636 51.6884 56.6069C51.7568 56.5504 51.8595 56.5029 51.9965 56.464C52.1334 56.4254 52.3179 56.406 52.5501 56.406C52.7941 56.406 53.0233 56.4269 53.2376 56.4685C53.4519 56.5102 53.6424 56.5609 53.8091 56.6203C53.9758 56.6799 54.1186 56.7468 54.2378 56.8212C54.3568 56.8957 54.4462 56.9627 54.5057 57.0221C54.5473 56.9924 54.598 56.9493 54.6575 56.8927C54.717 56.8361 54.772 56.7692 54.8226 56.6917C54.8731 56.6144 54.9165 56.5296 54.9521 56.4372C54.9879 56.345 55.0056 56.2483 55.0056 56.147C55.0056 56.0041 54.9596 55.8807 54.8673 55.7765C54.7749 55.6724 54.6784 55.5905 54.5771 55.5309C54.5295 55.5012 54.4535 55.4625 54.3494 55.4148C54.2452 55.3672 54.1097 55.3197 53.9431 55.2719C53.7763 55.2244 53.577 55.1842 53.3448 55.1514C53.1127 55.1188 52.8417 55.1023 52.5323 55.1023C52.1036 55.1023 51.73 55.1544 51.4116 55.2585C51.093 55.3627 50.8296 55.5041 50.6213 55.6827C50.4128 55.8613 50.2582 56.0711 50.157 56.3122C50.0557 56.5533 50.0052 56.8109 50.0052 57.0846C50.0052 57.4003 50.0646 57.6651 50.1837 57.8794C50.3027 58.0937 50.4561 58.2693 50.6436 58.4062C50.8311 58.5433 51.044 58.6504 51.2821 58.7277C51.5201 58.8052 51.7584 58.8647 51.9965 58.9063L52.9073 59.067C53.2227 59.1206 53.4385 59.1936 53.5547 59.2858C53.6707 59.3782 53.7288 59.4956 53.7288 59.6385C53.7288 59.71 53.7169 59.78 53.6932 59.8483C53.6692 59.9169 53.6186 59.9778 53.5413 60.0314C53.4639 60.085 53.3538 60.1282 53.2108 60.1609C53.068 60.1937 52.8774 60.21 52.6394 60.21C52.3476 60.21 52.0768 60.1847 51.8268 60.1341C51.5767 60.0836 51.3565 60.027 51.166 59.9645C50.9754 59.9019 50.8177 59.8394 50.6928 59.777C50.5677 59.7144 50.4874 59.6684 50.4517 59.6385L49.8354 60.8172C49.8652 60.8471 49.956 60.9007 50.1078 60.978C50.2596 61.0554 50.4575 61.1373 50.7017 61.2235C50.9457 61.3099 51.2299 61.3858 51.5544 61.4512C51.8788 61.5167 52.2344 61.5494 52.6215 61.5494C53.4728 61.5494 54.1321 61.374 54.5995 61.0226C55.0668 60.6714 55.3005 60.1832 55.3005 59.5582C55.3005 59.2784 55.2572 59.0373 55.1709 58.8349Z" fill="#58595D"/>
<path d="M102.505 13.6938C100.005 12.6888 97.1645 13.9001 96.1594 16.3995L92.8578 24.6097C92.2899 26.0219 90.2907 26.0219 89.7228 24.6097L86.4212 16.3995C85.4162 13.9001 82.5754 12.6888 80.076 13.6938C77.5766 14.6989 76.3653 17.5397 77.3704 20.0391L85.4693 40.179C87.5782 45.4233 95.0024 45.4233 97.1113 40.179L105.21 20.0391C106.215 17.5397 105.004 14.6989 102.505 13.6938Z" fill="#58595D"/>
<path d="M86.4212 16.3995C85.4162 13.9001 82.5754 12.6888 80.076 13.6938C77.5766 14.6989 76.3653 17.5397 77.3704 20.0391L85.4693 40.179C87.5782 45.4233 95.0024 45.4233 97.1113 40.179L100.983 30.5507C99.3763 34.5471 93.7189 34.5472 92.1119 30.551L86.4212 16.3995Z" fill="#58595D"/>
<path d="M113.481 13.3418C110.787 13.3418 108.603 15.5255 108.603 18.2194V39.236C108.603 41.9299 110.787 44.1136 113.481 44.1136C116.174 44.1136 118.358 41.9299 118.358 39.236V18.2194C118.358 15.5255 116.174 13.3418 113.481 13.3418Z" fill="#58595D"/>
<path d="M118.358 39.236C118.358 28.8847 108.603 28.9907 108.603 18.2195V39.236C108.603 41.9299 110.787 44.1136 113.481 44.1136C116.175 44.1136 118.358 41.9299 118.358 39.236Z" fill="#58595D"/>
<path d="M113.481 10.6349C116.174 10.6349 118.358 8.4511 118.358 5.75726C118.358 3.06342 116.174 0.879639 113.481 0.879639C110.787 0.879639 108.603 3.06342 108.603 5.75726C108.603 8.4511 110.787 10.6349 113.481 10.6349Z" fill="#58595D"/>
<path d="M69.227 13.3427C66.5525 13.3872 64.4324 15.6251 64.4324 18.3V30.837C64.4324 32.7826 62.8552 34.3599 60.9096 34.3599C58.964 34.3599 57.3868 32.7826 57.3868 30.837V18.2197C57.3868 15.498 55.1579 13.2971 52.4259 13.3427C49.7515 13.3874 47.6316 15.6252 47.6316 18.3V30.837C47.6316 38.1703 53.5764 44.115 60.9096 44.115C68.2428 44.115 74.1876 38.1703 74.1876 30.837V18.2197C74.1876 15.4981 71.9589 13.2973 69.227 13.3427Z" fill="#58595D"/>
<path d="M65.769 39.8281C61.1396 39.8281 57.3868 36.0753 57.3868 31.4459V18.2197C57.3868 15.498 55.158 13.2971 52.4259 13.3427C49.7515 13.3874 47.6316 15.6252 47.6316 18.3V30.837C47.6316 38.1703 53.5763 44.115 60.9096 44.115C67.5943 44.115 73.1243 39.175 74.0504 32.7466C73.4252 36.7582 69.9559 39.8281 65.769 39.8281Z" fill="#58595D"/>
<path d="M38.3955 44.1146C35.7209 44.0701 33.6008 41.8323 33.6008 39.1574V26.6203C33.6008 24.6747 32.0237 23.0975 30.0781 23.0975C28.1325 23.0975 26.5552 24.6747 26.5552 26.6203V39.2376C26.5552 41.9593 24.3264 44.1602 21.5944 44.1146C18.9199 44.0699 16.8 41.8321 16.8 39.1573V26.6203C16.8 19.287 22.7448 13.3423 30.0781 13.3423C37.4113 13.3423 43.3561 19.287 43.3561 26.6203V39.2376C43.3561 41.9592 41.1274 44.16 38.3955 44.1146Z" fill="#58595D"/>
<path d="M34.9374 17.6292C30.308 17.6292 26.5553 21.3821 26.5553 26.0115C26.5553 26.1342 26.5553 39.2376 26.5553 39.2376C26.5553 41.9593 24.3264 44.1602 21.5944 44.1146C18.92 44.0699 16.8 41.8321 16.8 39.1573V26.6203C16.8 19.287 22.7448 13.3423 30.0781 13.3423C36.7627 13.3423 42.2928 18.2823 43.2188 24.7107C42.5937 20.6991 39.1243 17.6292 34.9374 17.6292Z" fill="#58595D"/>
<path d="M21.5953 44.1143C18.9208 44.0698 16.8008 41.832 16.8008 39.1571V26.62C16.8008 24.6744 15.2236 23.0972 13.278 23.0972C11.3324 23.0972 9.75514 24.6744 9.75514 26.62V39.2374C9.75514 41.9591 7.52632 44.1599 4.79434 44.1143C2.11988 44.0697 0 41.8319 0 39.157V26.62C0 19.2868 5.94469 13.342 13.2779 13.342C20.6111 13.342 26.556 19.2868 26.556 26.62V39.2374C26.556 41.959 24.3273 44.1598 21.5953 44.1143Z" fill="#58595D"/>
<path d="M18.1374 17.629C13.508 17.629 9.75514 21.3818 9.75514 26.0112C9.75514 26.134 9.75514 39.2374 9.75514 39.2374C9.75514 41.9591 7.52639 44.1599 4.79434 44.1143C2.11992 44.0697 0 41.8318 0 39.157V26.62C0 19.2868 5.94475 13.342 13.278 13.342C19.9627 13.342 25.4927 18.2821 26.4188 24.7105C25.7937 20.6989 22.3243 17.629 18.1374 17.629Z" fill="#58595D"/>
</svg>
