<svg width="178" height="45" viewBox="0 0 178 45" fill="none" xmlns="http://www.w3.org/2000/svg">
<g clip-path="url(#clip0_193_2276)">
<path d="M0 16.9L19.5 20.2L23.1 27.4L29.6 21.1L43.2 23.6L34.7 18.3L37.9 12.4L25.1 12.8L34.2 0L41.8 11.4L63.2 8.2L46.3 19.4L48.9 30.1L30.7 26.6L11.7 35.3L17.7 22.6L0 16.9Z" fill="#58595D"/>
<path d="M83.9 8.80005V4.50005C83.9 4.50005 82.1 3.40005 76.9 3.30005C71.7 3.20005 66.7 5.90005 66.7 9.80005C66.7 13.7001 71.9 15.9001 73.2 16.6001C74.5 17.3001 79 19.4001 78.7 22.1001C78.4 24.8001 72.7 25.7001 68 23.1001V27.3001C68 27.3001 70 28.8001 76.4 28.7001C82.8 28.6001 86.1 24.7001 86.2 22.3001C86.3 19.9001 85.2 17.8001 79.8 14.8001C74.4 11.8001 73.5 10.6001 74.4 9.00005C75.3 7.40005 80.2 6.20005 83.9 8.80005Z" fill="#58595D"/>
<path d="M90.6 7.2999V3.8999H111V7.3999H104.9V28.2999H97.1V7.2999H90.6Z" fill="#58595D"/>
<path d="M119.6 28.3H112.1L122.2 3.80005H127.7L137.6 28.4H130L128.2 23.7001H121.3L119.6 28.3ZM127.3 20.4L124.8 12.3L122.3 20.4H127.3Z" fill="#58595D"/>
<path d="M151.2 17.2999V28.3999H143.9V3.79992H152.6C152.6 3.79992 163.8 3.29992 163.4 10.4999C163 16.0999 157.4 16.8999 157.4 16.8999L165.5 28.2999H157.8L151.2 17.2999ZM155.6 11.0999C155.6 6.99992 151.3 7.29992 151.3 7.29992V14.1999C151.3 14.1999 155.6 14.6999 155.6 11.0999Z" fill="#58595D"/>
<path d="M30.5 36.2001H33.2C32.9 34.1001 31 32.5001 28.9 32.6001C24.9 32.6001 23.9 36.3001 23.9 38.6001C23.9 40.9001 24.8 44.7001 28.9 44.6001C31.2 44.7001 33.1 43.0001 33.2 40.8001H30.8C30.8 40.8001 30.9 43.3001 28.8 43.3001C26.7 43.3001 26.7 39.7001 26.7 38.8001C26.7 37.9001 26.9 34.1001 29 34.1001C31.1 34.1001 30.5 36.2001 30.5 36.2001Z" fill="#58595D"/>
<path d="M40.4 32.7998H37.6V44.3998H40.4V32.7998Z" fill="#58595D"/>
<path d="M48.7 44.2998H46.1V32.7998H49.6L54.5 41.6998V32.7998H56.9V44.2998H53.5L48.7 35.1998V44.2998Z" fill="#58595D"/>
<path d="M69.8 44.3998H61.9V32.7998H69.6V34.0998H64.4V37.4998H68.5V38.9998H64.6V43.1998H69.8V44.3998Z" fill="#58595D"/>
<path d="M76.5 44.3998H73.9V32.7998H78L81 41.9998L83.8 32.7998H87.9V44.2998H85.3V35.8998L82.4 44.2998H79.7L76.5 34.7998V44.3998Z" fill="#58595D"/>
<path d="M95.2 41.1998L94.4 44.3998H91.4L95.6 32.7998H98.7L102.9 44.3998H99.9L99.1 41.1998H95.2ZM98.7 39.6998L97.3 33.9998L95.6 39.6998H98.7Z" fill="#58595D"/>
<path d="M114.7 35.2001L118.4 34.3001C118.4 34.3001 117.4 31.6001 112.4 31.6001C107.4 31.6001 106.2 34.5001 106.2 36.9001V40.0001C106.2 40.0001 106.2 44.8001 110.6 44.8001H114.3C114.3 44.8001 118.1 44.3001 118.2 41.9001C118.3 39.5001 118.2 37.8001 118.2 37.8001H112.2V39.4001H114.4V41.0001C114.4 41.8001 113.8 42.4001 113 42.5001C113 42.5001 113 42.5001 112.9 42.5001H112C112 42.5001 110.3 42.5001 110.2 40.5001C110.2 38.8001 110.2 35.1001 110.2 35.1001C110.2 35.1001 110.4 33.4001 112.5 33.4001C113.7 33.3001 114.6 34.1001 114.7 35.2001Z" fill="#58595D"/>
<path d="M129.4 38.9998V44.3998H125.6V31.7998H131.1C131.1 31.7998 135.3 31.8998 135.3 35.1998C135.4 36.8998 134 38.3998 132.3 38.4998L136.7 44.2998H132.6L129.4 38.9998ZM131.5 35.4998C131.5 34.4998 130.8 33.6998 129.8 33.5998C129.7 33.5998 129.6 33.5998 129.5 33.5998V37.0998C129.4 37.1998 131.5 37.2998 131.5 35.4998Z" fill="#58595D"/>
<path d="M146.4 31.7002H142.6V44.4002H146.4V31.7002Z" fill="#58595D"/>
<path d="M158 42.4998H163.1V44.5998H154.2V31.7998H158V42.4998Z" fill="#58595D"/>
<path d="M172.6 42.4998H177.7V44.5998H168.8V31.7998H172.6V42.4998Z" fill="#58595D"/>
</g>
<defs>
<clipPath id="clip0_193_2276">
<rect width="177.7" height="44.6" fill="white"/>
</clipPath>
</defs>
</svg>
